<svg width="55" height="55" viewBox="0 0 55 55" fill="none" xmlns="http://www.w3.org/2000/svg">
<rect width="55" height="55" rx="27.5" fill="white"/>
<path d="M16.7857 39.245H23.3786V30.3351C23.3786 29.9338 23.5173 29.5975 23.7946 29.326C24.0708 29.0534 24.4131 28.9171 24.8214 28.9171H30.1786C30.5869 28.9171 30.9298 29.0534 31.2071 29.326C31.4833 29.5975 31.6214 29.9338 31.6214 30.3351V39.245H38.2143V23.991C38.2143 23.8108 38.1744 23.647 38.0946 23.4996C38.0149 23.3522 37.906 23.2235 37.7679 23.1135L28.1536 15.9919C27.9702 15.8351 27.7524 15.7567 27.5 15.7567C27.2476 15.7567 27.0304 15.8351 26.8482 15.9919L17.2321 23.1135C17.0952 23.2258 16.9863 23.3545 16.9054 23.4996C16.8244 23.6447 16.7845 23.8084 16.7857 23.991V39.245ZM15 39.245V23.991C15 23.5417 15.1024 23.1164 15.3071 22.7151C15.5119 22.3138 15.794 21.9833 16.1536 21.7236L25.7696 14.5669C26.2732 14.189 26.8482 14 27.4946 14C28.1411 14 28.7196 14.189 29.2304 14.5669L38.8464 21.7218C39.2071 21.9815 39.4893 22.3126 39.6929 22.7151C39.8976 23.1164 40 23.5417 40 23.991V39.245C40 39.7154 39.822 40.1254 39.4661 40.4753C39.1101 40.8251 38.6929 41 38.2143 41H31.2786C30.869 41 30.5262 40.8643 30.25 40.5928C29.9738 40.3202 29.8357 39.9833 29.8357 39.582V30.6738H25.1643V39.582C25.1643 39.9845 25.0262 40.3214 24.75 40.5928C24.4738 40.8643 24.1315 41 23.7232 41H16.7857C16.3071 41 15.8899 40.8251 15.5339 40.4753C15.178 40.1254 15 39.7154 15 39.245Z" fill="#038750"/>
</svg>
