<svg width="66" height="66" viewBox="0 0 66 66" fill="none" xmlns="http://www.w3.org/2000/svg">
<rect width="66" height="66" rx="33" fill="#038750"/>
<path d="M23.25 49H42.75C44.5375 49 46 47.56 46 45.8V31.4C46 29.64 44.5375 28.2 42.75 28.2H41.125V25C41.125 20.584 37.485 17 33 17C28.515 17 24.875 20.584 24.875 25V28.2H23.25C21.4625 28.2 20 29.64 20 31.4V45.8C20 47.56 21.4625 49 23.25 49ZM28.125 25C28.125 22.36 30.3188 20.2 33 20.2C35.6812 20.2 37.875 22.36 37.875 25V28.2H28.125V25Z" fill="white"/>
</svg>
