<svg width="48" height="44" viewBox="0 0 48 44" fill="none" xmlns="http://www.w3.org/2000/svg">
<path d="M31.8165 43.6307L15.9082 38.5404L3.57935 42.9035C2.69556 43.2267 1.87805 43.1362 1.12683 42.632C0.375611 42.1279 0 41.4508 0 40.6008V6.6658C0 6.14062 0.166152 5.67603 0.498458 5.27204C0.830763 4.86805 1.28326 4.56506 1.85596 4.36307L15.9082 0L31.8165 5.09025L44.1453 0.727178C45.0291 0.403988 45.8466 0.495289 46.5978 1.00108C47.3491 1.50688 47.7247 2.18315 47.7247 3.02991V36.9649C47.7247 37.4901 47.5594 37.9547 47.2289 38.3587C46.8983 38.7626 46.4449 39.0656 45.8687 39.2676L31.8165 43.6307ZM29.1651 37.6921V9.33212L18.5596 5.93862V34.2986L29.1651 37.6921ZM34.4678 37.6921L42.4219 35.2681V6.5446L34.4678 9.33212V37.6921ZM5.30274 37.0861L13.2569 34.2986V5.93862L5.30274 8.36255V37.0861Z" fill="#038750"/>
</svg>
