<svg width="353" height="324" viewBox="0 0 353 324" fill="none" xmlns="http://www.w3.org/2000/svg">
<rect x="1.45538" y="1.45538" width="349.835" height="320.533" fill="white" stroke="#CCE7D7" stroke-width="2.91077"/>
<rect width="51.2149" height="50.11" transform="matrix(0 1 1 0 41.3008 197.271)" fill="#C3E2DA"/>
<rect width="51.2149" height="48.9338" transform="matrix(0 1 1 0 54.2363 235.743)" fill="#CCE7D7"/>
<rect width="51.2149" height="48.9338" transform="matrix(0 1 1 0 101.059 261.471)" fill="#F0E2AD"/>
<rect width="51.2149" height="48.9338" transform="matrix(0 1 1 0 107.177 176.594)" fill="#CCE7D7"/>
<rect width="51.2149" height="48.9338" transform="matrix(0 1 1 0 125.521 222.999)" fill="#F0E2AD"/>
<rect width="51.2149" height="50.11" transform="matrix(0 1 1 0 76.5898 176.594)" fill="#FFC7C3"/>
<g filter="url(#filter0_d_1102_26072)">
<rect width="51.2149" height="50.11" transform="matrix(0 1 1 0 91.4082 210.257)" fill="#DCDCDC"/>
</g>
<rect x="183.392" y="61.4561" width="50.11" height="50.0127" fill="#F0E2AD"/>
<rect x="221.506" y="86.4629" width="50.11" height="50.0127" fill="#CCE7D7"/>
<rect x="262.676" y="35.248" width="50.11" height="50.0127" fill="#CCE7D7"/>
<rect x="183.159" y="105.217" width="50.11" height="50.0127" fill="#FFC7C3"/>
<rect x="208.335" y="20.8203" width="50.11" height="50.0127" fill="#C3E2DA"/>
<rect x="246.682" y="75.6426" width="50.11" height="50.0127" fill="#F0E2AD"/>
<g filter="url(#filter1_d_1102_26072)">
<rect x="212.567" y="60.2549" width="50.11" height="51.2149" fill="#DCDCDC"/>
</g>
<rect x="61.5352" y="20.8203" width="50.11" height="51.2149" fill="#C3E2DA"/>
<rect x="111.643" y="56.8877" width="50.11" height="50.0127" fill="#CCE7D7"/>
<rect x="41.3008" y="88.1455" width="50.11" height="50.0127" fill="#CCE7D7"/>
<rect x="86.7051" y="106.9" width="50.11" height="50.0127" fill="#F0E2AD"/>
<rect x="41.3008" y="56.8877" width="50.11" height="51.2149" fill="#FFC7C3"/>
<g filter="url(#filter2_d_1102_26072)">
<rect x="74.2402" y="72.0352" width="50.11" height="51.2149" fill="#DCDCDC"/>
</g>
<path d="M90.5117 94.9164V98.5527H90.0856L88.104 95.6976H88.0685V98.5527H87.6282V94.9164H88.0543L90.0429 97.7786H90.0785V94.9164H90.5117ZM92.1386 98.6167C91.9657 98.6167 91.8089 98.5841 91.668 98.519C91.5272 98.4527 91.4153 98.3574 91.3325 98.2331C91.2496 98.1077 91.2082 97.9561 91.2082 97.7786C91.2082 97.6223 91.2389 97.4957 91.3005 97.3986C91.362 97.3004 91.4443 97.2234 91.5473 97.1678C91.6503 97.1122 91.7639 97.0707 91.8882 97.0435C92.0137 97.0151 92.1397 96.9926 92.2664 96.976C92.4321 96.9547 92.5665 96.9387 92.6695 96.9281C92.7736 96.9163 92.8494 96.8967 92.8967 96.8695C92.9453 96.8423 92.9695 96.7949 92.9695 96.7275V96.7132C92.9695 96.5381 92.9216 96.4019 92.8257 96.3049C92.731 96.2078 92.5872 96.1593 92.3942 96.1593C92.1942 96.1593 92.0374 96.2031 91.9237 96.2907C91.8101 96.3783 91.7302 96.4718 91.684 96.5712L91.2863 96.4292C91.3573 96.2634 91.452 96.1344 91.5704 96.0421C91.6899 95.9486 91.8201 95.8835 91.961 95.8468C92.1031 95.8089 92.2427 95.79 92.38 95.79C92.4676 95.79 92.5683 95.8006 92.6819 95.8219C92.7967 95.842 92.9074 95.8841 93.0139 95.948C93.1216 96.0119 93.211 96.1084 93.282 96.2374C93.3531 96.3664 93.3886 96.5392 93.3886 96.7559V98.5527H92.9695V98.1834H92.9482C92.9198 98.2426 92.8725 98.3059 92.8062 98.3734C92.7399 98.4409 92.6517 98.4983 92.5416 98.5456C92.4315 98.593 92.2972 98.6167 92.1386 98.6167ZM92.2025 98.2402C92.3682 98.2402 92.5079 98.2077 92.6215 98.1426C92.7363 98.0775 92.8227 97.9934 92.8808 97.8904C92.9399 97.7875 92.9695 97.6792 92.9695 97.5655V97.182C92.9518 97.2033 92.9127 97.2228 92.8523 97.2406C92.7932 97.2572 92.7245 97.272 92.6464 97.285C92.5694 97.2968 92.4943 97.3075 92.4209 97.3169C92.3487 97.3252 92.2901 97.3323 92.2451 97.3382C92.1362 97.3525 92.0344 97.3755 91.9397 97.4075C91.8462 97.4383 91.7704 97.485 91.7124 97.5478C91.6556 97.6093 91.6272 97.6934 91.6272 97.7999C91.6272 97.9455 91.6811 98.0556 91.7888 98.1301C91.8977 98.2035 92.0356 98.2402 92.2025 98.2402ZM96.2858 95.8255L95.2773 98.5527H94.8512L93.8427 95.8255H94.2972L95.0501 97.9988H95.0785L95.8313 95.8255H96.2858ZM96.8389 98.5527V95.8255H97.258V98.5527H96.8389ZM97.052 95.3709C96.9703 95.3709 96.8999 95.3431 96.8407 95.2875C96.7827 95.2318 96.7537 95.165 96.7537 95.0868C96.7537 95.0087 96.7827 94.9418 96.8407 94.8862C96.8999 94.8306 96.9703 94.8027 97.052 94.8027C97.1337 94.8027 97.2035 94.8306 97.2615 94.8862C97.3207 94.9418 97.3503 95.0087 97.3503 95.0868C97.3503 95.165 97.3207 95.2318 97.2615 95.2875C97.2035 95.3431 97.1337 95.3709 97.052 95.3709ZM99.1263 99.6323C98.9239 99.6323 98.7499 99.6062 98.6043 99.5542C98.4587 99.5033 98.3374 99.4358 98.2403 99.3517C98.1444 99.2689 98.0681 99.1801 98.0113 99.0854L98.3451 98.851C98.3829 98.9007 98.4309 98.9576 98.4889 99.0215C98.5469 99.0866 98.6262 99.1428 98.7268 99.1902C98.8286 99.2387 98.9618 99.263 99.1263 99.263C99.3465 99.263 99.5282 99.2097 99.6714 99.1032C99.8146 98.9966 99.8863 98.8297 99.8863 98.6025V98.0485H99.8507C99.82 98.0982 99.7762 98.1597 99.7194 98.2331C99.6637 98.3053 99.5832 98.3699 99.4779 98.4267C99.3737 98.4823 99.2328 98.5101 99.0553 98.5101C98.8351 98.5101 98.6374 98.458 98.4622 98.3539C98.2882 98.2497 98.1503 98.0982 98.0485 97.8993C97.9479 97.7005 97.8976 97.459 97.8976 97.1749C97.8976 96.8955 97.9467 96.6523 98.045 96.4451C98.1432 96.2368 98.28 96.0758 98.4551 95.9622C98.6303 95.8474 98.8328 95.79 99.0624 95.79C99.2399 95.79 99.3808 95.8195 99.485 95.8787C99.5903 95.9367 99.6708 96.003 99.7265 96.0776C99.7833 96.151 99.8271 96.2114 99.8578 96.2587H99.9005V95.8255H100.305V98.6309C100.305 98.8652 100.252 99.0558 100.145 99.2026C100.04 99.3506 99.8981 99.4589 99.7194 99.5275C99.5418 99.5974 99.3441 99.6323 99.1263 99.6323ZM99.1121 98.1337C99.2802 98.1337 99.4222 98.0952 99.5382 98.0183C99.6542 97.9413 99.7424 97.8307 99.8028 97.6863C99.8632 97.5418 99.8934 97.369 99.8934 97.1678C99.8934 96.9713 99.8638 96.7979 99.8046 96.6475C99.7454 96.4972 99.6578 96.3794 99.5418 96.2942C99.4258 96.209 99.2826 96.1664 99.1121 96.1664C98.9346 96.1664 98.7866 96.2114 98.6682 96.3013C98.551 96.3913 98.4628 96.512 98.4037 96.6635C98.3457 96.815 98.3167 96.9831 98.3167 97.1678C98.3167 97.3572 98.3462 97.5247 98.4054 97.6703C98.4658 97.8147 98.5546 97.9283 98.6718 98.0112C98.7901 98.0929 98.9369 98.1337 99.1121 98.1337ZM101.875 98.6167C101.702 98.6167 101.545 98.5841 101.404 98.519C101.264 98.4527 101.152 98.3574 101.069 98.2331C100.986 98.1077 100.944 97.9561 100.944 97.7786C100.944 97.6223 100.975 97.4957 101.037 97.3986C101.098 97.3004 101.181 97.2234 101.284 97.1678C101.387 97.1122 101.5 97.0707 101.625 97.0435C101.75 97.0151 101.876 96.9926 102.003 96.976C102.168 96.9547 102.303 96.9387 102.406 96.9281C102.51 96.9163 102.586 96.8967 102.633 96.8695C102.682 96.8423 102.706 96.7949 102.706 96.7275V96.7132C102.706 96.5381 102.658 96.4019 102.562 96.3049C102.467 96.2078 102.324 96.1593 102.131 96.1593C101.931 96.1593 101.774 96.2031 101.66 96.2907C101.546 96.3783 101.467 96.4718 101.42 96.5712L101.023 96.4292C101.094 96.2634 101.188 96.1344 101.307 96.0421C101.426 95.9486 101.556 95.8835 101.697 95.8468C101.839 95.8089 101.979 95.79 102.116 95.79C102.204 95.79 102.305 95.8006 102.418 95.8219C102.533 95.842 102.644 95.8841 102.75 95.948C102.858 96.0119 102.947 96.1084 103.018 96.2374C103.089 96.3664 103.125 96.5392 103.125 96.7559V98.5527H102.706V98.1834H102.685C102.656 98.2426 102.609 98.3059 102.543 98.3734C102.476 98.4409 102.388 98.4983 102.278 98.5456C102.168 98.593 102.034 98.6167 101.875 98.6167ZM101.939 98.2402C102.105 98.2402 102.244 98.2077 102.358 98.1426C102.473 98.0775 102.559 97.9934 102.617 97.8904C102.676 97.7875 102.706 97.6792 102.706 97.5655V97.182C102.688 97.2033 102.649 97.2228 102.589 97.2406C102.529 97.2572 102.461 97.272 102.383 97.285C102.306 97.2968 102.231 97.3075 102.157 97.3169C102.085 97.3252 102.026 97.3323 101.981 97.3382C101.873 97.3525 101.771 97.3755 101.676 97.4075C101.583 97.4383 101.507 97.485 101.449 97.5478C101.392 97.6093 101.364 97.6934 101.364 97.7999C101.364 97.9455 101.417 98.0556 101.525 98.1301C101.634 98.2035 101.772 98.2402 101.939 98.2402ZM105.076 95.8255V96.1806H103.662V95.8255H105.076ZM104.074 95.1721H104.493V97.7715C104.493 97.8899 104.511 97.9786 104.545 98.0378C104.58 98.0958 104.625 98.1349 104.68 98.155C104.735 98.1739 104.794 98.1834 104.856 98.1834C104.902 98.1834 104.94 98.181 104.969 98.1763C104.999 98.1704 105.023 98.1657 105.04 98.1621L105.126 98.5385C105.097 98.5492 105.057 98.5598 105.007 98.5705C104.956 98.5823 104.891 98.5882 104.813 98.5882C104.695 98.5882 104.579 98.5628 104.465 98.5119C104.353 98.461 104.259 98.3835 104.184 98.2793C104.111 98.1751 104.074 98.0437 104.074 97.8851V95.1721ZM105.706 98.5527V95.8255H106.125V98.5527H105.706ZM105.919 95.3709C105.838 95.3709 105.767 95.3431 105.708 95.2875C105.65 95.2318 105.621 95.165 105.621 95.0868C105.621 95.0087 105.65 94.9418 105.708 94.8862C105.767 94.8306 105.838 94.8027 105.919 94.8027C106.001 94.8027 106.071 94.8306 106.129 94.8862C106.188 94.9418 106.217 95.0087 106.217 95.0868C106.217 95.165 106.188 95.2318 106.129 95.2875C106.071 95.3431 106.001 95.3709 105.919 95.3709ZM108.001 98.6096C107.754 98.6096 107.538 98.551 107.353 98.4338C107.168 98.3166 107.023 98.1526 106.919 97.9419C106.816 97.7312 106.765 97.485 106.765 97.2033C106.765 96.9192 106.816 96.6712 106.919 96.4593C107.023 96.2475 107.168 96.0829 107.353 95.9657C107.538 95.8485 107.754 95.79 108.001 95.79C108.247 95.79 108.462 95.8485 108.647 95.9657C108.833 96.0829 108.977 96.2475 109.08 96.4593C109.184 96.6712 109.236 96.9192 109.236 97.2033C109.236 97.485 109.184 97.7312 109.08 97.9419C108.977 98.1526 108.833 98.3166 108.647 98.4338C108.462 98.551 108.247 98.6096 108.001 98.6096ZM108.001 98.2331C108.188 98.2331 108.342 98.1852 108.462 98.0893C108.583 97.9934 108.672 97.8674 108.73 97.7111C108.788 97.5549 108.817 97.3856 108.817 97.2033C108.817 97.021 108.788 96.8511 108.73 96.6937C108.672 96.5363 108.583 96.409 108.462 96.312C108.342 96.2149 108.188 96.1664 108.001 96.1664C107.814 96.1664 107.66 96.2149 107.539 96.312C107.418 96.409 107.329 96.5363 107.271 96.6937C107.213 96.8511 107.184 97.021 107.184 97.2033C107.184 97.3856 107.213 97.5549 107.271 97.7111C107.329 97.8674 107.418 97.9934 107.539 98.0893C107.66 98.1852 107.814 98.2331 108.001 98.2331ZM110.295 96.9121V98.5527H109.876V95.8255H110.281V96.2516H110.316C110.38 96.1131 110.477 96.0018 110.608 95.9178C110.738 95.8326 110.906 95.79 111.112 95.79C111.297 95.79 111.458 95.8278 111.597 95.9036C111.735 95.9782 111.843 96.0918 111.92 96.2445C111.997 96.396 112.035 96.5878 112.035 96.8198V98.5527H111.616V96.8482C111.616 96.6339 111.56 96.467 111.449 96.3475C111.338 96.2267 111.185 96.1664 110.991 96.1664C110.857 96.1664 110.738 96.1954 110.632 96.2534C110.528 96.3114 110.446 96.396 110.386 96.5073C110.325 96.6185 110.295 96.7535 110.295 96.9121Z" fill="black"/>
<path d="M224.729 82.3564H224.289C224.263 82.2298 224.217 82.1185 224.152 82.0226C224.088 81.9268 224.01 81.8463 223.918 81.7812C223.827 81.7149 223.726 81.6652 223.614 81.632C223.503 81.5989 223.387 81.5823 223.266 81.5823C223.046 81.5823 222.847 81.6379 222.668 81.7492C222.49 81.8605 222.349 82.0244 222.244 82.241C222.139 82.4577 222.087 82.7234 222.087 83.0383C222.087 83.3531 222.139 83.6189 222.244 83.8355C222.349 84.0521 222.49 84.2161 222.668 84.3273C222.847 84.4386 223.046 84.4942 223.266 84.4942C223.387 84.4942 223.503 84.4777 223.614 84.4445C223.726 84.4114 223.827 84.3622 223.918 84.2971C224.01 84.2309 224.088 84.1498 224.152 84.0539C224.217 83.9568 224.263 83.8456 224.289 83.7201H224.729C224.696 83.9059 224.636 84.0722 224.548 84.219C224.461 84.3658 224.352 84.4907 224.222 84.5937C224.091 84.6955 223.945 84.773 223.783 84.8263C223.622 84.8795 223.45 84.9062 223.266 84.9062C222.956 84.9062 222.68 84.8304 222.439 84.6789C222.197 84.5274 222.007 84.3119 221.869 84.0326C221.73 83.7532 221.661 83.4218 221.661 83.0383C221.661 82.6547 221.73 82.3233 221.869 82.0439C222.007 81.7646 222.197 81.5492 222.439 81.3976C222.68 81.2461 222.956 81.1704 223.266 81.1704C223.45 81.1704 223.622 81.197 223.783 81.2503C223.945 81.3035 224.091 81.3817 224.222 81.4846C224.352 81.5864 224.461 81.7107 224.548 81.8575C224.636 82.0031 224.696 82.1694 224.729 82.3564ZM226.492 84.9133C226.246 84.9133 226.03 84.8547 225.844 84.7375C225.659 84.6203 225.515 84.4564 225.411 84.2456C225.308 84.0349 225.256 83.7887 225.256 83.507C225.256 83.2229 225.308 82.9749 225.411 82.7631C225.515 82.5512 225.659 82.3866 225.844 82.2694C226.03 82.1523 226.246 82.0937 226.492 82.0937C226.738 82.0937 226.954 82.1523 227.138 82.2694C227.324 82.3866 227.469 82.5512 227.572 82.7631C227.676 82.9749 227.728 83.2229 227.728 83.507C227.728 83.7887 227.676 84.0349 227.572 84.2456C227.469 84.4564 227.324 84.6203 227.138 84.7375C226.954 84.8547 226.738 84.9133 226.492 84.9133ZM226.492 84.5368C226.679 84.5368 226.833 84.4889 226.954 84.393C227.074 84.2971 227.164 84.1711 227.222 84.0148C227.28 83.8586 227.309 83.6893 227.309 83.507C227.309 83.3247 227.28 83.1549 227.222 82.9974C227.164 82.84 227.074 82.7127 226.954 82.6157C226.833 82.5186 226.679 82.4701 226.492 82.4701C226.305 82.4701 226.151 82.5186 226.03 82.6157C225.91 82.7127 225.82 82.84 225.762 82.9974C225.704 83.1549 225.675 83.3247 225.675 83.507C225.675 83.6893 225.704 83.8586 225.762 84.0148C225.82 84.1711 225.91 84.2971 226.03 84.393C226.151 84.4889 226.305 84.5368 226.492 84.5368ZM228.787 83.2158V84.8564H228.368V82.1292H228.772V82.5553H228.808C228.872 82.4168 228.969 82.3055 229.099 82.2215C229.229 82.1363 229.397 82.0937 229.603 82.0937C229.788 82.0937 229.95 82.1315 230.088 82.2073C230.227 82.2819 230.334 82.3955 230.411 82.5482C230.488 82.6997 230.527 82.8915 230.527 83.1235V84.8564H230.108V83.1519C230.108 82.9376 230.052 82.7707 229.941 82.6512C229.829 82.5305 229.677 82.4701 229.483 82.4701C229.349 82.4701 229.229 82.4991 229.124 82.5571C229.02 82.6151 228.937 82.6997 228.877 82.811C228.817 82.9223 228.787 83.0572 228.787 83.2158ZM231.711 83.2158V84.8564H231.292V82.1292H231.697V82.5553H231.733C231.797 82.4168 231.894 82.3055 232.024 82.2215C232.154 82.1363 232.322 82.0937 232.528 82.0937C232.713 82.0937 232.874 82.1315 233.013 82.2073C233.151 82.2819 233.259 82.3955 233.336 82.5482C233.413 82.6997 233.451 82.8915 233.451 83.1235V84.8564H233.032V83.1519C233.032 82.9376 232.977 82.7707 232.865 82.6512C232.754 82.5305 232.602 82.4701 232.407 82.4701C232.274 82.4701 232.154 82.4991 232.049 82.5571C231.945 82.6151 231.862 82.6997 231.802 82.811C231.742 82.9223 231.711 83.0572 231.711 83.2158ZM235.02 84.9204C234.847 84.9204 234.69 84.8878 234.549 84.8227C234.408 84.7564 234.296 84.6611 234.214 84.5368C234.131 84.4114 234.089 84.2599 234.089 84.0823C234.089 83.926 234.12 83.7994 234.182 83.7023C234.243 83.6041 234.325 83.5271 234.428 83.4715C234.531 83.4159 234.645 83.3744 234.769 83.3472C234.895 83.3188 235.021 83.2963 235.148 83.2797C235.313 83.2584 235.448 83.2425 235.551 83.2318C235.655 83.22 235.731 83.2004 235.778 83.1732C235.826 83.146 235.851 83.0986 235.851 83.0312V83.017C235.851 82.8418 235.803 82.7056 235.707 82.6086C235.612 82.5115 235.468 82.463 235.275 82.463C235.075 82.463 234.918 82.5068 234.805 82.5944C234.691 82.682 234.611 82.7755 234.565 82.8749L234.167 82.7329C234.238 82.5671 234.333 82.4381 234.452 82.3458C234.571 82.2523 234.701 82.1872 234.842 82.1505C234.984 82.1126 235.124 82.0937 235.261 82.0937C235.349 82.0937 235.449 82.1043 235.563 82.1256C235.678 82.1457 235.789 82.1878 235.895 82.2517C236.003 82.3156 236.092 82.4121 236.163 82.5411C236.234 82.6701 236.27 82.843 236.27 83.0596V84.8564H235.851V84.4871H235.829C235.801 84.5463 235.754 84.6096 235.687 84.6771C235.621 84.7446 235.533 84.802 235.423 84.8493C235.313 84.8967 235.178 84.9204 235.02 84.9204ZM235.084 84.5439C235.249 84.5439 235.389 84.5114 235.503 84.4463C235.617 84.3812 235.704 84.2971 235.762 84.1942C235.821 84.0912 235.851 83.9829 235.851 83.8692V83.4857C235.833 83.507 235.794 83.5265 235.733 83.5443C235.674 83.5609 235.606 83.5757 235.528 83.5887C235.451 83.6005 235.375 83.6112 235.302 83.6206C235.23 83.6289 235.171 83.636 235.126 83.642C235.017 83.6562 234.916 83.6792 234.821 83.7112C234.727 83.742 234.652 83.7887 234.594 83.8515C234.537 83.913 234.508 83.9971 234.508 84.1036C234.508 84.2492 234.562 84.3593 234.67 84.4339C234.779 84.5073 234.917 84.5439 235.084 84.5439ZM237.035 84.8564V82.1292H237.454V84.8564H237.035ZM237.248 81.6746C237.166 81.6746 237.095 81.6468 237.036 81.5912C236.978 81.5355 236.949 81.4687 236.949 81.3905C236.949 81.3124 236.978 81.2455 237.036 81.1899C237.095 81.1343 237.166 81.1064 237.248 81.1064C237.329 81.1064 237.399 81.1343 237.457 81.1899C237.516 81.2455 237.546 81.3124 237.546 81.3905C237.546 81.4687 237.516 81.5355 237.457 81.5912C237.399 81.6468 237.329 81.6746 237.248 81.6746ZM240.153 82.74L239.776 82.8465C239.753 82.7838 239.718 82.7228 239.672 82.6636C239.627 82.6032 239.565 82.5535 239.487 82.5145C239.409 82.4754 239.309 82.4559 239.187 82.4559C239.02 82.4559 238.881 82.4943 238.77 82.5713C238.66 82.647 238.605 82.7435 238.605 82.8607C238.605 82.9649 238.642 83.0471 238.718 83.1075C238.794 83.1679 238.912 83.2182 239.073 83.2584L239.478 83.3579C239.722 83.4171 239.904 83.5076 240.023 83.6295C240.143 83.7503 240.203 83.9059 240.203 84.0965C240.203 84.2528 240.158 84.3924 240.068 84.5155C239.979 84.6386 239.855 84.7357 239.695 84.8067C239.535 84.8778 239.349 84.9133 239.137 84.9133C238.859 84.9133 238.629 84.8529 238.447 84.7322C238.264 84.6114 238.149 84.435 238.1 84.203L238.498 84.1036C238.536 84.2504 238.608 84.3605 238.713 84.4339C238.819 84.5073 238.959 84.5439 239.13 84.5439C239.325 84.5439 239.481 84.5025 239.595 84.4197C239.711 84.3356 239.769 84.235 239.769 84.1178C239.769 84.0231 239.736 83.9438 239.67 83.8799C239.604 83.8148 239.502 83.7662 239.365 83.7343L238.91 83.6278C238.66 83.5686 238.477 83.4768 238.36 83.3525C238.244 83.2271 238.186 83.0702 238.186 82.882C238.186 82.7281 238.229 82.592 238.315 82.4736C238.403 82.3553 238.522 82.2623 238.672 82.1949C238.824 82.1274 238.995 82.0937 239.187 82.0937C239.457 82.0937 239.669 82.1528 239.823 82.2712C239.978 82.3896 240.088 82.5458 240.153 82.74ZM242.765 82.74L242.389 82.8465C242.365 82.7838 242.33 82.7228 242.284 82.6636C242.239 82.6032 242.177 82.5535 242.099 82.5145C242.021 82.4754 241.921 82.4559 241.799 82.4559C241.632 82.4559 241.493 82.4943 241.382 82.5713C241.272 82.647 241.217 82.7435 241.217 82.8607C241.217 82.9649 241.255 83.0471 241.331 83.1075C241.406 83.1679 241.525 83.2182 241.686 83.2584L242.09 83.3579C242.334 83.4171 242.516 83.5076 242.636 83.6295C242.755 83.7503 242.815 83.9059 242.815 84.0965C242.815 84.2528 242.77 84.3924 242.68 84.5155C242.591 84.6386 242.467 84.7357 242.307 84.8067C242.147 84.8778 241.961 84.9133 241.75 84.9133C241.471 84.9133 241.241 84.8529 241.059 84.7322C240.877 84.6114 240.761 84.435 240.713 84.203L241.11 84.1036C241.148 84.2504 241.22 84.3605 241.325 84.4339C241.432 84.5073 241.571 84.5439 241.742 84.5439C241.938 84.5439 242.093 84.5025 242.208 84.4197C242.324 84.3356 242.382 84.235 242.382 84.1178C242.382 84.0231 242.349 83.9438 242.282 83.8799C242.216 83.8148 242.114 83.7662 241.977 83.7343L241.522 83.6278C241.273 83.5686 241.089 83.4768 240.972 83.3525C240.856 83.2271 240.798 83.0702 240.798 82.882C240.798 82.7281 240.841 82.592 240.927 82.4736C241.015 82.3553 241.134 82.2623 241.284 82.1949C241.436 82.1274 241.608 82.0937 241.799 82.0937C242.069 82.0937 242.281 82.1528 242.435 82.2712C242.59 82.3896 242.7 82.5458 242.765 82.74ZM244.248 84.9204C244.075 84.9204 243.919 84.8878 243.778 84.8227C243.637 84.7564 243.525 84.6611 243.442 84.5368C243.359 84.4114 243.318 84.2599 243.318 84.0823C243.318 83.926 243.349 83.7994 243.41 83.7023C243.472 83.6041 243.554 83.5271 243.657 83.4715C243.76 83.4159 243.874 83.3744 243.998 83.3472C244.123 83.3188 244.249 83.2963 244.376 83.2797C244.542 83.2584 244.676 83.2425 244.779 83.2318C244.883 83.22 244.959 83.2004 245.006 83.1732C245.055 83.146 245.079 83.0986 245.079 83.0312V83.017C245.079 82.8418 245.031 82.7056 244.935 82.6086C244.841 82.5115 244.697 82.463 244.504 82.463C244.304 82.463 244.147 82.5068 244.033 82.5944C243.92 82.682 243.84 82.7755 243.794 82.8749L243.396 82.7329C243.467 82.5671 243.562 82.4381 243.68 82.3458C243.8 82.2523 243.93 82.1872 244.071 82.1505C244.213 82.1126 244.352 82.0937 244.49 82.0937C244.577 82.0937 244.678 82.1043 244.792 82.1256C244.906 82.1457 245.017 82.1878 245.124 82.2517C245.231 82.3156 245.321 82.4121 245.392 82.5411C245.463 82.6701 245.498 82.843 245.498 83.0596V84.8564H245.079V84.4871H245.058C245.029 84.5463 244.982 84.6096 244.916 84.6771C244.85 84.7446 244.761 84.802 244.651 84.8493C244.541 84.8967 244.407 84.9204 244.248 84.9204ZM244.312 84.5439C244.478 84.5439 244.618 84.5114 244.731 84.4463C244.846 84.3812 244.932 84.2971 244.99 84.1942C245.05 84.0912 245.079 83.9829 245.079 83.8692V83.4857C245.061 83.507 245.022 83.5265 244.962 83.5443C244.903 83.5609 244.834 83.5757 244.756 83.5887C244.679 83.6005 244.604 83.6112 244.531 83.6206C244.458 83.6289 244.4 83.636 244.355 83.642C244.246 83.6562 244.144 83.6792 244.049 83.7112C243.956 83.742 243.88 83.7887 243.822 83.8515C243.765 83.913 243.737 83.9971 243.737 84.1036C243.737 84.2492 243.791 84.3593 243.898 84.4339C244.007 84.5073 244.145 84.5439 244.312 84.5439ZM246.682 83.2158V84.8564H246.263V82.1292H246.668V82.5553H246.703C246.767 82.4168 246.864 82.3055 246.995 82.2215C247.125 82.1363 247.293 82.0937 247.499 82.0937C247.683 82.0937 247.845 82.1315 247.984 82.2073C248.122 82.2819 248.23 82.3955 248.307 82.5482C248.384 82.6997 248.422 82.8915 248.422 83.1235V84.8564H248.003V83.1519C248.003 82.9376 247.947 82.7707 247.836 82.6512C247.725 82.5305 247.572 82.4701 247.378 82.4701C247.244 82.4701 247.125 82.4991 247.019 82.5571C246.915 82.6151 246.833 82.6997 246.773 82.811C246.712 82.9223 246.682 83.0572 246.682 83.2158ZM250.296 84.9133C250.04 84.9133 249.82 84.8529 249.635 84.7322C249.451 84.6114 249.309 84.4451 249.209 84.2332C249.11 84.0213 249.06 83.7793 249.06 83.507C249.06 83.23 249.111 82.9856 249.213 82.7737C249.316 82.5606 249.459 82.3943 249.642 82.2748C249.827 82.154 250.042 82.0937 250.289 82.0937C250.48 82.0937 250.653 82.1292 250.807 82.2002C250.961 82.2712 251.087 82.3706 251.185 82.4985C251.284 82.6263 251.345 82.7755 251.368 82.9459H250.949C250.917 82.8216 250.846 82.7116 250.736 82.6157C250.627 82.5186 250.48 82.4701 250.296 82.4701C250.132 82.4701 249.989 82.5127 249.866 82.5979C249.744 82.682 249.649 82.8009 249.58 82.9548C249.513 83.1075 249.479 83.2868 249.479 83.4928C249.479 83.7035 249.512 83.887 249.578 84.0432C249.646 84.1995 249.741 84.3208 249.863 84.4072C249.986 84.4936 250.13 84.5368 250.296 84.5368C250.405 84.5368 250.504 84.5179 250.592 84.48C250.681 84.4421 250.756 84.3877 250.818 84.3167C250.879 84.2456 250.923 84.1604 250.949 84.061H251.368C251.345 84.222 251.286 84.367 251.192 84.496C251.1 84.6238 250.978 84.7256 250.825 84.8014C250.673 84.876 250.497 84.9133 250.296 84.9133ZM253.124 84.9133C252.861 84.9133 252.635 84.8553 252.444 84.7393C252.255 84.6221 252.109 84.4587 252.006 84.2492C251.904 84.0385 251.853 83.7935 251.853 83.5141C251.853 83.2348 251.904 82.9885 252.006 82.7755C252.109 82.5612 252.252 82.3943 252.435 82.2748C252.62 82.154 252.835 82.0937 253.082 82.0937C253.224 82.0937 253.364 82.1173 253.502 82.1647C253.641 82.212 253.767 82.289 253.881 82.3955C253.994 82.5009 254.085 82.6405 254.152 82.8145C254.22 82.9885 254.254 83.2028 254.254 83.4573V83.6349H252.151V83.2726H253.827C253.827 83.1188 253.797 82.9814 253.735 82.8607C253.675 82.74 253.588 82.6447 253.476 82.5748C253.365 82.505 253.233 82.4701 253.082 82.4701C252.915 82.4701 252.77 82.5115 252.648 82.5944C252.528 82.676 252.435 82.7826 252.37 82.914C252.305 83.0454 252.272 83.1862 252.272 83.3366V83.578C252.272 83.784 252.308 83.9586 252.379 84.1018C252.451 84.2439 252.551 84.3522 252.679 84.4268C252.806 84.5001 252.955 84.5368 253.124 84.5368C253.234 84.5368 253.334 84.5215 253.423 84.4907C253.513 84.4587 253.59 84.4114 253.655 84.3486C253.72 84.2847 253.771 84.2054 253.806 84.1107L254.211 84.2243C254.168 84.3617 254.097 84.4824 253.996 84.5866C253.895 84.6895 253.771 84.77 253.623 84.828C253.475 84.8849 253.309 84.9133 253.124 84.9133ZM229.102 90.9133C228.875 90.9133 228.674 90.8559 228.5 90.741C228.326 90.625 228.19 90.4617 228.092 90.251C227.993 90.0391 227.944 89.7887 227.944 89.4999C227.944 89.2135 227.993 88.9649 228.092 88.7542C228.19 88.5435 228.327 88.3807 228.502 88.2659C228.677 88.1511 228.879 88.0937 229.109 88.0937C229.287 88.0937 229.427 88.1233 229.53 88.1824C229.634 88.2404 229.713 88.3067 229.768 88.3813C229.823 88.4547 229.867 88.5151 229.897 88.5624H229.933V87.2201H230.352V90.8564H229.947V90.4374H229.897C229.867 90.4871 229.823 90.5499 229.766 90.6256C229.709 90.7002 229.628 90.7671 229.523 90.8263C229.417 90.8843 229.277 90.9133 229.102 90.9133ZM229.159 90.5368C229.327 90.5368 229.469 90.493 229.585 90.4055C229.701 90.3167 229.789 90.1942 229.849 90.0379C229.91 89.8805 229.94 89.6988 229.94 89.4928C229.94 89.2892 229.91 89.1111 229.851 88.9584C229.792 88.8045 229.704 88.6849 229.588 88.5997C229.472 88.5133 229.329 88.4701 229.159 88.4701C228.981 88.4701 228.833 88.5157 228.715 88.6068C228.598 88.6968 228.51 88.8193 228.45 88.9743C228.392 89.1282 228.363 89.301 228.363 89.4928C228.363 89.6869 228.393 89.8633 228.452 90.0219C228.512 90.1794 228.601 90.3048 228.718 90.3983C228.837 90.4907 228.984 90.5368 229.159 90.5368ZM232.321 90.9133C232.058 90.9133 231.832 90.8553 231.641 90.7393C231.452 90.6221 231.305 90.4587 231.202 90.2492C231.101 90.0385 231.05 89.7935 231.05 89.5141C231.05 89.2348 231.101 88.9885 231.202 88.7755C231.305 88.5612 231.449 88.3943 231.632 88.2748C231.817 88.154 232.032 88.0937 232.278 88.0937C232.42 88.0937 232.561 88.1173 232.699 88.1647C232.838 88.212 232.964 88.289 233.077 88.3955C233.191 88.5009 233.282 88.6405 233.349 88.8145C233.417 88.9885 233.45 89.2028 233.45 89.4573V89.6349H231.348V89.2726H233.024C233.024 89.1188 232.993 88.9814 232.932 88.8607C232.871 88.74 232.785 88.6447 232.673 88.5748C232.561 88.505 232.43 88.4701 232.278 88.4701C232.112 88.4701 231.967 88.5115 231.845 88.5944C231.724 88.676 231.632 88.7826 231.566 88.914C231.501 89.0454 231.469 89.1862 231.469 89.3366V89.578C231.469 89.784 231.504 89.9586 231.575 90.1018C231.648 90.2439 231.748 90.3522 231.875 90.4268C232.003 90.5001 232.152 90.5368 232.321 90.5368C232.431 90.5368 232.531 90.5215 232.619 90.4907C232.709 90.4587 232.787 90.4114 232.852 90.3486C232.917 90.2847 232.967 90.2054 233.003 90.1107L233.408 90.2243C233.365 90.3617 233.293 90.4824 233.193 90.5866C233.092 90.6895 232.968 90.77 232.82 90.828C232.672 90.8849 232.506 90.9133 232.321 90.9133ZM235.913 87.2201V90.8564H235.494V87.2201H235.913ZM237.05 87.2201V87.5397C237.05 87.6367 237.032 87.7403 236.997 87.8504C236.962 87.9593 236.911 88.0653 236.844 88.1682C236.778 88.27 236.697 88.3588 236.602 88.4346L236.375 88.2499C236.45 88.1434 236.514 88.0327 236.569 87.9179C236.624 87.8019 236.652 87.6782 236.652 87.5468V87.2201H237.05ZM238.399 90.9133C238.153 90.9133 237.937 90.8547 237.751 90.7375C237.566 90.6203 237.422 90.4564 237.318 90.2456C237.215 90.0349 237.163 89.7887 237.163 89.507C237.163 89.2229 237.215 88.9749 237.318 88.7631C237.422 88.5512 237.566 88.3866 237.751 88.2694C237.937 88.1523 238.153 88.0937 238.399 88.0937C238.645 88.0937 238.86 88.1523 239.045 88.2694C239.231 88.3866 239.375 88.5512 239.478 88.7631C239.583 88.9749 239.635 89.2229 239.635 89.507C239.635 89.7887 239.583 90.0349 239.478 90.2456C239.375 90.4564 239.231 90.6203 239.045 90.7375C238.86 90.8547 238.645 90.9133 238.399 90.9133ZM238.399 90.5368C238.586 90.5368 238.74 90.4889 238.86 90.393C238.981 90.2971 239.071 90.1711 239.129 90.0148C239.187 89.8586 239.216 89.6893 239.216 89.507C239.216 89.3247 239.187 89.1549 239.129 88.9974C239.071 88.84 238.981 88.7127 238.86 88.6157C238.74 88.5186 238.586 88.4701 238.399 88.4701C238.212 88.4701 238.058 88.5186 237.937 88.6157C237.816 88.7127 237.727 88.84 237.669 88.9974C237.611 89.1549 237.582 89.3247 237.582 89.507C237.582 89.6893 237.611 89.8586 237.669 90.0148C237.727 90.1711 237.816 90.2971 237.937 90.393C238.058 90.4889 238.212 90.5368 238.399 90.5368ZM241.489 88.1292V88.4843H240.019V88.1292H241.489ZM240.459 90.8564V87.7528C240.459 87.5965 240.496 87.4663 240.569 87.3621C240.642 87.258 240.738 87.1798 240.855 87.1278C240.972 87.0757 241.096 87.0496 241.226 87.0496C241.329 87.0496 241.413 87.0579 241.478 87.0745C241.543 87.0911 241.592 87.1064 241.624 87.1206L241.503 87.4829C241.482 87.4758 241.452 87.4669 241.414 87.4562C241.377 87.4456 241.329 87.4403 241.269 87.4403C241.13 87.4403 241.03 87.4752 240.969 87.545C240.908 87.6148 240.878 87.7172 240.878 87.8522V90.8564H240.459ZM243.291 88.1292V88.4843H241.82V88.1292H243.291ZM242.261 90.8564V87.7528C242.261 87.5965 242.297 87.4663 242.371 87.3621C242.444 87.258 242.539 87.1798 242.657 87.1278C242.774 87.0757 242.898 87.0496 243.028 87.0496C243.131 87.0496 243.215 87.0579 243.28 87.0745C243.345 87.0911 243.394 87.1064 243.425 87.1206L243.305 87.4829C243.283 87.4758 243.254 87.4669 243.216 87.4562C243.179 87.4456 243.131 87.4403 243.07 87.4403C242.932 87.4403 242.832 87.4752 242.77 87.545C242.71 87.6148 242.68 87.7172 242.68 87.8522V90.8564H242.261ZM243.878 90.8564V88.1292H244.283V88.5411H244.311C244.361 88.4062 244.451 88.2967 244.581 88.2126C244.711 88.1286 244.858 88.0866 245.021 88.0866C245.052 88.0866 245.091 88.0872 245.137 88.0883C245.183 88.0895 245.218 88.0913 245.241 88.0937V88.5198C245.227 88.5162 245.195 88.5109 245.144 88.5038C245.094 88.4955 245.041 88.4914 244.986 88.4914C244.853 88.4914 244.735 88.5192 244.631 88.5748C244.528 88.6293 244.446 88.705 244.386 88.8021C244.326 88.898 244.297 89.0075 244.297 89.1306V90.8564H243.878ZM246.799 90.9133C246.536 90.9133 246.309 90.8553 246.119 90.7393C245.929 90.6221 245.783 90.4587 245.68 90.2492C245.578 90.0385 245.527 89.7935 245.527 89.5141C245.527 89.2348 245.578 88.9885 245.68 88.7755C245.783 88.5612 245.926 88.3943 246.11 88.2748C246.294 88.154 246.51 88.0937 246.756 88.0937C246.898 88.0937 247.038 88.1173 247.177 88.1647C247.315 88.212 247.441 88.289 247.555 88.3955C247.669 88.5009 247.759 88.6405 247.827 88.8145C247.894 88.9885 247.928 89.2028 247.928 89.4573V89.6349H245.826V89.2726H247.502C247.502 89.1188 247.471 88.9814 247.409 88.8607C247.349 88.74 247.263 88.6447 247.15 88.5748C247.039 88.505 246.908 88.4701 246.756 88.4701C246.589 88.4701 246.445 88.5115 246.323 88.5944C246.202 88.676 246.109 88.7826 246.044 88.914C245.979 89.0454 245.946 89.1862 245.946 89.3366V89.578C245.946 89.784 245.982 89.9586 246.053 90.1018C246.125 90.2439 246.225 90.3522 246.353 90.4268C246.481 90.5001 246.629 90.5368 246.799 90.5368C246.909 90.5368 247.008 90.5215 247.097 90.4907C247.187 90.4587 247.264 90.4114 247.329 90.3486C247.395 90.2847 247.445 90.2054 247.48 90.1107L247.885 90.2243C247.843 90.3617 247.771 90.4824 247.67 90.5866C247.57 90.6895 247.445 90.77 247.298 90.828C247.15 90.8849 246.983 90.9133 246.799 90.9133Z" fill="black"/>
<path d="M105.057 232.856V229.22H105.497V232.466H107.188V232.856H105.057ZM107.813 232.856V230.129H108.232V232.856H107.813ZM108.026 229.675C107.944 229.675 107.874 229.647 107.814 229.591C107.756 229.536 107.727 229.469 107.727 229.391C107.727 229.312 107.756 229.246 107.814 229.19C107.874 229.134 107.944 229.106 108.026 229.106C108.107 229.106 108.177 229.134 108.235 229.19C108.294 229.246 108.324 229.312 108.324 229.391C108.324 229.469 108.294 229.536 108.235 229.591C108.177 229.647 108.107 229.675 108.026 229.675ZM109.056 232.856V229.22H109.475V230.562H109.511C109.541 230.515 109.584 230.455 109.638 230.381C109.694 230.307 109.773 230.24 109.876 230.182C109.981 230.123 110.121 230.094 110.299 230.094C110.529 230.094 110.731 230.151 110.906 230.266C111.081 230.381 111.218 230.543 111.316 230.754C111.415 230.965 111.464 231.213 111.464 231.5C111.464 231.789 111.415 232.039 111.316 232.251C111.218 232.462 111.082 232.625 110.908 232.741C110.734 232.856 110.533 232.913 110.306 232.913C110.131 232.913 109.991 232.884 109.885 232.826C109.78 232.767 109.699 232.7 109.642 232.626C109.585 232.55 109.541 232.487 109.511 232.437H109.461V232.856H109.056ZM109.468 231.493C109.468 231.699 109.498 231.88 109.559 232.038C109.619 232.194 109.707 232.317 109.823 232.405C109.939 232.493 110.081 232.537 110.249 232.537C110.424 232.537 110.571 232.491 110.688 232.398C110.806 232.305 110.895 232.179 110.954 232.022C111.014 231.863 111.045 231.687 111.045 231.493C111.045 231.301 111.015 231.128 110.956 230.974C110.898 230.819 110.81 230.697 110.691 230.607C110.574 230.516 110.427 230.47 110.249 230.47C110.079 230.47 109.936 230.513 109.82 230.6C109.704 230.685 109.616 230.804 109.557 230.958C109.498 231.111 109.468 231.289 109.468 231.493ZM113.248 232.913C112.985 232.913 112.759 232.855 112.568 232.739C112.379 232.622 112.233 232.459 112.13 232.249C112.028 232.039 111.977 231.793 111.977 231.514C111.977 231.235 112.028 230.989 112.13 230.775C112.233 230.561 112.376 230.394 112.559 230.275C112.744 230.154 112.959 230.094 113.206 230.094C113.348 230.094 113.488 230.117 113.626 230.165C113.765 230.212 113.891 230.289 114.005 230.396C114.118 230.501 114.209 230.641 114.276 230.815C114.344 230.989 114.377 231.203 114.377 231.457V231.635H112.275V231.273H113.951C113.951 231.119 113.921 230.981 113.859 230.861C113.799 230.74 113.712 230.645 113.6 230.575C113.488 230.505 113.357 230.47 113.206 230.47C113.039 230.47 112.894 230.512 112.772 230.594C112.652 230.676 112.559 230.783 112.494 230.914C112.428 231.045 112.396 231.186 112.396 231.337V231.578C112.396 231.784 112.431 231.959 112.502 232.102C112.575 232.244 112.675 232.352 112.802 232.427C112.93 232.5 113.079 232.537 113.248 232.537C113.358 232.537 113.458 232.521 113.546 232.491C113.636 232.459 113.714 232.411 113.779 232.349C113.844 232.285 113.894 232.205 113.93 232.111L114.335 232.224C114.292 232.362 114.221 232.482 114.12 232.587C114.019 232.69 113.895 232.77 113.747 232.828C113.599 232.885 113.433 232.913 113.248 232.913ZM115.434 229.22V232.856H115.015V229.22H115.434ZM116.62 229.22V232.856H116.201V229.22H116.62ZM118.531 232.913C118.269 232.913 118.042 232.855 117.851 232.739C117.662 232.622 117.516 232.459 117.413 232.249C117.311 232.039 117.26 231.793 117.26 231.514C117.26 231.235 117.311 230.989 117.413 230.775C117.516 230.561 117.659 230.394 117.842 230.275C118.027 230.154 118.243 230.094 118.489 230.094C118.631 230.094 118.771 230.117 118.91 230.165C119.048 230.212 119.174 230.289 119.288 230.396C119.401 230.501 119.492 230.641 119.559 230.815C119.627 230.989 119.661 231.203 119.661 231.457V231.635H117.558V231.273H119.234C119.234 231.119 119.204 230.981 119.142 230.861C119.082 230.74 118.995 230.645 118.883 230.575C118.772 230.505 118.64 230.47 118.489 230.47C118.322 230.47 118.177 230.512 118.056 230.594C117.935 230.676 117.842 230.783 117.777 230.914C117.712 231.045 117.679 231.186 117.679 231.337V231.578C117.679 231.784 117.715 231.959 117.786 232.102C117.858 232.244 117.958 232.352 118.086 232.427C118.214 232.5 118.362 232.537 118.531 232.537C118.641 232.537 118.741 232.521 118.83 232.491C118.92 232.459 118.997 232.411 119.062 232.349C119.127 232.285 119.178 232.205 119.213 232.111L119.618 232.224C119.575 232.362 119.504 232.482 119.403 232.587C119.303 232.69 119.178 232.77 119.03 232.828C118.882 232.885 118.716 232.913 118.531 232.913ZM118.276 229.76L118.709 228.936H119.199L118.645 229.76H118.276ZM122.23 230.74L121.853 230.847C121.83 230.784 121.795 230.723 121.749 230.664C121.704 230.603 121.642 230.554 121.564 230.514C121.486 230.475 121.386 230.456 121.264 230.456C121.097 230.456 120.958 230.494 120.847 230.571C120.737 230.647 120.682 230.744 120.682 230.861C120.682 230.965 120.719 231.047 120.795 231.108C120.871 231.168 120.989 231.218 121.15 231.258L121.555 231.358C121.799 231.417 121.981 231.508 122.1 231.63C122.22 231.75 122.28 231.906 122.28 232.097C122.28 232.253 122.235 232.392 122.145 232.516C122.056 232.639 121.932 232.736 121.772 232.807C121.612 232.878 121.426 232.913 121.214 232.913C120.936 232.913 120.706 232.853 120.524 232.732C120.341 232.611 120.226 232.435 120.177 232.203L120.575 232.104C120.613 232.25 120.685 232.36 120.79 232.434C120.896 232.507 121.036 232.544 121.207 232.544C121.402 232.544 121.558 232.503 121.672 232.42C121.788 232.336 121.846 232.235 121.846 232.118C121.846 232.023 121.813 231.944 121.747 231.88C121.681 231.815 121.579 231.766 121.442 231.734L120.987 231.628C120.737 231.569 120.554 231.477 120.437 231.353C120.321 231.227 120.263 231.07 120.263 230.882C120.263 230.728 120.306 230.592 120.392 230.474C120.48 230.355 120.599 230.262 120.749 230.195C120.901 230.127 121.072 230.094 121.264 230.094C121.534 230.094 121.746 230.153 121.9 230.271C122.055 230.39 122.165 230.546 122.23 230.74ZM125.46 232.913C125.197 232.913 124.971 232.855 124.78 232.739C124.591 232.622 124.444 232.459 124.341 232.249C124.24 232.039 124.189 231.793 124.189 231.514C124.189 231.235 124.24 230.989 124.341 230.775C124.444 230.561 124.588 230.394 124.771 230.275C124.956 230.154 125.171 230.094 125.417 230.094C125.56 230.094 125.7 230.117 125.838 230.165C125.977 230.212 126.103 230.289 126.216 230.396C126.33 230.501 126.421 230.641 126.488 230.815C126.556 230.989 126.589 231.203 126.589 231.457V231.635H124.487V231.273H126.163C126.163 231.119 126.132 230.981 126.071 230.861C126.01 230.74 125.924 230.645 125.812 230.575C125.7 230.505 125.569 230.47 125.417 230.47C125.251 230.47 125.106 230.512 124.984 230.594C124.863 230.676 124.771 230.783 124.705 230.914C124.64 231.045 124.608 231.186 124.608 231.337V231.578C124.608 231.784 124.643 231.959 124.714 232.102C124.787 232.244 124.887 232.352 125.014 232.427C125.142 232.5 125.291 232.537 125.46 232.537C125.57 232.537 125.67 232.521 125.758 232.491C125.848 232.459 125.926 232.411 125.991 232.349C126.056 232.285 126.106 232.205 126.142 232.111L126.547 232.224C126.504 232.362 126.432 232.482 126.332 232.587C126.231 232.69 126.107 232.77 125.959 232.828C125.811 232.885 125.645 232.913 125.46 232.913ZM128.413 230.129V230.484H126.999V230.129H128.413ZM127.411 229.476H127.83V232.075C127.83 232.194 127.848 232.282 127.882 232.342C127.917 232.4 127.962 232.439 128.017 232.459C128.073 232.478 128.131 232.487 128.193 232.487C128.239 232.487 128.277 232.485 128.306 232.48C128.336 232.474 128.36 232.469 128.377 232.466L128.463 232.842C128.434 232.853 128.394 232.864 128.344 232.874C128.293 232.886 128.228 232.892 128.15 232.892C128.032 232.892 127.916 232.867 127.802 232.816C127.69 232.765 127.596 232.687 127.522 232.583C127.448 232.479 127.411 232.347 127.411 232.189V229.476ZM103.61 238.92C103.438 238.92 103.281 238.888 103.14 238.823C102.999 238.756 102.887 238.661 102.804 238.537C102.721 238.411 102.68 238.26 102.68 238.082C102.68 237.926 102.711 237.799 102.772 237.702C102.834 237.604 102.916 237.527 103.019 237.472C103.122 237.416 103.236 237.374 103.36 237.347C103.485 237.319 103.612 237.296 103.738 237.28C103.904 237.258 104.038 237.242 104.141 237.232C104.245 237.22 104.321 237.2 104.369 237.173C104.417 237.146 104.441 237.099 104.441 237.031V237.017C104.441 236.842 104.393 236.706 104.298 236.609C104.203 236.512 104.059 236.463 103.866 236.463C103.666 236.463 103.509 236.507 103.396 236.594C103.282 236.682 103.202 236.775 103.156 236.875L102.758 236.733C102.829 236.567 102.924 236.438 103.042 236.346C103.162 236.252 103.292 236.187 103.433 236.15C103.575 236.113 103.715 236.094 103.852 236.094C103.939 236.094 104.04 236.104 104.154 236.126C104.269 236.146 104.379 236.188 104.486 236.252C104.593 236.316 104.683 236.412 104.754 236.541C104.825 236.67 104.86 236.843 104.86 237.06V238.856H104.441V238.487H104.42C104.392 238.546 104.344 238.61 104.278 238.677C104.212 238.745 104.124 238.802 104.013 238.849C103.903 238.897 103.769 238.92 103.61 238.92ZM103.674 238.544C103.84 238.544 103.98 238.511 104.093 238.446C104.208 238.381 104.295 238.297 104.353 238.194C104.412 238.091 104.441 237.983 104.441 237.869V237.486C104.424 237.507 104.385 237.527 104.324 237.544C104.265 237.561 104.196 237.576 104.118 237.589C104.041 237.601 103.966 237.611 103.893 237.621C103.82 237.629 103.762 237.636 103.717 237.642C103.608 237.656 103.506 237.679 103.412 237.711C103.318 237.742 103.242 237.789 103.184 237.851C103.127 237.913 103.099 237.997 103.099 238.104C103.099 238.249 103.153 238.359 103.261 238.434C103.369 238.507 103.507 238.544 103.674 238.544ZM105.625 238.856V236.129H106.03V236.541H106.058C106.108 236.406 106.198 236.297 106.328 236.213C106.459 236.129 106.605 236.087 106.769 236.087C106.799 236.087 106.838 236.087 106.884 236.088C106.93 236.09 106.965 236.091 106.989 236.094V236.52C106.975 236.516 106.942 236.511 106.891 236.504C106.841 236.496 106.789 236.491 106.733 236.491C106.601 236.491 106.482 236.519 106.378 236.575C106.275 236.629 106.193 236.705 106.133 236.802C106.074 236.898 106.044 237.007 106.044 237.131V238.856H105.625ZM108.51 238.913C108.255 238.913 108.035 238.853 107.85 238.732C107.665 238.611 107.523 238.445 107.424 238.233C107.324 238.021 107.275 237.779 107.275 237.507C107.275 237.23 107.326 236.986 107.427 236.774C107.53 236.561 107.674 236.394 107.857 236.275C108.042 236.154 108.257 236.094 108.503 236.094C108.695 236.094 108.868 236.129 109.022 236.2C109.176 236.271 109.302 236.371 109.4 236.498C109.498 236.626 109.559 236.775 109.583 236.946H109.164C109.132 236.822 109.061 236.712 108.951 236.616C108.842 236.519 108.695 236.47 108.51 236.47C108.347 236.47 108.204 236.513 108.081 236.598C107.959 236.682 107.864 236.801 107.795 236.955C107.727 237.108 107.694 237.287 107.694 237.493C107.694 237.704 107.727 237.887 107.793 238.043C107.861 238.199 107.955 238.321 108.077 238.407C108.2 238.494 108.345 238.537 108.51 238.537C108.619 238.537 108.718 238.518 108.807 238.48C108.896 238.442 108.971 238.388 109.033 238.317C109.094 238.246 109.138 238.16 109.164 238.061H109.583C109.559 238.222 109.501 238.367 109.407 238.496C109.315 238.624 109.192 238.726 109.04 238.801C108.888 238.876 108.712 238.913 108.51 238.913ZM110.615 237.216V238.856H110.196V235.22H110.615V236.555H110.65C110.714 236.414 110.81 236.303 110.938 236.22C111.067 236.136 111.238 236.094 111.453 236.094C111.638 236.094 111.801 236.131 111.941 236.206C112.081 236.279 112.189 236.392 112.266 236.545C112.344 236.696 112.383 236.889 112.383 237.123V238.856H111.964V237.152C111.964 236.935 111.908 236.768 111.795 236.649C111.684 236.53 111.53 236.47 111.332 236.47C111.195 236.47 111.071 236.499 110.963 236.557C110.855 236.615 110.77 236.7 110.707 236.811C110.645 236.922 110.615 237.057 110.615 237.216ZM113.15 238.856V236.129H113.569V238.856H113.15ZM113.363 235.675C113.281 235.675 113.211 235.647 113.151 235.591C113.093 235.536 113.064 235.469 113.064 235.391C113.064 235.312 113.093 235.246 113.151 235.19C113.211 235.134 113.281 235.106 113.363 235.106C113.444 235.106 113.514 235.134 113.572 235.19C113.631 235.246 113.661 235.312 113.661 235.391C113.661 235.469 113.631 235.536 113.572 235.591C113.514 235.647 113.444 235.675 113.363 235.675ZM115.522 236.129V236.484H114.109V236.129H115.522ZM114.521 235.476H114.94V238.075C114.94 238.194 114.957 238.282 114.991 238.342C115.027 238.4 115.072 238.439 115.126 238.459C115.182 238.478 115.24 238.487 115.302 238.487C115.348 238.487 115.386 238.485 115.416 238.48C115.445 238.474 115.469 238.469 115.487 238.466L115.572 238.842C115.544 238.853 115.504 238.864 115.453 238.874C115.402 238.886 115.338 238.892 115.259 238.892C115.141 238.892 115.025 238.867 114.911 238.816C114.799 238.765 114.705 238.687 114.631 238.583C114.557 238.479 114.521 238.347 114.521 238.189V235.476ZM117.267 238.913C117.004 238.913 116.777 238.855 116.587 238.739C116.397 238.622 116.251 238.459 116.148 238.249C116.046 238.039 115.995 237.793 115.995 237.514C115.995 237.235 116.046 236.989 116.148 236.775C116.251 236.561 116.394 236.394 116.578 236.275C116.762 236.154 116.978 236.094 117.224 236.094C117.366 236.094 117.506 236.117 117.645 236.165C117.783 236.212 117.909 236.289 118.023 236.396C118.137 236.501 118.227 236.641 118.295 236.815C118.362 236.989 118.396 237.203 118.396 237.457V237.635H116.294V237.273H117.97C117.97 237.119 117.939 236.981 117.878 236.861C117.817 236.74 117.731 236.645 117.618 236.575C117.507 236.505 117.376 236.47 117.224 236.47C117.057 236.47 116.913 236.512 116.791 236.594C116.67 236.676 116.577 236.783 116.512 236.914C116.447 237.045 116.414 237.186 116.414 237.337V237.578C116.414 237.784 116.45 237.959 116.521 238.102C116.593 238.244 116.693 238.352 116.821 238.427C116.949 238.5 117.097 238.537 117.267 238.537C117.377 238.537 117.476 238.521 117.565 238.491C117.655 238.459 117.733 238.411 117.798 238.349C117.863 238.285 117.913 238.205 117.949 238.111L118.353 238.224C118.311 238.362 118.239 238.482 118.139 238.587C118.038 238.69 117.914 238.77 117.766 238.828C117.618 238.885 117.451 238.913 117.267 238.913ZM120.141 238.913C119.886 238.913 119.666 238.853 119.481 238.732C119.296 238.611 119.154 238.445 119.055 238.233C118.955 238.021 118.906 237.779 118.906 237.507C118.906 237.23 118.956 236.986 119.058 236.774C119.161 236.561 119.304 236.394 119.488 236.275C119.673 236.154 119.888 236.094 120.134 236.094C120.326 236.094 120.499 236.129 120.653 236.2C120.807 236.271 120.933 236.371 121.031 236.498C121.129 236.626 121.19 236.775 121.214 236.946H120.795C120.763 236.822 120.692 236.712 120.582 236.616C120.473 236.519 120.326 236.47 120.141 236.47C119.978 236.47 119.835 236.513 119.712 236.598C119.59 236.682 119.494 236.801 119.426 236.955C119.358 237.108 119.325 237.287 119.325 237.493C119.325 237.704 119.358 237.887 119.424 238.043C119.492 238.199 119.586 238.321 119.708 238.407C119.831 238.494 119.976 238.537 120.141 238.537C120.25 238.537 120.349 238.518 120.438 238.48C120.527 238.442 120.602 238.388 120.663 238.317C120.725 238.246 120.769 238.16 120.795 238.061H121.214C121.19 238.222 121.132 238.367 121.038 238.496C120.946 238.624 120.823 238.726 120.67 238.801C120.519 238.876 120.343 238.913 120.141 238.913ZM123.012 236.129V236.484H121.599V236.129H123.012ZM122.011 235.476H122.43V238.075C122.43 238.194 122.447 238.282 122.482 238.342C122.517 238.4 122.562 238.439 122.617 238.459C122.672 238.478 122.731 238.487 122.792 238.487C122.838 238.487 122.876 238.485 122.906 238.48C122.936 238.474 122.959 238.469 122.977 238.466L123.062 238.842C123.034 238.853 122.994 238.864 122.943 238.874C122.892 238.886 122.828 238.892 122.75 238.892C122.631 238.892 122.515 238.867 122.402 238.816C122.289 238.765 122.196 238.687 122.121 238.583C122.048 238.479 122.011 238.347 122.011 238.189V235.476ZM125.362 237.741V236.129H125.781V238.856H125.362V238.395H125.333C125.269 238.533 125.17 238.651 125.035 238.748C124.9 238.844 124.729 238.892 124.523 238.892C124.353 238.892 124.201 238.855 124.069 238.78C123.936 238.704 123.832 238.591 123.756 238.439C123.681 238.286 123.643 238.094 123.643 237.862V236.129H124.062V237.834C124.062 238.033 124.117 238.191 124.229 238.31C124.341 238.428 124.484 238.487 124.658 238.487C124.763 238.487 124.869 238.46 124.976 238.407C125.085 238.354 125.176 238.272 125.25 238.162C125.324 238.052 125.362 237.912 125.362 237.741ZM126.548 238.856V236.129H126.953V236.541H126.981C127.031 236.406 127.121 236.297 127.251 236.213C127.381 236.129 127.528 236.087 127.692 236.087C127.722 236.087 127.761 236.087 127.807 236.088C127.853 236.09 127.888 236.091 127.912 236.094V236.52C127.897 236.516 127.865 236.511 127.814 236.504C127.764 236.496 127.712 236.491 127.656 236.491C127.523 236.491 127.405 236.519 127.301 236.575C127.198 236.629 127.116 236.705 127.056 236.802C126.997 236.898 126.967 237.007 126.967 237.131V238.856H126.548ZM129.469 238.913C129.206 238.913 128.979 238.855 128.789 238.739C128.599 238.622 128.453 238.459 128.35 238.249C128.248 238.039 128.198 237.793 128.198 237.514C128.198 237.235 128.248 236.989 128.35 236.775C128.453 236.561 128.596 236.394 128.78 236.275C128.965 236.154 129.18 236.094 129.426 236.094C129.568 236.094 129.709 236.117 129.847 236.165C129.986 236.212 130.112 236.289 130.225 236.396C130.339 236.501 130.429 236.641 130.497 236.815C130.564 236.989 130.598 237.203 130.598 237.457V237.635H128.496V237.273H130.172C130.172 237.119 130.141 236.981 130.08 236.861C130.019 236.74 129.933 236.645 129.82 236.575C129.709 236.505 129.578 236.47 129.426 236.47C129.259 236.47 129.115 236.512 128.993 236.594C128.872 236.676 128.779 236.783 128.714 236.914C128.649 237.045 128.617 237.186 128.617 237.337V237.578C128.617 237.784 128.652 237.959 128.723 238.102C128.795 238.244 128.895 238.352 129.023 238.427C129.151 238.5 129.3 238.537 129.469 238.537C129.579 238.537 129.678 238.521 129.767 238.491C129.857 238.459 129.935 238.411 130 238.349C130.065 238.285 130.115 238.205 130.151 238.111L130.556 238.224C130.513 238.362 130.441 238.482 130.341 238.587C130.24 238.69 130.116 238.77 129.968 238.828C129.82 238.885 129.654 238.913 129.469 238.913ZM102.678 244.913C102.451 244.913 102.25 244.856 102.076 244.741C101.902 244.625 101.766 244.462 101.668 244.251C101.569 244.039 101.52 243.789 101.52 243.5C101.52 243.213 101.569 242.965 101.668 242.754C101.766 242.543 101.903 242.381 102.078 242.266C102.253 242.151 102.455 242.094 102.685 242.094C102.863 242.094 103.003 242.123 103.106 242.182C103.21 242.24 103.289 242.307 103.344 242.381C103.399 242.455 103.443 242.515 103.473 242.562H103.509V241.22H103.928V244.856H103.523V244.437H103.473C103.443 244.487 103.399 244.55 103.342 244.626C103.285 244.7 103.204 244.767 103.099 244.826C102.993 244.884 102.853 244.913 102.678 244.913ZM102.735 244.537C102.903 244.537 103.045 244.493 103.161 244.405C103.277 244.317 103.365 244.194 103.425 244.038C103.486 243.88 103.516 243.699 103.516 243.493C103.516 243.289 103.486 243.111 103.427 242.958C103.368 242.804 103.28 242.685 103.164 242.6C103.048 242.513 102.905 242.47 102.735 242.47C102.557 242.47 102.409 242.516 102.291 242.607C102.174 242.697 102.086 242.819 102.026 242.974C101.968 243.128 101.939 243.301 101.939 243.493C101.939 243.687 101.969 243.863 102.028 244.022C102.088 244.179 102.177 244.305 102.294 244.398C102.413 244.491 102.56 244.537 102.735 244.537ZM105.123 241.22V241.54C105.123 241.637 105.105 241.74 105.07 241.85C105.035 241.959 104.984 242.065 104.917 242.168C104.851 242.27 104.77 242.359 104.675 242.435L104.448 242.25C104.523 242.143 104.587 242.033 104.642 241.918C104.697 241.802 104.725 241.678 104.725 241.547V241.22H105.123ZM105.676 244.856V242.129H106.096V244.856H105.676ZM105.89 241.675C105.808 241.675 105.737 241.647 105.678 241.591C105.62 241.536 105.591 241.469 105.591 241.391C105.591 241.312 105.62 241.246 105.678 241.19C105.737 241.134 105.808 241.106 105.89 241.106C105.971 241.106 106.041 241.134 106.099 241.19C106.158 241.246 106.188 241.312 106.188 241.391C106.188 241.469 106.158 241.536 106.099 241.591C106.041 241.647 105.971 241.675 105.89 241.675ZM107.282 243.216V244.856H106.863V242.129H107.268V242.555H107.303C107.367 242.417 107.464 242.306 107.595 242.222C107.725 242.136 107.893 242.094 108.099 242.094C108.283 242.094 108.445 242.132 108.584 242.207C108.722 242.282 108.83 242.396 108.907 242.548C108.984 242.7 109.022 242.891 109.022 243.123V244.856H108.603V243.152C108.603 242.938 108.547 242.771 108.436 242.651C108.325 242.53 108.172 242.47 107.978 242.47C107.844 242.47 107.725 242.499 107.619 242.557C107.515 242.615 107.433 242.7 107.373 242.811C107.312 242.922 107.282 243.057 107.282 243.216ZM111.002 242.129V242.484H109.532V242.129H111.002ZM109.972 244.856V241.753C109.972 241.597 110.009 241.466 110.083 241.362C110.156 241.258 110.251 241.18 110.368 241.128C110.486 241.076 110.609 241.05 110.74 241.05C110.842 241.05 110.927 241.058 110.992 241.074C111.057 241.091 111.105 241.106 111.137 241.121L111.016 241.483C110.995 241.476 110.966 241.467 110.928 241.456C110.891 241.446 110.842 241.44 110.782 241.44C110.644 241.44 110.544 241.475 110.482 241.545C110.422 241.615 110.391 241.717 110.391 241.852V244.856H109.972ZM112.585 244.913C112.339 244.913 112.123 244.855 111.937 244.737C111.752 244.62 111.608 244.456 111.504 244.246C111.401 244.035 111.349 243.789 111.349 243.507C111.349 243.223 111.401 242.975 111.504 242.763C111.608 242.551 111.752 242.387 111.937 242.269C112.123 242.152 112.339 242.094 112.585 242.094C112.831 242.094 113.047 242.152 113.232 242.269C113.417 242.387 113.562 242.551 113.665 242.763C113.769 242.975 113.821 243.223 113.821 243.507C113.821 243.789 113.769 244.035 113.665 244.246C113.562 244.456 113.417 244.62 113.232 244.737C113.047 244.855 112.831 244.913 112.585 244.913ZM112.585 244.537C112.772 244.537 112.926 244.489 113.047 244.393C113.168 244.297 113.257 244.171 113.315 244.015C113.373 243.859 113.402 243.689 113.402 243.507C113.402 243.325 113.373 243.155 113.315 242.997C113.257 242.84 113.168 242.713 113.047 242.616C112.926 242.519 112.772 242.47 112.585 242.47C112.398 242.47 112.244 242.519 112.124 242.616C112.003 242.713 111.913 242.84 111.855 242.997C111.797 243.155 111.768 243.325 111.768 243.507C111.768 243.689 111.797 243.859 111.855 244.015C111.913 244.171 112.003 244.297 112.124 244.393C112.244 244.489 112.398 244.537 112.585 244.537ZM114.461 244.856V242.129H114.865V242.541H114.894C114.944 242.406 115.034 242.297 115.164 242.213C115.294 242.129 115.441 242.087 115.604 242.087C115.635 242.087 115.673 242.087 115.72 242.088C115.766 242.09 115.801 242.091 115.824 242.094V242.52C115.81 242.516 115.778 242.511 115.727 242.504C115.677 242.496 115.624 242.491 115.569 242.491C115.436 242.491 115.318 242.519 115.213 242.575C115.111 242.629 115.029 242.705 114.968 242.802C114.909 242.898 114.88 243.007 114.88 243.131V244.856H114.461ZM116.321 244.856V242.129H116.726V242.555H116.761C116.818 242.41 116.91 242.297 117.037 242.216C117.163 242.134 117.315 242.094 117.493 242.094C117.673 242.094 117.823 242.134 117.942 242.216C118.063 242.297 118.157 242.41 118.224 242.555H118.253C118.323 242.414 118.427 242.303 118.567 242.22C118.707 242.136 118.874 242.094 119.07 242.094C119.313 242.094 119.513 242.17 119.668 242.323C119.823 242.474 119.901 242.71 119.901 243.031V244.856H119.482V243.031C119.482 242.83 119.426 242.686 119.316 242.6C119.206 242.513 119.077 242.47 118.928 242.47C118.736 242.47 118.587 242.528 118.482 242.644C118.377 242.759 118.324 242.905 118.324 243.081V244.856H117.898V242.989C117.898 242.833 117.847 242.709 117.747 242.614C117.646 242.518 117.517 242.47 117.358 242.47C117.249 242.47 117.147 242.499 117.053 242.557C116.959 242.615 116.883 242.696 116.825 242.799C116.768 242.9 116.74 243.018 116.74 243.152V244.856H116.321ZM121.469 244.92C121.296 244.92 121.14 244.888 120.999 244.823C120.858 244.756 120.746 244.661 120.663 244.537C120.58 244.411 120.539 244.26 120.539 244.082C120.539 243.926 120.57 243.799 120.631 243.702C120.693 243.604 120.775 243.527 120.878 243.472C120.981 243.416 121.095 243.374 121.219 243.347C121.344 243.319 121.47 243.296 121.597 243.28C121.763 243.258 121.897 243.242 122 243.232C122.104 243.22 122.18 243.2 122.227 243.173C122.276 243.146 122.3 243.099 122.3 243.031V243.017C122.3 242.842 122.252 242.706 122.156 242.609C122.062 242.512 121.918 242.463 121.725 242.463C121.525 242.463 121.368 242.507 121.254 242.594C121.141 242.682 121.061 242.775 121.015 242.875L120.617 242.733C120.688 242.567 120.783 242.438 120.901 242.346C121.021 242.252 121.151 242.187 121.292 242.15C121.434 242.113 121.573 242.094 121.711 242.094C121.798 242.094 121.899 242.104 122.013 242.126C122.127 242.146 122.238 242.188 122.345 242.252C122.452 242.316 122.542 242.412 122.613 242.541C122.684 242.67 122.719 242.843 122.719 243.06V244.856H122.3V244.487H122.279C122.251 244.546 122.203 244.61 122.137 244.677C122.071 244.745 121.982 244.802 121.872 244.849C121.762 244.897 121.628 244.92 121.469 244.92ZM121.533 244.544C121.699 244.544 121.839 244.511 121.952 244.446C122.067 244.381 122.153 244.297 122.211 244.194C122.271 244.091 122.3 243.983 122.3 243.869V243.486C122.282 243.507 122.243 243.527 122.183 243.544C122.124 243.561 122.055 243.576 121.977 243.589C121.9 243.601 121.825 243.611 121.752 243.621C121.679 243.629 121.621 243.636 121.576 243.642C121.467 243.656 121.365 243.679 121.27 243.711C121.177 243.742 121.101 243.789 121.043 243.851C120.986 243.913 120.958 243.997 120.958 244.104C120.958 244.249 121.012 244.359 121.119 244.434C121.228 244.507 121.366 244.544 121.533 244.544ZM124.67 242.129V242.484H123.257V242.129H124.67ZM123.669 241.476H124.088V244.075C124.088 244.194 124.105 244.282 124.139 244.342C124.175 244.4 124.22 244.439 124.274 244.459C124.33 244.478 124.388 244.487 124.45 244.487C124.496 244.487 124.534 244.485 124.564 244.48C124.593 244.474 124.617 244.469 124.635 244.466L124.72 244.842C124.691 244.853 124.652 244.864 124.601 244.874C124.55 244.886 124.486 244.892 124.407 244.892C124.289 244.892 124.173 244.867 124.059 244.816C123.947 244.765 123.853 244.687 123.779 244.583C123.705 244.479 123.669 244.347 123.669 244.189V241.476ZM125.3 244.856V242.129H125.72V244.856H125.3ZM125.514 241.675C125.432 241.675 125.361 241.647 125.302 241.591C125.244 241.536 125.215 241.469 125.215 241.391C125.215 241.312 125.244 241.246 125.302 241.19C125.361 241.134 125.432 241.106 125.514 241.106C125.595 241.106 125.665 241.134 125.723 241.19C125.782 241.246 125.812 241.312 125.812 241.391C125.812 241.469 125.782 241.536 125.723 241.591C125.665 241.647 125.595 241.675 125.514 241.675ZM127.595 244.913C127.349 244.913 127.133 244.855 126.947 244.737C126.762 244.62 126.618 244.456 126.514 244.246C126.411 244.035 126.359 243.789 126.359 243.507C126.359 243.223 126.411 242.975 126.514 242.763C126.618 242.551 126.762 242.387 126.947 242.269C127.133 242.152 127.349 242.094 127.595 242.094C127.841 242.094 128.057 242.152 128.241 242.269C128.427 242.387 128.572 242.551 128.675 242.763C128.779 242.975 128.831 243.223 128.831 243.507C128.831 243.789 128.779 244.035 128.675 244.246C128.572 244.456 128.427 244.62 128.241 244.737C128.057 244.855 127.841 244.913 127.595 244.913ZM127.595 244.537C127.782 244.537 127.936 244.489 128.057 244.393C128.177 244.297 128.267 244.171 128.325 244.015C128.383 243.859 128.412 243.689 128.412 243.507C128.412 243.325 128.383 243.155 128.325 242.997C128.267 242.84 128.177 242.713 128.057 242.616C127.936 242.519 127.782 242.47 127.595 242.47C127.408 242.47 127.254 242.519 127.133 242.616C127.013 242.713 126.923 242.84 126.865 242.997C126.807 243.155 126.778 243.325 126.778 243.507C126.778 243.689 126.807 243.859 126.865 244.015C126.923 244.171 127.013 244.297 127.133 244.393C127.254 244.489 127.408 244.537 127.595 244.537ZM129.889 243.216V244.856H129.47V242.129H129.875V242.555H129.911C129.975 242.417 130.072 242.306 130.202 242.222C130.332 242.136 130.5 242.094 130.706 242.094C130.891 242.094 131.052 242.132 131.191 242.207C131.329 242.282 131.437 242.396 131.514 242.548C131.591 242.7 131.63 242.891 131.63 243.123V244.856H131.21V243.152C131.21 242.938 131.155 242.771 131.044 242.651C130.932 242.53 130.78 242.47 130.585 242.47C130.452 242.47 130.332 242.499 130.227 242.557C130.123 242.615 130.04 242.7 129.98 242.811C129.92 242.922 129.889 243.057 129.889 243.216Z" fill="black"/>
<rect width="50.11" height="50.0127" transform="matrix(-1 0 0 1 284.089 177.796)" fill="#F0E2AD"/>
<rect width="50.11" height="50.0127" transform="matrix(-1 0 0 1 245.979 202.802)" fill="#C3E2DA"/>
<rect width="50.11" height="50.0127" transform="matrix(-1 0 0 1 284.325 221.557)" fill="#FFC7C3"/>
<g filter="url(#filter3_d_1102_26072)">
<rect width="50.11" height="51.2149" transform="matrix(-1 0 0 1 254.915 176.594)" fill="#DCDCDC"/>
</g>
<path d="M211.7 198.611V198.22H214.427V198.611H213.284V201.856H212.844V198.611H211.7ZM214.767 201.856V199.129H215.172V199.541H215.2C215.25 199.406 215.34 199.297 215.47 199.213C215.6 199.129 215.747 199.087 215.91 199.087C215.941 199.087 215.98 199.087 216.026 199.088C216.072 199.09 216.107 199.091 216.131 199.094V199.52C216.116 199.516 216.084 199.511 216.033 199.504C215.983 199.496 215.931 199.491 215.875 199.491C215.742 199.491 215.624 199.519 215.52 199.575C215.417 199.629 215.335 199.705 215.275 199.802C215.216 199.898 215.186 200.007 215.186 200.131V201.856H214.767ZM217.43 201.92C217.257 201.92 217.1 201.888 216.959 201.823C216.818 201.756 216.707 201.661 216.624 201.537C216.541 201.411 216.499 201.26 216.499 201.082C216.499 200.926 216.53 200.799 216.592 200.702C216.653 200.604 216.736 200.527 216.839 200.472C216.942 200.416 217.055 200.374 217.18 200.347C217.305 200.319 217.431 200.296 217.558 200.28C217.723 200.258 217.858 200.242 217.961 200.232C218.065 200.22 218.141 200.2 218.188 200.173C218.237 200.146 218.261 200.099 218.261 200.031V200.017C218.261 199.842 218.213 199.706 218.117 199.609C218.022 199.512 217.878 199.463 217.686 199.463C217.485 199.463 217.329 199.507 217.215 199.594C217.101 199.682 217.021 199.775 216.975 199.875L216.578 199.733C216.649 199.567 216.743 199.438 216.862 199.346C216.981 199.252 217.111 199.187 217.252 199.15C217.394 199.113 217.534 199.094 217.671 199.094C217.759 199.094 217.86 199.104 217.973 199.126C218.088 199.146 218.199 199.188 218.305 199.252C218.413 199.316 218.502 199.412 218.573 199.541C218.644 199.67 218.68 199.843 218.68 200.06V201.856H218.261V201.487H218.24C218.211 201.546 218.164 201.61 218.097 201.677C218.031 201.745 217.943 201.802 217.833 201.849C217.723 201.897 217.588 201.92 217.43 201.92ZM217.494 201.544C217.659 201.544 217.799 201.511 217.913 201.446C218.028 201.381 218.114 201.297 218.172 201.194C218.231 201.091 218.261 200.983 218.261 200.869V200.486C218.243 200.507 218.204 200.527 218.144 200.544C218.084 200.561 218.016 200.576 217.938 200.589C217.861 200.601 217.786 200.611 217.712 200.621C217.64 200.629 217.581 200.636 217.536 200.642C217.427 200.656 217.326 200.679 217.231 200.711C217.137 200.742 217.062 200.789 217.004 200.851C216.947 200.913 216.918 200.997 216.918 201.104C216.918 201.249 216.972 201.359 217.08 201.434C217.189 201.507 217.327 201.544 217.494 201.544ZM219.864 200.216V201.856H219.445V199.129H219.85V199.555H219.885C219.949 199.417 220.046 199.306 220.176 199.222C220.306 199.136 220.475 199.094 220.68 199.094C220.865 199.094 221.027 199.132 221.165 199.207C221.304 199.282 221.411 199.396 221.488 199.548C221.565 199.7 221.604 199.891 221.604 200.123V201.856H221.185V200.152C221.185 199.938 221.129 199.771 221.018 199.651C220.907 199.53 220.754 199.47 220.56 199.47C220.426 199.47 220.306 199.499 220.201 199.557C220.097 199.615 220.015 199.7 219.954 199.811C219.894 199.922 219.864 200.057 219.864 200.216ZM224.301 199.74L223.925 199.847C223.901 199.784 223.866 199.723 223.82 199.664C223.775 199.603 223.714 199.554 223.635 199.514C223.557 199.475 223.457 199.456 223.335 199.456C223.168 199.456 223.029 199.494 222.918 199.571C222.808 199.647 222.753 199.744 222.753 199.861C222.753 199.965 222.791 200.047 222.867 200.108C222.942 200.168 223.061 200.218 223.222 200.258L223.627 200.358C223.87 200.417 224.052 200.508 224.172 200.63C224.291 200.75 224.351 200.906 224.351 201.097C224.351 201.253 224.306 201.392 224.216 201.516C224.127 201.639 224.003 201.736 223.843 201.807C223.683 201.878 223.498 201.913 223.286 201.913C223.008 201.913 222.777 201.853 222.595 201.732C222.413 201.611 222.297 201.435 222.249 201.203L222.646 201.104C222.684 201.25 222.756 201.36 222.861 201.434C222.968 201.507 223.107 201.544 223.279 201.544C223.474 201.544 223.629 201.503 223.744 201.42C223.86 201.336 223.918 201.235 223.918 201.118C223.918 201.023 223.885 200.944 223.818 200.88C223.752 200.815 223.65 200.766 223.513 200.734L223.058 200.628C222.809 200.569 222.625 200.477 222.508 200.353C222.392 200.227 222.334 200.07 222.334 199.882C222.334 199.728 222.377 199.592 222.464 199.474C222.551 199.355 222.67 199.262 222.82 199.195C222.972 199.127 223.144 199.094 223.335 199.094C223.605 199.094 223.817 199.153 223.971 199.271C224.126 199.39 224.236 199.546 224.301 199.74ZM224.982 201.856V199.129H225.401V201.856H224.982ZM225.195 198.675C225.113 198.675 225.043 198.647 224.984 198.591C224.926 198.536 224.897 198.469 224.897 198.391C224.897 198.312 224.926 198.246 224.984 198.19C225.043 198.134 225.113 198.106 225.195 198.106C225.277 198.106 225.346 198.134 225.404 198.19C225.464 198.246 225.493 198.312 225.493 198.391C225.493 198.469 225.464 198.536 225.404 198.591C225.346 198.647 225.277 198.675 225.195 198.675ZM227.354 199.129V199.484H225.941V199.129H227.354ZM226.353 198.476H226.772V201.075C226.772 201.194 226.789 201.282 226.824 201.342C226.859 201.4 226.904 201.439 226.958 201.459C227.014 201.478 227.073 201.487 227.134 201.487C227.18 201.487 227.218 201.485 227.248 201.48C227.277 201.474 227.301 201.469 227.319 201.466L227.404 201.842C227.376 201.853 227.336 201.864 227.285 201.874C227.234 201.886 227.17 201.892 227.092 201.892C226.973 201.892 226.857 201.867 226.744 201.816C226.631 201.765 226.538 201.687 226.463 201.583C226.39 201.479 226.353 201.347 226.353 201.189V198.476ZM227.985 201.856V199.129H228.404V201.856H227.985ZM228.198 198.675C228.116 198.675 228.046 198.647 227.986 198.591C227.928 198.536 227.899 198.469 227.899 198.391C227.899 198.312 227.928 198.246 227.986 198.19C228.046 198.134 228.116 198.106 228.198 198.106C228.279 198.106 228.349 198.134 228.407 198.19C228.466 198.246 228.496 198.312 228.496 198.391C228.496 198.469 228.466 198.536 228.407 198.591C228.349 198.647 228.279 198.675 228.198 198.675ZM230.279 201.913C230.033 201.913 229.817 201.855 229.631 201.737C229.446 201.62 229.302 201.456 229.198 201.246C229.095 201.035 229.043 200.789 229.043 200.507C229.043 200.223 229.095 199.975 229.198 199.763C229.302 199.551 229.446 199.387 229.631 199.269C229.817 199.152 230.033 199.094 230.279 199.094C230.525 199.094 230.741 199.152 230.926 199.269C231.111 199.387 231.256 199.551 231.359 199.763C231.463 199.975 231.515 200.223 231.515 200.507C231.515 200.789 231.463 201.035 231.359 201.246C231.256 201.456 231.111 201.62 230.926 201.737C230.741 201.855 230.525 201.913 230.279 201.913ZM230.279 201.537C230.466 201.537 230.62 201.489 230.741 201.393C230.862 201.297 230.951 201.171 231.009 201.015C231.067 200.859 231.096 200.689 231.096 200.507C231.096 200.325 231.067 200.155 231.009 199.997C230.951 199.84 230.862 199.713 230.741 199.616C230.62 199.519 230.466 199.47 230.279 199.47C230.092 199.47 229.938 199.519 229.818 199.616C229.697 199.713 229.607 199.84 229.549 199.997C229.491 200.155 229.462 200.325 229.462 200.507C229.462 200.689 229.491 200.859 229.549 201.015C229.607 201.171 229.697 201.297 229.818 201.393C229.938 201.489 230.092 201.537 230.279 201.537ZM232.574 200.216V201.856H232.155V199.129H232.559V199.555H232.595C232.659 199.417 232.756 199.306 232.886 199.222C233.016 199.136 233.184 199.094 233.39 199.094C233.575 199.094 233.737 199.132 233.875 199.207C234.014 199.282 234.121 199.396 234.198 199.548C234.275 199.7 234.314 199.891 234.314 200.123V201.856H233.895V200.152C233.895 199.938 233.839 199.771 233.728 199.651C233.617 199.53 233.464 199.47 233.27 199.47C233.136 199.47 233.016 199.499 232.911 199.557C232.807 199.615 232.725 199.7 232.664 199.811C232.604 199.922 232.574 200.057 232.574 200.216ZM237.629 201.913C237.366 201.913 237.14 201.855 236.949 201.739C236.76 201.622 236.614 201.459 236.511 201.249C236.409 201.039 236.358 200.793 236.358 200.514C236.358 200.235 236.409 199.989 236.511 199.775C236.614 199.561 236.757 199.394 236.94 199.275C237.125 199.154 237.34 199.094 237.587 199.094C237.729 199.094 237.869 199.117 238.007 199.165C238.146 199.212 238.272 199.289 238.386 199.396C238.499 199.501 238.59 199.641 238.657 199.815C238.725 199.989 238.758 200.203 238.758 200.457V200.635H236.656V200.273H238.332C238.332 200.119 238.302 199.981 238.24 199.861C238.18 199.74 238.093 199.645 237.981 199.575C237.869 199.505 237.738 199.47 237.587 199.47C237.42 199.47 237.275 199.512 237.153 199.594C237.033 199.676 236.94 199.783 236.875 199.914C236.809 200.045 236.777 200.186 236.777 200.337V200.578C236.777 200.784 236.812 200.959 236.883 201.102C236.956 201.244 237.056 201.352 237.183 201.427C237.311 201.5 237.46 201.537 237.629 201.537C237.739 201.537 237.839 201.521 237.927 201.491C238.017 201.459 238.095 201.411 238.16 201.349C238.225 201.285 238.275 201.205 238.311 201.111L238.716 201.224C238.673 201.362 238.602 201.482 238.501 201.587C238.4 201.69 238.276 201.77 238.128 201.828C237.98 201.885 237.814 201.913 237.629 201.913ZM239.815 200.216V201.856H239.396V199.129H239.801V199.555H239.836C239.9 199.417 239.997 199.306 240.127 199.222C240.258 199.136 240.426 199.094 240.632 199.094C240.816 199.094 240.978 199.132 241.116 199.207C241.255 199.282 241.363 199.396 241.44 199.548C241.516 199.7 241.555 199.891 241.555 200.123V201.856H241.136V200.152C241.136 199.938 241.08 199.771 240.969 199.651C240.858 199.53 240.705 199.47 240.511 199.47C240.377 199.47 240.258 199.499 240.152 199.557C240.048 199.615 239.966 199.7 239.905 199.811C239.845 199.922 239.815 200.057 239.815 200.216ZM243.507 199.129V199.484H242.093V199.129H243.507ZM242.505 198.476H242.924V201.075C242.924 201.194 242.942 201.282 242.976 201.342C243.011 201.4 243.056 201.439 243.111 201.459C243.166 201.478 243.225 201.487 243.287 201.487C243.333 201.487 243.371 201.485 243.4 201.48C243.43 201.474 243.453 201.469 243.471 201.466L243.556 201.842C243.528 201.853 243.488 201.864 243.437 201.874C243.387 201.886 243.322 201.892 243.244 201.892C243.126 201.892 243.01 201.867 242.896 201.816C242.783 201.765 242.69 201.687 242.615 201.583C242.542 201.479 242.505 201.347 242.505 201.189V198.476ZM244.137 201.856V199.129H244.542V199.541H244.57C244.62 199.406 244.71 199.297 244.84 199.213C244.97 199.129 245.117 199.087 245.281 199.087C245.311 199.087 245.35 199.087 245.396 199.088C245.442 199.09 245.477 199.091 245.501 199.094V199.52C245.486 199.516 245.454 199.511 245.403 199.504C245.353 199.496 245.301 199.491 245.245 199.491C245.112 199.491 244.994 199.519 244.89 199.575C244.787 199.629 244.705 199.705 244.645 199.802C244.586 199.898 244.556 200.007 244.556 200.131V201.856H244.137ZM247.058 201.913C246.795 201.913 246.568 201.855 246.378 201.739C246.188 201.622 246.042 201.459 245.939 201.249C245.837 201.039 245.787 200.793 245.787 200.514C245.787 200.235 245.837 199.989 245.939 199.775C246.042 199.561 246.185 199.394 246.369 199.275C246.554 199.154 246.769 199.094 247.015 199.094C247.157 199.094 247.298 199.117 247.436 199.165C247.575 199.212 247.701 199.289 247.814 199.396C247.928 199.501 248.018 199.641 248.086 199.815C248.153 199.989 248.187 200.203 248.187 200.457V200.635H246.085V200.273H247.761C247.761 200.119 247.73 199.981 247.669 199.861C247.608 199.74 247.522 199.645 247.409 199.575C247.298 199.505 247.167 199.47 247.015 199.47C246.848 199.47 246.704 199.512 246.582 199.594C246.461 199.676 246.368 199.783 246.303 199.914C246.238 200.045 246.206 200.186 246.206 200.337V200.578C246.206 200.784 246.241 200.959 246.312 201.102C246.384 201.244 246.484 201.352 246.612 201.427C246.74 201.5 246.889 201.537 247.058 201.537C247.168 201.537 247.267 201.521 247.356 201.491C247.446 201.459 247.524 201.411 247.589 201.349C247.654 201.285 247.704 201.205 247.74 201.111L248.145 201.224C248.102 201.362 248.03 201.482 247.93 201.587C247.829 201.69 247.705 201.77 247.557 201.828C247.409 201.885 247.243 201.913 247.058 201.913ZM212.62 204.22V207.856H212.201V204.22H212.62ZM214.531 207.913C214.268 207.913 214.042 207.855 213.851 207.739C213.662 207.622 213.515 207.459 213.412 207.249C213.311 207.039 213.26 206.793 213.26 206.514C213.26 206.235 213.311 205.989 213.412 205.775C213.515 205.561 213.659 205.394 213.842 205.275C214.027 205.154 214.242 205.094 214.488 205.094C214.63 205.094 214.771 205.117 214.909 205.165C215.048 205.212 215.174 205.289 215.287 205.396C215.401 205.501 215.492 205.641 215.559 205.815C215.627 205.989 215.66 206.203 215.66 206.457V206.635H213.558V206.273H215.234C215.234 206.119 215.203 205.981 215.142 205.861C215.081 205.74 214.995 205.645 214.883 205.575C214.771 205.505 214.64 205.47 214.488 205.47C214.322 205.47 214.177 205.512 214.055 205.594C213.934 205.676 213.842 205.783 213.776 205.914C213.711 206.045 213.679 206.186 213.679 206.337V206.578C213.679 206.784 213.714 206.959 213.785 207.102C213.857 207.244 213.958 207.352 214.085 207.427C214.213 207.5 214.362 207.537 214.531 207.537C214.641 207.537 214.741 207.521 214.829 207.491C214.919 207.459 214.997 207.411 215.062 207.349C215.127 207.285 215.177 207.205 215.213 207.111L215.618 207.224C215.575 207.362 215.503 207.482 215.403 207.587C215.302 207.69 215.178 207.77 215.03 207.828C214.882 207.885 214.716 207.913 214.531 207.913ZM218.23 205.74L217.853 205.847C217.829 205.784 217.795 205.723 217.748 205.664C217.703 205.603 217.642 205.554 217.564 205.514C217.486 205.475 217.386 205.456 217.264 205.456C217.097 205.456 216.958 205.494 216.846 205.571C216.736 205.647 216.681 205.744 216.681 205.861C216.681 205.965 216.719 206.047 216.795 206.108C216.871 206.168 216.989 206.218 217.15 206.258L217.555 206.358C217.799 206.417 217.98 206.508 218.1 206.63C218.219 206.75 218.279 206.906 218.279 207.097C218.279 207.253 218.234 207.392 218.144 207.516C218.056 207.639 217.931 207.736 217.771 207.807C217.612 207.878 217.426 207.913 217.214 207.913C216.936 207.913 216.705 207.853 216.523 207.732C216.341 207.611 216.226 207.435 216.177 207.203L216.575 207.104C216.613 207.25 216.684 207.36 216.79 207.434C216.896 207.507 217.035 207.544 217.207 207.544C217.402 207.544 217.557 207.503 217.672 207.42C217.788 207.336 217.846 207.235 217.846 207.118C217.846 207.023 217.813 206.944 217.747 206.88C217.68 206.815 217.578 206.766 217.441 206.734L216.987 206.628C216.737 206.569 216.553 206.477 216.436 206.353C216.32 206.227 216.262 206.07 216.262 205.882C216.262 205.728 216.305 205.592 216.392 205.474C216.479 205.355 216.598 205.262 216.749 205.195C216.9 205.127 217.072 205.094 217.264 205.094C217.534 205.094 217.745 205.153 217.899 205.271C218.054 205.39 218.164 205.546 218.23 205.74ZM220.316 208.879V205.129H220.721V205.562H220.771C220.802 205.515 220.844 205.455 220.899 205.381C220.954 205.307 221.034 205.24 221.137 205.182C221.241 205.123 221.382 205.094 221.559 205.094C221.789 205.094 221.991 205.151 222.166 205.266C222.342 205.381 222.478 205.543 222.577 205.754C222.675 205.965 222.724 206.213 222.724 206.5C222.724 206.789 222.675 207.039 222.577 207.251C222.478 207.462 222.342 207.625 222.168 207.741C221.994 207.856 221.794 207.913 221.566 207.913C221.391 207.913 221.251 207.884 221.145 207.826C221.04 207.767 220.959 207.7 220.902 207.626C220.845 207.55 220.802 207.487 220.771 207.437H220.735V208.879H220.316ZM220.728 206.493C220.728 206.699 220.758 206.88 220.819 207.038C220.879 207.194 220.967 207.317 221.083 207.405C221.199 207.493 221.341 207.537 221.509 207.537C221.685 207.537 221.831 207.491 221.948 207.398C222.066 207.305 222.155 207.179 222.214 207.022C222.275 206.863 222.305 206.687 222.305 206.493C222.305 206.301 222.275 206.128 222.216 205.974C222.158 205.819 222.07 205.697 221.952 205.607C221.834 205.516 221.687 205.47 221.509 205.47C221.339 205.47 221.196 205.513 221.08 205.6C220.964 205.685 220.876 205.804 220.817 205.958C220.758 206.111 220.728 206.289 220.728 206.493ZM223.782 204.22V207.856H223.363V204.22H223.782ZM225.352 207.92C225.179 207.92 225.023 207.888 224.882 207.823C224.741 207.756 224.629 207.661 224.546 207.537C224.463 207.411 224.422 207.26 224.422 207.082C224.422 206.926 224.453 206.799 224.514 206.702C224.576 206.604 224.658 206.527 224.761 206.472C224.864 206.416 224.978 206.374 225.102 206.347C225.227 206.319 225.353 206.296 225.48 206.28C225.646 206.258 225.78 206.242 225.883 206.232C225.987 206.22 226.063 206.2 226.11 206.173C226.159 206.146 226.183 206.099 226.183 206.031V206.017C226.183 205.842 226.135 205.706 226.039 205.609C225.945 205.512 225.801 205.463 225.608 205.463C225.408 205.463 225.251 205.507 225.137 205.594C225.024 205.682 224.944 205.775 224.898 205.875L224.5 205.733C224.571 205.567 224.666 205.438 224.784 205.346C224.904 205.252 225.034 205.187 225.175 205.15C225.317 205.113 225.456 205.094 225.594 205.094C225.681 205.094 225.782 205.104 225.896 205.126C226.01 205.146 226.121 205.188 226.228 205.252C226.335 205.316 226.425 205.412 226.496 205.541C226.567 205.67 226.602 205.843 226.602 206.06V207.856H226.183V207.487H226.162C226.133 207.546 226.086 207.61 226.02 207.677C225.954 207.745 225.865 207.802 225.755 207.849C225.645 207.897 225.511 207.92 225.352 207.92ZM225.416 207.544C225.582 207.544 225.722 207.511 225.835 207.446C225.95 207.381 226.036 207.297 226.094 207.194C226.154 207.091 226.183 206.983 226.183 206.869V206.486C226.165 206.507 226.126 206.527 226.066 206.544C226.007 206.561 225.938 206.576 225.86 206.589C225.783 206.601 225.708 206.611 225.635 206.621C225.562 206.629 225.504 206.636 225.459 206.642C225.35 206.656 225.248 206.679 225.153 206.711C225.06 206.742 224.984 206.789 224.926 206.851C224.869 206.913 224.841 206.997 224.841 207.104C224.841 207.249 224.895 207.359 225.002 207.434C225.111 207.507 225.249 207.544 225.416 207.544ZM228.553 205.129V205.484H227.14V205.129H228.553ZM227.552 204.476H227.971V207.075C227.971 207.194 227.988 207.282 228.022 207.342C228.058 207.4 228.103 207.439 228.157 207.459C228.213 207.478 228.271 207.487 228.333 207.487C228.379 207.487 228.417 207.485 228.447 207.48C228.476 207.474 228.5 207.469 228.518 207.466L228.603 207.842C228.574 207.853 228.535 207.864 228.484 207.874C228.433 207.886 228.368 207.892 228.29 207.892C228.172 207.892 228.056 207.867 227.942 207.816C227.83 207.765 227.736 207.687 227.662 207.583C227.588 207.479 227.552 207.347 227.552 207.189V204.476ZM230.298 207.913C230.035 207.913 229.808 207.855 229.618 207.739C229.428 207.622 229.282 207.459 229.179 207.249C229.077 207.039 229.026 206.793 229.026 206.514C229.026 206.235 229.077 205.989 229.179 205.775C229.282 205.561 229.425 205.394 229.609 205.275C229.793 205.154 230.009 205.094 230.255 205.094C230.397 205.094 230.537 205.117 230.676 205.165C230.814 205.212 230.94 205.289 231.054 205.396C231.168 205.501 231.258 205.641 231.326 205.815C231.393 205.989 231.427 206.203 231.427 206.457V206.635H229.325V206.273H231.001C231.001 206.119 230.97 205.981 230.908 205.861C230.848 205.74 230.762 205.645 230.649 205.575C230.538 205.505 230.407 205.47 230.255 205.47C230.088 205.47 229.944 205.512 229.822 205.594C229.701 205.676 229.608 205.783 229.543 205.914C229.478 206.045 229.445 206.186 229.445 206.337V206.578C229.445 206.784 229.481 206.959 229.552 207.102C229.624 207.244 229.724 207.352 229.852 207.427C229.98 207.5 230.128 207.537 230.298 207.537C230.408 207.537 230.507 207.521 230.596 207.491C230.686 207.459 230.763 207.411 230.829 207.349C230.894 207.285 230.944 207.205 230.979 207.111L231.384 207.224C231.342 207.362 231.27 207.482 231.169 207.587C231.069 207.69 230.945 207.77 230.797 207.828C230.649 207.885 230.482 207.913 230.298 207.913ZM233.279 205.129V205.484H231.809V205.129H233.279ZM232.249 207.856V204.753C232.249 204.597 232.286 204.466 232.359 204.362C232.432 204.258 232.528 204.18 232.645 204.128C232.762 204.076 232.886 204.05 233.016 204.05C233.119 204.05 233.203 204.058 233.268 204.074C233.333 204.091 233.382 204.106 233.414 204.121L233.293 204.483C233.272 204.476 233.242 204.467 233.204 204.456C233.168 204.446 233.119 204.44 233.059 204.44C232.92 204.44 232.82 204.475 232.759 204.545C232.698 204.615 232.668 204.717 232.668 204.852V207.856H232.249ZM234.862 207.913C234.616 207.913 234.399 207.855 234.214 207.737C234.029 207.62 233.885 207.456 233.78 207.246C233.677 207.035 233.626 206.789 233.626 206.507C233.626 206.223 233.677 205.975 233.78 205.763C233.885 205.551 234.029 205.387 234.214 205.269C234.399 205.152 234.616 205.094 234.862 205.094C235.108 205.094 235.323 205.152 235.508 205.269C235.694 205.387 235.838 205.551 235.941 205.763C236.045 205.975 236.098 206.223 236.098 206.507C236.098 206.789 236.045 207.035 235.941 207.246C235.838 207.456 235.694 207.62 235.508 207.737C235.323 207.855 235.108 207.913 234.862 207.913ZM234.862 207.537C235.049 207.537 235.203 207.489 235.323 207.393C235.444 207.297 235.533 207.171 235.591 207.015C235.649 206.859 235.678 206.689 235.678 206.507C235.678 206.325 235.649 206.155 235.591 205.997C235.533 205.84 235.444 205.713 235.323 205.616C235.203 205.519 235.049 205.47 234.862 205.47C234.675 205.47 234.521 205.519 234.4 205.616C234.279 205.713 234.19 205.84 234.132 205.997C234.074 206.155 234.045 206.325 234.045 206.507C234.045 206.689 234.074 206.859 234.132 207.015C234.19 207.171 234.279 207.297 234.4 207.393C234.521 207.489 234.675 207.537 234.862 207.537ZM236.737 207.856V205.129H237.142V205.541H237.17C237.22 205.406 237.31 205.297 237.44 205.213C237.57 205.129 237.717 205.087 237.881 205.087C237.911 205.087 237.95 205.087 237.996 205.088C238.042 205.09 238.077 205.091 238.101 205.094V205.52C238.087 205.516 238.054 205.511 238.003 205.504C237.953 205.496 237.901 205.491 237.845 205.491C237.713 205.491 237.594 205.519 237.49 205.575C237.387 205.629 237.305 205.705 237.245 205.802C237.186 205.898 237.156 206.007 237.156 206.131V207.856H236.737ZM238.598 207.856V205.129H239.002V205.555H239.038C239.095 205.41 239.186 205.297 239.313 205.216C239.44 205.134 239.592 205.094 239.769 205.094C239.949 205.094 240.099 205.134 240.219 205.216C240.339 205.297 240.433 205.41 240.501 205.555H240.529C240.599 205.414 240.704 205.303 240.844 205.22C240.983 205.136 241.151 205.094 241.346 205.094C241.59 205.094 241.789 205.17 241.944 205.323C242.1 205.474 242.177 205.71 242.177 206.031V207.856H241.758V206.031C241.758 205.83 241.703 205.686 241.593 205.6C241.483 205.513 241.353 205.47 241.204 205.47C241.012 205.47 240.864 205.528 240.758 205.644C240.653 205.759 240.6 205.905 240.6 206.081V207.856H240.174V205.989C240.174 205.833 240.124 205.709 240.023 205.614C239.923 205.518 239.793 205.47 239.634 205.47C239.526 205.47 239.424 205.499 239.329 205.557C239.236 205.615 239.16 205.696 239.102 205.799C239.045 205.9 239.017 206.018 239.017 206.152V207.856H238.598ZM244.087 207.913C243.824 207.913 243.597 207.855 243.407 207.739C243.217 207.622 243.071 207.459 242.968 207.249C242.866 207.039 242.815 206.793 242.815 206.514C242.815 206.235 242.866 205.989 242.968 205.775C243.071 205.561 243.214 205.394 243.398 205.275C243.582 205.154 243.798 205.094 244.044 205.094C244.186 205.094 244.326 205.117 244.465 205.165C244.603 205.212 244.729 205.289 244.843 205.396C244.957 205.501 245.047 205.641 245.115 205.815C245.182 205.989 245.216 206.203 245.216 206.457V206.635H243.114V206.273H244.79C244.79 206.119 244.759 205.981 244.697 205.861C244.637 205.74 244.551 205.645 244.438 205.575C244.327 205.505 244.196 205.47 244.044 205.47C243.877 205.47 243.733 205.512 243.611 205.594C243.49 205.676 243.397 205.783 243.332 205.914C243.267 206.045 243.234 206.186 243.234 206.337V206.578C243.234 206.784 243.27 206.959 243.341 207.102C243.413 207.244 243.513 207.352 243.641 207.427C243.769 207.5 243.917 207.537 244.087 207.537C244.197 207.537 244.296 207.521 244.385 207.491C244.475 207.459 244.552 207.411 244.618 207.349C244.683 207.285 244.733 207.205 244.769 207.111L245.173 207.224C245.131 207.362 245.059 207.482 244.958 207.587C244.858 207.69 244.734 207.77 244.586 207.828C244.438 207.885 244.271 207.913 244.087 207.913ZM247.785 205.74L247.409 205.847C247.385 205.784 247.35 205.723 247.304 205.664C247.259 205.603 247.197 205.554 247.119 205.514C247.041 205.475 246.941 205.456 246.819 205.456C246.652 205.456 246.513 205.494 246.402 205.571C246.292 205.647 246.237 205.744 246.237 205.861C246.237 205.965 246.275 206.047 246.351 206.108C246.426 206.168 246.545 206.218 246.706 206.258L247.11 206.358C247.354 206.417 247.536 206.508 247.656 206.63C247.775 206.75 247.835 206.906 247.835 207.097C247.835 207.253 247.79 207.392 247.7 207.516C247.611 207.639 247.487 207.736 247.327 207.807C247.167 207.878 246.981 207.913 246.77 207.913C246.491 207.913 246.261 207.853 246.079 207.732C245.897 207.611 245.781 207.435 245.733 207.203L246.13 207.104C246.168 207.25 246.24 207.36 246.345 207.434C246.452 207.507 246.591 207.544 246.762 207.544C246.958 207.544 247.113 207.503 247.228 207.42C247.344 207.336 247.402 207.235 247.402 207.118C247.402 207.023 247.369 206.944 247.302 206.88C247.236 206.815 247.134 206.766 246.997 206.734L246.542 206.628C246.293 206.569 246.109 206.477 245.992 206.353C245.876 206.227 245.818 206.07 245.818 205.882C245.818 205.728 245.861 205.592 245.947 205.474C246.035 205.355 246.154 205.262 246.304 205.195C246.456 205.127 246.628 205.094 246.819 205.094C247.089 205.094 247.301 205.153 247.455 205.271C247.61 205.39 247.72 205.546 247.785 205.74Z" fill="black"/>
<ellipse cx="260.096" cy="66.7415" rx="5.30234" ry="5.41925" fill="#0D5697"/>
<ellipse cx="234.254" cy="177.276" rx="5.30234" ry="5.41925" fill="#0D5697"/>
<ellipse cx="259.212" cy="196.276" rx="5.30234" ry="5.41925" fill="#0D5697"/>
<ellipse cx="262.207" cy="172.276" rx="5.30234" ry="5.41925" fill="#0D5697"/>
<ellipse cx="242.791" cy="62.179" rx="5.30234" ry="5.41925" fill="#0D5697"/>
<ellipse cx="249.484" cy="183.113" rx="5.30234" ry="5.41925" fill="#0D5697"/>
<ellipse cx="122.79" cy="215.629" rx="5.30234" ry="5.41925" fill="#0D5697"/>
<ellipse cx="137.02" cy="215.629" rx="5.30234" ry="5.41925" fill="#0D5697"/>
<ellipse cx="130.887" cy="201.367" rx="5.30234" ry="5.41925" fill="#0D5697"/>
<ellipse cx="116.93" cy="77.5804" rx="5.30234" ry="5.41925" fill="#0D5697"/>
<ellipse cx="101.021" cy="79.8616" rx="5.30234" ry="5.41925" fill="#0D5697"/>
<defs>
<filter id="filter0_d_1102_26072" x="90.632" y="210.257" width="51.6628" height="52.7673" filterUnits="userSpaceOnUse" color-interpolation-filters="sRGB">
<feFlood flood-opacity="0" result="BackgroundImageFix"/>
<feColorMatrix in="SourceAlpha" type="matrix" values="0 0 0 0 0 0 0 0 0 0 0 0 0 0 0 0 0 0 127 0" result="hardAlpha"/>
<feOffset dy="0.776205"/>
<feGaussianBlur stdDeviation="0.388102"/>
<feComposite in2="hardAlpha" operator="out"/>
<feColorMatrix type="matrix" values="0 0 0 0 0 0 0 0 0 0 0 0 0 0 0 0 0 0 0.25 0"/>
<feBlend mode="normal" in2="BackgroundImageFix" result="effect1_dropShadow_1102_26072"/>
<feBlend mode="normal" in="SourceGraphic" in2="effect1_dropShadow_1102_26072" result="shape"/>
</filter>
<filter id="filter1_d_1102_26072" x="211.791" y="60.2549" width="51.6628" height="52.7673" filterUnits="userSpaceOnUse" color-interpolation-filters="sRGB">
<feFlood flood-opacity="0" result="BackgroundImageFix"/>
<feColorMatrix in="SourceAlpha" type="matrix" values="0 0 0 0 0 0 0 0 0 0 0 0 0 0 0 0 0 0 127 0" result="hardAlpha"/>
<feOffset dy="0.776205"/>
<feGaussianBlur stdDeviation="0.388102"/>
<feComposite in2="hardAlpha" operator="out"/>
<feColorMatrix type="matrix" values="0 0 0 0 0 0 0 0 0 0 0 0 0 0 0 0 0 0 0.25 0"/>
<feBlend mode="normal" in2="BackgroundImageFix" result="effect1_dropShadow_1102_26072"/>
<feBlend mode="normal" in="SourceGraphic" in2="effect1_dropShadow_1102_26072" result="shape"/>
</filter>
<filter id="filter2_d_1102_26072" x="73.464" y="72.0352" width="51.6628" height="52.7673" filterUnits="userSpaceOnUse" color-interpolation-filters="sRGB">
<feFlood flood-opacity="0" result="BackgroundImageFix"/>
<feColorMatrix in="SourceAlpha" type="matrix" values="0 0 0 0 0 0 0 0 0 0 0 0 0 0 0 0 0 0 127 0" result="hardAlpha"/>
<feOffset dy="0.776205"/>
<feGaussianBlur stdDeviation="0.388102"/>
<feComposite in2="hardAlpha" operator="out"/>
<feColorMatrix type="matrix" values="0 0 0 0 0 0 0 0 0 0 0 0 0 0 0 0 0 0 0.25 0"/>
<feBlend mode="normal" in2="BackgroundImageFix" result="effect1_dropShadow_1102_26072"/>
<feBlend mode="normal" in="SourceGraphic" in2="effect1_dropShadow_1102_26072" result="shape"/>
</filter>
<filter id="filter3_d_1102_26072" x="204.028" y="176.594" width="51.6628" height="52.7673" filterUnits="userSpaceOnUse" color-interpolation-filters="sRGB">
<feFlood flood-opacity="0" result="BackgroundImageFix"/>
<feColorMatrix in="SourceAlpha" type="matrix" values="0 0 0 0 0 0 0 0 0 0 0 0 0 0 0 0 0 0 127 0" result="hardAlpha"/>
<feOffset dy="0.776205"/>
<feGaussianBlur stdDeviation="0.388102"/>
<feComposite in2="hardAlpha" operator="out"/>
<feColorMatrix type="matrix" values="0 0 0 0 0 0 0 0 0 0 0 0 0 0 0 0 0 0 0.25 0"/>
<feBlend mode="normal" in2="BackgroundImageFix" result="effect1_dropShadow_1102_26072"/>
<feBlend mode="normal" in="SourceGraphic" in2="effect1_dropShadow_1102_26072" result="shape"/>
</filter>
</defs>
</svg>
