<svg width="353" height="324" viewBox="0 0 353 324" fill="none" xmlns="http://www.w3.org/2000/svg">
<rect x="1.45538" y="1.45538" width="349.835" height="320.533" fill="white" stroke="#CCE7D7" stroke-width="2.91077"/>
<rect x="42" y="25.2139" width="59.4421" height="60.7527" fill="#FFC7C3"/>
<rect x="111.492" y="25.2139" width="59.4421" height="60.7527" fill="#C3E2DA"/>
<rect x="180.976" y="25.2139" width="59.4421" height="60.7527" fill="#F0E2AD"/>
<rect x="250.466" y="25.2139" width="59.4421" height="60.7527" fill="#CCE7D7"/>
<rect x="42.0024" y="96.2354" width="59.4421" height="60.7527" fill="#FFC7C3"/>
<rect x="111.492" y="96.2354" width="59.4421" height="60.7527" fill="#C3E2DA"/>
<rect x="180.976" y="96.2354" width="59.4421" height="60.7527" fill="#F0E2AD"/>
<rect x="250.466" y="96.2354" width="59.4421" height="60.7527" fill="#CCE7D7"/>
<rect x="111.492" y="167.256" width="59.4421" height="60.7527" fill="#C3E2DA"/>
<rect x="111.492" y="238.277" width="59.4421" height="60.7527" fill="#C3E2DA"/>
<rect x="180.976" y="167.256" width="59.4421" height="60.7527" fill="#F0E2AD"/>
<rect x="180.976" y="238.277" width="59.4421" height="60.7527" fill="#F0E2AD"/>
<rect x="250.466" y="167.256" width="59.4421" height="60.7527" fill="#CCE7D7"/>
<rect x="250.466" y="238.277" width="59.4421" height="60.7527" fill="#CCE7D7"/>
<rect x="42.0024" y="167.256" width="59.4421" height="60.7527" fill="#FFC7C3"/>
<rect x="42.0024" y="238.277" width="59.4421" height="60.7527" fill="#FFC7C3"/>
</svg>
