<svg width="61" height="60" viewBox="0 0 61 60" fill="none" xmlns="http://www.w3.org/2000/svg">
<g clip-path="url(#clip0_824_2044)">
<g clip-path="url(#clip1_824_2044)">
<path d="M5.97361 12.6422C5.97361 11.0295 6.61425 9.48286 7.75459 8.34251C8.89494 7.20216 10.4416 6.56152 12.0543 6.56152C13.667 6.56152 15.2136 7.20216 16.354 8.34251C17.4943 9.48286 18.1349 11.0295 18.1349 12.6422C18.1349 14.2549 17.4943 15.8015 16.354 16.9419C15.2136 18.0822 13.667 18.7229 12.0543 18.7229C10.4416 18.7229 8.89494 18.0822 7.75459 16.9419C6.61425 15.8015 5.97361 14.2549 5.97361 12.6422ZM2.35371 28.737C2.67674 24.794 5.97361 21.7632 9.92604 21.7632H14.1825C16.7478 21.7632 19.028 23.0363 20.4057 25.0031C20.1492 25.1836 19.9116 25.3831 19.6931 25.6016L13.6124 31.6823C11.5317 33.763 11.5317 37.1264 13.6124 39.2071L18.1349 43.7296V50.6464C18.1349 53.1642 16.0922 55.2069 13.5744 55.2069H10.5341C8.01633 55.2069 5.97361 53.1642 5.97361 50.6464V39.6537C3.45583 38.7511 1.72664 36.2523 1.96416 33.421L2.35371 28.737ZM42.4576 12.6422C42.4576 11.0295 43.0983 9.48286 44.2386 8.34251C45.379 7.20216 46.9256 6.56152 48.5383 6.56152C50.151 6.56152 51.6976 7.20216 52.838 8.34251C53.9783 9.48286 54.619 11.0295 54.619 12.6422C54.619 14.2549 53.9783 15.8015 52.838 16.9419C51.6976 18.0822 50.151 18.7229 48.5383 18.7229C46.9256 18.7229 45.379 18.0822 44.2386 16.9419C43.0983 15.8015 42.4576 14.2549 42.4576 12.6422ZM40.8995 25.6016C40.6809 25.3831 40.4339 25.1836 40.1869 25.0031C41.5645 23.0363 43.8543 21.7632 46.4101 21.7632H50.6665C54.619 21.7632 57.9158 24.794 58.2389 28.737L58.6284 33.421C58.8659 36.2523 57.1367 38.7511 54.619 39.6537V50.6464C54.619 53.1642 52.5762 55.2069 50.0585 55.2069H47.0181C44.5003 55.2069 42.4576 53.1642 42.4576 50.6464V43.7296L46.9801 39.2071C49.0609 37.1264 49.0609 33.763 46.9801 31.6823L40.8995 25.6016ZM25.7358 29.364V32.4044H34.8568V29.364C34.8568 28.4424 35.4078 27.6063 36.2629 27.2548C37.118 26.9033 38.0966 27.0933 38.7522 27.7489L44.8329 33.8295C45.726 34.7226 45.726 36.1668 44.8329 37.0504L38.7522 43.131C38.0966 43.7866 37.118 43.9766 36.2629 43.6251C35.4078 43.2736 34.8568 42.4375 34.8568 41.5159V38.4755H25.7358V41.5159C25.7358 42.4375 25.1847 43.2736 24.3296 43.6251C23.4745 43.9766 22.4959 43.7866 21.8404 43.131L15.7597 37.0504C14.8666 36.1573 14.8666 34.7131 15.7597 33.8295L21.8404 27.7489C22.4959 27.0933 23.4745 26.9033 24.3296 27.2548C25.1847 27.6063 25.7358 28.4424 25.7358 29.364Z" fill="#038750"/>
</g>
</g>
<defs>
<clipPath id="clip0_824_2044">
<rect width="60.9478" height="60" fill="white"/>
</clipPath>
<clipPath id="clip1_824_2044">
<rect width="60.8067" height="48.6454" fill="white" transform="translate(-0.107422 6.56152)"/>
</clipPath>
</defs>
</svg>
