<svg width="440" height="490" viewBox="190 78 440 490" fill="none" xmlns="http://www.w3.org/2000/svg">
  <!-- Dark green side faces -->
  <path fill-rule="evenodd" clip-rule="evenodd" d="M538.571 512.008V335.641L617.231 306.247V484.414L538.571 512.008Z" fill="#005331"/>
  <path fill-rule="evenodd" clip-rule="evenodd" d="M277.372 557V462.66L459.911 390.231V484.414L277.372 557Z" fill="#005331"/>
  <path fill-rule="evenodd" clip-rule="evenodd" d="M383.053 140.078L459.911 111.883V247.458L383.053 276.252V140.078Z" fill="#005331"/>
  <!-- Medium green main face -->
  <path fill-rule="evenodd" clip-rule="evenodd" d="M538.571 335.641V512.008L459.911 484.414V390.231L277.372 462.66V557L198.712 527.605V433.423L307.995 390.231V111.883L383.053 140.078V276.252L459.911 247.458L617.231 306.247L538.571 335.641Z" fill="#00905D"/>
  <!-- Top flat face of the highest step -->
  <path fill-rule="evenodd" clip-rule="evenodd" d="M459.911 111.883L383.053 140.078L307.995 111.883L383.053 83.0884L459.911 111.883Z" fill="#00905D"/>
  <!-- Walking person — head -->
  <path d="M490.534 242.968C488.969 242.968 487.701 241.699 487.701 240.135C487.701 238.57 488.969 237.301 490.534 237.301C492.099 237.301 493.367 238.57 493.367 240.135C493.367 241.699 492.099 242.968 490.534 242.968Z" fill="black"/>
  <path d="M493.539 248.398L498.141 288.792L496.545 290.701L494.641 288.618L491.198 274.367L482.896 287.749L479.672 286.904L486.119 272.822L486.858 248.059L491.581 245.932L493.539 248.398Z" fill="black"/>
  <path d="M490.469 242.645C489.059 242.645 487.917 241.495 487.917 240.077C487.917 238.659 489.059 237.509 490.469 237.509C491.878 237.509 493.021 238.659 493.021 240.077C493.021 241.495 491.878 242.645 490.469 242.645Z" stroke="black" stroke-width="1.88889" stroke-miterlimit="10"/>
  <path d="M496.545 287.913C496.637 288.85 496.057 289.617 495.256 289.617C494.455 289.617 493.598 288.874 493.352 287.965L488.686 270.748C488.44 269.839 487.798 268.465 487.261 267.694L485.39 265.007C484.854 264.237 484.452 262.836 484.497 261.896L484.922 253.123L485.193 248.564C485.304 246.684 486.928 245.111 488.8 245.111H488.843C490.715 245.111 492.416 246.678 492.626 248.549L493.098 252.804L496.545 287.913Z" stroke="black" stroke-width="1.88889" stroke-miterlimit="10" stroke-linecap="round" stroke-linejoin="round"/>
  <path d="M486.923 265.794L485.374 275.654C485.228 276.584 484.711 278.004 484.225 278.808L480.122 285.604C479.636 286.408 479.813 287.452 480.515 287.922C481.216 288.393 482.245 288.159 482.801 287.401L487.283 281.294C487.838 280.536 488.571 279.198 488.911 278.322L490.785 273.484M490.304 250.267L490.257 255.617C490.249 256.558 490.425 258.076 490.646 258.991L493.065 268.955" stroke="black" stroke-width="1.88889" stroke-miterlimit="10" stroke-linecap="round" stroke-linejoin="round"/>
  <!-- Shadow under person -->
  <path d="M535.343 300.669C535.558 299.307 537.915 299.365 539.843 299.669C541.771 299.974 544.059 300.807 543.844 302.169C543.629 303.531 541.271 303.474 539.343 303.169C537.415 302.865 535.128 302.031 535.343 300.669Z" fill="black" fill-opacity="0.21"/>
  <path d="M531.265 301.531L491.131 293.671L479.846 290.451L481.346 289.264L492.131 292.141L513.131 296L496.346 289.951L497.346 287.951L508.131 293C508.131 293 530.954 296.934 532.177 297.922C533.401 298.91 533.849 299.523 533.859 300.841C533.471 301.651 532.713 301.639 531.265 301.531Z" fill="black" fill-opacity="0.26"/>
</svg>
