<svg width="55" height="54" viewBox="0 0 55 54" fill="none" xmlns="http://www.w3.org/2000/svg">
<rect width="55" height="54" fill="white" fill-opacity="0.2"/>
<path d="M41.25 22.95C41.25 26.8228 39.9695 30.4003 37.8125 33.3028L48.6922 43.9932C49.7664 45.0478 49.7664 46.7607 48.6922 47.8153C47.618 48.87 45.8734 48.87 44.7992 47.8153L33.9195 37.125C30.9633 39.2428 27.3195 40.5 23.375 40.5C13.5008 40.5 5.5 32.6447 5.5 22.95C5.5 13.2553 13.5008 5.40002 23.375 5.40002C33.2492 5.40002 41.25 13.2553 41.25 22.95ZM23.375 35.1C30.207 35.1 35.75 29.6578 35.75 22.95C35.75 16.2422 30.207 10.8 23.375 10.8C16.543 10.8 11 16.2422 11 22.95C11 29.6578 16.543 35.1 23.375 35.1Z" fill="#BBE4D2"/>
</svg>
