<svg width="110" height="109" viewBox="0 0 110 109" fill="none" xmlns="http://www.w3.org/2000/svg">
<path d="M12.1845 27.6358L10.823 27.7168C13.6904 39.3355 19.9284 52.0058 32.9622 59.2675C45.8768 66.4628 65.0686 68.1078 93.5539 58.8571L92.8907 57.3307L92.2276 55.8044C63.9497 64.9877 45.5808 63.1005 33.7294 56.4976C21.9972 49.961 16.2636 38.5668 13.546 27.5549L12.1845 27.6358Z" fill="black"/>
<path d="M66.889 50.303C66.3527 50.1712 65.9336 50.5118 65.953 51.0638C65.9723 51.6157 66.4228 52.17 66.9591 52.3018L66.9241 51.3024L66.889 50.303ZM95.3532 55.5961L94.7651 54.6418L95.3532 55.5961ZM89.4568 66.7187L88.518 66.1978L89.4568 66.7187ZM90.9412 79.7973L91.7972 79.5702L91.7906 79.5562L90.9412 79.7973ZM90.0852 80.0268C90.3392 80.5802 90.9284 80.9273 91.4011 80.802C91.8739 80.6766 92.0511 80.1264 91.7971 79.5729L90.9411 79.7999L90.0852 80.0268ZM66.9241 51.3024L66.9591 52.3018C70.9875 53.2916 77.4036 54.7219 83.1783 55.7295C86.0639 56.233 88.8075 56.6342 91.0196 56.8202C92.1248 56.9131 93.1147 56.9538 93.9313 56.9232C94.7234 56.8935 95.4444 56.795 95.9413 56.5505L95.3532 55.5961L94.7651 54.6418C94.5475 54.7489 94.095 54.8415 93.3491 54.8694C92.6277 54.8964 91.7152 54.8612 90.6481 54.7715C88.5155 54.5922 85.8349 54.2017 82.9734 53.7024C77.254 52.7045 70.8844 51.2847 66.889 50.303L66.9241 51.3024ZM95.3532 55.5961L95.9413 56.5505C96.082 56.4812 96.1259 56.4745 96.1041 56.4784C96.1006 56.479 95.9936 56.5011 95.8269 56.4573C95.616 56.4017 95.2738 56.2208 95.0545 55.8215C94.8862 55.5152 94.905 55.2753 94.9086 55.2315C94.9143 55.1614 94.9284 55.1276 94.9234 55.1422C94.9146 55.1677 94.8839 55.2381 94.8115 55.3655C94.5171 55.8829 93.8838 56.749 93.0718 57.8986C91.502 60.1208 89.3392 63.2998 88.518 66.1978L89.4568 66.7187L90.3956 67.2396C91.1337 64.6347 93.1394 61.6517 94.7383 59.3881C95.5106 58.2948 96.2115 57.3369 96.5502 56.7413C96.636 56.5905 96.7199 56.4271 96.7747 56.2677C96.8014 56.1899 96.8346 56.0759 96.8458 55.9385C96.8548 55.8273 96.8655 55.5328 96.6746 55.1854C96.4327 54.745 96.0535 54.5363 95.7901 54.4669C95.571 54.4093 95.3962 54.4316 95.3085 54.4469C95.1186 54.4801 94.9295 54.5609 94.7651 54.6418L95.3532 55.5961ZM89.4568 66.7187L88.518 66.1978C86.7982 72.2672 89.188 78.126 90.0919 80.0384L90.9412 79.7973L91.7906 79.5562C90.9946 77.8719 88.8641 72.6443 90.3956 67.2396L89.4568 66.7187ZM90.9412 79.7973L90.0853 80.0243C90.1353 80.1332 90.1658 80.1996 90.1818 80.2345C90.1858 80.2433 90.1888 80.2498 90.1909 80.2544C90.1919 80.2567 90.1927 80.2583 90.1932 80.2594C90.1938 80.2608 90.1937 80.2605 90.1932 80.2594C90.193 80.2591 90.192 80.2567 90.1905 80.2535C90.1901 80.2526 90.1892 80.2506 90.1888 80.2495C90.1881 80.248 90.1865 80.2444 90.1856 80.2424C90.1843 80.2393 90.1808 80.2312 90.1787 80.2262C90.1747 80.2166 90.1611 80.182 90.1518 80.1569C90.0954 79.9387 90.753 79.0144 91.8148 79.6415C91.8437 79.6887 91.8778 79.7504 91.8848 79.7641C91.8881 79.7706 91.8932 79.7808 91.895 79.7845C91.8962 79.787 91.8982 79.7911 91.899 79.7928C91.9006 79.7963 91.9019 79.7989 91.9024 79.8C91.903 79.8013 91.9035 79.8024 91.9038 79.803C91.9047 79.8048 91.9051 79.8058 91.9046 79.8046C91.9043 79.8039 91.9037 79.8027 91.9029 79.8009C91.8958 79.7857 91.8792 79.7496 91.8572 79.702C91.8355 79.6548 91.8092 79.5976 91.783 79.5408C91.7569 79.4842 91.731 79.4279 91.7103 79.3829C91.6999 79.3604 91.6908 79.3406 91.6835 79.3248C91.6799 79.3169 91.6766 79.31 91.6739 79.3041C91.6713 79.2984 91.6689 79.2931 91.6669 79.2889C91.6661 79.2871 91.6646 79.284 91.663 79.2807C91.6626 79.2797 91.662 79.2784 91.6613 79.2769C91.6606 79.2755 91.6595 79.2731 91.658 79.2701C91.6573 79.2687 91.6558 79.2654 91.6549 79.2636C91.6536 79.261 91.6505 79.2547 91.6487 79.2509C91.6456 79.2448 91.6364 79.2268 91.6302 79.2151C91.6126 79.1831 91.3309 78.8271 90.9964 78.5974C90.0844 78.6549 89.902 79.609 89.9197 79.6586C89.9255 79.6737 89.9346 79.696 89.9376 79.7034C89.9394 79.7077 89.9425 79.7148 89.9437 79.7177C89.9446 79.7197 89.9462 79.7232 89.9468 79.7248C89.9483 79.728 89.9494 79.7306 89.9501 79.732C89.9508 79.7336 89.9514 79.735 89.9518 79.7359C89.9534 79.7394 89.9548 79.7426 89.9557 79.7446C89.9578 79.7491 89.9605 79.7551 89.9637 79.7621C89.967 79.7693 89.9711 79.7782 89.9761 79.7891C89.9959 79.8324 90.0307 79.9082 90.0852 80.0268L90.9411 79.7999L91.7971 79.5729C91.7426 79.4543 91.7082 79.3794 91.6889 79.3371C91.684 79.3265 91.6802 79.3181 91.6772 79.3117C91.6742 79.3051 91.6724 79.3012 91.6716 79.2993C91.671 79.298 91.6714 79.2989 91.6722 79.3008C91.6725 79.3013 91.673 79.3024 91.6735 79.3037C91.674 79.3048 91.6751 79.3071 91.6764 79.3102C91.6771 79.3116 91.6786 79.3151 91.6794 79.317C91.6806 79.3198 91.6837 79.3269 91.6855 79.3312C91.6885 79.3384 91.6975 79.3608 91.7033 79.3758C91.721 79.4254 91.5386 80.3795 90.6266 80.437C90.2921 80.2073 90.0104 79.8513 89.9929 79.8194C89.9867 79.8076 89.9775 79.7897 89.9744 79.7836C89.9726 79.7799 89.9695 79.7736 89.9683 79.7712C89.9675 79.7694 89.9659 79.7662 89.9653 79.7649C89.9639 79.7621 89.9629 79.7598 89.9624 79.7588C89.9618 79.7575 89.9613 79.7566 89.9611 79.756C89.9602 79.7542 89.9598 79.7533 89.9603 79.7544C89.9611 79.756 89.9626 79.7593 89.9651 79.7646C89.9674 79.7697 89.9704 79.7761 89.9739 79.7837C89.9809 79.7988 89.9898 79.8182 90.0001 79.8405C90.0207 79.8852 90.0464 79.9411 90.0725 79.9978C90.0986 80.0545 90.1251 80.1119 90.1469 80.1593C90.1685 80.2061 90.1862 80.2446 90.1944 80.2623C90.1955 80.2647 90.1966 80.267 90.1975 80.2691C90.1983 80.2707 90.1997 80.2738 90.2012 80.277C90.2017 80.2779 90.2023 80.2793 90.2031 80.2809C90.2037 80.2822 90.2051 80.2851 90.2068 80.2887C90.2076 80.2904 90.2097 80.2947 90.2109 80.2972C90.2127 80.301 90.2178 80.3113 90.2211 80.3177C90.2282 80.3314 90.2623 80.3932 90.2912 80.4404C91.353 81.0675 92.0106 80.1432 91.9541 79.925C91.9449 79.8999 91.9312 79.8652 91.9272 79.8556C91.9251 79.8506 91.9216 79.8424 91.9202 79.8393C91.9193 79.8372 91.9177 79.8335 91.917 79.8319C91.9165 79.8307 91.9156 79.8286 91.9151 79.8277C91.9135 79.8239 91.9121 79.8209 91.9116 79.8198C91.9103 79.817 91.9091 79.8142 91.9081 79.8122C91.9071 79.8099 91.9059 79.8073 91.9046 79.8045C91.902 79.7988 91.8987 79.7915 91.8945 79.7825C91.878 79.7464 91.8471 79.6791 91.7972 79.5703L90.9412 79.7973Z" fill="black"/>
</svg>
