<svg width="20" height="20" viewBox="0 0 20 20" fill="none" xmlns="http://www.w3.org/2000/svg">
<path d="M8 14C9.66667 14 11.0833 13.4167 12.25 12.25C13.4167 11.0833 14 9.66667 14 8C14 6.33333 13.4167 4.91667 12.25 3.75C11.0833 2.58333 9.66667 2 8 2C6.33333 2 4.91667 2.58333 3.75 3.75C2.58333 4.91667 2 6.33333 2 8C2 9.66667 2.58333 11.0833 3.75 12.25C4.91667 13.4167 6.33333 14 8 14ZM7 11V4H9V11H7ZM3.5 11V6H5.5V11H3.5ZM10.5 11V7H12.5V11H10.5ZM18.6 20L12.925 14.325C12.2417 14.8583 11.4833 15.271 10.65 15.563C9.81667 15.855 8.93333 16.0007 8 16C5.76667 16 3.875 15.225 2.325 13.675C0.775 12.125 0 10.2333 0 8C0 5.76667 0.775 3.875 2.325 2.325C3.875 0.775 5.76667 0 8 0C10.2333 0 12.125 0.775 13.675 2.325C15.225 3.875 16 5.76667 16 8C16 8.93333 15.8543 9.81667 15.563 10.65C15.2717 11.4833 14.859 12.2417 14.325 12.925L20 18.6L18.6 20Z" fill="black"/>
</svg>
