<svg width="54" height="49" viewBox="0 0 54 49" fill="none" xmlns="http://www.w3.org/2000/svg">
<path d="M2 13.25V7.625C2 6.13316 2.58532 4.70242 3.62718 3.64752C4.66905 2.59263 6.08213 2 7.55556 2H46.4444C47.9179 2 49.3309 2.59263 50.3728 3.64752C51.4147 4.70242 52 6.13316 52 7.625V13.25M2 13.25V30.125M2 13.25H18.6667M52 13.25V30.125M52 13.25H18.6667M2 30.125V41.375C2 42.8668 2.58532 44.2976 3.62718 45.3525C4.66905 46.4074 6.08213 47 7.55556 47H18.6667M2 30.125H18.6667M18.6667 13.25V30.125M52 30.125V41.375C52 42.8668 51.4147 44.2976 50.3728 45.3525C49.3309 46.4074 47.9179 47 46.4444 47H18.6667M52 30.125H18.6667M18.6667 47V30.125M35.3333 13.25V47" stroke="#038750" stroke-width="4" stroke-linecap="round" stroke-linejoin="round"/>
</svg>
