<svg width="55" height="55" viewBox="0 0 55 55" fill="none" xmlns="http://www.w3.org/2000/svg">
<rect width="55" height="55" rx="27.5" fill="white"/>
<path d="M27.5 14C35.2322 14 41.5 20.044 41.5 27.5C41.5 34.9561 35.2322 41 27.5 41C19.7678 41 13.5 34.9561 13.5 27.5C13.5 20.044 19.7678 14 27.5 14ZM27.5 15.8832C24.3049 15.8832 21.2407 17.1072 18.9815 19.2857C16.7222 21.4643 15.453 24.419 15.453 27.5C15.453 30.581 16.7222 33.5357 18.9815 35.7143C21.2407 37.8928 24.3049 39.1168 27.5 39.1168C30.6951 39.1168 33.7593 37.8928 36.0185 35.7143C38.2778 33.5357 39.547 30.581 39.547 27.5C39.547 24.419 38.2778 21.4643 36.0185 19.2857C33.7593 17.1072 30.6951 15.8832 27.5 15.8832ZM26.198 21.5343C26.737 21.5343 27.1738 21.9569 27.1738 22.4767V29.0701H34.0114C34.264 29.0793 34.503 29.1825 34.6784 29.3581C34.8537 29.5337 34.9516 29.7679 34.9516 30.0117C34.9516 30.2554 34.8537 30.4897 34.6784 30.6653C34.503 30.8408 34.264 30.9441 34.0114 30.9533H26.198C25.9391 30.9526 25.6909 30.8531 25.5078 30.6765C25.3247 30.5 25.2215 30.2607 25.2208 30.011V22.478C25.2208 21.9569 25.6576 21.5343 26.198 21.5343Z" fill="#038750"/>
</svg>
