<svg width="27" height="23" viewBox="0 0 27 23" fill="none" xmlns="http://www.w3.org/2000/svg">
<path d="M9.33333 22H13.5M13.5 22H17.6667M13.5 22V18.0625M13.5 18.0625H23.2222C23.9589 18.0625 24.6655 17.7859 25.1864 17.2937C25.7073 16.8014 26 16.1337 26 15.4375V3.625C26 2.92881 25.7073 2.26113 25.1864 1.76884C24.6655 1.27656 23.9589 1 23.2222 1H3.77778C3.04107 1 2.33453 1.27656 1.81359 1.76884C1.29266 2.26113 1 2.92881 1 3.625V15.4375C1 16.1337 1.29266 16.8014 1.81359 17.2937C2.33453 17.7859 3.04107 18.0625 3.77778 18.0625H13.5Z" stroke="#038750" stroke-width="2" stroke-linecap="round" stroke-linejoin="round"/>
</svg>
