<svg width="695" height="557" viewBox="0 0 695 557" fill="none" xmlns="http://www.w3.org/2000/svg">
<path d="M199 495H18V280" stroke="#038750" stroke-width="1.53867"/>
<path d="M9.26565 264.43C7.62097 264.424 6.20578 264.019 5.02009 263.216C3.84077 262.413 2.93237 261.249 2.2949 259.726C1.6638 258.202 1.35144 256.369 1.35781 254.228C1.35781 252.092 1.67336 250.272 2.30446 248.768C2.94193 247.263 3.85033 246.119 5.02965 245.335C6.21535 244.544 7.62735 244.149 9.26565 244.149C10.9039 244.149 12.3128 244.544 13.4921 245.335C14.6778 246.125 15.5894 247.273 16.2268 248.777C16.8643 250.275 17.1799 252.092 17.1735 254.228C17.1735 256.376 16.8547 258.212 16.2173 259.735C15.5862 261.259 14.681 262.422 13.5016 263.225C12.3223 264.029 10.9103 264.43 9.26565 264.43ZM9.26565 260.998C10.3876 260.998 11.2832 260.433 11.9526 259.305C12.6219 258.177 12.9534 256.484 12.947 254.228C12.947 252.742 12.7941 251.506 12.4881 250.517C12.1885 249.529 11.7613 248.787 11.2067 248.29C10.6585 247.792 10.0115 247.544 9.26565 247.544C8.15007 247.544 7.25761 248.101 6.58827 249.217C5.91892 250.333 5.58106 252.003 5.57469 254.228C5.57469 255.732 5.72449 256.988 6.02411 257.995C6.33009 258.996 6.76038 259.748 7.31499 260.252C7.86959 260.749 8.51981 260.998 9.26565 260.998ZM20.1258 264V261.017L27.0965 254.562C27.6894 253.989 28.1866 253.472 28.5882 253.013C28.9962 252.554 29.3054 252.105 29.5157 251.665C29.7261 251.219 29.8313 250.737 29.8313 250.221C29.8313 249.647 29.7006 249.153 29.4392 248.739C29.1779 248.318 28.8209 247.996 28.3683 247.773C27.9157 247.544 27.4025 247.429 26.8288 247.429C26.2296 247.429 25.7068 247.55 25.2606 247.792C24.8144 248.035 24.4701 248.382 24.2279 248.835C23.9857 249.287 23.8645 249.826 23.8645 250.451H19.9345C19.9345 249.169 20.2246 248.057 20.8047 247.113C21.3848 246.17 22.1976 245.44 23.243 244.924C24.2885 244.407 25.4933 244.149 26.8575 244.149C28.2599 244.149 29.4807 244.398 30.5197 244.895C31.5652 245.386 32.378 246.068 32.9581 246.941C33.5382 247.815 33.8282 248.815 33.8282 249.944C33.8282 250.683 33.6816 251.413 33.3884 252.133C33.1015 252.854 32.5883 253.654 31.8489 254.534C31.1094 255.407 30.0671 256.456 28.7221 257.679L25.863 260.481V260.615H34.0864V264H20.1258Z" fill="black"/>
<path d="M666.502 324.933C664.857 324.927 663.442 324.522 662.256 323.719C661.077 322.916 660.169 321.752 659.531 320.229C658.9 318.705 658.588 316.872 658.594 314.73C658.594 312.595 658.91 310.775 659.541 309.27C660.178 307.766 661.087 306.622 662.266 305.838C663.452 305.047 664.864 304.652 666.502 304.652C668.14 304.652 669.549 305.047 670.728 305.838C671.914 306.628 672.826 307.776 673.463 309.28C674.101 310.778 674.416 312.595 674.41 314.73C674.41 316.879 674.091 318.715 673.454 320.238C672.823 321.762 671.917 322.925 670.738 323.728C669.559 324.531 668.147 324.933 666.502 324.933ZM666.502 321.5C667.624 321.5 668.52 320.936 669.189 319.808C669.858 318.68 670.19 316.987 670.183 314.73C670.183 313.245 670.03 312.008 669.724 311.02C669.425 310.032 668.998 309.29 668.443 308.792C667.895 308.295 667.248 308.046 666.502 308.046C665.386 308.046 664.494 308.604 663.825 309.72C663.155 310.835 662.817 312.506 662.811 314.73C662.811 316.235 662.961 317.491 663.26 318.498C663.566 319.499 663.997 320.251 664.551 320.754C665.106 321.252 665.756 321.5 666.502 321.5ZM677.066 321.06V317.8L685.241 304.92H688.052V309.433H686.389L681.235 317.589V317.742H692.853V321.06H677.066ZM686.465 324.503V320.066L686.542 318.622V304.92H690.424V324.503H686.465Z" fill="black"/>
<path d="M492.632 26.4303C490.987 26.4239 489.572 26.0191 488.386 25.2159C487.207 24.4127 486.299 23.2493 485.661 21.7258C485.03 20.2022 484.718 18.3695 484.724 16.2276C484.724 14.092 485.04 12.2721 485.671 10.7676C486.308 9.26319 487.217 8.11893 488.396 7.33484C489.582 6.54437 490.994 6.14914 492.632 6.14914C494.27 6.14914 495.679 6.54437 496.858 7.33484C498.044 8.1253 498.956 9.27275 499.593 10.7772C500.231 12.2752 500.546 14.092 500.54 16.2276C500.54 18.3758 500.221 20.2118 499.583 21.7353C498.952 23.2589 498.047 24.4223 496.868 25.2255C495.689 26.0287 494.277 26.4303 492.632 26.4303ZM492.632 22.9975C493.754 22.9975 494.649 22.4333 495.319 21.305C495.988 20.1767 496.32 18.4842 496.313 16.2276C496.313 14.7423 496.16 13.5056 495.854 12.5175C495.555 11.5294 495.128 10.7867 494.573 10.2895C494.025 9.79229 493.378 9.54367 492.632 9.54367C491.516 9.54367 490.624 10.1015 489.954 11.217C489.285 12.3326 488.947 14.0028 488.941 16.2276C488.941 17.732 489.091 18.9878 489.39 19.995C489.696 20.9958 490.127 21.7481 490.681 22.2517C491.236 22.7489 491.886 22.9975 492.632 22.9975ZM510.73 26.2677C509.303 26.2677 508.031 26.0223 506.915 25.5315C505.806 25.0342 504.929 24.3521 504.286 23.4852C503.648 22.6118 503.32 21.6046 503.301 20.4636H507.47C507.495 20.9417 507.651 21.3624 507.938 21.7258C508.232 22.0827 508.62 22.36 509.105 22.5577C509.589 22.7553 510.134 22.8541 510.74 22.8541C511.371 22.8541 511.929 22.7425 512.413 22.5194C512.898 22.2963 513.277 21.9871 513.551 21.5919C513.825 21.1967 513.962 20.7409 513.962 20.2245C513.962 19.7018 513.816 19.2396 513.523 18.838C513.236 18.43 512.821 18.1113 512.28 17.8818C511.744 17.6523 511.107 17.5376 510.367 17.5376H508.541V14.4968H510.367C510.992 14.4968 511.543 14.3885 512.021 14.1717C512.506 13.955 512.882 13.6554 513.15 13.2729C513.417 12.884 513.551 12.4314 513.551 11.9151C513.551 11.4242 513.433 10.9939 513.197 10.6242C512.968 10.2481 512.643 9.95484 512.222 9.74448C511.808 9.53411 511.323 9.42893 510.769 9.42893C510.208 9.42893 509.695 9.53092 509.229 9.73492C508.764 9.93253 508.391 10.2162 508.11 10.5859C507.83 10.9557 507.68 11.3892 507.661 11.8864H503.693C503.712 10.7581 504.034 9.7636 504.659 8.90302C505.283 8.04243 506.125 7.3699 507.183 6.88542C508.248 6.39456 509.449 6.14914 510.788 6.14914C512.139 6.14914 513.322 6.39456 514.335 6.88542C515.349 7.37627 516.136 8.03924 516.697 8.87433C517.265 9.70304 517.545 10.6338 517.539 11.6665C517.545 12.7629 517.204 13.6777 516.516 14.4108C515.833 15.1439 514.944 15.6092 513.848 15.8068V15.9598C515.288 16.1447 516.385 16.6451 517.137 17.4611C517.896 18.2707 518.272 19.2842 518.265 20.5018C518.272 21.6174 517.95 22.6087 517.3 23.4756C516.656 24.3426 515.766 25.0247 514.632 25.5219C513.497 26.0191 512.197 26.2677 510.73 26.2677Z" fill="black"/>
<path d="M617.23 465.834H673.392V339.662" stroke="#038750" stroke-width="1.53867"/>
<path d="M460.286 213.876H501.83V38.8516" stroke="#038750" stroke-width="1.53867"/>
<path fill-rule="evenodd" clip-rule="evenodd" d="M538.571 512.008V335.641L617.231 306.247V484.414L538.571 512.008Z" fill="#005331"/>
<path fill-rule="evenodd" clip-rule="evenodd" d="M277.372 557V462.66L459.911 390.231V484.414L277.372 557Z" fill="#005331"/>
<path fill-rule="evenodd" clip-rule="evenodd" d="M383.053 140.078L459.911 111.883V247.458L383.053 276.252V140.078Z" fill="#005331"/>
<path fill-rule="evenodd" clip-rule="evenodd" d="M538.571 335.641V512.008L459.911 484.414V390.231L277.372 462.66V557L198.712 527.605V433.423L307.995 390.231V111.883L383.053 140.078V276.252L459.911 247.458L617.231 306.247L538.571 335.641Z" fill="#00905D"/>
<path fill-rule="evenodd" clip-rule="evenodd" d="M459.911 111.883L383.053 140.078L307.995 111.883L383.053 83.0884L459.911 111.883Z" fill="#00905D"/>
<path d="M490.534 242.968C488.969 242.968 487.701 241.699 487.701 240.135C487.701 238.57 488.969 237.301 490.534 237.301C492.099 237.301 493.367 238.57 493.367 240.135C493.367 241.699 492.099 242.968 490.534 242.968Z" fill="black"/>
<path d="M493.539 248.398L498.141 288.792L496.545 290.701L494.641 288.618L491.198 274.367L482.896 287.749L479.672 286.904L486.119 272.822L486.858 248.059L491.581 245.932L493.539 248.398Z" fill="black"/>
<path d="M490.469 242.645C489.059 242.645 487.917 241.495 487.917 240.077C487.917 238.659 489.059 237.509 490.469 237.509C491.878 237.509 493.021 238.659 493.021 240.077C493.021 241.495 491.878 242.645 490.469 242.645Z" stroke="black" stroke-width="1.88889" stroke-miterlimit="10"/>
<path d="M496.545 287.913C496.637 288.85 496.057 289.617 495.256 289.617C494.455 289.617 493.598 288.874 493.352 287.965L488.686 270.748C488.44 269.839 487.798 268.465 487.261 267.694L485.39 265.007C484.854 264.237 484.452 262.836 484.497 261.896L484.922 253.123L485.193 248.564C485.304 246.684 486.928 245.111 488.8 245.111H488.843C490.715 245.111 492.416 246.678 492.626 248.549L493.098 252.804L496.545 287.913Z" stroke="black" stroke-width="1.88889" stroke-miterlimit="10" stroke-linecap="round" stroke-linejoin="round"/>
<path d="M486.923 265.794L485.374 275.654C485.228 276.584 484.711 278.004 484.225 278.808L480.122 285.604C479.636 286.408 479.813 287.452 480.515 287.922C481.216 288.393 482.245 288.159 482.801 287.401L487.283 281.294C487.838 280.536 488.571 279.198 488.911 278.322L490.785 273.484M490.304 250.267L490.257 255.617C490.249 256.558 490.425 258.076 490.646 258.991L493.065 268.955" stroke="black" stroke-width="1.88889" stroke-miterlimit="10" stroke-linecap="round" stroke-linejoin="round"/>
<path d="M535.343 300.669C535.558 299.307 537.915 299.365 539.843 299.669C541.771 299.974 544.059 300.807 543.844 302.169C543.629 303.531 541.271 303.474 539.343 303.169C537.415 302.865 535.128 302.031 535.343 300.669Z" fill="black" fill-opacity="0.21"/>
<path d="M531.265 301.531L491.131 293.671L479.846 290.451L481.346 289.264L492.131 292.141L513.131 296L496.346 289.951L497.346 287.951L508.131 293C508.131 293 530.954 296.934 532.177 297.922C533.401 298.91 533.849 299.523 533.859 300.841C533.471 301.651 532.713 301.639 531.265 301.531Z" fill="black" fill-opacity="0.26"/>
</svg>
