<svg width="55" height="55" viewBox="0 0 55 55" fill="none" xmlns="http://www.w3.org/2000/svg">
<rect width="55" height="55" rx="27.5" fill="white"/>
<path d="M23.0992 16.0248C22.2042 16.0248 21.3458 16.3803 20.7129 17.0132C20.0801 17.6461 19.7245 18.5044 19.7245 19.3995C19.7245 20.2945 20.0801 21.1528 20.7129 21.7857C21.3458 22.4186 22.2042 22.7741 23.0992 22.7741C23.9942 22.7741 24.8526 22.4186 25.4854 21.7857C26.1183 21.1528 26.4739 20.2945 26.4739 19.3995C26.4739 18.5044 26.1183 17.6461 25.4854 17.0132C24.8526 16.3803 23.9942 16.0248 23.0992 16.0248ZM17.6997 19.3995C17.6997 17.9674 18.2686 16.5941 19.2812 15.5815C20.2938 14.5689 21.6672 14 23.0992 14C24.5312 14 25.9046 14.5689 26.9172 15.5815C27.9298 16.5941 28.4986 17.9674 28.4986 19.3995C28.4986 20.8315 27.9298 22.2049 26.9172 23.2175C25.9046 24.2301 24.5312 24.7989 23.0992 24.7989C21.6672 24.7989 20.2938 24.2301 19.2812 23.2175C18.2686 22.2049 17.6997 20.8315 17.6997 19.3995ZM35.248 18.7245C34.711 18.7245 34.1959 18.9379 33.8162 19.3176C33.4365 19.6973 33.2232 20.2123 33.2232 20.7493C33.2232 21.2863 33.4365 21.8013 33.8162 22.1811C34.1959 22.5608 34.711 22.7741 35.248 22.7741C35.785 22.7741 36.3 22.5608 36.6797 22.1811C37.0594 21.8013 37.2728 21.2863 37.2728 20.7493C37.2728 20.2123 37.0594 19.6973 36.6797 19.3176C36.3 18.9379 35.785 18.7245 35.248 18.7245ZM31.1984 20.7493C31.1984 19.6753 31.625 18.6453 32.3845 17.8858C33.1439 17.1264 34.174 16.6997 35.248 16.6997C36.322 16.6997 37.352 17.1264 38.1115 17.8858C38.8709 18.6453 39.2976 19.6753 39.2976 20.7493C39.2976 21.8233 38.8709 22.8534 38.1115 23.6128C37.352 24.3723 36.322 24.7989 35.248 24.7989C34.174 24.7989 33.1439 24.3723 32.3845 23.6128C31.625 22.8534 31.1984 21.8233 31.1984 20.7493ZM15 30.5358C15 29.7303 15.32 28.9578 15.8896 28.3882C16.4592 27.8186 17.2317 27.4986 18.0372 27.4986H28.1612C28.5877 27.4986 28.9941 27.5864 29.3626 27.7457C28.8847 28.2829 28.4717 28.8796 28.1369 29.5234H18.0372C17.7687 29.5234 17.5112 29.6301 17.3213 29.82C17.1315 30.0098 17.0248 30.2673 17.0248 30.5358V30.8828L17.0342 30.9907C17.0437 31.0906 17.0653 31.2445 17.1085 31.4349C17.1976 31.8142 17.3758 32.3204 17.7281 32.8239C18.3936 33.7755 19.8298 34.9229 23.0992 34.9229C25.0065 34.9229 26.2889 34.5314 27.1596 34.0185C27.196 34.742 27.3202 35.4426 27.5213 36.1108C26.3942 36.6237 24.9472 36.9477 23.0992 36.9477C19.2818 36.9477 17.1733 35.5641 16.0691 33.9848C15.4921 33.1552 15.1311 32.1948 15.0189 31.1905C15.0094 31.0981 15.0031 31.0053 15 30.9125V30.5358ZM35.9243 41C37.5533 40.9996 39.1371 40.4635 40.4314 39.4743C41.7258 38.4851 42.659 37.0977 43.0871 35.5259C43.5152 33.9541 43.4146 32.2851 42.8007 30.7761C42.1868 29.2671 41.0937 28.0019 39.6898 27.1754C38.286 26.3489 36.6493 26.007 35.0319 26.2024C33.4146 26.3978 31.9064 27.1196 30.7398 28.2566C29.5731 29.3936 28.8128 30.8827 28.5758 32.4945C28.3389 34.1062 28.6386 35.7512 29.4287 37.1758L28.5297 40.1266C28.4937 40.2438 28.4903 40.3685 28.5198 40.4874C28.5493 40.6063 28.6107 40.715 28.6973 40.8017C28.7838 40.8884 28.8924 40.9499 29.0112 40.9796C29.1301 41.0093 29.2548 41.0061 29.372 40.9703L32.3242 40.0713C33.3906 40.6639 34.6189 41 35.9243 41ZM33.2245 32.9008C33.0453 32.9008 32.8735 32.8296 32.7468 32.7029C32.6201 32.5762 32.5489 32.4044 32.5489 32.2252C32.5489 32.046 32.6201 31.8742 32.7468 31.7475C32.8735 31.6208 33.0453 31.5496 33.2245 31.5496H38.624C38.803 31.5496 38.9747 31.6207 39.1012 31.7473C39.2278 31.8738 39.2989 32.0455 39.2989 32.2245C39.2989 32.4035 39.2278 32.5752 39.1012 32.7018C38.9747 32.8284 38.803 32.8995 38.624 32.8995L33.2245 32.9008ZM35.9243 35.6005H33.2245C33.0455 35.6005 32.8739 35.5294 32.7473 35.4029C32.6207 35.2763 32.5496 35.1046 32.5496 34.9256C32.5496 34.7466 32.6207 34.5749 32.7473 34.4484C32.8739 34.3218 33.0455 34.2507 33.2245 34.2507H35.9243C36.1033 34.2507 36.2749 34.3218 36.4015 34.4484C36.5281 34.5749 36.5992 34.7466 36.5992 34.9256C36.5992 35.1046 36.5281 35.2763 36.4015 35.4029C36.2749 35.5294 36.1033 35.6005 35.9243 35.6005Z" fill="#038750"/>
</svg>
