<svg width="210" height="218" viewBox="0 0 210 218" fill="none" xmlns="http://www.w3.org/2000/svg">
<rect width="209.6" height="218" rx="20" fill="#D4EBE1"/>
<rect x="77.2998" y="16" width="55" height="55" rx="27.5" fill="white"/>
<path d="M100.399 32.0248C99.504 32.0248 98.6456 32.3803 98.0127 33.0132C97.3799 33.6461 97.0243 34.5044 97.0243 35.3995C97.0243 36.2945 97.3799 37.1528 98.0127 37.7857C98.6456 38.4186 99.504 38.7741 100.399 38.7741C101.294 38.7741 102.152 38.4186 102.785 37.7857C103.418 37.1528 103.774 36.2945 103.774 35.3995C103.774 34.5044 103.418 33.6461 102.785 33.0132C102.152 32.3803 101.294 32.0248 100.399 32.0248ZM94.9995 35.3995C94.9995 33.9674 95.5684 32.5941 96.581 31.5815C97.5936 30.5689 98.967 30 100.399 30C101.831 30 103.204 30.5689 104.217 31.5815C105.23 32.5941 105.798 33.9674 105.798 35.3995C105.798 36.8315 105.23 38.2049 104.217 39.2175C103.204 40.2301 101.831 40.7989 100.399 40.7989C98.967 40.7989 97.5936 40.2301 96.581 39.2175C95.5684 38.2049 94.9995 36.8315 94.9995 35.3995ZM112.548 34.7245C112.011 34.7245 111.496 34.9379 111.116 35.3176C110.736 35.6973 110.523 36.2123 110.523 36.7493C110.523 37.2863 110.736 37.8013 111.116 38.1811C111.496 38.5608 112.011 38.7741 112.548 38.7741C113.085 38.7741 113.6 38.5608 113.98 38.1811C114.359 37.8013 114.573 37.2863 114.573 36.7493C114.573 36.2123 114.359 35.6973 113.98 35.3176C113.6 34.9379 113.085 34.7245 112.548 34.7245ZM108.498 36.7493C108.498 35.6753 108.925 34.6453 109.684 33.8858C110.444 33.1264 111.474 32.6997 112.548 32.6997C113.622 32.6997 114.652 33.1264 115.411 33.8858C116.171 34.6453 116.597 35.6753 116.597 36.7493C116.597 37.8233 116.171 38.8534 115.411 39.6128C114.652 40.3723 113.622 40.7989 112.548 40.7989C111.474 40.7989 110.444 40.3723 109.684 39.6128C108.925 38.8534 108.498 37.8233 108.498 36.7493ZM92.2998 46.5358C92.2998 45.7303 92.6198 44.9578 93.1894 44.3882C93.759 43.8186 94.5315 43.4986 95.337 43.4986H105.461C105.888 43.4986 106.294 43.5864 106.662 43.7457C106.185 44.2829 105.771 44.8796 105.437 45.5234H95.337C95.0685 45.5234 94.811 45.6301 94.6211 45.82C94.4313 46.0098 94.3246 46.2673 94.3246 46.5358V46.8828L94.3341 46.9907C94.3435 47.0906 94.3651 47.2445 94.4083 47.4349C94.4974 47.8142 94.6756 48.3204 95.0279 48.8239C95.6934 49.7755 97.1296 50.9229 100.399 50.9229C102.306 50.9229 103.589 50.5314 104.459 50.0185C104.496 50.742 104.62 51.4426 104.821 52.1108C103.694 52.6237 102.247 52.9477 100.399 52.9477C96.5816 52.9477 94.4731 51.5641 93.3689 49.9848C92.7919 49.1552 92.4309 48.1948 92.3187 47.1905C92.3092 47.0981 92.3029 47.0053 92.2998 46.9125V46.5358ZM113.224 57C114.853 56.9996 116.437 56.4635 117.731 55.4743C119.026 54.4851 119.959 53.0977 120.387 51.5259C120.815 49.9541 120.714 48.2851 120.1 46.7761C119.487 45.2671 118.393 44.0019 116.99 43.1754C115.586 42.3489 113.949 42.007 112.332 42.2024C110.714 42.3978 109.206 43.1196 108.04 44.2566C106.873 45.3936 106.113 46.8827 105.876 48.4945C105.639 50.1062 105.938 51.7512 106.729 53.1758L105.83 56.1266C105.794 56.2438 105.79 56.3685 105.82 56.4874C105.849 56.6063 105.91 56.715 105.997 56.8017C106.084 56.8884 106.192 56.9499 106.311 56.9796C106.43 57.0093 106.555 57.0061 106.672 56.9703L109.624 56.0713C110.69 56.6639 111.919 57 113.224 57ZM110.524 48.9008C110.345 48.9008 110.173 48.8296 110.047 48.7029C109.92 48.5762 109.849 48.4044 109.849 48.2252C109.849 48.046 109.92 47.8742 110.047 47.7475C110.173 47.6208 110.345 47.5496 110.524 47.5496H115.924C116.103 47.5496 116.274 47.6207 116.401 47.7473C116.528 47.8738 116.599 48.0455 116.599 48.2245C116.599 48.4035 116.528 48.5752 116.401 48.7018C116.274 48.8284 116.103 48.8995 115.924 48.8995L110.524 48.9008ZM113.224 51.6005H110.524C110.345 51.6005 110.174 51.5294 110.047 51.4029C109.921 51.2763 109.849 51.1046 109.849 50.9256C109.849 50.7466 109.921 50.5749 110.047 50.4484C110.174 50.3218 110.345 50.2507 110.524 50.2507H113.224C113.403 50.2507 113.575 50.3218 113.701 50.4484C113.828 50.5749 113.899 50.7466 113.899 50.9256C113.899 51.1046 113.828 51.2763 113.701 51.4029C113.575 51.5294 113.403 51.6005 113.224 51.6005Z" fill="#038750"/>
<path d="M28.0324 105.312C27.0103 105.312 26.1151 105.146 25.3469 104.814C24.5786 104.482 23.9699 104.023 23.5207 103.438C23.078 102.845 22.8208 102.165 22.7492 101.396L22.7395 101.279H24.4973L24.5168 101.396C24.5689 101.865 24.7512 102.272 25.0637 102.617C25.3762 102.956 25.7961 103.219 26.3234 103.408C26.8508 103.597 27.453 103.691 28.1301 103.691C28.7811 103.691 29.354 103.59 29.8488 103.389C30.3501 103.187 30.7408 102.904 31.0207 102.539C31.3007 102.174 31.4406 101.755 31.4406 101.279V101.27C31.4406 100.677 31.2258 100.186 30.7961 99.7949C30.3664 99.3978 29.6665 99.0918 28.6965 98.877L27.134 98.5352C25.7342 98.2227 24.7089 97.7409 24.0578 97.0898C23.4133 96.4388 23.091 95.6022 23.091 94.5801V94.5703C23.0975 93.7891 23.3124 93.1022 23.7355 92.5098C24.1587 91.9108 24.7414 91.4421 25.4836 91.1035C26.2323 90.765 27.0884 90.5957 28.052 90.5957C28.9895 90.5957 29.8195 90.765 30.5422 91.1035C31.2648 91.4355 31.8378 91.888 32.2609 92.4609C32.6906 93.0273 32.9283 93.6719 32.9738 94.3945L32.9836 94.5312H31.2258L31.2063 94.4043C31.1411 93.9681 30.9719 93.5872 30.6984 93.2617C30.425 92.9362 30.0604 92.6823 29.6047 92.5C29.149 92.3112 28.6151 92.2168 28.0031 92.2168C27.4107 92.2168 26.8801 92.3112 26.4113 92.5C25.9426 92.6823 25.5715 92.946 25.298 93.291C25.0246 93.6296 24.8879 94.0397 24.8879 94.5215V94.5312C24.8879 95.0977 25.0995 95.5729 25.5227 95.957C25.9458 96.3346 26.6294 96.6243 27.5734 96.8262L29.1359 97.1777C30.119 97.3926 30.91 97.6725 31.509 98.0176C32.1079 98.3626 32.5441 98.7858 32.8176 99.2871C33.0975 99.7884 33.2375 100.381 33.2375 101.064V101.074C33.2375 101.947 33.0227 102.699 32.593 103.33C32.1698 103.962 31.5676 104.45 30.7863 104.795C30.0051 105.14 29.0871 105.312 28.0324 105.312ZM40.0148 105.186C39.0383 105.186 38.1887 104.964 37.466 104.521C36.7499 104.072 36.1932 103.444 35.7961 102.637C35.4055 101.823 35.2102 100.863 35.2102 99.7559V99.7363C35.2102 98.6491 35.4055 97.7051 35.7961 96.9043C36.1932 96.1035 36.7499 95.4818 37.466 95.0391C38.1822 94.5964 39.0285 94.375 40.0051 94.375C40.8579 94.375 41.5904 94.528 42.2023 94.834C42.8208 95.14 43.3124 95.5469 43.677 96.0547C44.0415 96.5625 44.2727 97.1224 44.3703 97.7344L44.3801 97.8027H42.7004L42.6809 97.7637C42.5572 97.2428 42.2675 96.8001 41.8117 96.4355C41.3625 96.0645 40.7603 95.8789 40.0051 95.8789C39.3801 95.8789 38.8397 96.0384 38.384 96.3574C37.9283 96.6699 37.5734 97.1159 37.3195 97.6953C37.0721 98.2747 36.9484 98.9583 36.9484 99.7461V99.7559C36.9484 100.563 37.0754 101.26 37.3293 101.846C37.5832 102.432 37.938 102.884 38.3938 103.203C38.856 103.522 39.3931 103.682 40.0051 103.682C40.7147 103.682 41.2909 103.525 41.7336 103.213C42.1828 102.894 42.4986 102.441 42.6809 101.855L42.7004 101.797L44.3801 101.787L44.3605 101.885C44.2303 102.523 43.9797 103.092 43.6086 103.594C43.2375 104.089 42.7525 104.479 42.1535 104.766C41.5546 105.046 40.8417 105.186 40.0148 105.186ZM50.923 105.186C49.927 105.186 49.0708 104.967 48.3547 104.531C47.6385 104.089 47.0884 103.467 46.7043 102.666C46.3202 101.859 46.1281 100.908 46.1281 99.8145V99.8047C46.1281 98.7305 46.3202 97.7865 46.7043 96.9727C47.0884 96.1589 47.632 95.5241 48.3352 95.0684C49.0448 94.6061 49.8716 94.375 50.8156 94.375C51.7596 94.375 52.5734 94.5964 53.257 95.0391C53.9406 95.4753 54.4647 96.0872 54.8293 96.875C55.1939 97.6562 55.3762 98.5677 55.3762 99.6094V100.264H46.9973V98.9062H54.5168L53.677 100.146V99.4824C53.677 98.6621 53.5533 97.9883 53.3059 97.4609C53.0585 96.9336 52.7199 96.5397 52.2902 96.2793C51.8605 96.0189 51.3658 95.8887 50.8059 95.8887C50.246 95.8887 49.7447 96.0254 49.302 96.2988C48.8592 96.5723 48.5077 96.9759 48.2473 97.5098C47.9934 98.0436 47.8664 98.7012 47.8664 99.4824V100.146C47.8664 100.889 47.9901 101.523 48.2375 102.051C48.4914 102.572 48.8495 102.972 49.3117 103.252C49.7805 103.532 50.3306 103.672 50.9621 103.672C51.4244 103.672 51.828 103.607 52.173 103.477C52.5246 103.346 52.8143 103.18 53.0422 102.979C53.2701 102.77 53.4296 102.552 53.5207 102.324L53.5598 102.236H55.2492L55.2297 102.314C55.1451 102.686 54.9855 103.044 54.7512 103.389C54.5168 103.727 54.2173 104.033 53.8527 104.307C53.4882 104.58 53.0585 104.795 52.5637 104.951C52.0689 105.107 51.522 105.186 50.923 105.186ZM51.4504 93.1641H50.0051L51.7238 89.9414H53.677L51.4504 93.1641ZM57.798 105V94.5605H59.4973V96.1133H59.634C59.9009 95.5729 60.285 95.1497 60.7863 94.8438C61.2941 94.5312 61.9354 94.375 62.7102 94.375C63.8755 94.375 64.774 94.7135 65.4055 95.3906C66.037 96.0612 66.3527 97.0085 66.3527 98.2324V105H64.6535V98.623C64.6535 97.6986 64.455 97.0117 64.0578 96.5625C63.6607 96.1068 63.0487 95.8789 62.2219 95.8789C61.6685 95.8789 61.1867 95.9993 60.7766 96.2402C60.3729 96.4811 60.0572 96.8229 59.8293 97.2656C59.6079 97.7018 59.4973 98.2227 59.4973 98.8281V105H57.798ZM72.1145 105.186C71.4504 105.186 70.8547 105.059 70.3273 104.805C69.8065 104.551 69.3931 104.193 69.0871 103.73C68.7876 103.262 68.6379 102.712 68.6379 102.08V102.061C68.6379 101.442 68.7844 100.915 69.0773 100.479C69.3768 100.036 69.8098 99.6875 70.3762 99.4336C70.9426 99.1797 71.6294 99.0299 72.4367 98.9844L76.2746 98.7598V100.107L72.6418 100.332C71.8671 100.378 71.2941 100.544 70.923 100.83C70.5585 101.117 70.3762 101.517 70.3762 102.031V102.051C70.3762 102.572 70.5715 102.979 70.9621 103.271C71.3592 103.564 71.8638 103.711 72.4758 103.711C73.0422 103.711 73.5467 103.597 73.9895 103.369C74.4387 103.141 74.7902 102.829 75.0441 102.432C75.298 102.035 75.425 101.589 75.425 101.094V97.8809C75.425 97.2363 75.2297 96.7415 74.8391 96.3965C74.4484 96.0514 73.869 95.8789 73.1008 95.8789C72.4628 95.8789 71.9419 95.9993 71.5383 96.2402C71.1346 96.4746 70.8677 96.8034 70.7375 97.2266L70.7277 97.2656H69.048L69.0578 97.1973C69.1359 96.6439 69.354 96.1556 69.7121 95.7324C70.0702 95.3092 70.5422 94.9772 71.1281 94.7363C71.7141 94.4954 72.3879 94.375 73.1496 94.375C73.9895 94.375 74.7056 94.515 75.298 94.7949C75.897 95.0684 76.3495 95.4655 76.6555 95.9863C76.968 96.5007 77.1242 97.1159 77.1242 97.832V105H75.425V103.428H75.298C75.0832 103.799 74.8163 104.118 74.4973 104.385C74.1783 104.645 73.8202 104.844 73.423 104.98C73.0259 105.117 72.5897 105.186 72.1145 105.186ZM80.0051 105V94.5605H81.7043V96.1621H81.841C82.0298 95.6022 82.3586 95.166 82.8273 94.8535C83.2961 94.5345 83.869 94.375 84.5461 94.375C84.7023 94.375 84.8553 94.3848 85.0051 94.4043C85.1548 94.4173 85.272 94.4303 85.3566 94.4434V96.0938C85.2069 96.0612 85.0474 96.0384 84.8781 96.0254C84.7154 96.0059 84.5363 95.9961 84.341 95.9961C83.8267 95.9961 83.371 96.1003 82.9738 96.3086C82.5767 96.5169 82.2642 96.8132 82.0363 97.1973C81.815 97.5749 81.7043 98.0208 81.7043 98.5352V105H80.0051ZM87.3488 105V94.5605H89.048V105H87.3488ZM88.2082 92.6074C87.8957 92.6074 87.6255 92.4935 87.3977 92.2656C87.1698 92.0378 87.0559 91.7676 87.0559 91.4551C87.0559 91.1361 87.1698 90.8659 87.3977 90.6445C87.6255 90.4232 87.8957 90.3125 88.2082 90.3125C88.5272 90.3125 88.7974 90.4232 89.0188 90.6445C89.2401 90.8659 89.3508 91.1361 89.3508 91.4551C89.3508 91.7676 89.2401 92.0378 89.0188 92.2656C88.7974 92.4935 88.5272 92.6074 88.2082 92.6074ZM96.343 105.186C95.3599 105.186 94.507 104.967 93.7844 104.531C93.0617 104.095 92.5018 103.473 92.1047 102.666C91.7141 101.859 91.5188 100.898 91.5188 99.7852V99.7656C91.5188 98.6523 91.7141 97.6921 92.1047 96.8848C92.5018 96.0775 93.0617 95.459 93.7844 95.0293C94.507 94.5931 95.3566 94.375 96.3332 94.375C97.3228 94.375 98.1757 94.5931 98.8918 95.0293C99.6145 95.459 100.171 96.0775 100.562 96.8848C100.959 97.6921 101.157 98.6523 101.157 99.7656V99.7852C101.157 100.898 100.959 101.859 100.562 102.666C100.171 103.473 99.6145 104.095 98.8918 104.531C98.1757 104.967 97.326 105.186 96.343 105.186ZM96.343 103.682C96.9875 103.682 97.5376 103.529 97.9934 103.223C98.4556 102.91 98.8072 102.464 99.048 101.885C99.2954 101.305 99.4191 100.605 99.4191 99.7852V99.7656C99.4191 98.9453 99.2954 98.2454 99.048 97.666C98.8072 97.0866 98.4556 96.6439 97.9934 96.3379C97.5376 96.0319 96.9842 95.8789 96.3332 95.8789C95.6887 95.8789 95.1353 96.0319 94.673 96.3379C94.2173 96.6439 93.8658 97.0866 93.6184 97.666C93.3775 98.2454 93.257 98.9453 93.257 99.7656V99.7852C93.257 100.605 93.3775 101.305 93.6184 101.885C93.8658 102.464 94.2173 102.91 94.673 103.223C95.1353 103.529 95.6919 103.682 96.343 103.682ZM107.193 105.186C106.411 105.186 105.721 105.065 105.122 104.824C104.53 104.583 104.055 104.245 103.696 103.809C103.345 103.372 103.137 102.861 103.071 102.275V102.256H104.8V102.275C104.937 102.731 105.207 103.096 105.611 103.369C106.021 103.636 106.564 103.77 107.241 103.77C107.717 103.77 108.13 103.704 108.482 103.574C108.833 103.438 109.11 103.249 109.312 103.008C109.514 102.767 109.614 102.49 109.614 102.178V102.158C109.614 101.8 109.478 101.501 109.204 101.26C108.931 101.012 108.478 100.811 107.847 100.654L106.216 100.264C105.565 100.107 105.028 99.9056 104.605 99.6582C104.182 99.4043 103.869 99.0951 103.667 98.7305C103.465 98.3594 103.364 97.9264 103.364 97.4316V97.4219C103.364 96.8359 103.53 96.3151 103.863 95.8594C104.201 95.3971 104.663 95.0358 105.249 94.7754C105.835 94.5085 106.496 94.375 107.232 94.375C107.974 94.375 108.625 94.4954 109.185 94.7363C109.751 94.9707 110.204 95.3027 110.542 95.7324C110.887 96.1621 111.092 96.6634 111.157 97.2363L111.167 97.2656H109.507V97.2461C109.403 96.8164 109.155 96.4681 108.765 96.2012C108.374 95.9277 107.863 95.791 107.232 95.791C106.815 95.791 106.447 95.8561 106.128 95.9863C105.809 96.1165 105.558 96.2988 105.376 96.5332C105.194 96.7611 105.103 97.0312 105.103 97.3438V97.3633C105.103 97.5911 105.161 97.7995 105.279 97.9883C105.402 98.1706 105.591 98.3301 105.845 98.4668C106.099 98.6035 106.424 98.7207 106.821 98.8184L108.443 99.209C109.445 99.4499 110.181 99.7949 110.65 100.244C111.118 100.687 111.353 101.283 111.353 102.031V102.051C111.353 102.669 111.17 103.216 110.806 103.691C110.441 104.16 109.946 104.528 109.321 104.795C108.696 105.055 107.987 105.186 107.193 105.186ZM119.048 105V94.5605H120.747V96.1621H120.884C121.073 95.6022 121.402 95.166 121.87 94.8535C122.339 94.5345 122.912 94.375 123.589 94.375C123.745 94.375 123.898 94.3848 124.048 94.4043C124.198 94.4173 124.315 94.4303 124.4 94.4434V96.0938C124.25 96.0612 124.09 96.0384 123.921 96.0254C123.758 96.0059 123.579 95.9961 123.384 95.9961C122.87 95.9961 122.414 96.1003 122.017 96.3086C121.62 96.5169 121.307 96.8132 121.079 97.1973C120.858 97.5749 120.747 98.0208 120.747 98.5352V105H119.048ZM130.279 105.186C129.282 105.186 128.426 104.967 127.71 104.531C126.994 104.089 126.444 103.467 126.06 102.666C125.676 101.859 125.484 100.908 125.484 99.8145V99.8047C125.484 98.7305 125.676 97.7865 126.06 96.9727C126.444 96.1589 126.988 95.5241 127.691 95.0684C128.4 94.6061 129.227 94.375 130.171 94.375C131.115 94.375 131.929 94.5964 132.613 95.0391C133.296 95.4753 133.82 96.0872 134.185 96.875C134.549 97.6562 134.732 98.5677 134.732 99.6094V100.264H126.353V98.9062H133.872L133.032 100.146V99.4824C133.032 98.6621 132.909 97.9883 132.661 97.4609C132.414 96.9336 132.075 96.5397 131.646 96.2793C131.216 96.0189 130.721 95.8887 130.161 95.8887C129.601 95.8887 129.1 96.0254 128.657 96.2988C128.215 96.5723 127.863 96.9759 127.603 97.5098C127.349 98.0436 127.222 98.7012 127.222 99.4824V100.146C127.222 100.889 127.346 101.523 127.593 102.051C127.847 102.572 128.205 102.972 128.667 103.252C129.136 103.532 129.686 103.672 130.318 103.672C130.78 103.672 131.183 103.607 131.529 103.477C131.88 103.346 132.17 103.18 132.398 102.979C132.626 102.77 132.785 102.552 132.876 102.324L132.915 102.236H134.605L134.585 102.314C134.501 102.686 134.341 103.044 134.107 103.389C133.872 103.727 133.573 104.033 133.208 104.307C132.844 104.58 132.414 104.795 131.919 104.951C131.424 105.107 130.877 105.186 130.279 105.186ZM130.806 93.1641H129.361L131.079 89.9414H133.032L130.806 93.1641ZM137.154 108.496V94.5605H138.853V96.25H138.989C139.204 95.8594 139.471 95.5241 139.79 95.2441C140.116 94.9642 140.484 94.7493 140.894 94.5996C141.31 94.4499 141.763 94.375 142.251 94.375C143.137 94.375 143.908 94.5996 144.566 95.0488C145.223 95.4915 145.734 96.1198 146.099 96.9336C146.463 97.7409 146.646 98.6882 146.646 99.7754V99.7852C146.646 100.879 146.463 101.829 146.099 102.637C145.734 103.444 145.223 104.072 144.566 104.521C143.908 104.964 143.14 105.186 142.261 105.186C141.779 105.186 141.327 105.111 140.904 104.961C140.48 104.805 140.103 104.59 139.771 104.316C139.445 104.043 139.185 103.714 138.989 103.33H138.853V108.496H137.154ZM141.88 103.682C142.512 103.682 143.052 103.525 143.501 103.213C143.957 102.9 144.305 102.454 144.546 101.875C144.787 101.289 144.907 100.592 144.907 99.7852V99.7754C144.907 98.9616 144.787 98.265 144.546 97.6855C144.305 97.1061 143.957 96.6602 143.501 96.3477C143.052 96.0352 142.512 95.8789 141.88 95.8789C141.255 95.8789 140.711 96.0384 140.249 96.3574C139.793 96.6699 139.442 97.1191 139.195 97.7051C138.947 98.2845 138.823 98.9746 138.823 99.7754V99.7852C138.823 100.586 138.947 101.279 139.195 101.865C139.448 102.445 139.803 102.894 140.259 103.213C140.715 103.525 141.255 103.682 141.88 103.682ZM151.978 105.186C151.314 105.186 150.718 105.059 150.191 104.805C149.67 104.551 149.256 104.193 148.95 103.73C148.651 103.262 148.501 102.712 148.501 102.08V102.061C148.501 101.442 148.648 100.915 148.941 100.479C149.24 100.036 149.673 99.6875 150.239 99.4336C150.806 99.1797 151.493 99.0299 152.3 98.9844L156.138 98.7598V100.107L152.505 100.332C151.73 100.378 151.157 100.544 150.786 100.83C150.422 101.117 150.239 101.517 150.239 102.031V102.051C150.239 102.572 150.435 102.979 150.825 103.271C151.223 103.564 151.727 103.711 152.339 103.711C152.905 103.711 153.41 103.597 153.853 103.369C154.302 103.141 154.654 102.829 154.907 102.432C155.161 102.035 155.288 101.589 155.288 101.094V97.8809C155.288 97.2363 155.093 96.7415 154.702 96.3965C154.312 96.0514 153.732 95.8789 152.964 95.8789C152.326 95.8789 151.805 95.9993 151.402 96.2402C150.998 96.4746 150.731 96.8034 150.601 97.2266L150.591 97.2656H148.911L148.921 97.1973C148.999 96.6439 149.217 96.1556 149.575 95.7324C149.933 95.3092 150.405 94.9772 150.991 94.7363C151.577 94.4954 152.251 94.375 153.013 94.375C153.853 94.375 154.569 94.515 155.161 94.7949C155.76 95.0684 156.213 95.4655 156.519 95.9863C156.831 96.5007 156.988 97.1159 156.988 97.832V105H155.288V103.428H155.161C154.946 103.799 154.68 104.118 154.361 104.385C154.042 104.645 153.683 104.844 153.286 104.98C152.889 105.117 152.453 105.186 151.978 105.186ZM159.868 105V94.5605H161.568V96.1621H161.704C161.893 95.6022 162.222 95.166 162.691 94.8535C163.159 94.5345 163.732 94.375 164.409 94.375C164.566 94.375 164.719 94.3848 164.868 94.4043C165.018 94.4173 165.135 94.4303 165.22 94.4434V96.0938C165.07 96.0612 164.911 96.0384 164.741 96.0254C164.579 96.0059 164.4 95.9961 164.204 95.9961C163.69 95.9961 163.234 96.1003 162.837 96.3086C162.44 96.5169 162.127 96.8132 161.9 97.1973C161.678 97.5749 161.568 98.0208 161.568 98.5352V105H159.868ZM171.07 105.107C170.021 105.107 169.256 104.889 168.775 104.453C168.299 104.01 168.062 103.294 168.062 102.305V95.9668H166.441V94.5605H168.062V91.8359H169.82V94.5605H172.036V95.9668H169.82V101.973C169.82 102.572 169.937 102.998 170.171 103.252C170.405 103.499 170.786 103.623 171.314 103.623C171.45 103.623 171.571 103.62 171.675 103.613C171.779 103.607 171.9 103.597 172.036 103.584V105.02C171.887 105.039 171.73 105.059 171.568 105.078C171.405 105.098 171.239 105.107 171.07 105.107ZM174.458 105V94.5605H176.157V105H174.458ZM175.318 92.6074C175.005 92.6074 174.735 92.4935 174.507 92.2656C174.279 92.0378 174.165 91.7676 174.165 91.4551C174.165 91.1361 174.279 90.8659 174.507 90.6445C174.735 90.4232 175.005 90.3125 175.318 90.3125C175.637 90.3125 175.907 90.4232 176.128 90.6445C176.349 90.8659 176.46 91.1361 176.46 91.4551C176.46 91.7676 176.349 92.0378 176.128 92.2656C175.907 92.4935 175.637 92.6074 175.318 92.6074ZM182.759 105.186C181.978 105.186 181.288 105.065 180.689 104.824C180.096 104.583 179.621 104.245 179.263 103.809C178.911 103.372 178.703 102.861 178.638 102.275V102.256H180.366V102.275C180.503 102.731 180.773 103.096 181.177 103.369C181.587 103.636 182.131 103.77 182.808 103.77C183.283 103.77 183.696 103.704 184.048 103.574C184.4 103.438 184.676 103.249 184.878 103.008C185.08 102.767 185.181 102.49 185.181 102.178V102.158C185.181 101.8 185.044 101.501 184.771 101.26C184.497 101.012 184.045 100.811 183.413 100.654L181.782 100.264C181.131 100.107 180.594 99.9056 180.171 99.6582C179.748 99.4043 179.435 99.0951 179.234 98.7305C179.032 98.3594 178.931 97.9264 178.931 97.4316V97.4219C178.931 96.8359 179.097 96.3151 179.429 95.8594C179.767 95.3971 180.23 95.0358 180.816 94.7754C181.402 94.5085 182.062 94.375 182.798 94.375C183.54 94.375 184.191 94.4954 184.751 94.7363C185.318 94.9707 185.77 95.3027 186.109 95.7324C186.454 96.1621 186.659 96.6634 186.724 97.2363L186.734 97.2656H185.073V97.2461C184.969 96.8164 184.722 96.4681 184.331 96.2012C183.941 95.9277 183.43 95.791 182.798 95.791C182.381 95.791 182.014 95.8561 181.695 95.9863C181.376 96.1165 181.125 96.2988 180.943 96.5332C180.76 96.7611 180.669 97.0312 180.669 97.3438V97.3633C180.669 97.5911 180.728 97.7995 180.845 97.9883C180.969 98.1706 181.157 98.3301 181.411 98.4668C181.665 98.6035 181.991 98.7207 182.388 98.8184L184.009 99.209C185.012 99.4499 185.747 99.7949 186.216 100.244C186.685 100.687 186.919 101.283 186.919 102.031V102.051C186.919 102.669 186.737 103.216 186.372 103.691C186.008 104.16 185.513 104.528 184.888 104.795C184.263 105.055 183.553 105.186 182.759 105.186ZM37.7395 129.186C36.7434 129.186 35.8872 128.967 35.1711 128.531C34.455 128.089 33.9048 127.467 33.5207 126.666C33.1366 125.859 32.9445 124.908 32.9445 123.814V123.805C32.9445 122.73 33.1366 121.786 33.5207 120.973C33.9048 120.159 34.4484 119.524 35.1516 119.068C35.8612 118.606 36.688 118.375 37.632 118.375C38.576 118.375 39.3898 118.596 40.0734 119.039C40.757 119.475 41.2811 120.087 41.6457 120.875C42.0103 121.656 42.1926 122.568 42.1926 123.609V124.264H33.8137V122.906H41.3332L40.4934 124.146V123.482C40.4934 122.662 40.3697 121.988 40.1223 121.461C39.8749 120.934 39.5363 120.54 39.1066 120.279C38.677 120.019 38.1822 119.889 37.6223 119.889C37.0624 119.889 36.5611 120.025 36.1184 120.299C35.6757 120.572 35.3241 120.976 35.0637 121.51C34.8098 122.044 34.6828 122.701 34.6828 123.482V124.146C34.6828 124.889 34.8065 125.523 35.0539 126.051C35.3078 126.572 35.6659 126.972 36.1281 127.252C36.5969 127.532 37.147 127.672 37.7785 127.672C38.2408 127.672 38.6444 127.607 38.9895 127.477C39.341 127.346 39.6307 127.18 39.8586 126.979C40.0865 126.77 40.246 126.552 40.3371 126.324L40.3762 126.236H42.0656L42.0461 126.314C41.9615 126.686 41.802 127.044 41.5676 127.389C41.3332 127.727 41.0337 128.033 40.6691 128.307C40.3046 128.58 39.8749 128.795 39.3801 128.951C38.8853 129.107 38.3384 129.186 37.7395 129.186ZM44.6145 129V118.561H46.3137V120.113H46.4504C46.7173 119.573 47.1014 119.15 47.6027 118.844C48.1105 118.531 48.7518 118.375 49.5266 118.375C50.6919 118.375 51.5904 118.714 52.2219 119.391C52.8534 120.061 53.1691 121.008 53.1691 122.232V129H51.4699V122.623C51.4699 121.699 51.2714 121.012 50.8742 120.562C50.4771 120.107 49.8651 119.879 49.0383 119.879C48.4849 119.879 48.0031 119.999 47.593 120.24C47.1893 120.481 46.8736 120.823 46.6457 121.266C46.4244 121.702 46.3137 122.223 46.3137 122.828V129H44.6145ZM59.6633 129.107C58.6151 129.107 57.8501 128.889 57.3684 128.453C56.8931 128.01 56.6555 127.294 56.6555 126.305V119.967H55.0344V118.561H56.6555V115.836H58.4133V118.561H60.6301V119.967H58.4133V125.973C58.4133 126.572 58.5305 126.998 58.7648 127.252C58.9992 127.499 59.3801 127.623 59.9074 127.623C60.0441 127.623 60.1646 127.62 60.2688 127.613C60.3729 127.607 60.4934 127.597 60.6301 127.584V129.02C60.4803 129.039 60.3241 129.059 60.1613 129.078C59.9986 129.098 59.8326 129.107 59.6633 129.107ZM62.9934 129V118.561H64.6926V120.162H64.8293C65.0181 119.602 65.3469 119.166 65.8156 118.854C66.2844 118.535 66.8573 118.375 67.5344 118.375C67.6906 118.375 67.8436 118.385 67.9934 118.404C68.1431 118.417 68.2603 118.43 68.3449 118.443V120.094C68.1952 120.061 68.0357 120.038 67.8664 120.025C67.7036 120.006 67.5246 119.996 67.3293 119.996C66.815 119.996 66.3592 120.1 65.9621 120.309C65.565 120.517 65.2525 120.813 65.0246 121.197C64.8033 121.575 64.6926 122.021 64.6926 122.535V129H62.9934ZM74.2238 129.186C73.2277 129.186 72.3716 128.967 71.6555 128.531C70.9393 128.089 70.3892 127.467 70.0051 126.666C69.621 125.859 69.4289 124.908 69.4289 123.814V123.805C69.4289 122.73 69.621 121.786 70.0051 120.973C70.3892 120.159 70.9328 119.524 71.6359 119.068C72.3456 118.606 73.1724 118.375 74.1164 118.375C75.0604 118.375 75.8742 118.596 76.5578 119.039C77.2414 119.475 77.7655 120.087 78.1301 120.875C78.4947 121.656 78.677 122.568 78.677 123.609V124.264H70.298V122.906H77.8176L76.9777 124.146V123.482C76.9777 122.662 76.854 121.988 76.6066 121.461C76.3592 120.934 76.0207 120.54 75.591 120.279C75.1613 120.019 74.6665 119.889 74.1066 119.889C73.5467 119.889 73.0454 120.025 72.6027 120.299C72.16 120.572 71.8085 120.976 71.548 121.51C71.2941 122.044 71.1672 122.701 71.1672 123.482V124.146C71.1672 124.889 71.2909 125.523 71.5383 126.051C71.7922 126.572 72.1503 126.972 72.6125 127.252C73.0813 127.532 73.6314 127.672 74.2629 127.672C74.7251 127.672 75.1288 127.607 75.4738 127.477C75.8254 127.346 76.1151 127.18 76.343 126.979C76.5708 126.77 76.7303 126.552 76.8215 126.324L76.8605 126.236H78.55L78.5305 126.314C78.4458 126.686 78.2863 127.044 78.052 127.389C77.8176 127.727 77.5181 128.033 77.1535 128.307C76.7889 128.58 76.3592 128.795 75.8645 128.951C75.3697 129.107 74.8228 129.186 74.2238 129.186ZM86.4699 129V114.439H88.1691V129H86.4699ZM95.4738 129.186C94.4777 129.186 93.6216 128.967 92.9055 128.531C92.1893 128.089 91.6392 127.467 91.2551 126.666C90.871 125.859 90.6789 124.908 90.6789 123.814V123.805C90.6789 122.73 90.871 121.786 91.2551 120.973C91.6392 120.159 92.1828 119.524 92.8859 119.068C93.5956 118.606 94.4224 118.375 95.3664 118.375C96.3104 118.375 97.1242 118.596 97.8078 119.039C98.4914 119.475 99.0155 120.087 99.3801 120.875C99.7447 121.656 99.927 122.568 99.927 123.609V124.264H91.548V122.906H99.0676L98.2277 124.146V123.482C98.2277 122.662 98.104 121.988 97.8566 121.461C97.6092 120.934 97.2707 120.54 96.841 120.279C96.4113 120.019 95.9165 119.889 95.3566 119.889C94.7967 119.889 94.2954 120.025 93.8527 120.299C93.41 120.572 93.0585 120.976 92.798 121.51C92.5441 122.044 92.4172 122.701 92.4172 123.482V124.146C92.4172 124.889 92.5409 125.523 92.7883 126.051C93.0422 126.572 93.4003 126.972 93.8625 127.252C94.3313 127.532 94.8814 127.672 95.5129 127.672C95.9751 127.672 96.3788 127.607 96.7238 127.477C97.0754 127.346 97.3651 127.18 97.593 126.979C97.8208 126.77 97.9803 126.552 98.0715 126.324L98.1105 126.236H99.8L99.7805 126.314C99.6958 126.686 99.5363 127.044 99.302 127.389C99.0676 127.727 98.7681 128.033 98.4035 128.307C98.0389 128.58 97.6092 128.795 97.1145 128.951C96.6197 129.107 96.0728 129.186 95.4738 129.186ZM105.962 129.186C105.181 129.186 104.491 129.065 103.892 128.824C103.299 128.583 102.824 128.245 102.466 127.809C102.114 127.372 101.906 126.861 101.841 126.275V126.256H103.57V126.275C103.706 126.731 103.976 127.096 104.38 127.369C104.79 127.636 105.334 127.77 106.011 127.77C106.486 127.77 106.9 127.704 107.251 127.574C107.603 127.438 107.879 127.249 108.081 127.008C108.283 126.767 108.384 126.49 108.384 126.178V126.158C108.384 125.8 108.247 125.501 107.974 125.26C107.7 125.012 107.248 124.811 106.616 124.654L104.986 124.264C104.335 124.107 103.797 123.906 103.374 123.658C102.951 123.404 102.639 123.095 102.437 122.73C102.235 122.359 102.134 121.926 102.134 121.432V121.422C102.134 120.836 102.3 120.315 102.632 119.859C102.971 119.397 103.433 119.036 104.019 118.775C104.605 118.508 105.265 118.375 106.001 118.375C106.743 118.375 107.394 118.495 107.954 118.736C108.521 118.971 108.973 119.303 109.312 119.732C109.657 120.162 109.862 120.663 109.927 121.236L109.937 121.266H108.277V121.246C108.172 120.816 107.925 120.468 107.534 120.201C107.144 119.928 106.633 119.791 106.001 119.791C105.585 119.791 105.217 119.856 104.898 119.986C104.579 120.117 104.328 120.299 104.146 120.533C103.963 120.761 103.872 121.031 103.872 121.344V121.363C103.872 121.591 103.931 121.799 104.048 121.988C104.172 122.171 104.361 122.33 104.614 122.467C104.868 122.604 105.194 122.721 105.591 122.818L107.212 123.209C108.215 123.45 108.95 123.795 109.419 124.244C109.888 124.687 110.122 125.283 110.122 126.031V126.051C110.122 126.669 109.94 127.216 109.575 127.691C109.211 128.16 108.716 128.528 108.091 128.795C107.466 129.055 106.756 129.186 105.962 129.186ZM117.818 129V118.561H119.517V120.133H119.654C119.881 119.586 120.239 119.156 120.728 118.844C121.216 118.531 121.799 118.375 122.476 118.375C122.951 118.375 123.374 118.453 123.745 118.609C124.123 118.766 124.448 118.984 124.722 119.264C124.995 119.537 125.213 119.863 125.376 120.24H125.503C125.692 119.863 125.946 119.534 126.265 119.254C126.584 118.974 126.952 118.759 127.368 118.609C127.785 118.453 128.234 118.375 128.716 118.375C129.419 118.375 130.018 118.508 130.513 118.775C131.014 119.042 131.395 119.433 131.655 119.947C131.922 120.455 132.056 121.067 132.056 121.783V129H130.357V122.174C130.357 121.666 130.275 121.243 130.113 120.904C129.956 120.566 129.715 120.312 129.39 120.143C129.064 119.967 128.661 119.879 128.179 119.879C127.704 119.879 127.284 119.99 126.919 120.211C126.561 120.426 126.281 120.715 126.079 121.08C125.877 121.445 125.777 121.855 125.777 122.311V129H124.077V121.93C124.077 121.52 123.989 121.161 123.814 120.855C123.638 120.543 123.387 120.302 123.062 120.133C122.736 119.964 122.355 119.879 121.919 119.879C121.463 119.879 121.053 119.996 120.689 120.23C120.331 120.465 120.044 120.781 119.829 121.178C119.621 121.575 119.517 122.021 119.517 122.516V129H117.818ZM139.185 129.186C138.189 129.186 137.333 128.967 136.616 128.531C135.9 128.089 135.35 127.467 134.966 126.666C134.582 125.859 134.39 124.908 134.39 123.814V123.805C134.39 122.73 134.582 121.786 134.966 120.973C135.35 120.159 135.894 119.524 136.597 119.068C137.307 118.606 138.133 118.375 139.077 118.375C140.021 118.375 140.835 118.596 141.519 119.039C142.202 119.475 142.726 120.087 143.091 120.875C143.456 121.656 143.638 122.568 143.638 123.609V124.264H135.259V122.906H142.779L141.939 124.146V123.482C141.939 122.662 141.815 121.988 141.568 121.461C141.32 120.934 140.982 120.54 140.552 120.279C140.122 120.019 139.627 119.889 139.068 119.889C138.508 119.889 138.006 120.025 137.564 120.299C137.121 120.572 136.769 120.976 136.509 121.51C136.255 122.044 136.128 122.701 136.128 123.482V124.146C136.128 124.889 136.252 125.523 136.499 126.051C136.753 126.572 137.111 126.972 137.573 127.252C138.042 127.532 138.592 127.672 139.224 127.672C139.686 127.672 140.09 127.607 140.435 127.477C140.786 127.346 141.076 127.18 141.304 126.979C141.532 126.77 141.691 126.552 141.782 126.324L141.821 126.236H143.511L143.491 126.314C143.407 126.686 143.247 127.044 143.013 127.389C142.779 127.727 142.479 128.033 142.114 128.307C141.75 128.58 141.32 128.795 140.825 128.951C140.331 129.107 139.784 129.186 139.185 129.186ZM146.06 129V118.561H147.759V120.113H147.896C148.163 119.573 148.547 119.15 149.048 118.844C149.556 118.531 150.197 118.375 150.972 118.375C152.137 118.375 153.036 118.714 153.667 119.391C154.299 120.061 154.614 121.008 154.614 122.232V129H152.915V122.623C152.915 121.699 152.717 121.012 152.32 120.562C151.922 120.107 151.31 119.879 150.484 119.879C149.93 119.879 149.448 119.999 149.038 120.24C148.635 120.481 148.319 120.823 148.091 121.266C147.87 121.702 147.759 122.223 147.759 122.828V129H146.06ZM160.982 129.186C160.2 129.186 159.54 129.036 158.999 128.736C158.465 128.43 158.062 127.988 157.788 127.408C157.521 126.829 157.388 126.135 157.388 125.328V118.561H159.087V124.938C159.087 125.855 159.273 126.542 159.644 126.998C160.015 127.454 160.614 127.682 161.441 127.682C161.89 127.682 162.287 127.613 162.632 127.477C162.977 127.34 163.27 127.145 163.511 126.891C163.752 126.637 163.931 126.327 164.048 125.963C164.172 125.598 164.234 125.188 164.234 124.732V118.561H165.933V129H164.234V127.457H164.107C163.937 127.815 163.706 128.124 163.413 128.385C163.12 128.645 162.769 128.844 162.359 128.98C161.955 129.117 161.496 129.186 160.982 129.186ZM172.486 129.186C171.704 129.186 171.014 129.065 170.415 128.824C169.823 128.583 169.348 128.245 168.989 127.809C168.638 127.372 168.43 126.861 168.364 126.275V126.256H170.093V126.275C170.23 126.731 170.5 127.096 170.904 127.369C171.314 127.636 171.857 127.77 172.534 127.77C173.01 127.77 173.423 127.704 173.775 127.574C174.126 127.438 174.403 127.249 174.605 127.008C174.807 126.767 174.907 126.49 174.907 126.178V126.158C174.907 125.8 174.771 125.501 174.497 125.26C174.224 125.012 173.771 124.811 173.14 124.654L171.509 124.264C170.858 124.107 170.321 123.906 169.898 123.658C169.474 123.404 169.162 123.095 168.96 122.73C168.758 122.359 168.657 121.926 168.657 121.432V121.422C168.657 120.836 168.823 120.315 169.155 119.859C169.494 119.397 169.956 119.036 170.542 118.775C171.128 118.508 171.789 118.375 172.525 118.375C173.267 118.375 173.918 118.495 174.478 118.736C175.044 118.971 175.497 119.303 175.835 119.732C176.18 120.162 176.385 120.663 176.45 121.236L176.46 121.266H174.8V121.246C174.696 120.816 174.448 120.468 174.058 120.201C173.667 119.928 173.156 119.791 172.525 119.791C172.108 119.791 171.74 119.856 171.421 119.986C171.102 120.117 170.851 120.299 170.669 120.533C170.487 120.761 170.396 121.031 170.396 121.344V121.363C170.396 121.591 170.454 121.799 170.571 121.988C170.695 122.171 170.884 122.33 171.138 122.467C171.392 122.604 171.717 122.721 172.114 122.818L173.736 123.209C174.738 123.45 175.474 123.795 175.943 124.244C176.411 124.687 176.646 125.283 176.646 126.031V126.051C176.646 126.669 176.463 127.216 176.099 127.691C175.734 128.16 175.239 128.528 174.614 128.795C173.989 129.055 173.28 129.186 172.486 129.186ZM158.198 153.186C157.202 153.186 156.346 152.967 155.63 152.531C154.914 152.089 154.364 151.467 153.98 150.666C153.596 149.859 153.404 148.908 153.404 147.814V147.805C153.404 146.73 153.596 145.786 153.98 144.973C154.364 144.159 154.907 143.524 155.611 143.068C156.32 142.606 157.147 142.375 158.091 142.375C159.035 142.375 159.849 142.596 160.532 143.039C161.216 143.475 161.74 144.087 162.105 144.875C162.469 145.656 162.652 146.568 162.652 147.609V148.264H154.273V146.906H161.792L160.952 148.146V147.482C160.952 146.662 160.829 145.988 160.581 145.461C160.334 144.934 159.995 144.54 159.566 144.279C159.136 144.019 158.641 143.889 158.081 143.889C157.521 143.889 157.02 144.025 156.577 144.299C156.135 144.572 155.783 144.976 155.523 145.51C155.269 146.044 155.142 146.701 155.142 147.482V148.146C155.142 148.889 155.265 149.523 155.513 150.051C155.767 150.572 156.125 150.972 156.587 151.252C157.056 151.532 157.606 151.672 158.238 151.672C158.7 151.672 159.103 151.607 159.448 151.477C159.8 151.346 160.09 151.18 160.318 150.979C160.545 150.77 160.705 150.552 160.796 150.324L160.835 150.236H162.525L162.505 150.314C162.42 150.686 162.261 151.044 162.027 151.389C161.792 151.727 161.493 152.033 161.128 152.307C160.764 152.58 160.334 152.795 159.839 152.951C159.344 153.107 158.797 153.186 158.198 153.186ZM168.716 153.107C167.668 153.107 166.903 152.889 166.421 152.453C165.946 152.01 165.708 151.294 165.708 150.305V143.967H164.087V142.561H165.708V139.836H167.466V142.561H169.683V143.967H167.466V149.973C167.466 150.572 167.583 150.998 167.818 151.252C168.052 151.499 168.433 151.623 168.96 151.623C169.097 151.623 169.217 151.62 169.321 151.613C169.426 151.607 169.546 151.597 169.683 151.584V153.02C169.533 153.039 169.377 153.059 169.214 153.078C169.051 153.098 168.885 153.107 168.716 153.107Z" fill="black"/>
<path d="M40.6168 153V138.455H45.8014C46.9331 138.455 47.8706 138.661 48.6139 139.072C49.3573 139.484 49.9136 140.048 50.283 140.763C50.6523 141.473 50.8369 142.273 50.8369 143.163C50.8369 144.058 50.6499 144.863 50.2759 145.578C49.9065 146.288 49.3478 146.852 48.5997 147.268C47.8563 147.68 46.9212 147.886 45.7943 147.886H42.229V146.026H45.5955C46.3104 146.026 46.8904 145.902 47.3355 145.656C47.7806 145.405 48.1073 145.064 48.3156 144.634C48.524 144.203 48.6281 143.713 48.6281 143.163C48.6281 142.614 48.524 142.126 48.3156 141.7C48.1073 141.274 47.7782 140.94 47.3284 140.699C46.8833 140.457 46.2962 140.337 45.567 140.337H42.8114V153H40.6168ZM56.3163 153.241C55.6251 153.241 55.0001 153.114 54.4413 152.858C53.8826 152.598 53.4399 152.221 53.1132 151.729C52.7912 151.236 52.6303 150.633 52.6303 149.918C52.6303 149.302 52.7486 148.795 52.9854 148.398C53.2221 148 53.5417 147.685 53.9442 147.453C54.3466 147.221 54.7965 147.046 55.2936 146.928C55.7908 146.809 56.2974 146.719 56.8135 146.658C57.4669 146.582 57.9972 146.52 58.4044 146.473C58.8116 146.421 59.1075 146.338 59.2922 146.224C59.4768 146.111 59.5692 145.926 59.5692 145.67V145.621C59.5692 145 59.394 144.52 59.0436 144.179C58.698 143.838 58.1819 143.668 57.4953 143.668C56.7804 143.668 56.2169 143.826 55.805 144.143C55.3978 144.456 55.1161 144.804 54.9598 145.188L52.9641 144.733C53.2008 144.07 53.5465 143.535 54.001 143.128C54.4603 142.716 54.9882 142.418 55.5848 142.233C56.1814 142.044 56.8088 141.949 57.4669 141.949C57.9025 141.949 58.3642 142.001 58.8518 142.105C59.3443 142.205 59.8036 142.389 60.2297 142.659C60.6606 142.929 61.0133 143.315 61.2879 143.817C61.5626 144.314 61.6999 144.96 61.6999 145.756V153H59.626V151.509H59.5408C59.4035 151.783 59.1975 152.053 58.9229 152.318C58.6483 152.583 58.2955 152.804 57.8646 152.979C57.4338 153.154 56.9177 153.241 56.3163 153.241ZM56.778 151.537C57.3651 151.537 57.867 151.421 58.2837 151.189C58.7051 150.957 59.0247 150.654 59.2425 150.28C59.465 149.901 59.5763 149.496 59.5763 149.065V147.659C59.5005 147.735 59.3537 147.806 59.1359 147.872C58.9229 147.934 58.679 147.988 58.4044 148.036C58.1298 148.078 57.8623 148.118 57.6018 148.156C57.3414 148.189 57.1236 148.218 56.9484 148.241C56.5365 148.294 56.1601 148.381 55.8192 148.504C55.483 148.627 55.2131 148.805 55.0095 149.037C54.8107 149.264 54.7112 149.567 54.7112 149.946C54.7112 150.472 54.9054 150.869 55.2936 151.139C55.6819 151.404 56.1767 151.537 56.778 151.537ZM64.5283 153V142.091H66.5809V143.824H66.6945C66.8934 143.237 67.2438 142.775 67.7457 142.439C68.2523 142.098 68.8252 141.928 69.4644 141.928C69.597 141.928 69.7532 141.932 69.9332 141.942C70.1178 141.951 70.2622 141.963 70.3664 141.977V144.009C70.2812 143.985 70.1297 143.959 69.9119 143.93C69.6941 143.897 69.4763 143.881 69.2585 143.881C68.7566 143.881 68.3091 143.987 67.9161 144.2C67.5279 144.409 67.2201 144.7 66.9928 145.074C66.7656 145.443 66.6519 145.865 66.6519 146.338V153H64.5283ZM77.941 142.091V143.795H71.9822V142.091H77.941ZM73.5802 139.477H75.7038V149.797C75.7038 150.209 75.7653 150.519 75.8884 150.727C76.0115 150.931 76.1701 151.071 76.3643 151.146C76.5631 151.217 76.7786 151.253 77.0106 151.253C77.181 151.253 77.3302 151.241 77.458 151.217C77.5859 151.194 77.6853 151.175 77.7563 151.161L78.1398 152.915C78.0167 152.962 77.8416 153.009 77.6143 153.057C77.387 153.109 77.1029 153.137 76.762 153.142C76.2033 153.152 75.6825 153.052 75.1995 152.844C74.7166 152.635 74.3259 152.313 74.0276 151.878C73.7293 151.442 73.5802 150.895 73.5802 150.237V139.477ZM80.2901 153V142.091H82.4136V153H80.2901ZM81.3625 140.408C80.9932 140.408 80.676 140.285 80.4108 140.038C80.1504 139.787 80.0202 139.489 80.0202 139.143C80.0202 138.793 80.1504 138.495 80.4108 138.249C80.676 137.998 80.9932 137.872 81.3625 137.872C81.7318 137.872 82.0467 137.998 82.3071 138.249C82.5723 138.495 82.7048 138.793 82.7048 139.143C82.7048 139.489 82.5723 139.787 82.3071 140.038C82.0467 140.285 81.7318 140.408 81.3625 140.408ZM89.8657 153.22C88.8098 153.22 87.9007 152.981 87.1384 152.503C86.3809 152.02 85.7985 151.355 85.3913 150.507C84.9841 149.66 84.7805 148.689 84.7805 147.595C84.7805 146.487 84.9888 145.509 85.4055 144.662C85.8221 143.81 86.4093 143.144 87.1668 142.666C87.9244 142.188 88.8169 141.949 89.8444 141.949C90.673 141.949 91.4116 142.103 92.0603 142.411C92.709 142.714 93.2322 143.14 93.6299 143.689C94.0324 144.238 94.2715 144.88 94.3472 145.614H92.2805C92.1668 145.102 91.9064 144.662 91.4992 144.293C91.0968 143.923 90.557 143.739 89.8799 143.739C89.288 143.739 88.7696 143.895 88.3245 144.207C87.8842 144.515 87.5409 144.955 87.2947 145.528C87.0485 146.097 86.9254 146.769 86.9254 147.545C86.9254 148.341 87.0461 149.027 87.2876 149.605C87.5291 150.183 87.87 150.63 88.3103 150.947C88.7554 151.265 89.2786 151.423 89.8799 151.423C90.2824 151.423 90.6469 151.35 90.9737 151.203C91.3051 151.052 91.5821 150.836 91.8046 150.557C92.0319 150.277 92.1905 149.941 92.2805 149.548H94.3472C94.2715 150.254 94.0418 150.884 93.6583 151.438C93.2748 151.991 92.7611 152.427 92.1171 152.744C91.4779 153.062 90.7274 153.22 89.8657 153.22ZM103.529 148.476V142.091H105.659V153H103.571V151.111H103.458C103.207 151.693 102.804 152.179 102.25 152.567C101.701 152.95 101.017 153.142 100.198 153.142C99.497 153.142 98.8767 152.988 98.3369 152.68C97.8019 152.368 97.3805 151.906 97.0727 151.295C96.7697 150.685 96.6182 149.929 96.6182 149.03V142.091H98.7418V148.774C98.7418 149.518 98.9477 150.109 99.3597 150.55C99.7716 150.99 100.307 151.21 100.965 151.21C101.363 151.21 101.758 151.111 102.151 150.912C102.549 150.713 102.878 150.412 103.138 150.01C103.403 149.607 103.533 149.096 103.529 148.476ZM110.636 138.455V153H108.513V138.455H110.636ZM113.493 153V142.091H115.617V153H113.493ZM114.566 140.408C114.196 140.408 113.879 140.285 113.614 140.038C113.354 139.787 113.223 139.489 113.223 139.143C113.223 138.793 113.354 138.495 113.614 138.249C113.879 137.998 114.196 137.872 114.566 137.872C114.935 137.872 115.25 137.998 115.51 138.249C115.775 138.495 115.908 138.793 115.908 139.143C115.908 139.489 115.775 139.787 115.51 140.038C115.25 140.285 114.935 140.408 114.566 140.408ZM123.175 153.22C122.101 153.22 121.175 152.991 120.398 152.531C119.627 152.067 119.03 151.416 118.609 150.578C118.192 149.735 117.984 148.748 117.984 147.616C117.984 146.499 118.192 145.514 118.609 144.662C119.03 143.81 119.617 143.144 120.37 142.666C121.128 142.188 122.013 141.949 123.026 141.949C123.642 141.949 124.238 142.051 124.816 142.254C125.394 142.458 125.912 142.777 126.371 143.213C126.831 143.649 127.193 144.214 127.458 144.911C127.723 145.602 127.856 146.442 127.856 147.432V148.185H119.184V146.594H125.775C125.775 146.035 125.661 145.54 125.434 145.109C125.207 144.674 124.887 144.33 124.475 144.08C124.068 143.829 123.59 143.703 123.04 143.703C122.444 143.703 121.923 143.85 121.478 144.143C121.038 144.432 120.697 144.811 120.455 145.28C120.218 145.744 120.1 146.248 120.1 146.793V148.036C120.1 148.765 120.228 149.385 120.484 149.896C120.744 150.408 121.106 150.798 121.57 151.068C122.034 151.333 122.576 151.466 123.197 151.466C123.599 151.466 123.966 151.409 124.298 151.295C124.629 151.177 124.915 151.002 125.157 150.77C125.398 150.538 125.583 150.251 125.711 149.911L127.721 150.273C127.56 150.865 127.271 151.383 126.854 151.828C126.442 152.268 125.924 152.612 125.299 152.858C124.679 153.099 123.971 153.22 123.175 153.22ZM130.212 153V142.091H132.264V143.824H132.378C132.577 143.237 132.927 142.775 133.429 142.439C133.936 142.098 134.509 141.928 135.148 141.928C135.281 141.928 135.437 141.932 135.617 141.942C135.801 141.951 135.946 141.963 136.05 141.977V144.009C135.965 143.985 135.813 143.959 135.595 143.93C135.378 143.897 135.16 143.881 134.942 143.881C134.44 143.881 133.993 143.987 133.6 144.2C133.211 144.409 132.904 144.7 132.676 145.074C132.449 145.443 132.336 145.865 132.336 146.338V153H130.212ZM146.062 144.754L144.138 145.095C144.057 144.849 143.929 144.615 143.754 144.392C143.584 144.17 143.352 143.987 143.058 143.845C142.765 143.703 142.398 143.632 141.957 143.632C141.356 143.632 140.854 143.767 140.452 144.037C140.049 144.302 139.848 144.645 139.848 145.067C139.848 145.431 139.983 145.725 140.253 145.947C140.523 146.17 140.958 146.352 141.56 146.494L143.293 146.892C144.296 147.124 145.044 147.482 145.537 147.964C146.029 148.447 146.276 149.075 146.276 149.847C146.276 150.5 146.086 151.082 145.707 151.594C145.333 152.1 144.81 152.498 144.138 152.787C143.47 153.076 142.696 153.22 141.815 153.22C140.594 153.22 139.597 152.96 138.825 152.439C138.053 151.913 137.58 151.168 137.405 150.202L139.457 149.889C139.585 150.424 139.848 150.829 140.246 151.104C140.643 151.374 141.162 151.509 141.801 151.509C142.497 151.509 143.053 151.364 143.47 151.075C143.887 150.782 144.095 150.424 144.095 150.003C144.095 149.662 143.967 149.375 143.712 149.143C143.461 148.911 143.075 148.736 142.554 148.618L140.707 148.213C139.689 147.981 138.936 147.612 138.449 147.105C137.966 146.598 137.724 145.957 137.724 145.18C137.724 144.536 137.904 143.973 138.264 143.49C138.624 143.007 139.121 142.631 139.756 142.361C140.39 142.086 141.117 141.949 141.936 141.949C143.115 141.949 144.043 142.205 144.72 142.716C145.397 143.223 145.845 143.902 146.062 144.754ZM52.0718 177V162.455H61.1912V164.344H54.2664V168.776H60.7153V170.658H54.2664V175.111H61.2764V177H52.0718ZM66.0757 170.523V177H63.9522V166.091H65.9905V167.866H66.1255C66.3764 167.289 66.7694 166.825 67.3044 166.474C67.8442 166.124 68.5237 165.949 69.3428 165.949C70.0862 165.949 70.7372 166.105 71.2959 166.418C71.8546 166.725 72.2879 167.185 72.5956 167.795C72.9034 168.406 73.0573 169.161 73.0573 170.061V177H70.9337V170.317C70.9337 169.526 70.7277 168.908 70.3158 168.463C69.9039 168.013 69.3381 167.788 68.6184 167.788C68.1259 167.788 67.688 167.895 67.3044 168.108C66.9257 168.321 66.625 168.634 66.4025 169.045C66.1847 169.453 66.0757 169.945 66.0757 170.523ZM80.9976 166.091V167.795H75.0388V166.091H80.9976ZM76.6368 163.477H78.7604V173.797C78.7604 174.209 78.822 174.519 78.9451 174.727C79.0682 174.931 79.2268 175.071 79.4209 175.146C79.6198 175.217 79.8352 175.253 80.0672 175.253C80.2377 175.253 80.3868 175.241 80.5147 175.217C80.6425 175.194 80.7419 175.175 80.813 175.161L81.1965 176.915C81.0734 176.962 80.8982 177.009 80.6709 177.057C80.4436 177.109 80.1596 177.137 79.8186 177.142C79.2599 177.152 78.7391 177.052 78.2561 176.844C77.7732 176.635 77.3826 176.313 77.0843 175.878C76.786 175.442 76.6368 174.895 76.6368 174.237V163.477ZM83.3467 177V166.091H85.3993V167.824H85.5129C85.7118 167.237 86.0621 166.775 86.564 166.439C87.0707 166.098 87.6436 165.928 88.2828 165.928C88.4154 165.928 88.5716 165.932 88.7515 165.942C88.9362 165.951 89.0806 165.963 89.1848 165.977V168.009C89.0995 167.985 88.948 167.959 88.7302 167.93C88.5124 167.897 88.2946 167.881 88.0768 167.881C87.5749 167.881 87.1275 167.987 86.7345 168.2C86.3462 168.409 86.0385 168.7 85.8112 169.074C85.5839 169.443 85.4703 169.865 85.4703 170.338V177H83.3467ZM95.3336 177.22C94.2588 177.22 93.3331 176.991 92.5566 176.531C91.7848 176.067 91.1882 175.416 90.7668 174.578C90.3501 173.735 90.1418 172.748 90.1418 171.616C90.1418 170.499 90.3501 169.514 90.7668 168.662C91.1882 167.81 91.7753 167.144 92.5282 166.666C93.2857 166.188 94.1712 165.949 95.1844 165.949C95.7999 165.949 96.3965 166.051 96.9742 166.254C97.5518 166.458 98.0703 166.777 98.5296 167.213C98.9889 167.649 99.3511 168.214 99.6162 168.911C99.8814 169.602 100.014 170.442 100.014 171.432V172.185H91.3421V170.594H97.933C97.933 170.035 97.8194 169.54 97.5921 169.109C97.3648 168.674 97.0452 168.33 96.6333 168.08C96.2261 167.829 95.7479 167.703 95.1986 167.703C94.602 167.703 94.0812 167.85 93.6361 168.143C93.1958 168.432 92.8549 168.811 92.6134 169.28C92.3766 169.744 92.2583 170.248 92.2583 170.793V172.036C92.2583 172.765 92.3861 173.385 92.6418 173.896C92.9022 174.408 93.2644 174.798 93.7284 175.068C94.1925 175.333 94.7346 175.466 95.3549 175.466C95.7573 175.466 96.1243 175.409 96.4557 175.295C96.7872 175.177 97.0736 175.002 97.3151 174.77C97.5566 174.538 97.7412 174.251 97.8691 173.911L99.879 174.273C99.718 174.865 99.4292 175.383 99.0125 175.828C98.6006 176.268 98.0821 176.612 97.4571 176.858C96.8369 177.099 96.129 177.22 95.3336 177.22ZM102.37 181.091V166.091H104.444V167.859H104.622C104.745 167.632 104.922 167.369 105.154 167.071C105.386 166.773 105.708 166.512 106.12 166.29C106.532 166.062 107.077 165.949 107.754 165.949C108.634 165.949 109.42 166.171 110.112 166.616C110.803 167.062 111.345 167.703 111.738 168.541C112.136 169.379 112.335 170.388 112.335 171.567C112.335 172.746 112.138 173.757 111.745 174.599C111.352 175.437 110.812 176.084 110.126 176.538C109.439 176.988 108.656 177.213 107.775 177.213C107.112 177.213 106.57 177.102 106.149 176.879C105.732 176.657 105.405 176.396 105.168 176.098C104.932 175.8 104.749 175.535 104.622 175.303H104.494V181.091H102.37ZM104.451 171.545C104.451 172.312 104.562 172.985 104.785 173.562C105.007 174.14 105.329 174.592 105.751 174.919C106.172 175.241 106.688 175.402 107.299 175.402C107.934 175.402 108.464 175.234 108.89 174.898C109.316 174.557 109.638 174.095 109.856 173.513C110.078 172.93 110.19 172.275 110.19 171.545C110.19 170.826 110.081 170.179 109.863 169.607C109.65 169.034 109.328 168.581 108.897 168.25C108.471 167.919 107.938 167.753 107.299 167.753C106.684 167.753 106.163 167.911 105.737 168.229C105.315 168.546 104.996 168.989 104.778 169.557C104.56 170.125 104.451 170.788 104.451 171.545ZM114.714 177V166.091H116.766V167.824H116.88C117.079 167.237 117.429 166.775 117.931 166.439C118.438 166.098 119.011 165.928 119.65 165.928C119.783 165.928 119.939 165.932 120.119 165.942C120.303 165.951 120.448 165.963 120.552 165.977V168.009C120.467 167.985 120.315 167.959 120.097 167.93C119.88 167.897 119.662 167.881 119.444 167.881C118.942 167.881 118.495 167.987 118.102 168.2C117.713 168.409 117.406 168.7 117.178 169.074C116.951 169.443 116.837 169.865 116.837 170.338V177H114.714ZM122.39 177V166.091H124.513V177H122.39ZM123.462 164.408C123.093 164.408 122.776 164.285 122.51 164.038C122.25 163.787 122.12 163.489 122.12 163.143C122.12 162.793 122.25 162.495 122.51 162.249C122.776 161.998 123.093 161.872 123.462 161.872C123.831 161.872 124.146 161.998 124.407 162.249C124.672 162.495 124.804 162.793 124.804 163.143C124.804 163.489 124.672 163.787 124.407 164.038C124.146 164.285 123.831 164.408 123.462 164.408ZM135.545 168.754L133.62 169.095C133.54 168.849 133.412 168.615 133.237 168.392C133.066 168.17 132.834 167.987 132.541 167.845C132.247 167.703 131.88 167.632 131.44 167.632C130.838 167.632 130.337 167.767 129.934 168.037C129.532 168.302 129.33 168.645 129.33 169.067C129.33 169.431 129.465 169.725 129.735 169.947C130.005 170.17 130.441 170.352 131.042 170.494L132.775 170.892C133.779 171.124 134.527 171.482 135.019 171.964C135.512 172.447 135.758 173.075 135.758 173.847C135.758 174.5 135.569 175.082 135.19 175.594C134.816 176.1 134.292 176.498 133.62 176.787C132.953 177.076 132.178 177.22 131.298 177.22C130.076 177.22 129.079 176.96 128.308 176.439C127.536 175.913 127.062 175.168 126.887 174.202L128.94 173.889C129.068 174.424 129.33 174.829 129.728 175.104C130.126 175.374 130.644 175.509 131.283 175.509C131.98 175.509 132.536 175.364 132.953 175.075C133.369 174.782 133.578 174.424 133.578 174.003C133.578 173.662 133.45 173.375 133.194 173.143C132.943 172.911 132.557 172.736 132.036 172.618L130.19 172.213C129.172 171.981 128.419 171.612 127.931 171.105C127.448 170.598 127.207 169.957 127.207 169.18C127.207 168.536 127.387 167.973 127.747 167.49C128.106 167.007 128.604 166.631 129.238 166.361C129.873 166.086 130.599 165.949 131.418 165.949C132.597 165.949 133.525 166.205 134.203 166.716C134.88 167.223 135.327 167.902 135.545 168.754ZM142.794 177.22C141.72 177.22 140.794 176.991 140.018 176.531C139.246 176.067 138.649 175.416 138.228 174.578C137.811 173.735 137.603 172.748 137.603 171.616C137.603 170.499 137.811 169.514 138.228 168.662C138.649 167.81 139.236 167.144 139.989 166.666C140.747 166.188 141.632 165.949 142.645 165.949C143.261 165.949 143.857 166.051 144.435 166.254C145.013 166.458 145.531 166.777 145.991 167.213C146.45 167.649 146.812 168.214 147.077 168.911C147.342 169.602 147.475 170.442 147.475 171.432V172.185H138.803V170.594H145.394C145.394 170.035 145.28 169.54 145.053 169.109C144.826 168.674 144.506 168.33 144.094 168.08C143.687 167.829 143.209 167.703 142.66 167.703C142.063 167.703 141.542 167.85 141.097 168.143C140.657 168.432 140.316 168.811 140.074 169.28C139.838 169.744 139.719 170.248 139.719 170.793V172.036C139.719 172.765 139.847 173.385 140.103 173.896C140.363 174.408 140.725 174.798 141.189 175.068C141.653 175.333 142.196 175.466 142.816 175.466C143.218 175.466 143.585 175.409 143.917 175.295C144.248 175.177 144.535 175.002 144.776 174.77C145.018 174.538 145.202 174.251 145.33 173.911L147.34 174.273C147.179 174.865 146.89 175.383 146.473 175.828C146.062 176.268 145.543 176.612 144.918 176.858C144.298 177.099 143.59 177.22 142.794 177.22ZM158.006 168.754L156.081 169.095C156.001 168.849 155.873 168.615 155.698 168.392C155.527 168.17 155.295 167.987 155.002 167.845C154.708 167.703 154.341 167.632 153.901 167.632C153.299 167.632 152.797 167.767 152.395 168.037C151.993 168.302 151.791 168.645 151.791 169.067C151.791 169.431 151.926 169.725 152.196 169.947C152.466 170.17 152.902 170.352 153.503 170.494L155.236 170.892C156.24 171.124 156.988 171.482 157.48 171.964C157.973 172.447 158.219 173.075 158.219 173.847C158.219 174.5 158.029 175.082 157.651 175.594C157.277 176.1 156.753 176.498 156.081 176.787C155.413 177.076 154.639 177.22 153.759 177.22C152.537 177.22 151.54 176.96 150.769 176.439C149.997 175.913 149.523 175.168 149.348 174.202L151.401 173.889C151.529 174.424 151.791 174.829 152.189 175.104C152.587 175.374 153.105 175.509 153.744 175.509C154.44 175.509 154.997 175.364 155.413 175.075C155.83 174.782 156.038 174.424 156.038 174.003C156.038 173.662 155.911 173.375 155.655 173.143C155.404 172.911 155.018 172.736 154.497 172.618L152.651 172.213C151.633 171.981 150.88 171.612 150.392 171.105C149.909 170.598 149.668 169.957 149.668 169.18C149.668 168.536 149.848 167.973 150.207 167.49C150.567 167.007 151.065 166.631 151.699 166.361C152.333 166.086 153.06 165.949 153.879 165.949C155.058 165.949 155.986 166.205 156.663 166.716C157.341 167.223 157.788 167.902 158.006 168.754Z" fill="#038750"/>
</svg>
