<svg width="24" height="24" viewBox="0 0 24 24" fill="none" xmlns="http://www.w3.org/2000/svg">
<path d="M20.172 6.75014H18.311L13.745 11.3141C13.9022 11.7149 13.9167 12.1577 13.7859 12.5679C13.6552 12.978 13.3871 13.3307 13.0269 13.5665C12.6667 13.8024 12.2363 13.907 11.808 13.8627C11.3798 13.8185 10.9798 13.6282 10.6753 13.3238C10.3709 13.0193 10.1806 12.6194 10.1364 12.1911C10.0922 11.7628 10.1968 11.3324 10.4326 10.9722C10.6684 10.612 11.0211 10.344 11.4313 10.2132C11.8415 10.0824 12.2842 10.0969 12.685 10.2541L17.25 5.68914V3.82814C17.2501 3.57912 17.349 3.34031 17.525 3.16414L19.255 1.43414C19.287 1.40192 19.3272 1.37903 19.3712 1.36793C19.4153 1.35683 19.4615 1.35794 19.505 1.37114C19.594 1.39714 19.66 1.47114 19.678 1.56214L20.138 3.86314L22.438 4.32314C22.528 4.34114 22.602 4.40714 22.628 4.49614C22.6411 4.53938 22.6423 4.58536 22.6314 4.6292C22.6204 4.67305 22.5978 4.71311 22.566 4.74514L20.835 6.47514C20.6591 6.6509 20.4207 6.74978 20.172 6.75014Z" fill="black"/>
<path d="M2.625 12C2.625 14.4864 3.61272 16.871 5.37087 18.6291C7.12903 20.3873 9.5136 21.375 12 21.375C13.2311 21.375 14.4502 21.1325 15.5877 20.6614C16.7251 20.1902 17.7586 19.4997 18.6291 18.6291C19.4997 17.7586 20.1902 16.7251 20.6614 15.5877C21.1325 14.4502 21.375 13.2311 21.375 12C21.375 11.102 21.249 10.234 21.014 9.41301C20.9673 9.2245 20.9955 9.02522 21.0928 8.8571C21.19 8.68899 21.3487 8.56515 21.5353 8.51164C21.722 8.45813 21.9222 8.47913 22.0937 8.57021C22.2653 8.6613 22.3948 8.81537 22.455 9.00001C22.729 9.95401 22.875 10.96 22.875 12C22.875 18.006 18.006 22.875 12 22.875C5.994 22.875 1.125 18.006 1.125 12C1.125 5.99401 5.994 1.12501 12 1.12501C13.015 1.12401 14.024 1.26501 15 1.54401C15.0952 1.5707 15.1841 1.61594 15.2617 1.67713C15.3393 1.73831 15.4041 1.81423 15.4523 1.90053C15.5005 1.98683 15.5311 2.0818 15.5425 2.17998C15.5538 2.27816 15.5457 2.37762 15.5184 2.47264C15.4912 2.56765 15.4455 2.65635 15.3839 2.73364C15.3223 2.81092 15.246 2.87527 15.1595 2.92297C15.0729 2.97068 14.9778 3.00081 14.8795 3.01163C14.7813 3.02244 14.6819 3.01374 14.587 2.98601C13.7457 2.74586 12.8749 2.62436 12 2.62501C9.5136 2.62501 7.12903 3.61273 5.37087 5.37088C3.61272 7.12903 2.625 9.5136 2.625 12Z" fill="black"/>
<path d="M7.12523 11.9998C7.12802 12.6621 7.26577 13.3169 7.53008 13.9242C7.79438 14.5315 8.17969 15.0786 8.66248 15.532C9.14527 15.9855 9.7154 16.3357 10.3381 16.5615C10.9608 16.7872 11.6229 16.8836 12.2841 16.8449C12.9453 16.8062 13.5917 16.6331 14.1837 16.3363C14.7758 16.0394 15.3012 15.625 15.7277 15.1183C16.1543 14.6116 16.4731 14.0233 16.6648 13.3893C16.8564 12.7553 16.9168 12.0889 16.8422 11.4308C16.8212 11.2975 16.8367 11.161 16.8869 11.0358C16.9372 10.9106 17.0204 10.8013 17.1277 10.7195C17.235 10.6377 17.3624 10.5864 17.4965 10.5712C17.6306 10.5559 17.7663 10.5772 17.8892 10.6328C18.1402 10.7448 18.3092 10.9838 18.3312 11.2578C18.4865 12.573 18.2282 13.904 17.5921 15.0656C16.9561 16.2273 15.9739 17.1619 14.7822 17.7396C13.5905 18.3174 12.2484 18.5095 10.9424 18.2892C9.63648 18.069 8.43159 17.4474 7.49523 16.5108C6.55913 15.5752 5.93736 14.3715 5.71616 13.0667C5.49496 11.7618 5.68529 10.4204 6.26075 9.22863C6.83622 8.03681 7.7683 7.05361 8.92772 6.41538C10.0871 5.77714 11.4164 5.51552 12.7312 5.66679C12.8306 5.67601 12.9272 5.70498 13.0152 5.75201C13.1033 5.79903 13.1811 5.86315 13.244 5.94063C13.307 6.0181 13.3538 6.10736 13.3818 6.20317C13.4098 6.29898 13.4184 6.39942 13.4071 6.4986C13.3958 6.59778 13.3648 6.6937 13.3159 6.78075C13.2671 6.86779 13.2013 6.9442 13.1225 7.0055C13.0437 7.0668 12.9535 7.11176 12.8571 7.13774C12.7607 7.16372 12.6601 7.17019 12.5612 7.15679C11.8783 7.07783 11.1863 7.14419 10.5308 7.35153C9.87528 7.55886 9.27102 7.90247 8.75768 8.35982C8.24433 8.81716 7.83351 9.3779 7.55217 10.0052C7.27083 10.6325 7.12533 11.3123 7.12523 11.9998Z" fill="black"/>
</svg>
