<svg width="53" height="39" viewBox="0 0 53 39" fill="none" xmlns="http://www.w3.org/2000/svg">
<path d="M0 3.05635C0 2.24576 0.304674 1.46836 0.846997 0.895184C1.38932 0.322007 2.12487 0 2.89183 0H45.3053C46.0723 0 46.8078 0.322007 47.3502 0.895184C47.8925 1.46836 48.1972 2.24576 48.1972 3.05635C48.1972 3.86695 47.8925 4.64434 47.3502 5.21752C46.8078 5.7907 46.0723 6.1127 45.3053 6.1127H2.89183C2.12487 6.1127 1.38932 5.7907 0.846997 5.21752C0.304674 4.64434 0 3.86695 0 3.05635ZM2.89183 22.4132H18.3149C19.0819 22.4132 19.8174 22.0912 20.3597 21.5181C20.9021 20.9449 21.2067 20.1675 21.2067 19.3569C21.2067 18.5463 20.9021 17.7689 20.3597 17.1957C19.8174 16.6225 19.0819 16.3005 18.3149 16.3005H2.89183C2.12487 16.3005 1.38932 16.6225 0.846997 17.1957C0.304674 17.7689 0 18.5463 0 19.3569C0 20.1675 0.304674 20.9449 0.846997 21.5181C1.38932 22.0912 2.12487 22.4132 2.89183 22.4132ZM22.1707 32.6011H2.89183C2.12487 32.6011 1.38932 32.9231 0.846997 33.4963C0.304674 34.0695 0 34.8468 0 35.6574C0 36.468 0.304674 37.2454 0.846997 37.8186C1.38932 38.3918 2.12487 38.7138 2.89183 38.7138H22.1707C22.9376 38.7138 23.6732 38.3918 24.2155 37.8186C24.7578 37.2454 25.0625 36.468 25.0625 35.6574C25.0625 34.8468 24.7578 34.0695 24.2155 33.4963C23.6732 32.9231 22.9376 32.6011 22.1707 32.6011ZM51.2071 37.8198C50.9384 38.1047 50.6192 38.3308 50.2677 38.4851C49.9162 38.6393 49.5393 38.7188 49.1587 38.7188C48.7781 38.7188 48.4012 38.6393 48.0497 38.4851C47.6982 38.3308 47.379 38.1047 47.1103 37.8198L42.7533 33.2149C40.5184 34.532 37.9083 34.9506 35.4043 34.3933C32.9004 33.8361 30.6716 32.3406 29.129 30.1828C27.5865 28.025 26.8343 25.3505 27.0112 22.6525C27.188 19.9546 28.2821 17.4152 30.0915 15.5029C31.9008 13.5906 34.3035 12.4343 36.8562 12.2474C39.409 12.0604 41.9395 12.8554 43.9812 14.4857C46.0228 16.116 47.4378 18.4716 47.965 21.118C48.4923 23.7644 48.0963 26.5231 46.85 28.8851L51.2071 33.4874C51.477 33.7714 51.6912 34.109 51.8374 34.4807C51.9836 34.8525 52.0588 35.2511 52.0588 35.6536C52.0588 36.0562 51.9836 36.4548 51.8374 36.8265C51.6912 37.1983 51.477 37.5358 51.2071 37.8198ZM37.5938 28.5259C38.547 28.5259 39.4789 28.2272 40.2715 27.6675C41.0641 27.1077 41.6818 26.3122 42.0466 25.3814C42.4114 24.4506 42.5069 23.4264 42.3209 22.4383C42.1349 21.4501 41.6759 20.5425 41.0018 19.8301C40.3278 19.1177 39.469 18.6325 38.5341 18.436C37.5991 18.2394 36.63 18.3403 35.7494 18.7259C34.8687 19.1114 34.1159 19.7643 33.5863 20.602C33.0567 21.4397 32.7741 22.4245 32.7741 23.432C32.7741 24.101 32.8987 24.7634 33.1409 25.3814C33.3832 25.9994 33.7382 26.561 34.1857 27.034C34.6333 27.507 35.1646 27.8822 35.7494 28.1382C36.3341 28.3942 36.9608 28.5259 37.5938 28.5259Z" fill="#038750"/>
</svg>
