<svg width="353" height="324" viewBox="0 0 353 324" fill="none" xmlns="http://www.w3.org/2000/svg">
<rect x="1.45538" y="1.45538" width="349.835" height="320.533" fill="white" stroke="#CCE7D7" stroke-width="2.91077"/>
<rect width="51.2149" height="50.11" transform="matrix(0 1 1 0 42.1436 197.272)" fill="#C3E2DA"/>
<rect width="51.2149" height="48.9338" transform="matrix(0 1 1 0 55.0801 235.744)" fill="#CCE7D7"/>
<rect width="51.2149" height="48.9338" transform="matrix(0 1 1 0 101.897 261.473)" fill="#F0E2AD"/>
<rect width="51.2149" height="48.9338" transform="matrix(0 1 1 0 108.014 176.594)" fill="#CCE7D7"/>
<rect width="51.2149" height="48.9338" transform="matrix(0 1 1 0 126.362 223.001)" fill="#F0E2AD"/>
<rect width="51.2149" height="50.11" transform="matrix(0 1 1 0 77.4277 176.594)" fill="#FFC7C3"/>
<g filter="url(#filter0_d_1102_26071)">
<rect width="51.2149" height="50.11" transform="matrix(0 1 1 0 92.25 210.257)" fill="#DCDCDC"/>
</g>
<rect x="184.235" y="61.457" width="50.11" height="50.0127" fill="#F0E2AD"/>
<rect x="222.344" y="86.4619" width="50.11" height="50.0127" fill="#CCE7D7"/>
<rect x="263.52" y="35.248" width="50.11" height="50.0127" fill="#CCE7D7"/>
<rect x="183.998" y="105.218" width="50.11" height="50.0127" fill="#FFC7C3"/>
<rect x="209.17" y="20.8213" width="50.11" height="50.0127" fill="#C3E2DA"/>
<rect x="247.523" y="75.6436" width="50.11" height="50.0127" fill="#F0E2AD"/>
<g filter="url(#filter1_d_1102_26071)">
<rect x="213.408" y="60.2539" width="50.11" height="51.2149" fill="#DCDCDC"/>
</g>
<rect x="62.3701" y="20.8213" width="50.11" height="51.2149" fill="#C3E2DA"/>
<rect x="112.485" y="56.8877" width="50.11" height="50.0127" fill="#CCE7D7"/>
<rect x="42.1406" y="88.1465" width="50.11" height="50.0127" fill="#CCE7D7"/>
<rect x="87.5488" y="106.901" width="50.11" height="50.0127" fill="#F0E2AD"/>
<rect x="42.1406" y="56.8877" width="50.11" height="51.2149" fill="#FFC7C3"/>
<g filter="url(#filter2_d_1102_26071)">
<rect x="75.0811" y="72.0361" width="50.11" height="51.2149" fill="#DCDCDC"/>
</g>
<path d="M91.3545 94.9173V98.5537H90.9283L88.9468 95.6986H88.9113V98.5537H88.471V94.9173H88.8971L90.8857 97.7796H90.9212V94.9173H91.3545ZM92.9813 98.6176C92.8085 98.6176 92.6517 98.5851 92.5108 98.52C92.3699 98.4537 92.2581 98.3584 92.1752 98.2341C92.0924 98.1086 92.0509 97.9571 92.0509 97.7796C92.0509 97.6233 92.0817 97.4967 92.1433 97.3996C92.2048 97.3013 92.2871 97.2244 92.3901 97.1688C92.4931 97.1131 92.6067 97.0717 92.731 97.0445C92.8565 97.0161 92.9825 96.9936 93.1092 96.977C93.2749 96.9557 93.4092 96.9397 93.5122 96.9291C93.6164 96.9172 93.6922 96.8977 93.7395 96.8705C93.788 96.8432 93.8123 96.7959 93.8123 96.7284V96.7142C93.8123 96.539 93.7644 96.4029 93.6685 96.3058C93.5738 96.2088 93.43 96.1602 93.237 96.1602C93.037 96.1602 92.8801 96.204 92.7665 96.2916C92.6529 96.3792 92.573 96.4727 92.5268 96.5722L92.1291 96.4301C92.2001 96.2644 92.2948 96.1354 92.4132 96.0431C92.5327 95.9495 92.6629 95.8844 92.8038 95.8477C92.9458 95.8099 93.0855 95.7909 93.2228 95.7909C93.3104 95.7909 93.411 95.8016 93.5247 95.8229C93.6395 95.843 93.7502 95.885 93.8567 95.949C93.9644 96.0129 94.0538 96.1093 94.1248 96.2384C94.1958 96.3674 94.2313 96.5402 94.2313 96.7568V98.5537H93.8123V98.1844H93.791C93.7626 98.2436 93.7152 98.3069 93.649 98.3744C93.5827 98.4419 93.4945 98.4993 93.3844 98.5466C93.2743 98.594 93.14 98.6176 92.9813 98.6176ZM93.0453 98.2412C93.211 98.2412 93.3507 98.2087 93.4643 98.1436C93.5791 98.0785 93.6655 97.9944 93.7235 97.8914C93.7827 97.7884 93.8123 97.6801 93.8123 97.5665V97.183C93.7945 97.2043 93.7555 97.2238 93.6951 97.2416C93.6359 97.2581 93.5673 97.2729 93.4891 97.286C93.4122 97.2978 93.337 97.3084 93.2637 97.3179C93.1914 97.3262 93.1329 97.3333 93.0879 97.3392C92.979 97.3534 92.8772 97.3765 92.7825 97.4085C92.689 97.4392 92.6132 97.486 92.5552 97.5487C92.4984 97.6103 92.47 97.6943 92.47 97.8009C92.47 97.9465 92.5238 98.0566 92.6316 98.1311C92.7405 98.2045 92.8784 98.2412 93.0453 98.2412ZM97.1286 95.8264L96.1201 98.5537H95.694L94.6854 95.8264H95.14L95.8928 97.9997H95.9212L96.6741 95.8264H97.1286ZM97.6817 98.5537V95.8264H98.1007V98.5537H97.6817ZM97.8948 95.3719C97.8131 95.3719 97.7427 95.3441 97.6835 95.2884C97.6255 95.2328 97.5965 95.1659 97.5965 95.0878C97.5965 95.0097 97.6255 94.9428 97.6835 94.8872C97.7427 94.8315 97.8131 94.8037 97.8948 94.8037C97.9765 94.8037 98.0463 94.8315 98.1043 94.8872C98.1635 94.9428 98.1931 95.0097 98.1931 95.0878C98.1931 95.1659 98.1635 95.2328 98.1043 95.2884C98.0463 95.3441 97.9765 95.3719 97.8948 95.3719ZM99.9691 99.6333C99.7667 99.6333 99.5927 99.6072 99.4471 99.5551C99.3015 99.5042 99.1801 99.4368 99.0831 99.3527C98.9872 99.2699 98.9108 99.1811 98.854 99.0864L99.1878 98.852C99.2257 98.9017 99.2737 98.9585 99.3317 99.0225C99.3897 99.0876 99.469 99.1438 99.5696 99.1911C99.6714 99.2397 99.8045 99.2639 99.9691 99.2639C100.189 99.2639 100.371 99.2107 100.514 99.1041C100.657 98.9976 100.729 98.8307 100.729 98.6034V98.0494H100.694C100.663 98.0992 100.619 98.1607 100.562 98.2341C100.506 98.3063 100.426 98.3708 100.321 98.4276C100.216 98.4833 100.076 98.5111 99.8981 98.5111C99.6779 98.5111 99.4802 98.459 99.305 98.3548C99.131 98.2507 98.9931 98.0992 98.8913 97.9003C98.7907 97.7014 98.7404 97.46 98.7404 97.1759C98.7404 96.8965 98.7895 96.6533 98.8878 96.4461C98.986 96.2378 99.1227 96.0768 99.2979 95.9632C99.4731 95.8483 99.6755 95.7909 99.9052 95.7909C100.083 95.7909 100.224 95.8205 100.328 95.8797C100.433 95.9377 100.514 96.004 100.569 96.0786C100.626 96.152 100.67 96.2123 100.701 96.2597H100.743V95.8264H101.148V98.6318C101.148 98.8662 101.095 99.0568 100.988 99.2036C100.883 99.3515 100.741 99.4598 100.562 99.5285C100.385 99.5983 100.187 99.6333 99.9691 99.6333ZM99.9549 98.1347C100.123 98.1347 100.265 98.0962 100.381 98.0193C100.497 97.9423 100.585 97.8316 100.646 97.6872C100.706 97.5428 100.736 97.37 100.736 97.1688C100.736 96.9723 100.707 96.7989 100.647 96.6485C100.588 96.4982 100.501 96.3804 100.385 96.2952C100.269 96.21 100.125 96.1673 99.9549 96.1673C99.7773 96.1673 99.6294 96.2123 99.511 96.3023C99.3938 96.3923 99.3056 96.513 99.2464 96.6645C99.1884 96.816 99.1594 96.9841 99.1594 97.1688C99.1594 97.3582 99.189 97.5257 99.2482 97.6713C99.3086 97.8157 99.3974 97.9293 99.5145 98.0122C99.6329 98.0938 99.7797 98.1347 99.9549 98.1347ZM102.718 98.6176C102.545 98.6176 102.388 98.5851 102.247 98.52C102.106 98.4537 101.994 98.3584 101.912 98.2341C101.829 98.1086 101.787 97.9571 101.787 97.7796C101.787 97.6233 101.818 97.4967 101.88 97.3996C101.941 97.3013 102.023 97.2244 102.126 97.1688C102.229 97.1131 102.343 97.0717 102.467 97.0445C102.593 97.0161 102.719 96.9936 102.846 96.977C103.011 96.9557 103.146 96.9397 103.249 96.9291C103.353 96.9172 103.428 96.8977 103.476 96.8705C103.524 96.8432 103.549 96.7959 103.549 96.7284V96.7142C103.549 96.539 103.501 96.4029 103.405 96.3058C103.31 96.2088 103.166 96.1602 102.973 96.1602C102.773 96.1602 102.616 96.204 102.503 96.2916C102.389 96.3792 102.309 96.4727 102.263 96.5722L101.865 96.4301C101.936 96.2644 102.031 96.1354 102.149 96.0431C102.269 95.9495 102.399 95.8844 102.54 95.8477C102.682 95.8099 102.822 95.7909 102.959 95.7909C103.047 95.7909 103.147 95.8016 103.261 95.8229C103.376 95.843 103.486 95.885 103.593 95.949C103.701 96.0129 103.79 96.1093 103.861 96.2384C103.932 96.3674 103.968 96.5402 103.968 96.7568V98.5537H103.549V98.1844H103.527C103.499 98.2436 103.452 98.3069 103.385 98.3744C103.319 98.4419 103.231 98.4993 103.121 98.5466C103.011 98.594 102.876 98.6176 102.718 98.6176ZM102.782 98.2412C102.947 98.2412 103.087 98.2087 103.201 98.1436C103.315 98.0785 103.402 97.9944 103.46 97.8914C103.519 97.7884 103.549 97.6801 103.549 97.5665V97.183C103.531 97.2043 103.492 97.2238 103.431 97.2416C103.372 97.2581 103.304 97.2729 103.225 97.286C103.149 97.2978 103.073 97.3084 103 97.3179C102.928 97.3262 102.869 97.3333 102.824 97.3392C102.715 97.3534 102.613 97.3765 102.519 97.4085C102.425 97.4392 102.35 97.486 102.292 97.5487C102.235 97.6103 102.206 97.6943 102.206 97.8009C102.206 97.9465 102.26 98.0566 102.368 98.1311C102.477 98.2045 102.615 98.2412 102.782 98.2412ZM105.919 95.8264V96.1816H104.505V95.8264H105.919ZM104.917 95.173H105.336V97.7725C105.336 97.8908 105.353 97.9796 105.388 98.0388C105.423 98.0968 105.468 98.1359 105.523 98.156C105.578 98.1749 105.637 98.1844 105.698 98.1844C105.745 98.1844 105.782 98.182 105.812 98.1773C105.842 98.1714 105.865 98.1666 105.883 98.1631L105.968 98.5395C105.94 98.5502 105.9 98.5608 105.849 98.5715C105.798 98.5833 105.734 98.5892 105.656 98.5892C105.537 98.5892 105.421 98.5638 105.308 98.5129C105.195 98.462 105.102 98.3844 105.027 98.2803C104.954 98.1761 104.917 98.0447 104.917 97.8861V95.173ZM106.549 98.5537V95.8264H106.968V98.5537H106.549ZM106.762 95.3719C106.68 95.3719 106.61 95.3441 106.551 95.2884C106.493 95.2328 106.464 95.1659 106.464 95.0878C106.464 95.0097 106.493 94.9428 106.551 94.8872C106.61 94.8315 106.68 94.8037 106.762 94.8037C106.844 94.8037 106.913 94.8315 106.971 94.8872C107.031 94.9428 107.06 95.0097 107.06 95.0878C107.06 95.1659 107.031 95.2328 106.971 95.2884C106.913 95.3441 106.844 95.3719 106.762 95.3719ZM108.843 98.6105C108.597 98.6105 108.381 98.5519 108.195 98.4347C108.011 98.3176 107.866 98.1536 107.762 97.9429C107.659 97.7322 107.608 97.486 107.608 97.2043C107.608 96.9202 107.659 96.6722 107.762 96.4603C107.866 96.2484 108.011 96.0839 108.195 95.9667C108.381 95.8495 108.597 95.7909 108.843 95.7909C109.09 95.7909 109.305 95.8495 109.49 95.9667C109.676 96.0839 109.82 96.2484 109.923 96.4603C110.027 96.6722 110.079 96.9202 110.079 97.2043C110.079 97.486 110.027 97.7322 109.923 97.9429C109.82 98.1536 109.676 98.3176 109.49 98.4347C109.305 98.5519 109.09 98.6105 108.843 98.6105ZM108.843 98.2341C109.03 98.2341 109.184 98.1862 109.305 98.0903C109.426 97.9944 109.515 97.8683 109.573 97.7121C109.631 97.5558 109.66 97.3866 109.66 97.2043C109.66 97.022 109.631 96.8521 109.573 96.6947C109.515 96.5373 109.426 96.41 109.305 96.3129C109.184 96.2159 109.03 96.1673 108.843 96.1673C108.656 96.1673 108.502 96.2159 108.382 96.3129C108.261 96.41 108.172 96.5373 108.114 96.6947C108.056 96.8521 108.027 97.022 108.027 97.2043C108.027 97.3866 108.056 97.5558 108.114 97.7121C108.172 97.8683 108.261 97.9944 108.382 98.0903C108.502 98.1862 108.656 98.2341 108.843 98.2341ZM111.138 96.9131V98.5537H110.719V95.8264H111.124V96.2526H111.159C111.223 96.1141 111.32 96.0028 111.45 95.9188C111.581 95.8335 111.749 95.7909 111.955 95.7909C112.139 95.7909 112.301 95.8288 112.439 95.9046C112.578 95.9791 112.686 96.0928 112.762 96.2455C112.839 96.397 112.878 96.5887 112.878 96.8208V98.5537H112.459V96.8492C112.459 96.6349 112.403 96.468 112.292 96.3485C112.181 96.2277 112.028 96.1673 111.834 96.1673C111.7 96.1673 111.581 96.1963 111.475 96.2544C111.371 96.3124 111.289 96.397 111.228 96.5083C111.168 96.6195 111.138 96.7545 111.138 96.9131Z" fill="black"/>
<path d="M221.669 81.749H221.229C221.203 81.6224 221.157 81.5111 221.092 81.4152C221.028 81.3193 220.95 81.2388 220.858 81.1737C220.767 81.1075 220.665 81.0577 220.554 81.0246C220.443 80.9914 220.327 80.9749 220.206 80.9749C219.986 80.9749 219.787 81.0305 219.608 81.1418C219.43 81.253 219.289 81.417 219.183 81.6336C219.079 81.8502 219.027 82.116 219.027 82.4308C219.027 82.7457 219.079 83.0115 219.183 83.2281C219.289 83.4447 219.43 83.6086 219.608 83.7199C219.787 83.8312 219.986 83.8868 220.206 83.8868C220.327 83.8868 220.443 83.8702 220.554 83.8371C220.665 83.8039 220.767 83.7548 220.858 83.6897C220.95 83.6234 221.028 83.5423 221.092 83.4465C221.157 83.3494 221.203 83.2381 221.229 83.1127H221.669C221.636 83.2985 221.576 83.4648 221.488 83.6116C221.401 83.7584 221.292 83.8833 221.161 83.9862C221.031 84.088 220.885 84.1656 220.723 84.2188C220.562 84.2721 220.39 84.2987 220.206 84.2987C219.896 84.2987 219.62 84.223 219.379 84.0715C219.137 83.92 218.947 83.7045 218.809 83.4252C218.67 83.1458 218.601 82.8144 218.601 82.4308C218.601 82.0473 218.67 81.7159 218.809 81.4365C218.947 81.1572 219.137 80.9417 219.379 80.7902C219.62 80.6387 219.896 80.5629 220.206 80.5629C220.39 80.5629 220.562 80.5896 220.723 80.6428C220.885 80.6961 221.031 80.7742 221.161 80.8772C221.292 80.979 221.401 81.1033 221.488 81.2501C221.576 81.3957 221.636 81.562 221.669 81.749ZM223.432 84.3058C223.186 84.3058 222.97 84.2472 222.784 84.1301C222.599 84.0129 222.455 83.8489 222.351 83.6382C222.248 83.4275 222.196 83.1813 222.196 82.8996C222.196 82.6155 222.248 82.3675 222.351 82.1556C222.455 81.9437 222.599 81.7792 222.784 81.662C222.97 81.5448 223.186 81.4862 223.432 81.4862C223.678 81.4862 223.894 81.5448 224.078 81.662C224.264 81.7792 224.408 81.9437 224.511 82.1556C224.616 82.3675 224.668 82.6155 224.668 82.8996C224.668 83.1813 224.616 83.4275 224.511 83.6382C224.408 83.8489 224.264 84.0129 224.078 84.1301C223.894 84.2472 223.678 84.3058 223.432 84.3058ZM223.432 83.9294C223.619 83.9294 223.773 83.8815 223.894 83.7856C224.014 83.6897 224.104 83.5637 224.162 83.4074C224.22 83.2512 224.249 83.0819 224.249 82.8996C224.249 82.7173 224.22 82.5474 224.162 82.39C224.104 82.2326 224.014 82.1053 223.894 82.0083C223.773 81.9112 223.619 81.8627 223.432 81.8627C223.245 81.8627 223.091 81.9112 222.97 82.0083C222.85 82.1053 222.76 82.2326 222.702 82.39C222.644 82.5474 222.615 82.7173 222.615 82.8996C222.615 83.0819 222.644 83.2512 222.702 83.4074C222.76 83.5637 222.85 83.6897 222.97 83.7856C223.091 83.8815 223.245 83.9294 223.432 83.9294ZM225.726 82.6084V84.249H225.307V81.5218H225.712V81.9479H225.748C225.812 81.8094 225.909 81.6981 226.039 81.6141C226.169 81.5289 226.337 81.4862 226.543 81.4862C226.728 81.4862 226.889 81.5241 227.028 81.5999C227.166 81.6744 227.274 81.7881 227.351 81.9408C227.428 82.0923 227.466 82.2841 227.466 82.5161V84.249H227.047V82.5445C227.047 82.3302 226.992 82.1633 226.881 82.0438C226.769 81.923 226.617 81.8627 226.422 81.8627C226.289 81.8627 226.169 81.8917 226.064 81.9497C225.96 82.0077 225.877 82.0923 225.817 82.2036C225.757 82.3148 225.726 82.4498 225.726 82.6084ZM228.651 82.6084V84.249H228.232V81.5218H228.637V81.9479H228.672C228.736 81.8094 228.833 81.6981 228.964 81.6141C229.094 81.5289 229.262 81.4862 229.468 81.4862C229.653 81.4862 229.814 81.5241 229.953 81.5999C230.091 81.6744 230.199 81.7881 230.276 81.9408C230.353 82.0923 230.391 82.2841 230.391 82.5161V84.249H229.972V82.5445C229.972 82.3302 229.917 82.1633 229.805 82.0438C229.694 81.923 229.541 81.8627 229.347 81.8627C229.213 81.8627 229.094 81.8917 228.989 81.9497C228.884 82.0077 228.802 82.0923 228.742 82.2036C228.681 82.3148 228.651 82.4498 228.651 82.6084ZM231.96 84.3129C231.787 84.3129 231.63 84.2804 231.489 84.2153C231.348 84.149 231.236 84.0537 231.153 83.9294C231.071 83.8039 231.029 83.6524 231.029 83.4749C231.029 83.3186 231.06 83.192 231.121 83.0949C231.183 82.9967 231.265 82.9197 231.368 82.8641C231.471 82.8084 231.585 82.767 231.709 82.7398C231.835 82.7114 231.961 82.6889 232.087 82.6723C232.253 82.651 232.387 82.635 232.49 82.6244C232.595 82.6125 232.67 82.593 232.718 82.5658C232.766 82.5386 232.79 82.4912 232.79 82.4237V82.4095C232.79 82.2343 232.743 82.0982 232.647 82.0012C232.552 81.9041 232.408 81.8556 232.215 81.8556C232.015 81.8556 231.858 81.8994 231.745 81.9869C231.631 82.0745 231.551 82.1681 231.505 82.2675L231.107 82.1254C231.178 81.9597 231.273 81.8307 231.391 81.7384C231.511 81.6449 231.641 81.5798 231.782 81.5431C231.924 81.5052 232.064 81.4862 232.201 81.4862C232.289 81.4862 232.389 81.4969 232.503 81.5182C232.618 81.5383 232.728 81.5803 232.835 81.6443C232.943 81.7082 233.032 81.8047 233.103 81.9337C233.174 82.0627 233.21 82.2355 233.21 82.4521V84.249H232.79V83.8797H232.769C232.741 83.9389 232.693 84.0022 232.627 84.0697C232.561 84.1372 232.473 84.1946 232.363 84.2419C232.252 84.2893 232.118 84.3129 231.96 84.3129ZM232.023 83.9365C232.189 83.9365 232.329 83.904 232.442 83.8389C232.557 83.7738 232.644 83.6897 232.702 83.5867C232.761 83.4838 232.79 83.3754 232.79 83.2618V82.8783C232.773 82.8996 232.734 82.9191 232.673 82.9369C232.614 82.9535 232.545 82.9682 232.467 82.9813C232.39 82.9931 232.315 83.0038 232.242 83.0132C232.17 83.0215 232.111 83.0286 232.066 83.0345C231.957 83.0487 231.855 83.0718 231.761 83.1038C231.667 83.1346 231.591 83.1813 231.533 83.2441C231.477 83.3056 231.448 83.3896 231.448 83.4962C231.448 83.6418 231.502 83.7519 231.61 83.8264C231.719 83.8998 231.857 83.9365 232.023 83.9365ZM233.974 84.249V81.5218H234.393V84.249H233.974ZM234.187 81.0672C234.106 81.0672 234.035 81.0394 233.976 80.9838C233.918 80.9281 233.889 80.8612 233.889 80.7831C233.889 80.705 233.918 80.6381 233.976 80.5825C234.035 80.5268 234.106 80.499 234.187 80.499C234.269 80.499 234.339 80.5268 234.397 80.5825C234.456 80.6381 234.486 80.705 234.486 80.7831C234.486 80.8612 234.456 80.9281 234.397 80.9838C234.339 81.0394 234.269 81.0672 234.187 81.0672ZM237.093 82.1325L236.716 82.2391C236.693 82.1763 236.658 82.1154 236.612 82.0562C236.567 81.9958 236.505 81.9461 236.427 81.907C236.349 81.868 236.249 81.8485 236.127 81.8485C235.96 81.8485 235.821 81.8869 235.71 81.9639C235.599 82.0396 235.544 82.1361 235.544 82.2533C235.544 82.3575 235.582 82.4397 235.658 82.5001C235.734 82.5605 235.852 82.6108 236.013 82.651L236.418 82.7504C236.662 82.8096 236.844 82.9002 236.963 83.0221C237.083 83.1428 237.142 83.2985 237.142 83.4891C237.142 83.6453 237.097 83.785 237.007 83.9081C236.919 84.0312 236.794 84.1283 236.635 84.1993C236.475 84.2703 236.289 84.3058 236.077 84.3058C235.799 84.3058 235.569 84.2455 235.386 84.1247C235.204 84.004 235.089 83.8276 235.04 83.5956L235.438 83.4962C235.476 83.643 235.547 83.753 235.653 83.8264C235.759 83.8998 235.898 83.9365 236.07 83.9365C236.265 83.9365 236.42 83.8951 236.535 83.8122C236.651 83.7282 236.709 83.6276 236.709 83.5104C236.709 83.4157 236.676 83.3364 236.61 83.2725C236.543 83.2074 236.442 83.1588 236.304 83.1269L235.85 83.0203C235.6 82.9611 235.417 82.8694 235.299 82.7451C235.183 82.6196 235.125 82.4628 235.125 82.2746C235.125 82.1207 235.169 81.9846 235.255 81.8662C235.343 81.7478 235.462 81.6549 235.612 81.5874C235.763 81.52 235.935 81.4862 236.127 81.4862C236.397 81.4862 236.609 81.5454 236.762 81.6638C236.917 81.7822 237.028 81.9384 237.093 82.1325ZM239.705 82.1325L239.329 82.2391C239.305 82.1763 239.27 82.1154 239.224 82.0562C239.179 81.9958 239.117 81.9461 239.039 81.907C238.961 81.868 238.861 81.8485 238.739 81.8485C238.572 81.8485 238.433 81.8869 238.322 81.9639C238.212 82.0396 238.157 82.1361 238.157 82.2533C238.157 82.3575 238.195 82.4397 238.27 82.5001C238.346 82.5605 238.464 82.6108 238.625 82.651L239.03 82.7504C239.274 82.8096 239.456 82.9002 239.575 83.0221C239.695 83.1428 239.755 83.2985 239.755 83.4891C239.755 83.6453 239.71 83.785 239.62 83.9081C239.531 84.0312 239.407 84.1283 239.247 84.1993C239.087 84.2703 238.901 84.3058 238.689 84.3058C238.411 84.3058 238.181 84.2455 237.999 84.1247C237.816 84.004 237.701 83.8276 237.652 83.5956L238.05 83.4962C238.088 83.643 238.16 83.753 238.265 83.8264C238.372 83.8998 238.511 83.9365 238.682 83.9365C238.878 83.9365 239.033 83.8951 239.147 83.8122C239.263 83.7282 239.321 83.6276 239.321 83.5104C239.321 83.4157 239.288 83.3364 239.222 83.2725C239.156 83.2074 239.054 83.1588 238.917 83.1269L238.462 83.0203C238.212 82.9611 238.029 82.8694 237.912 82.7451C237.796 82.6196 237.738 82.4628 237.738 82.2746C237.738 82.1207 237.781 81.9846 237.867 81.8662C237.955 81.7478 238.074 81.6549 238.224 81.5874C238.376 81.52 238.547 81.4862 238.739 81.4862C239.009 81.4862 239.221 81.5454 239.375 81.6638C239.53 81.7822 239.64 81.9384 239.705 82.1325ZM241.188 84.3129C241.015 84.3129 240.858 84.2804 240.718 84.2153C240.577 84.149 240.465 84.0537 240.382 83.9294C240.299 83.8039 240.258 83.6524 240.258 83.4749C240.258 83.3186 240.288 83.192 240.35 83.0949C240.412 82.9967 240.494 82.9197 240.597 82.8641C240.7 82.8084 240.813 82.767 240.938 82.7398C241.063 82.7114 241.189 82.6889 241.316 82.6723C241.482 82.651 241.616 82.635 241.719 82.6244C241.823 82.6125 241.899 82.593 241.946 82.5658C241.995 82.5386 242.019 82.4912 242.019 82.4237V82.4095C242.019 82.2343 241.971 82.0982 241.875 82.0012C241.78 81.9041 241.637 81.8556 241.444 81.8556C241.244 81.8556 241.087 81.8994 240.973 81.9869C240.86 82.0745 240.78 82.1681 240.733 82.2675L240.336 82.1254C240.407 81.9597 240.501 81.8307 240.62 81.7384C240.739 81.6449 240.87 81.5798 241.01 81.5431C241.153 81.5052 241.292 81.4862 241.43 81.4862C241.517 81.4862 241.618 81.4969 241.731 81.5182C241.846 81.5383 241.957 81.5803 242.063 81.6443C242.171 81.7082 242.26 81.8047 242.331 81.9337C242.403 82.0627 242.438 82.2355 242.438 82.4521V84.249H242.019V83.8797H241.998C241.969 83.9389 241.922 84.0022 241.856 84.0697C241.789 84.1372 241.701 84.1946 241.591 84.2419C241.481 84.2893 241.347 84.3129 241.188 84.3129ZM241.252 83.9365C241.418 83.9365 241.557 83.904 241.671 83.8389C241.786 83.7738 241.872 83.6897 241.93 83.5867C241.989 83.4838 242.019 83.3754 242.019 83.2618V82.8783C242.001 82.8996 241.962 82.9191 241.902 82.9369C241.843 82.9535 241.774 82.9682 241.696 82.9813C241.619 82.9931 241.544 83.0038 241.47 83.0132C241.398 83.0215 241.34 83.0286 241.295 83.0345C241.186 83.0487 241.084 83.0718 240.989 83.1038C240.896 83.1346 240.82 83.1813 240.762 83.2441C240.705 83.3056 240.677 83.3896 240.677 83.4962C240.677 83.6418 240.731 83.7519 240.838 83.8264C240.947 83.8998 241.085 83.9365 241.252 83.9365ZM243.622 82.6084V84.249H243.203V81.5218H243.608V81.9479H243.643C243.707 81.8094 243.804 81.6981 243.934 81.6141C244.065 81.5289 244.233 81.4862 244.439 81.4862C244.623 81.4862 244.785 81.5241 244.923 81.5999C245.062 81.6744 245.17 81.7881 245.247 81.9408C245.323 82.0923 245.362 82.2841 245.362 82.5161V84.249H244.943V82.5445C244.943 82.3302 244.887 82.1633 244.776 82.0438C244.665 81.923 244.512 81.8627 244.318 81.8627C244.184 81.8627 244.065 81.8917 243.959 81.9497C243.855 82.0077 243.773 82.0923 243.712 82.2036C243.652 82.3148 243.622 82.4498 243.622 82.6084ZM247.236 84.3058C246.98 84.3058 246.76 84.2455 246.575 84.1247C246.39 84.004 246.248 83.8377 246.149 83.6258C246.05 83.4139 246 83.1718 246 82.8996C246 82.6226 246.051 82.3782 246.153 82.1663C246.256 81.9532 246.399 81.7869 246.582 81.6673C246.767 81.5466 246.982 81.4862 247.229 81.4862C247.42 81.4862 247.593 81.5218 247.747 81.5928C247.901 81.6638 248.027 81.7632 248.125 81.8911C248.223 82.0189 248.284 82.1681 248.308 82.3385H247.889C247.857 82.2142 247.786 82.1041 247.676 82.0083C247.567 81.9112 247.42 81.8627 247.236 81.8627C247.072 81.8627 246.929 81.9053 246.806 81.9905C246.684 82.0745 246.589 82.1935 246.52 82.3474C246.453 82.5001 246.419 82.6794 246.419 82.8854C246.419 83.0961 246.452 83.2796 246.518 83.4358C246.586 83.5921 246.68 83.7134 246.802 83.7998C246.925 83.8862 247.07 83.9294 247.236 83.9294C247.345 83.9294 247.443 83.9105 247.532 83.8726C247.621 83.8347 247.696 83.7803 247.758 83.7093C247.819 83.6382 247.863 83.553 247.889 83.4536H248.308C248.284 83.6146 248.226 83.7596 248.132 83.8886C248.04 84.0164 247.917 84.1182 247.765 84.194C247.613 84.2686 247.437 84.3058 247.236 84.3058ZM250.064 84.3058C249.801 84.3058 249.575 84.2478 249.384 84.1318C249.195 84.0146 249.048 83.8513 248.945 83.6418C248.844 83.4311 248.793 83.186 248.793 82.9067C248.793 82.6273 248.844 82.3811 248.945 82.1681C249.048 81.9538 249.192 81.7869 249.375 81.6673C249.56 81.5466 249.775 81.4862 250.021 81.4862C250.164 81.4862 250.304 81.5099 250.442 81.5573C250.581 81.6046 250.707 81.6816 250.82 81.7881C250.934 81.8934 251.025 82.0331 251.092 82.2071C251.16 82.3811 251.193 82.5954 251.193 82.8499V83.0274H249.091V82.6652H250.767C250.767 82.5113 250.736 82.374 250.675 82.2533C250.615 82.1325 250.528 82.0373 250.416 81.9674C250.304 81.8976 250.173 81.8627 250.021 81.8627C249.855 81.8627 249.71 81.9041 249.588 81.9869C249.468 82.0686 249.375 82.1752 249.309 82.3066C249.244 82.4379 249.212 82.5788 249.212 82.7291V82.9706C249.212 83.1766 249.247 83.3512 249.318 83.4944C249.391 83.6365 249.491 83.7448 249.618 83.8193C249.746 83.8927 249.895 83.9294 250.064 83.9294C250.174 83.9294 250.274 83.914 250.362 83.8833C250.452 83.8513 250.53 83.8039 250.595 83.7412C250.66 83.6773 250.71 83.598 250.746 83.5033L251.151 83.6169C251.108 83.7542 251.037 83.875 250.936 83.9791C250.835 84.0821 250.711 84.1626 250.563 84.2206C250.415 84.2774 250.249 84.3058 250.064 84.3058ZM254.267 84.3058C254.04 84.3058 253.839 84.2484 253.665 84.1336C253.491 84.0176 253.355 83.8543 253.257 83.6436C253.158 83.4317 253.109 83.1813 253.109 82.8925C253.109 82.606 253.158 82.3575 253.257 82.1468C253.355 81.936 253.492 81.7733 253.667 81.6585C253.842 81.5436 254.044 81.4862 254.274 81.4862C254.452 81.4862 254.592 81.5158 254.695 81.575C254.799 81.633 254.878 81.6993 254.933 81.7739C254.988 81.8473 255.032 81.9076 255.062 81.955H255.098V80.6127H255.517V84.249H255.112V83.83H255.062C255.032 83.8797 254.988 83.9424 254.931 84.0182C254.874 84.0928 254.793 84.1597 254.688 84.2188C254.582 84.2768 254.442 84.3058 254.267 84.3058ZM254.324 83.9294C254.492 83.9294 254.634 83.8856 254.75 83.798C254.866 83.7093 254.954 83.5867 255.014 83.4305C255.075 83.2731 255.105 83.0914 255.105 82.8854C255.105 82.6818 255.075 82.5036 255.016 82.3509C254.957 82.1971 254.869 82.0775 254.753 81.9923C254.637 81.9059 254.494 81.8627 254.324 81.8627C254.146 81.8627 253.998 81.9082 253.88 81.9994C253.763 82.0893 253.674 82.2119 253.615 82.3669C253.557 82.5208 253.528 82.6936 253.528 82.8854C253.528 83.0795 253.558 83.2559 253.617 83.4145C253.677 83.5719 253.766 83.6974 253.883 83.7909C254.002 83.8833 254.148 83.9294 254.324 83.9294ZM257.486 84.3058C257.223 84.3058 256.997 84.2478 256.806 84.1318C256.617 84.0146 256.47 83.8513 256.367 83.6418C256.266 83.4311 256.215 83.186 256.215 82.9067C256.215 82.6273 256.266 82.3811 256.367 82.1681C256.47 81.9538 256.614 81.7869 256.797 81.6673C256.982 81.5466 257.197 81.4862 257.443 81.4862C257.585 81.4862 257.726 81.5099 257.864 81.5573C258.003 81.6046 258.129 81.6816 258.242 81.7881C258.356 81.8934 258.447 82.0331 258.514 82.2071C258.581 82.3811 258.615 82.5954 258.615 82.8499V83.0274H256.513V82.6652H258.189C258.189 82.5113 258.158 82.374 258.097 82.2533C258.036 82.1325 257.95 82.0373 257.838 81.9674C257.726 81.8976 257.595 81.8627 257.443 81.8627C257.276 81.8627 257.132 81.9041 257.01 81.9869C256.889 82.0686 256.796 82.1752 256.731 82.3066C256.666 82.4379 256.634 82.5788 256.634 82.7291V82.9706C256.634 83.1766 256.669 83.3512 256.74 83.4944C256.812 83.6365 256.912 83.7448 257.04 83.8193C257.168 83.8927 257.317 83.9294 257.486 83.9294C257.596 83.9294 257.695 83.914 257.784 83.8833C257.874 83.8513 257.952 83.8039 258.017 83.7412C258.082 83.6773 258.132 83.598 258.168 83.5033L258.573 83.6169C258.53 83.7542 258.458 83.875 258.358 83.9791C258.257 84.0821 258.133 84.1626 257.985 84.2206C257.837 84.2774 257.671 84.3058 257.486 84.3058ZM219.105 86.6127V90.249H218.686V86.6127H219.105ZM220.242 86.6127V86.9323C220.242 87.0293 220.224 87.1329 220.189 87.243C220.155 87.3519 220.104 87.4578 220.036 87.5608C219.97 87.6626 219.889 87.7514 219.795 87.8271L219.567 87.6425C219.642 87.536 219.706 87.4253 219.761 87.3105C219.817 87.1945 219.844 87.0708 219.844 86.9394V86.6127H220.242ZM221.591 90.3058C221.345 90.3058 221.129 90.2472 220.943 90.1301C220.758 90.0129 220.614 89.8489 220.51 89.6382C220.407 89.4275 220.355 89.1813 220.355 88.8996C220.355 88.6155 220.407 88.3675 220.51 88.1556C220.614 87.9437 220.758 87.7792 220.943 87.662C221.129 87.5448 221.345 87.4862 221.591 87.4862C221.837 87.4862 222.053 87.5448 222.237 87.662C222.423 87.7792 222.568 87.9437 222.671 88.1556C222.775 88.3675 222.827 88.6155 222.827 88.8996C222.827 89.1813 222.775 89.4275 222.671 89.6382C222.568 89.8489 222.423 90.0129 222.237 90.1301C222.053 90.2472 221.837 90.3058 221.591 90.3058ZM221.591 89.9294C221.778 89.9294 221.932 89.8815 222.053 89.7856C222.173 89.6897 222.263 89.5637 222.321 89.4074C222.379 89.2512 222.408 89.0819 222.408 88.8996C222.408 88.7173 222.379 88.5474 222.321 88.39C222.263 88.2326 222.173 88.1053 222.053 88.0083C221.932 87.9112 221.778 87.8627 221.591 87.8627C221.404 87.8627 221.25 87.9112 221.129 88.0083C221.009 88.1053 220.919 88.2326 220.861 88.39C220.803 88.5474 220.774 88.7173 220.774 88.8996C220.774 89.0819 220.803 89.2512 220.861 89.4074C220.919 89.5637 221.009 89.6897 221.129 89.7856C221.25 89.8815 221.404 89.9294 221.591 89.9294ZM224.681 87.5218V87.8769H223.211V87.5218H224.681ZM223.651 90.249V87.1453C223.651 86.9891 223.688 86.8589 223.761 86.7547C223.835 86.6505 223.93 86.5724 224.047 86.5203C224.164 86.4682 224.288 86.4422 224.418 86.4422C224.521 86.4422 224.605 86.4505 224.67 86.4671C224.735 86.4836 224.784 86.499 224.816 86.5132L224.695 86.8754C224.674 86.8683 224.644 86.8595 224.606 86.8488C224.57 86.8382 224.521 86.8328 224.461 86.8328C224.322 86.8328 224.222 86.8677 224.161 86.9376C224.1 87.0074 224.07 87.1098 224.07 87.2448V90.249H223.651ZM226.483 87.5218V87.8769H225.013V87.5218H226.483ZM225.453 90.249V87.1453C225.453 86.9891 225.49 86.8589 225.563 86.7547C225.636 86.6505 225.732 86.5724 225.849 86.5203C225.966 86.4682 226.09 86.4422 226.22 86.4422C226.323 86.4422 226.407 86.4505 226.472 86.4671C226.537 86.4836 226.586 86.499 226.618 86.5132L226.497 86.8754C226.476 86.8683 226.446 86.8595 226.408 86.8488C226.372 86.8382 226.323 86.8328 226.263 86.8328C226.124 86.8328 226.024 86.8677 225.963 86.9376C225.902 87.0074 225.872 87.1098 225.872 87.2448V90.249H225.453ZM227.07 90.249V87.5218H227.475V87.9337H227.503C227.553 87.7987 227.643 87.6892 227.773 87.6052C227.903 87.5212 228.05 87.4791 228.214 87.4791C228.244 87.4791 228.283 87.4797 228.329 87.4809C228.375 87.4821 228.41 87.4839 228.434 87.4862V87.9124C228.419 87.9088 228.387 87.9035 228.336 87.8964C228.286 87.8881 228.234 87.884 228.178 87.884C228.045 87.884 227.927 87.9118 227.823 87.9674C227.72 88.0219 227.638 88.0976 227.578 88.1947C227.519 88.2906 227.489 88.4001 227.489 88.5232V90.249H227.07ZM229.991 90.3058C229.728 90.3058 229.501 90.2478 229.311 90.1318C229.121 90.0146 228.975 89.8513 228.872 89.6418C228.77 89.4311 228.72 89.186 228.72 88.9067C228.72 88.6273 228.77 88.3811 228.872 88.1681C228.975 87.9538 229.118 87.7869 229.302 87.6673C229.487 87.5466 229.702 87.4862 229.948 87.4862C230.09 87.4862 230.231 87.5099 230.369 87.5573C230.508 87.6046 230.634 87.6816 230.747 87.7881C230.861 87.8934 230.951 88.0331 231.019 88.2071C231.086 88.3811 231.12 88.5954 231.12 88.8499V89.0274H229.018V88.6652H230.694C230.694 88.5113 230.663 88.374 230.602 88.2533C230.541 88.1325 230.455 88.0373 230.342 87.9674C230.231 87.8976 230.1 87.8627 229.948 87.8627C229.781 87.8627 229.637 87.9041 229.515 87.9869C229.394 88.0686 229.301 88.1752 229.236 88.3066C229.171 88.4379 229.139 88.5788 229.139 88.7291V88.9706C229.139 89.1766 229.174 89.3512 229.245 89.4944C229.317 89.6365 229.417 89.7448 229.545 89.8193C229.673 89.8927 229.822 89.9294 229.991 89.9294C230.101 89.9294 230.2 89.914 230.289 89.8833C230.379 89.8513 230.457 89.8039 230.522 89.7412C230.587 89.6773 230.637 89.598 230.673 89.5033L231.078 89.6169C231.035 89.7542 230.963 89.875 230.863 89.9791C230.762 90.0821 230.638 90.1626 230.49 90.2206C230.342 90.2774 230.176 90.3058 229.991 90.3058Z" fill="black"/>
<path d="M104.892 231.731V228.095H105.332V231.341H107.023V231.731H104.892ZM107.648 231.731V229.004H108.067V231.731H107.648ZM107.861 228.55C107.779 228.55 107.709 228.522 107.65 228.466C107.592 228.411 107.563 228.344 107.563 228.266C107.563 228.187 107.592 228.121 107.65 228.065C107.709 228.009 107.779 227.981 107.861 227.981C107.943 227.981 108.012 228.009 108.07 228.065C108.13 228.121 108.159 228.187 108.159 228.266C108.159 228.344 108.13 228.411 108.07 228.466C108.012 228.522 107.943 228.55 107.861 228.55ZM108.891 231.731V228.095H109.31V229.437H109.346C109.376 229.39 109.419 229.33 109.474 229.256C109.529 229.182 109.608 229.115 109.711 229.057C109.816 228.998 109.956 228.969 110.134 228.969C110.364 228.969 110.566 229.026 110.741 229.141C110.916 229.256 111.053 229.418 111.151 229.629C111.25 229.84 111.299 230.088 111.299 230.375C111.299 230.664 111.25 230.914 111.151 231.126C111.053 231.337 110.917 231.5 110.743 231.616C110.569 231.731 110.368 231.788 110.141 231.788C109.966 231.788 109.826 231.759 109.72 231.701C109.615 231.642 109.534 231.575 109.477 231.501C109.42 231.425 109.376 231.362 109.346 231.312H109.296V231.731H108.891ZM109.303 230.368C109.303 230.574 109.333 230.755 109.394 230.913C109.454 231.069 109.542 231.192 109.658 231.28C109.774 231.368 109.916 231.412 110.084 231.412C110.26 231.412 110.406 231.366 110.523 231.273C110.641 231.18 110.73 231.054 110.789 230.897C110.85 230.738 110.88 230.562 110.88 230.368C110.88 230.176 110.85 230.003 110.791 229.849C110.733 229.694 110.645 229.572 110.526 229.482C110.409 229.391 110.262 229.345 110.084 229.345C109.914 229.345 109.771 229.388 109.655 229.475C109.539 229.56 109.451 229.679 109.392 229.833C109.333 229.986 109.303 230.164 109.303 230.368ZM113.083 231.788C112.82 231.788 112.594 231.73 112.403 231.614C112.214 231.497 112.068 231.334 111.965 231.124C111.863 230.914 111.812 230.668 111.812 230.389C111.812 230.11 111.863 229.864 111.965 229.65C112.068 229.436 112.211 229.269 112.394 229.15C112.579 229.029 112.794 228.969 113.041 228.969C113.183 228.969 113.323 228.992 113.461 229.04C113.6 229.087 113.726 229.164 113.84 229.271C113.953 229.376 114.044 229.516 114.111 229.69C114.179 229.864 114.213 230.078 114.213 230.332V230.51H112.11V230.148H113.786C113.786 229.994 113.756 229.856 113.694 229.736C113.634 229.615 113.547 229.52 113.435 229.45C113.324 229.38 113.192 229.345 113.041 229.345C112.874 229.345 112.729 229.387 112.607 229.469C112.487 229.551 112.394 229.658 112.329 229.789C112.264 229.92 112.231 230.061 112.231 230.212V230.453C112.231 230.659 112.267 230.834 112.338 230.977C112.41 231.119 112.51 231.227 112.638 231.302C112.765 231.375 112.914 231.412 113.083 231.412C113.193 231.412 113.293 231.396 113.382 231.366C113.472 231.334 113.549 231.286 113.614 231.224C113.679 231.16 113.73 231.08 113.765 230.986L114.17 231.099C114.127 231.237 114.056 231.357 113.955 231.462C113.854 231.565 113.73 231.645 113.582 231.703C113.434 231.76 113.268 231.788 113.083 231.788ZM115.269 228.095V231.731H114.85V228.095H115.269ZM116.456 228.095V231.731H116.036V228.095H116.456ZM118.366 231.788C118.104 231.788 117.877 231.73 117.686 231.614C117.497 231.497 117.351 231.334 117.248 231.124C117.146 230.914 117.095 230.668 117.095 230.389C117.095 230.11 117.146 229.864 117.248 229.65C117.351 229.436 117.494 229.269 117.678 229.15C117.862 229.029 118.078 228.969 118.324 228.969C118.466 228.969 118.606 228.992 118.745 229.04C118.883 229.087 119.009 229.164 119.123 229.271C119.236 229.376 119.327 229.516 119.395 229.69C119.462 229.864 119.496 230.078 119.496 230.332V230.51H117.393V230.148H119.07C119.07 229.994 119.039 229.856 118.977 229.736C118.917 229.615 118.83 229.52 118.718 229.45C118.607 229.38 118.475 229.345 118.324 229.345C118.157 229.345 118.013 229.387 117.891 229.469C117.77 229.551 117.677 229.658 117.612 229.789C117.547 229.92 117.514 230.061 117.514 230.212V230.453C117.514 230.659 117.55 230.834 117.621 230.977C117.693 231.119 117.793 231.227 117.921 231.302C118.049 231.375 118.197 231.412 118.366 231.412C118.477 231.412 118.576 231.396 118.665 231.366C118.755 231.334 118.832 231.286 118.897 231.224C118.962 231.16 119.013 231.08 119.048 230.986L119.453 231.099C119.411 231.237 119.339 231.357 119.238 231.462C119.138 231.565 119.013 231.645 118.865 231.703C118.717 231.76 118.551 231.788 118.366 231.788ZM118.111 228.635L118.544 227.811H119.034L118.48 228.635H118.111ZM122.065 229.615L121.689 229.722C121.665 229.659 121.63 229.598 121.584 229.539C121.539 229.478 121.477 229.429 121.399 229.389C121.321 229.35 121.221 229.331 121.099 229.331C120.932 229.331 120.793 229.369 120.682 229.446C120.572 229.522 120.517 229.619 120.517 229.736C120.517 229.84 120.555 229.922 120.63 229.983C120.706 230.043 120.824 230.093 120.985 230.133L121.39 230.233C121.634 230.292 121.816 230.383 121.935 230.505C122.055 230.625 122.115 230.781 122.115 230.972C122.115 231.128 122.07 231.267 121.98 231.391C121.891 231.514 121.767 231.611 121.607 231.682C121.447 231.753 121.261 231.788 121.049 231.788C120.771 231.788 120.541 231.728 120.359 231.607C120.176 231.486 120.061 231.31 120.012 231.078L120.41 230.979C120.448 231.125 120.52 231.235 120.625 231.309C120.732 231.382 120.871 231.419 121.042 231.419C121.238 231.419 121.393 231.378 121.507 231.295C121.623 231.211 121.681 231.11 121.681 230.993C121.681 230.898 121.648 230.819 121.582 230.755C121.516 230.69 121.414 230.641 121.277 230.609L120.822 230.503C120.572 230.444 120.389 230.352 120.272 230.228C120.156 230.102 120.098 229.945 120.098 229.757C120.098 229.603 120.141 229.467 120.227 229.349C120.315 229.23 120.434 229.137 120.584 229.07C120.736 229.002 120.907 228.969 121.099 228.969C121.369 228.969 121.581 229.028 121.735 229.146C121.89 229.265 122 229.421 122.065 229.615ZM125.295 231.788C125.032 231.788 124.806 231.73 124.615 231.614C124.426 231.497 124.28 231.334 124.177 231.124C124.075 230.914 124.024 230.668 124.024 230.389C124.024 230.11 124.075 229.864 124.177 229.65C124.28 229.436 124.423 229.269 124.606 229.15C124.791 229.029 125.006 228.969 125.253 228.969C125.395 228.969 125.535 228.992 125.673 229.04C125.812 229.087 125.938 229.164 126.052 229.271C126.165 229.376 126.256 229.516 126.323 229.69C126.391 229.864 126.424 230.078 126.424 230.332V230.51H124.322V230.148H125.998C125.998 229.994 125.968 229.856 125.906 229.736C125.846 229.615 125.759 229.52 125.647 229.45C125.535 229.38 125.404 229.345 125.253 229.345C125.086 229.345 124.941 229.387 124.819 229.469C124.699 229.551 124.606 229.658 124.541 229.789C124.475 229.92 124.443 230.061 124.443 230.212V230.453C124.443 230.659 124.478 230.834 124.549 230.977C124.622 231.119 124.722 231.227 124.85 231.302C124.977 231.375 125.126 231.412 125.295 231.412C125.405 231.412 125.505 231.396 125.593 231.366C125.683 231.334 125.761 231.286 125.826 231.224C125.891 231.16 125.941 231.08 125.977 230.986L126.382 231.099C126.339 231.237 126.268 231.357 126.167 231.462C126.066 231.565 125.942 231.645 125.794 231.703C125.646 231.76 125.48 231.788 125.295 231.788ZM128.248 229.004V229.359H126.835V229.004H128.248ZM127.247 228.351H127.666V230.95C127.666 231.069 127.683 231.157 127.717 231.217C127.753 231.275 127.798 231.314 127.852 231.334C127.908 231.353 127.966 231.362 128.028 231.362C128.074 231.362 128.112 231.36 128.141 231.355C128.171 231.349 128.195 231.344 128.212 231.341L128.298 231.717C128.269 231.728 128.23 231.739 128.179 231.749C128.128 231.761 128.063 231.767 127.985 231.767C127.867 231.767 127.751 231.742 127.637 231.691C127.525 231.64 127.431 231.562 127.357 231.458C127.283 231.354 127.247 231.222 127.247 231.064V228.351ZM103.445 237.795C103.273 237.795 103.116 237.763 102.975 237.698C102.834 237.631 102.722 237.536 102.639 237.412C102.557 237.286 102.515 237.135 102.515 236.957C102.515 236.801 102.546 236.674 102.607 236.577C102.669 236.479 102.751 236.402 102.854 236.347C102.957 236.291 103.071 236.249 103.195 236.222C103.321 236.194 103.447 236.171 103.573 236.155C103.739 236.133 103.873 236.117 103.976 236.107C104.081 236.095 104.156 236.075 104.204 236.048C104.252 236.021 104.276 235.974 104.276 235.906V235.892C104.276 235.717 104.229 235.581 104.133 235.484C104.038 235.387 103.894 235.338 103.701 235.338C103.501 235.338 103.344 235.382 103.231 235.469C103.117 235.557 103.037 235.65 102.991 235.75L102.593 235.608C102.664 235.442 102.759 235.313 102.877 235.221C102.997 235.127 103.127 235.062 103.268 235.025C103.41 234.988 103.55 234.969 103.687 234.969C103.775 234.969 103.875 234.979 103.989 235.001C104.104 235.021 104.214 235.063 104.321 235.127C104.429 235.191 104.518 235.287 104.589 235.416C104.66 235.545 104.695 235.718 104.695 235.935V237.731H104.276V237.362H104.255C104.227 237.421 104.179 237.485 104.113 237.552C104.047 237.62 103.959 237.677 103.849 237.724C103.738 237.772 103.604 237.795 103.445 237.795ZM103.509 237.419C103.675 237.419 103.815 237.386 103.928 237.321C104.043 237.256 104.13 237.172 104.188 237.069C104.247 236.966 104.276 236.858 104.276 236.744V236.361C104.259 236.382 104.22 236.402 104.159 236.419C104.1 236.436 104.031 236.451 103.953 236.464C103.876 236.476 103.801 236.486 103.728 236.496C103.656 236.504 103.597 236.511 103.552 236.517C103.443 236.531 103.341 236.554 103.247 236.586C103.153 236.617 103.077 236.664 103.019 236.726C102.963 236.788 102.934 236.872 102.934 236.979C102.934 237.124 102.988 237.234 103.096 237.309C103.205 237.382 103.342 237.419 103.509 237.419ZM105.46 237.731V235.004H105.865V235.416H105.894C105.943 235.281 106.033 235.172 106.163 235.088C106.294 235.004 106.44 234.962 106.604 234.962C106.635 234.962 106.673 234.962 106.719 234.963C106.765 234.965 106.8 234.966 106.824 234.969V235.395C106.81 235.391 106.777 235.386 106.726 235.379C106.677 235.371 106.624 235.366 106.568 235.366C106.436 235.366 106.317 235.394 106.213 235.45C106.11 235.504 106.028 235.58 105.968 235.677C105.909 235.773 105.879 235.882 105.879 236.006V237.731H105.46ZM108.346 237.788C108.09 237.788 107.87 237.728 107.685 237.607C107.5 237.486 107.358 237.32 107.259 237.108C107.16 236.896 107.11 236.654 107.11 236.382C107.11 236.105 107.161 235.861 107.263 235.649C107.365 235.436 107.509 235.269 107.692 235.15C107.877 235.029 108.092 234.969 108.339 234.969C108.53 234.969 108.703 235.004 108.857 235.075C109.011 235.146 109.137 235.246 109.235 235.373C109.333 235.501 109.394 235.65 109.418 235.821H108.999C108.967 235.697 108.896 235.587 108.786 235.491C108.677 235.394 108.53 235.345 108.346 235.345C108.182 235.345 108.039 235.388 107.916 235.473C107.794 235.557 107.699 235.676 107.63 235.83C107.563 235.983 107.529 236.162 107.529 236.368C107.529 236.579 107.562 236.762 107.628 236.918C107.696 237.074 107.79 237.196 107.912 237.282C108.035 237.369 108.18 237.412 108.346 237.412C108.455 237.412 108.553 237.393 108.642 237.355C108.731 237.317 108.806 237.263 108.868 237.192C108.929 237.121 108.973 237.035 108.999 236.936H109.418C109.394 237.097 109.336 237.242 109.242 237.371C109.15 237.499 109.027 237.601 108.875 237.676C108.723 237.751 108.547 237.788 108.346 237.788ZM110.45 236.091V237.731H110.031V234.095H110.45V235.43H110.485C110.549 235.289 110.645 235.178 110.773 235.095C110.902 235.011 111.073 234.969 111.288 234.969C111.474 234.969 111.636 235.006 111.776 235.081C111.916 235.154 112.024 235.267 112.101 235.42C112.179 235.571 112.218 235.764 112.218 235.998V237.731H111.799V236.027C111.799 235.81 111.743 235.643 111.63 235.524C111.519 235.405 111.365 235.345 111.167 235.345C111.03 235.345 110.907 235.374 110.798 235.432C110.69 235.49 110.605 235.575 110.542 235.686C110.48 235.797 110.45 235.932 110.45 236.091ZM112.985 237.731V235.004H113.404V237.731H112.985ZM113.198 234.55C113.116 234.55 113.046 234.522 112.986 234.466C112.928 234.411 112.899 234.344 112.899 234.266C112.899 234.187 112.928 234.121 112.986 234.065C113.046 234.009 113.116 233.981 113.198 233.981C113.279 233.981 113.349 234.009 113.407 234.065C113.466 234.121 113.496 234.187 113.496 234.266C113.496 234.344 113.466 234.411 113.407 234.466C113.349 234.522 113.279 234.55 113.198 234.55ZM115.357 235.004V235.359H113.944V235.004H115.357ZM114.356 234.351H114.775V236.95C114.775 237.069 114.792 237.157 114.826 237.217C114.862 237.275 114.907 237.314 114.961 237.334C115.017 237.353 115.076 237.362 115.137 237.362C115.183 237.362 115.221 237.36 115.251 237.355C115.28 237.349 115.304 237.344 115.322 237.341L115.407 237.717C115.379 237.728 115.339 237.739 115.288 237.749C115.237 237.761 115.173 237.767 115.095 237.767C114.976 237.767 114.86 237.742 114.747 237.691C114.634 237.64 114.541 237.562 114.466 237.458C114.393 237.354 114.356 237.222 114.356 237.064V234.351ZM117.102 237.788C116.839 237.788 116.612 237.73 116.422 237.614C116.232 237.497 116.086 237.334 115.983 237.124C115.881 236.914 115.831 236.668 115.831 236.389C115.831 236.11 115.881 235.864 115.983 235.65C116.086 235.436 116.229 235.269 116.413 235.15C116.598 235.029 116.813 234.969 117.059 234.969C117.201 234.969 117.342 234.992 117.48 235.04C117.619 235.087 117.745 235.164 117.858 235.271C117.972 235.376 118.062 235.516 118.13 235.69C118.197 235.864 118.231 236.078 118.231 236.332V236.51H116.129V236.148H117.805C117.805 235.994 117.774 235.856 117.713 235.736C117.652 235.615 117.566 235.52 117.453 235.45C117.342 235.38 117.211 235.345 117.059 235.345C116.892 235.345 116.748 235.387 116.626 235.469C116.505 235.551 116.412 235.658 116.347 235.789C116.282 235.92 116.25 236.061 116.25 236.212V236.453C116.25 236.659 116.285 236.834 116.356 236.977C116.428 237.119 116.528 237.227 116.656 237.302C116.784 237.375 116.933 237.412 117.102 237.412C117.212 237.412 117.311 237.396 117.4 237.366C117.49 237.334 117.568 237.286 117.633 237.224C117.698 237.16 117.748 237.08 117.784 236.986L118.188 237.099C118.146 237.237 118.074 237.357 117.974 237.462C117.873 237.565 117.749 237.645 117.601 237.703C117.453 237.76 117.286 237.788 117.102 237.788ZM119.976 237.788C119.721 237.788 119.501 237.728 119.316 237.607C119.131 237.486 118.989 237.32 118.89 237.108C118.79 236.896 118.741 236.654 118.741 236.382C118.741 236.105 118.792 235.861 118.893 235.649C118.996 235.436 119.14 235.269 119.323 235.15C119.508 235.029 119.723 234.969 119.969 234.969C120.161 234.969 120.334 235.004 120.488 235.075C120.642 235.146 120.768 235.246 120.866 235.373C120.964 235.501 121.025 235.65 121.049 235.821H120.63C120.598 235.697 120.527 235.587 120.417 235.491C120.308 235.394 120.161 235.345 119.976 235.345C119.813 235.345 119.67 235.388 119.547 235.473C119.425 235.557 119.33 235.676 119.261 235.83C119.193 235.983 119.16 236.162 119.16 236.368C119.16 236.579 119.193 236.762 119.259 236.918C119.327 237.074 119.421 237.196 119.543 237.282C119.666 237.369 119.811 237.412 119.976 237.412C120.085 237.412 120.184 237.393 120.273 237.355C120.362 237.317 120.437 237.263 120.498 237.192C120.56 237.121 120.604 237.035 120.63 236.936H121.049C121.025 237.097 120.967 237.242 120.873 237.371C120.781 237.499 120.658 237.601 120.506 237.676C120.354 237.751 120.178 237.788 119.976 237.788ZM122.848 235.004V235.359H121.434V235.004H122.848ZM121.846 234.351H122.265V236.95C122.265 237.069 122.282 237.157 122.317 237.217C122.352 237.275 122.397 237.314 122.452 237.334C122.507 237.353 122.566 237.362 122.627 237.362C122.674 237.362 122.711 237.36 122.741 237.355C122.771 237.349 122.794 237.344 122.812 237.341L122.897 237.717C122.869 237.728 122.829 237.739 122.778 237.749C122.727 237.761 122.663 237.767 122.585 237.767C122.466 237.767 122.35 237.742 122.237 237.691C122.124 237.64 122.031 237.562 121.956 237.458C121.883 237.354 121.846 237.222 121.846 237.064V234.351ZM125.197 236.616V235.004H125.616V237.731H125.197V237.27H125.168C125.104 237.408 125.005 237.526 124.87 237.623C124.735 237.719 124.565 237.767 124.359 237.767C124.188 237.767 124.037 237.73 123.904 237.655C123.771 237.579 123.667 237.466 123.592 237.314C123.516 237.161 123.478 236.969 123.478 236.737V235.004H123.897V236.709C123.897 236.908 123.953 237.066 124.064 237.185C124.176 237.303 124.32 237.362 124.494 237.362C124.598 237.362 124.704 237.335 124.811 237.282C124.92 237.229 125.011 237.147 125.085 237.037C125.159 236.927 125.197 236.787 125.197 236.616ZM126.383 237.731V235.004H126.788V235.416H126.816C126.866 235.281 126.956 235.172 127.086 235.088C127.216 235.004 127.363 234.962 127.527 234.962C127.557 234.962 127.596 234.962 127.642 234.963C127.688 234.965 127.723 234.966 127.747 234.969V235.395C127.733 235.391 127.7 235.386 127.649 235.379C127.599 235.371 127.547 235.366 127.491 235.366C127.359 235.366 127.24 235.394 127.136 235.45C127.033 235.504 126.951 235.58 126.891 235.677C126.832 235.773 126.802 235.882 126.802 236.006V237.731H126.383ZM129.304 237.788C129.041 237.788 128.815 237.73 128.624 237.614C128.435 237.497 128.288 237.334 128.185 237.124C128.084 236.914 128.033 236.668 128.033 236.389C128.033 236.11 128.084 235.864 128.185 235.65C128.288 235.436 128.432 235.269 128.615 235.15C128.8 235.029 129.015 234.969 129.261 234.969C129.403 234.969 129.544 234.992 129.682 235.04C129.821 235.087 129.947 235.164 130.06 235.271C130.174 235.376 130.265 235.516 130.332 235.69C130.399 235.864 130.433 236.078 130.433 236.332V236.51H128.331V236.148H130.007C130.007 235.994 129.976 235.856 129.915 235.736C129.854 235.615 129.768 235.52 129.656 235.45C129.544 235.38 129.413 235.345 129.261 235.345C129.094 235.345 128.95 235.387 128.828 235.469C128.707 235.551 128.614 235.658 128.549 235.789C128.484 235.92 128.452 236.061 128.452 236.212V236.453C128.452 236.659 128.487 236.834 128.558 236.977C128.63 237.119 128.73 237.227 128.858 237.302C128.986 237.375 129.135 237.412 129.304 237.412C129.414 237.412 129.513 237.396 129.602 237.366C129.692 237.334 129.77 237.286 129.835 237.224C129.9 237.16 129.95 237.08 129.986 236.986L130.391 237.099C130.348 237.237 130.276 237.357 130.176 237.462C130.075 237.565 129.951 237.645 129.803 237.703C129.655 237.76 129.489 237.788 129.304 237.788ZM102.513 243.788C102.286 243.788 102.085 243.731 101.911 243.616C101.737 243.5 101.601 243.337 101.503 243.126C101.405 242.914 101.355 242.664 101.355 242.375C101.355 242.088 101.405 241.84 101.503 241.629C101.601 241.418 101.738 241.256 101.913 241.141C102.088 241.026 102.291 240.969 102.52 240.969C102.698 240.969 102.838 240.998 102.941 241.057C103.045 241.115 103.124 241.182 103.179 241.256C103.235 241.33 103.278 241.39 103.309 241.437H103.344V240.095H103.763V243.731H103.358V243.312H103.309C103.278 243.362 103.234 243.425 103.177 243.501C103.12 243.575 103.039 243.642 102.934 243.701C102.829 243.759 102.688 243.788 102.513 243.788ZM102.57 243.412C102.738 243.412 102.88 243.368 102.996 243.28C103.112 243.192 103.2 243.069 103.261 242.913C103.321 242.755 103.351 242.574 103.351 242.368C103.351 242.164 103.322 241.986 103.262 241.833C103.203 241.679 103.116 241.56 103 241.475C102.884 241.388 102.74 241.345 102.57 241.345C102.392 241.345 102.244 241.391 102.126 241.482C102.009 241.572 101.921 241.694 101.861 241.849C101.803 242.003 101.774 242.176 101.774 242.368C101.774 242.562 101.804 242.738 101.863 242.897C101.924 243.054 102.012 243.18 102.13 243.273C102.248 243.366 102.395 243.412 102.57 243.412ZM104.958 240.095V240.415C104.958 240.512 104.94 240.615 104.905 240.725C104.87 240.834 104.82 240.94 104.752 241.043C104.686 241.145 104.605 241.234 104.511 241.31L104.283 241.125C104.358 241.018 104.422 240.908 104.477 240.793C104.533 240.677 104.56 240.553 104.56 240.422V240.095H104.958ZM105.512 243.731V241.004H105.931V243.731H105.512ZM105.725 240.55C105.643 240.55 105.573 240.522 105.513 240.466C105.455 240.411 105.426 240.344 105.426 240.266C105.426 240.187 105.455 240.121 105.513 240.065C105.573 240.009 105.643 239.981 105.725 239.981C105.806 239.981 105.876 240.009 105.934 240.065C105.993 240.121 106.023 240.187 106.023 240.266C106.023 240.344 105.993 240.411 105.934 240.466C105.876 240.522 105.806 240.55 105.725 240.55ZM107.117 242.091V243.731H106.698V241.004H107.103V241.43H107.138C107.202 241.292 107.299 241.181 107.43 241.097C107.56 241.011 107.728 240.969 107.934 240.969C108.119 240.969 108.28 241.007 108.419 241.082C108.557 241.157 108.665 241.271 108.742 241.423C108.819 241.575 108.857 241.766 108.857 241.998V243.731H108.438V242.027C108.438 241.813 108.383 241.646 108.271 241.526C108.16 241.405 108.007 241.345 107.813 241.345C107.679 241.345 107.56 241.374 107.454 241.432C107.35 241.49 107.268 241.575 107.208 241.686C107.147 241.797 107.117 241.932 107.117 242.091ZM110.837 241.004V241.359H109.367V241.004H110.837ZM109.808 243.731V240.628C109.808 240.472 109.844 240.341 109.918 240.237C109.991 240.133 110.086 240.055 110.204 240.003C110.321 239.951 110.444 239.925 110.575 239.925C110.678 239.925 110.762 239.933 110.827 239.949C110.892 239.966 110.94 239.981 110.972 239.996L110.852 240.358C110.83 240.351 110.801 240.342 110.763 240.331C110.726 240.321 110.678 240.315 110.617 240.315C110.479 240.315 110.379 240.35 110.317 240.42C110.257 240.49 110.227 240.592 110.227 240.727V243.731H109.808ZM112.42 243.788C112.174 243.788 111.958 243.73 111.772 243.612C111.588 243.495 111.443 243.331 111.339 243.121C111.236 242.91 111.185 242.664 111.185 242.382C111.185 242.098 111.236 241.85 111.339 241.638C111.443 241.426 111.588 241.262 111.772 241.144C111.958 241.027 112.174 240.969 112.42 240.969C112.667 240.969 112.882 241.027 113.067 241.144C113.252 241.262 113.397 241.426 113.5 241.638C113.604 241.85 113.656 242.098 113.656 242.382C113.656 242.664 113.604 242.91 113.5 243.121C113.397 243.331 113.252 243.495 113.067 243.612C112.882 243.73 112.667 243.788 112.42 243.788ZM112.42 243.412C112.607 243.412 112.761 243.364 112.882 243.268C113.003 243.172 113.092 243.046 113.15 242.89C113.208 242.734 113.237 242.564 113.237 242.382C113.237 242.2 113.208 242.03 113.15 241.872C113.092 241.715 113.003 241.588 112.882 241.491C112.761 241.394 112.607 241.345 112.42 241.345C112.233 241.345 112.079 241.394 111.959 241.491C111.838 241.588 111.749 241.715 111.691 241.872C111.633 242.03 111.604 242.2 111.604 242.382C111.604 242.564 111.633 242.734 111.691 242.89C111.749 243.046 111.838 243.172 111.959 243.268C112.079 243.364 112.233 243.412 112.42 243.412ZM114.296 243.731V241.004H114.701V241.416H114.729C114.779 241.281 114.869 241.172 114.999 241.088C115.129 241.004 115.276 240.962 115.439 240.962C115.47 240.962 115.508 240.962 115.555 240.963C115.601 240.965 115.636 240.966 115.659 240.969V241.395C115.645 241.391 115.613 241.386 115.562 241.379C115.512 241.371 115.459 241.366 115.404 241.366C115.271 241.366 115.153 241.394 115.049 241.45C114.946 241.504 114.864 241.58 114.804 241.677C114.744 241.773 114.715 241.882 114.715 242.006V243.731H114.296ZM116.156 243.731V241.004H116.561V241.43H116.596C116.653 241.285 116.745 241.172 116.872 241.091C116.998 241.009 117.15 240.969 117.328 240.969C117.508 240.969 117.658 241.009 117.777 241.091C117.898 241.172 117.992 241.285 118.06 241.43H118.088C118.158 241.289 118.263 241.178 118.402 241.095C118.542 241.011 118.709 240.969 118.905 240.969C119.149 240.969 119.348 241.045 119.503 241.198C119.658 241.349 119.736 241.585 119.736 241.906V243.731H119.317V241.906C119.317 241.705 119.262 241.561 119.151 241.475C119.041 241.388 118.912 241.345 118.763 241.345C118.571 241.345 118.422 241.403 118.317 241.519C118.212 241.634 118.159 241.78 118.159 241.956V243.731H117.733V241.864C117.733 241.708 117.683 241.584 117.582 241.489C117.481 241.393 117.352 241.345 117.193 241.345C117.084 241.345 116.982 241.374 116.888 241.432C116.794 241.49 116.718 241.571 116.66 241.674C116.604 241.775 116.575 241.893 116.575 242.027V243.731H116.156ZM121.304 243.795C121.132 243.795 120.975 243.763 120.834 243.698C120.693 243.631 120.581 243.536 120.498 243.412C120.415 243.286 120.374 243.135 120.374 242.957C120.374 242.801 120.405 242.674 120.466 242.577C120.528 242.479 120.61 242.402 120.713 242.347C120.816 242.291 120.93 242.249 121.054 242.222C121.179 242.194 121.306 242.171 121.432 242.155C121.598 242.133 121.732 242.117 121.835 242.107C121.939 242.095 122.015 242.075 122.063 242.048C122.111 242.021 122.135 241.974 122.135 241.906V241.892C122.135 241.717 122.087 241.581 121.992 241.484C121.897 241.387 121.753 241.338 121.56 241.338C121.36 241.338 121.203 241.382 121.09 241.469C120.976 241.557 120.896 241.65 120.85 241.75L120.452 241.608C120.523 241.442 120.618 241.313 120.736 241.221C120.856 241.127 120.986 241.062 121.127 241.025C121.269 240.988 121.409 240.969 121.546 240.969C121.633 240.969 121.734 240.979 121.848 241.001C121.963 241.021 122.073 241.063 122.18 241.127C122.287 241.191 122.377 241.287 122.448 241.416C122.519 241.545 122.554 241.718 122.554 241.935V243.731H122.135V243.362H122.114C122.086 243.421 122.038 243.485 121.972 243.552C121.906 243.62 121.818 243.677 121.707 243.724C121.597 243.772 121.463 243.795 121.304 243.795ZM121.368 243.419C121.534 243.419 121.674 243.386 121.787 243.321C121.902 243.256 121.989 243.172 122.047 243.069C122.106 242.966 122.135 242.858 122.135 242.744V242.361C122.118 242.382 122.079 242.402 122.018 242.419C121.959 242.436 121.89 242.451 121.812 242.464C121.735 242.476 121.66 242.486 121.587 242.496C121.514 242.504 121.456 242.511 121.411 242.517C121.302 242.531 121.2 242.554 121.106 242.586C121.012 242.617 120.936 242.664 120.878 242.726C120.821 242.788 120.793 242.872 120.793 242.979C120.793 243.124 120.847 243.234 120.955 243.309C121.063 243.382 121.201 243.419 121.368 243.419ZM124.505 241.004V241.359H123.092V241.004H124.505ZM123.504 240.351H123.923V242.95C123.923 243.069 123.94 243.157 123.974 243.217C124.01 243.275 124.055 243.314 124.109 243.334C124.165 243.353 124.224 243.362 124.285 243.362C124.331 243.362 124.369 243.36 124.399 243.355C124.428 243.349 124.452 243.344 124.47 243.341L124.555 243.717C124.527 243.728 124.487 243.739 124.436 243.749C124.385 243.761 124.321 243.767 124.242 243.767C124.124 243.767 124.008 243.742 123.894 243.691C123.782 243.64 123.689 243.562 123.614 243.458C123.541 243.354 123.504 243.222 123.504 243.064V240.351ZM125.136 243.731V241.004H125.555V243.731H125.136ZM125.349 240.55C125.267 240.55 125.197 240.522 125.137 240.466C125.079 240.411 125.05 240.344 125.05 240.266C125.05 240.187 125.079 240.121 125.137 240.065C125.197 240.009 125.267 239.981 125.349 239.981C125.43 239.981 125.5 240.009 125.558 240.065C125.617 240.121 125.647 240.187 125.647 240.266C125.647 240.344 125.617 240.411 125.558 240.466C125.5 240.522 125.43 240.55 125.349 240.55ZM127.43 243.788C127.184 243.788 126.968 243.73 126.782 243.612C126.597 243.495 126.453 243.331 126.349 243.121C126.246 242.91 126.194 242.664 126.194 242.382C126.194 242.098 126.246 241.85 126.349 241.638C126.453 241.426 126.597 241.262 126.782 241.144C126.968 241.027 127.184 240.969 127.43 240.969C127.676 240.969 127.892 241.027 128.076 241.144C128.262 241.262 128.407 241.426 128.51 241.638C128.614 241.85 128.666 242.098 128.666 242.382C128.666 242.664 128.614 242.91 128.51 243.121C128.407 243.331 128.262 243.495 128.076 243.612C127.892 243.73 127.676 243.788 127.43 243.788ZM127.43 243.412C127.617 243.412 127.771 243.364 127.892 243.268C128.012 243.172 128.102 243.046 128.16 242.89C128.218 242.734 128.247 242.564 128.247 242.382C128.247 242.2 128.218 242.03 128.16 241.872C128.102 241.715 128.012 241.588 127.892 241.491C127.771 241.394 127.617 241.345 127.43 241.345C127.243 241.345 127.089 241.394 126.968 241.491C126.848 241.588 126.758 241.715 126.7 241.872C126.642 242.03 126.613 242.2 126.613 242.382C126.613 242.564 126.642 242.734 126.7 242.89C126.758 243.046 126.848 243.172 126.968 243.268C127.089 243.364 127.243 243.412 127.43 243.412ZM129.725 242.091V243.731H129.306V241.004H129.71V241.43H129.746C129.81 241.292 129.907 241.181 130.037 241.097C130.167 241.011 130.335 240.969 130.541 240.969C130.726 240.969 130.888 241.007 131.026 241.082C131.165 241.157 131.272 241.271 131.349 241.423C131.426 241.575 131.465 241.766 131.465 241.998V243.731H131.046V242.027C131.046 241.813 130.99 241.646 130.879 241.526C130.767 241.405 130.615 241.345 130.421 241.345C130.287 241.345 130.167 241.374 130.062 241.432C129.958 241.49 129.875 241.575 129.815 241.686C129.755 241.797 129.725 241.932 129.725 242.091Z" fill="black"/>
<rect width="50.11" height="50.0127" transform="matrix(-1 0 0 1 284.928 177.796)" fill="#F0E2AD"/>
<rect width="50.11" height="50.0127" transform="matrix(-1 0 0 1 246.812 202.802)" fill="#C3E2DA"/>
<rect width="50.11" height="50.0127" transform="matrix(-1 0 0 1 285.167 221.558)" fill="#FFC7C3"/>
<g filter="url(#filter3_d_1102_26071)">
<rect width="50.11" height="51.2149" transform="matrix(-1 0 0 1 255.756 176.594)" fill="#DCDCDC"/>
</g>
<path d="M213.553 197.486V197.095H216.28V197.486H215.137V200.731H214.696V197.486H213.553ZM216.62 200.731V198.004H217.025V198.416H217.053C217.103 198.281 217.193 198.172 217.323 198.088C217.453 198.004 217.6 197.962 217.763 197.962C217.794 197.962 217.833 197.962 217.879 197.963C217.925 197.965 217.96 197.966 217.983 197.969V198.395C217.969 198.391 217.937 198.386 217.886 198.379C217.836 198.371 217.783 198.366 217.728 198.366C217.595 198.366 217.477 198.394 217.373 198.45C217.27 198.504 217.188 198.58 217.128 198.677C217.068 198.773 217.039 198.882 217.039 199.006V200.731H216.62ZM219.283 200.795C219.11 200.795 218.953 200.763 218.812 200.698C218.671 200.631 218.56 200.536 218.477 200.412C218.394 200.286 218.352 200.135 218.352 199.957C218.352 199.801 218.383 199.674 218.445 199.577C218.506 199.479 218.589 199.402 218.691 199.347C218.794 199.291 218.908 199.249 219.032 199.222C219.158 199.194 219.284 199.171 219.411 199.155C219.576 199.133 219.711 199.117 219.814 199.107C219.918 199.095 219.994 199.075 220.041 199.048C220.089 199.021 220.114 198.974 220.114 198.906V198.892C220.114 198.717 220.066 198.581 219.97 198.484C219.875 198.387 219.731 198.338 219.538 198.338C219.338 198.338 219.182 198.382 219.068 198.469C218.954 198.557 218.874 198.65 218.828 198.75L218.43 198.608C218.502 198.442 218.596 198.313 218.715 198.221C218.834 198.127 218.964 198.062 219.105 198.025C219.247 197.988 219.387 197.969 219.524 197.969C219.612 197.969 219.712 197.979 219.826 198.001C219.941 198.021 220.052 198.063 220.158 198.127C220.266 198.191 220.355 198.287 220.426 198.416C220.497 198.545 220.533 198.718 220.533 198.935V200.731H220.114V200.362H220.092C220.064 200.421 220.017 200.485 219.95 200.552C219.884 200.62 219.796 200.677 219.686 200.724C219.576 200.772 219.441 200.795 219.283 200.795ZM219.347 200.419C219.512 200.419 219.652 200.386 219.766 200.321C219.881 200.256 219.967 200.172 220.025 200.069C220.084 199.966 220.114 199.858 220.114 199.744V199.361C220.096 199.382 220.057 199.402 219.997 199.419C219.937 199.436 219.869 199.451 219.791 199.464C219.714 199.476 219.638 199.486 219.565 199.496C219.493 199.504 219.434 199.511 219.389 199.517C219.28 199.531 219.179 199.554 219.084 199.586C218.99 199.617 218.915 199.664 218.857 199.726C218.8 199.788 218.771 199.872 218.771 199.979C218.771 200.124 218.825 200.234 218.933 200.309C219.042 200.382 219.18 200.419 219.347 200.419ZM221.717 199.091V200.731H221.298V198.004H221.702V198.43H221.738C221.802 198.292 221.899 198.181 222.029 198.097C222.159 198.011 222.327 197.969 222.533 197.969C222.718 197.969 222.88 198.007 223.018 198.082C223.157 198.157 223.264 198.271 223.341 198.423C223.418 198.575 223.457 198.766 223.457 198.998V200.731H223.038V199.027C223.038 198.813 222.982 198.646 222.871 198.526C222.759 198.405 222.607 198.345 222.413 198.345C222.279 198.345 222.159 198.374 222.054 198.432C221.95 198.49 221.868 198.575 221.807 198.686C221.747 198.797 221.717 198.932 221.717 199.091ZM226.154 198.615L225.778 198.722C225.754 198.659 225.719 198.598 225.673 198.539C225.628 198.478 225.566 198.429 225.488 198.389C225.41 198.35 225.31 198.331 225.188 198.331C225.021 198.331 224.882 198.369 224.771 198.446C224.661 198.522 224.606 198.619 224.606 198.736C224.606 198.84 224.644 198.922 224.72 198.983C224.795 199.043 224.914 199.093 225.075 199.133L225.479 199.233C225.723 199.292 225.905 199.383 226.025 199.505C226.144 199.625 226.204 199.781 226.204 199.972C226.204 200.128 226.159 200.267 226.069 200.391C225.98 200.514 225.856 200.611 225.696 200.682C225.536 200.753 225.35 200.788 225.139 200.788C224.86 200.788 224.63 200.728 224.448 200.607C224.266 200.486 224.15 200.31 224.102 200.078L224.499 199.979C224.537 200.125 224.609 200.235 224.714 200.309C224.821 200.382 224.96 200.419 225.131 200.419C225.327 200.419 225.482 200.378 225.597 200.295C225.713 200.211 225.771 200.11 225.771 199.993C225.771 199.898 225.738 199.819 225.671 199.755C225.605 199.69 225.503 199.641 225.366 199.609L224.911 199.503C224.662 199.444 224.478 199.352 224.361 199.228C224.245 199.102 224.187 198.945 224.187 198.757C224.187 198.603 224.23 198.467 224.316 198.349C224.404 198.23 224.523 198.137 224.673 198.07C224.825 198.002 224.997 197.969 225.188 197.969C225.458 197.969 225.67 198.028 225.824 198.146C225.979 198.265 226.089 198.421 226.154 198.615ZM226.835 200.731V198.004H227.254V200.731H226.835ZM227.048 197.55C226.966 197.55 226.896 197.522 226.836 197.466C226.778 197.411 226.749 197.344 226.749 197.266C226.749 197.187 226.778 197.121 226.836 197.065C226.896 197.009 226.966 196.981 227.048 196.981C227.129 196.981 227.199 197.009 227.257 197.065C227.316 197.121 227.346 197.187 227.346 197.266C227.346 197.344 227.316 197.411 227.257 197.466C227.199 197.522 227.129 197.55 227.048 197.55ZM229.207 198.004V198.359H227.794V198.004H229.207ZM228.206 197.351H228.625V199.95C228.625 200.069 228.642 200.157 228.676 200.217C228.712 200.275 228.757 200.314 228.811 200.334C228.867 200.353 228.926 200.362 228.987 200.362C229.033 200.362 229.071 200.36 229.101 200.355C229.13 200.349 229.154 200.344 229.172 200.341L229.257 200.717C229.229 200.728 229.189 200.739 229.138 200.749C229.087 200.761 229.023 200.767 228.945 200.767C228.826 200.767 228.71 200.742 228.597 200.691C228.484 200.64 228.391 200.562 228.316 200.458C228.243 200.354 228.206 200.222 228.206 200.064V197.351ZM229.838 200.731V198.004H230.257V200.731H229.838ZM230.051 197.55C229.969 197.55 229.899 197.522 229.839 197.466C229.781 197.411 229.752 197.344 229.752 197.266C229.752 197.187 229.781 197.121 229.839 197.065C229.899 197.009 229.969 196.981 230.051 196.981C230.132 196.981 230.202 197.009 230.26 197.065C230.319 197.121 230.349 197.187 230.349 197.266C230.349 197.344 230.319 197.411 230.26 197.466C230.202 197.522 230.132 197.55 230.051 197.55ZM232.132 200.788C231.886 200.788 231.67 200.73 231.484 200.612C231.299 200.495 231.155 200.331 231.051 200.121C230.948 199.91 230.896 199.664 230.896 199.382C230.896 199.098 230.948 198.85 231.051 198.638C231.155 198.426 231.299 198.262 231.484 198.144C231.67 198.027 231.886 197.969 232.132 197.969C232.378 197.969 232.594 198.027 232.778 198.144C232.964 198.262 233.109 198.426 233.212 198.638C233.316 198.85 233.368 199.098 233.368 199.382C233.368 199.664 233.316 199.91 233.212 200.121C233.109 200.331 232.964 200.495 232.778 200.612C232.594 200.73 232.378 200.788 232.132 200.788ZM232.132 200.412C232.319 200.412 232.473 200.364 232.594 200.268C232.714 200.172 232.804 200.046 232.862 199.89C232.92 199.734 232.949 199.564 232.949 199.382C232.949 199.2 232.92 199.03 232.862 198.872C232.804 198.715 232.714 198.588 232.594 198.491C232.473 198.394 232.319 198.345 232.132 198.345C231.945 198.345 231.791 198.394 231.67 198.491C231.55 198.588 231.46 198.715 231.402 198.872C231.344 199.03 231.315 199.2 231.315 199.382C231.315 199.564 231.344 199.734 231.402 199.89C231.46 200.046 231.55 200.172 231.67 200.268C231.791 200.364 231.945 200.412 232.132 200.412ZM234.427 199.091V200.731H234.008V198.004H234.412V198.43H234.448C234.512 198.292 234.609 198.181 234.739 198.097C234.869 198.011 235.037 197.969 235.243 197.969C235.428 197.969 235.59 198.007 235.728 198.082C235.867 198.157 235.974 198.271 236.051 198.423C236.128 198.575 236.167 198.766 236.167 198.998V200.731H235.748V199.027C235.748 198.813 235.692 198.646 235.581 198.526C235.469 198.405 235.317 198.345 235.123 198.345C234.989 198.345 234.869 198.374 234.764 198.432C234.66 198.49 234.578 198.575 234.517 198.686C234.457 198.797 234.427 198.932 234.427 199.091ZM214.839 206.788C214.576 206.788 214.349 206.73 214.158 206.614C213.969 206.497 213.823 206.334 213.72 206.124C213.618 205.914 213.567 205.668 213.567 205.389C213.567 205.11 213.618 204.864 213.72 204.65C213.823 204.436 213.966 204.269 214.15 204.15C214.334 204.029 214.55 203.969 214.796 203.969C214.938 203.969 215.078 203.992 215.217 204.04C215.355 204.087 215.481 204.164 215.595 204.271C215.709 204.376 215.799 204.516 215.867 204.69C215.934 204.864 215.968 205.078 215.968 205.332V205.51H213.866V205.148H215.542C215.542 204.994 215.511 204.856 215.449 204.736C215.389 204.615 215.303 204.52 215.19 204.45C215.079 204.38 214.947 204.345 214.796 204.345C214.629 204.345 214.485 204.387 214.363 204.469C214.242 204.551 214.149 204.658 214.084 204.789C214.019 204.92 213.986 205.061 213.986 205.212V205.453C213.986 205.659 214.022 205.834 214.093 205.977C214.165 206.119 214.265 206.227 214.393 206.302C214.521 206.375 214.669 206.412 214.839 206.412C214.949 206.412 215.048 206.396 215.137 206.366C215.227 206.334 215.304 206.286 215.369 206.224C215.435 206.16 215.485 206.08 215.52 205.986L215.925 206.099C215.883 206.237 215.811 206.357 215.71 206.462C215.61 206.565 215.485 206.645 215.337 206.703C215.189 206.76 215.023 206.788 214.839 206.788ZM217.024 205.091V206.731H216.605V204.004H217.01V204.43H217.046C217.109 204.292 217.207 204.181 217.337 204.097C217.467 204.011 217.635 203.969 217.841 203.969C218.026 203.969 218.187 204.007 218.326 204.082C218.464 204.157 218.572 204.271 218.649 204.423C218.726 204.575 218.764 204.766 218.764 204.998V206.731H218.345V205.027C218.345 204.813 218.29 204.646 218.178 204.526C218.067 204.405 217.914 204.345 217.72 204.345C217.586 204.345 217.467 204.374 217.362 204.432C217.257 204.49 217.175 204.575 217.115 204.686C217.054 204.797 217.024 204.932 217.024 205.091ZM220.716 204.004V204.359H219.303V204.004H220.716ZM219.715 203.351H220.134V205.95C220.134 206.069 220.151 206.157 220.185 206.217C220.221 206.275 220.266 206.314 220.32 206.334C220.376 206.353 220.434 206.362 220.496 206.362C220.542 206.362 220.58 206.36 220.61 206.355C220.639 206.349 220.663 206.344 220.681 206.341L220.766 206.717C220.737 206.728 220.698 206.739 220.647 206.749C220.596 206.761 220.531 206.767 220.453 206.767C220.335 206.767 220.219 206.742 220.105 206.691C219.993 206.64 219.899 206.562 219.825 206.458C219.751 206.354 219.715 206.222 219.715 206.064V203.351ZM221.346 206.731V204.004H221.751V204.416H221.78C221.829 204.281 221.919 204.172 222.05 204.088C222.18 204.004 222.327 203.962 222.49 203.962C222.521 203.962 222.559 203.962 222.605 203.963C222.651 203.965 222.686 203.966 222.71 203.969V204.395C222.696 204.391 222.663 204.386 222.612 204.379C222.563 204.371 222.51 204.366 222.454 204.366C222.322 204.366 222.203 204.394 222.099 204.45C221.996 204.504 221.915 204.58 221.854 204.677C221.795 204.773 221.765 204.882 221.765 205.006V206.731H221.346ZM224.267 206.788C224.004 206.788 223.778 206.73 223.587 206.614C223.398 206.497 223.252 206.334 223.149 206.124C223.047 205.914 222.996 205.668 222.996 205.389C222.996 205.11 223.047 204.864 223.149 204.65C223.252 204.436 223.395 204.269 223.578 204.15C223.763 204.029 223.978 203.969 224.225 203.969C224.367 203.969 224.507 203.992 224.645 204.04C224.784 204.087 224.91 204.164 225.024 204.271C225.137 204.376 225.228 204.516 225.295 204.69C225.363 204.864 225.396 205.078 225.396 205.332V205.51H223.294V205.148H224.97C224.97 204.994 224.94 204.856 224.878 204.736C224.818 204.615 224.731 204.52 224.619 204.45C224.508 204.38 224.376 204.345 224.225 204.345C224.058 204.345 223.913 204.387 223.791 204.469C223.671 204.551 223.578 204.658 223.513 204.789C223.448 204.92 223.415 205.061 223.415 205.212V205.453C223.415 205.659 223.45 205.834 223.521 205.977C223.594 206.119 223.694 206.227 223.822 206.302C223.949 206.375 224.098 206.412 224.267 206.412C224.377 206.412 224.477 206.396 224.566 206.366C224.655 206.334 224.733 206.286 224.798 206.224C224.863 206.16 224.914 206.08 224.949 205.986L225.354 206.099C225.311 206.237 225.24 206.357 225.139 206.462C225.038 206.565 224.914 206.645 224.766 206.703C224.618 206.76 224.452 206.788 224.267 206.788ZM227.859 203.095V206.731H227.44V203.095H227.859ZM229.77 206.788C229.507 206.788 229.281 206.73 229.09 206.614C228.901 206.497 228.755 206.334 228.652 206.124C228.55 205.914 228.499 205.668 228.499 205.389C228.499 205.11 228.55 204.864 228.652 204.65C228.755 204.436 228.898 204.269 229.081 204.15C229.266 204.029 229.481 203.969 229.728 203.969C229.87 203.969 230.01 203.992 230.148 204.04C230.287 204.087 230.413 204.164 230.527 204.271C230.64 204.376 230.731 204.516 230.798 204.69C230.866 204.864 230.899 205.078 230.899 205.332V205.51H228.797V205.148H230.473C230.473 204.994 230.443 204.856 230.381 204.736C230.321 204.615 230.234 204.52 230.122 204.45C230.01 204.38 229.879 204.345 229.728 204.345C229.561 204.345 229.416 204.387 229.294 204.469C229.174 204.551 229.081 204.658 229.016 204.789C228.95 204.92 228.918 205.061 228.918 205.212V205.453C228.918 205.659 228.953 205.834 229.024 205.977C229.097 206.119 229.197 206.227 229.324 206.302C229.452 206.375 229.601 206.412 229.77 206.412C229.88 206.412 229.98 206.396 230.068 206.366C230.158 206.334 230.236 206.286 230.301 206.224C230.366 206.16 230.416 206.08 230.452 205.986L230.857 206.099C230.814 206.237 230.743 206.357 230.642 206.462C230.541 206.565 230.417 206.645 230.269 206.703C230.121 206.76 229.955 206.788 229.77 206.788ZM233.469 204.615L233.092 204.722C233.069 204.659 233.034 204.598 232.987 204.539C232.943 204.478 232.881 204.429 232.803 204.389C232.725 204.35 232.625 204.331 232.503 204.331C232.336 204.331 232.197 204.369 232.085 204.446C231.975 204.522 231.92 204.619 231.92 204.736C231.92 204.84 231.958 204.922 232.034 204.983C232.11 205.043 232.228 205.093 232.389 205.133L232.794 205.233C233.038 205.292 233.219 205.383 233.339 205.505C233.459 205.625 233.518 205.781 233.518 205.972C233.518 206.128 233.473 206.267 233.383 206.391C233.295 206.514 233.17 206.611 233.011 206.682C232.851 206.753 232.665 206.788 232.453 206.788C232.175 206.788 231.945 206.728 231.762 206.607C231.58 206.486 231.465 206.31 231.416 206.078L231.814 205.979C231.852 206.125 231.923 206.235 232.029 206.309C232.135 206.382 232.274 206.419 232.446 206.419C232.641 206.419 232.796 206.378 232.911 206.295C233.027 206.211 233.085 206.11 233.085 205.993C233.085 205.898 233.052 205.819 232.986 205.755C232.919 205.69 232.818 205.641 232.68 205.609L232.226 205.503C231.976 205.444 231.793 205.352 231.675 205.228C231.559 205.102 231.501 204.945 231.501 204.757C231.501 204.603 231.545 204.467 231.631 204.349C231.719 204.23 231.838 204.137 231.988 204.07C232.139 204.002 232.311 203.969 232.503 203.969C232.773 203.969 232.985 204.028 233.138 204.146C233.293 204.265 233.404 204.421 233.469 204.615ZM213.695 213.754V210.004H214.1V210.437H214.15C214.18 210.39 214.223 210.33 214.277 210.256C214.333 210.182 214.412 210.115 214.515 210.057C214.62 209.998 214.76 209.969 214.938 209.969C215.168 209.969 215.37 210.026 215.545 210.141C215.72 210.256 215.857 210.418 215.955 210.629C216.054 210.84 216.103 211.088 216.103 211.375C216.103 211.664 216.054 211.914 215.955 212.126C215.857 212.337 215.721 212.5 215.547 212.616C215.373 212.731 215.172 212.788 214.945 212.788C214.77 212.788 214.63 212.759 214.524 212.701C214.419 212.642 214.338 212.575 214.281 212.501C214.224 212.425 214.18 212.362 214.15 212.312H214.114V213.754H213.695ZM214.107 211.368C214.107 211.574 214.137 211.755 214.198 211.913C214.258 212.069 214.346 212.192 214.462 212.28C214.578 212.368 214.72 212.412 214.888 212.412C215.063 212.412 215.21 212.366 215.327 212.273C215.445 212.18 215.534 212.054 215.593 211.897C215.653 211.738 215.684 211.562 215.684 211.368C215.684 211.176 215.654 211.003 215.595 210.849C215.537 210.694 215.449 210.572 215.33 210.482C215.213 210.391 215.066 210.345 214.888 210.345C214.718 210.345 214.575 210.388 214.459 210.475C214.343 210.56 214.255 210.679 214.196 210.833C214.137 210.986 214.107 211.164 214.107 211.368ZM217.161 209.095V212.731H216.742V209.095H217.161ZM218.731 212.795C218.558 212.795 218.401 212.763 218.26 212.698C218.12 212.631 218.008 212.536 217.925 212.412C217.842 212.286 217.801 212.135 217.801 211.957C217.801 211.801 217.831 211.674 217.893 211.577C217.954 211.479 218.037 211.402 218.14 211.347C218.243 211.291 218.356 211.249 218.481 211.222C218.606 211.194 218.732 211.171 218.859 211.155C219.025 211.133 219.159 211.117 219.262 211.107C219.366 211.095 219.442 211.075 219.489 211.048C219.538 211.021 219.562 210.974 219.562 210.906V210.892C219.562 210.717 219.514 210.581 219.418 210.484C219.323 210.387 219.18 210.338 218.987 210.338C218.787 210.338 218.63 210.382 218.516 210.469C218.403 210.557 218.323 210.65 218.276 210.75L217.879 210.608C217.95 210.442 218.044 210.313 218.163 210.221C218.282 210.127 218.413 210.062 218.553 210.025C218.695 209.988 218.835 209.969 218.972 209.969C219.06 209.969 219.161 209.979 219.274 210.001C219.389 210.021 219.5 210.063 219.606 210.127C219.714 210.191 219.803 210.287 219.874 210.416C219.945 210.545 219.981 210.718 219.981 210.935V212.731H219.562V212.362H219.541C219.512 212.421 219.465 212.485 219.399 212.552C219.332 212.62 219.244 212.677 219.134 212.724C219.024 212.772 218.89 212.795 218.731 212.795ZM218.795 212.419C218.961 212.419 219.1 212.386 219.214 212.321C219.329 212.256 219.415 212.172 219.473 212.069C219.532 211.966 219.562 211.858 219.562 211.744V211.361C219.544 211.382 219.505 211.402 219.445 211.419C219.386 211.436 219.317 211.451 219.239 211.464C219.162 211.476 219.087 211.486 219.013 211.496C218.941 211.504 218.883 211.511 218.838 211.517C218.729 211.531 218.627 211.554 218.532 211.586C218.439 211.617 218.363 211.664 218.305 211.726C218.248 211.788 218.22 211.872 218.22 211.979C218.22 212.124 218.273 212.234 218.381 212.309C218.49 212.382 218.628 212.419 218.795 212.419ZM221.932 210.004V210.359H220.519V210.004H221.932ZM220.93 209.351H221.35V211.95C221.35 212.069 221.367 212.157 221.401 212.217C221.437 212.275 221.482 212.314 221.536 212.334C221.592 212.353 221.65 212.362 221.712 212.362C221.758 212.362 221.796 212.36 221.825 212.355C221.855 212.349 221.879 212.344 221.896 212.341L221.982 212.717C221.953 212.728 221.914 212.739 221.863 212.749C221.812 212.761 221.747 212.767 221.669 212.767C221.551 212.767 221.435 212.742 221.321 212.691C221.209 212.64 221.115 212.562 221.041 212.458C220.967 212.354 220.93 212.222 220.93 212.064V209.351ZM223.676 212.788C223.414 212.788 223.187 212.73 222.996 212.614C222.807 212.497 222.661 212.334 222.558 212.124C222.456 211.914 222.405 211.668 222.405 211.389C222.405 211.11 222.456 210.864 222.558 210.65C222.661 210.436 222.804 210.269 222.987 210.15C223.172 210.029 223.388 209.969 223.634 209.969C223.776 209.969 223.916 209.992 224.055 210.04C224.193 210.087 224.319 210.164 224.433 210.271C224.546 210.376 224.637 210.516 224.704 210.69C224.772 210.864 224.806 211.078 224.806 211.332V211.51H222.703V211.148H224.38C224.38 210.994 224.349 210.856 224.287 210.736C224.227 210.615 224.14 210.52 224.028 210.45C223.917 210.38 223.785 210.345 223.634 210.345C223.467 210.345 223.322 210.387 223.201 210.469C223.08 210.551 222.987 210.658 222.922 210.789C222.857 210.92 222.824 211.061 222.824 211.212V211.453C222.824 211.659 222.86 211.834 222.931 211.977C223.003 212.119 223.103 212.227 223.231 212.302C223.359 212.375 223.507 212.412 223.676 212.412C223.786 212.412 223.886 212.396 223.975 212.366C224.065 212.334 224.142 212.286 224.207 212.224C224.272 212.16 224.323 212.08 224.358 211.986L224.763 212.099C224.72 212.237 224.649 212.357 224.548 212.462C224.448 212.565 224.323 212.645 224.175 212.703C224.027 212.76 223.861 212.788 223.676 212.788ZM226.658 210.004V210.359H225.187V210.004H226.658ZM225.628 212.731V209.628C225.628 209.472 225.664 209.341 225.738 209.237C225.811 209.133 225.907 209.055 226.024 209.003C226.141 208.951 226.265 208.925 226.395 208.925C226.498 208.925 226.582 208.933 226.647 208.949C226.712 208.966 226.761 208.981 226.793 208.996L226.672 209.358C226.65 209.351 226.621 209.342 226.583 209.331C226.546 209.321 226.498 209.315 226.437 209.315C226.299 209.315 226.199 209.35 226.137 209.42C226.077 209.49 226.047 209.592 226.047 209.727V212.731H225.628ZM228.241 212.788C227.994 212.788 227.778 212.73 227.592 212.612C227.408 212.495 227.263 212.331 227.159 212.121C227.056 211.91 227.005 211.664 227.005 211.382C227.005 211.098 227.056 210.85 227.159 210.638C227.263 210.426 227.408 210.262 227.592 210.144C227.778 210.027 227.994 209.969 228.241 209.969C228.487 209.969 228.702 210.027 228.887 210.144C229.073 210.262 229.217 210.426 229.32 210.638C229.424 210.85 229.476 211.098 229.476 211.382C229.476 211.664 229.424 211.91 229.32 212.121C229.217 212.331 229.073 212.495 228.887 212.612C228.702 212.73 228.487 212.788 228.241 212.788ZM228.241 212.412C228.428 212.412 228.581 212.364 228.702 212.268C228.823 212.172 228.912 212.046 228.97 211.89C229.028 211.734 229.057 211.564 229.057 211.382C229.057 211.2 229.028 211.03 228.97 210.872C228.912 210.715 228.823 210.588 228.702 210.491C228.581 210.394 228.428 210.345 228.241 210.345C228.053 210.345 227.9 210.394 227.779 210.491C227.658 210.588 227.569 210.715 227.511 210.872C227.453 211.03 227.424 211.2 227.424 211.382C227.424 211.564 227.453 211.734 227.511 211.89C227.569 212.046 227.658 212.172 227.779 212.268C227.9 212.364 228.053 212.412 228.241 212.412ZM230.116 212.731V210.004H230.521V210.416H230.549C230.599 210.281 230.689 210.172 230.819 210.088C230.949 210.004 231.096 209.962 231.259 209.962C231.29 209.962 231.329 209.962 231.375 209.963C231.421 209.965 231.456 209.966 231.48 209.969V210.395C231.465 210.391 231.433 210.386 231.382 210.379C231.332 210.371 231.28 210.366 231.224 210.366C231.091 210.366 230.973 210.394 230.869 210.45C230.766 210.504 230.684 210.58 230.624 210.677C230.565 210.773 230.535 210.882 230.535 211.006V212.731H230.116ZM231.976 212.731V210.004H232.381V210.43H232.417C232.473 210.285 232.565 210.172 232.692 210.091C232.819 210.009 232.971 209.969 233.148 209.969C233.328 209.969 233.478 210.009 233.597 210.091C233.718 210.172 233.812 210.285 233.88 210.43H233.908C233.978 210.289 234.083 210.178 234.222 210.095C234.362 210.011 234.53 209.969 234.725 209.969C234.969 209.969 235.168 210.045 235.323 210.198C235.478 210.349 235.556 210.585 235.556 210.906V212.731H235.137V210.906C235.137 210.705 235.082 210.561 234.972 210.475C234.862 210.388 234.732 210.345 234.583 210.345C234.391 210.345 234.243 210.403 234.137 210.519C234.032 210.634 233.979 210.78 233.979 210.956V212.731H233.553V210.864C233.553 210.708 233.503 210.584 233.402 210.489C233.301 210.393 233.172 210.345 233.013 210.345C232.904 210.345 232.803 210.374 232.708 210.432C232.614 210.49 232.539 210.571 232.481 210.674C232.424 210.775 232.395 210.893 232.395 211.027V212.731H231.976ZM237.465 212.788C237.203 212.788 236.976 212.73 236.785 212.614C236.596 212.497 236.45 212.334 236.347 212.124C236.245 211.914 236.194 211.668 236.194 211.389C236.194 211.11 236.245 210.864 236.347 210.65C236.45 210.436 236.593 210.269 236.777 210.15C236.961 210.029 237.177 209.969 237.423 209.969C237.565 209.969 237.705 209.992 237.844 210.04C237.982 210.087 238.108 210.164 238.222 210.271C238.335 210.376 238.426 210.516 238.494 210.69C238.561 210.864 238.595 211.078 238.595 211.332V211.51H236.492V211.148H238.169C238.169 210.994 238.138 210.856 238.076 210.736C238.016 210.615 237.929 210.52 237.817 210.45C237.706 210.38 237.574 210.345 237.423 210.345C237.256 210.345 237.112 210.387 236.99 210.469C236.869 210.551 236.776 210.658 236.711 210.789C236.646 210.92 236.613 211.061 236.613 211.212V211.453C236.613 211.659 236.649 211.834 236.72 211.977C236.792 212.119 236.892 212.227 237.02 212.302C237.148 212.375 237.296 212.412 237.465 212.412C237.576 212.412 237.675 212.396 237.764 212.366C237.854 212.334 237.931 212.286 237.996 212.224C238.061 212.16 238.112 212.08 238.147 211.986L238.552 212.099C238.509 212.237 238.438 212.357 238.337 212.462C238.237 212.565 238.112 212.645 237.964 212.703C237.816 212.76 237.65 212.788 237.465 212.788ZM241.164 210.615L240.788 210.722C240.764 210.659 240.729 210.598 240.683 210.539C240.638 210.478 240.576 210.429 240.498 210.389C240.42 210.35 240.32 210.331 240.198 210.331C240.031 210.331 239.892 210.369 239.781 210.446C239.671 210.522 239.616 210.619 239.616 210.736C239.616 210.84 239.654 210.922 239.729 210.983C239.805 211.043 239.923 211.093 240.084 211.133L240.489 211.233C240.733 211.292 240.915 211.383 241.034 211.505C241.154 211.625 241.214 211.781 241.214 211.972C241.214 212.128 241.169 212.267 241.079 212.391C240.99 212.514 240.866 212.611 240.706 212.682C240.546 212.753 240.36 212.788 240.148 212.788C239.87 212.788 239.64 212.728 239.458 212.607C239.275 212.486 239.16 212.31 239.111 212.078L239.509 211.979C239.547 212.125 239.619 212.235 239.724 212.309C239.831 212.382 239.97 212.419 240.141 212.419C240.337 212.419 240.492 212.378 240.606 212.295C240.722 212.211 240.78 212.11 240.78 211.993C240.78 211.898 240.747 211.819 240.681 211.755C240.615 211.69 240.513 211.641 240.376 211.609L239.921 211.503C239.671 211.444 239.488 211.352 239.371 211.228C239.255 211.102 239.197 210.945 239.197 210.757C239.197 210.603 239.24 210.467 239.326 210.349C239.414 210.23 239.533 210.137 239.683 210.07C239.835 210.002 240.006 209.969 240.198 209.969C240.468 209.969 240.68 210.028 240.834 210.146C240.989 210.265 241.099 210.421 241.164 210.615Z" fill="black"/>
<defs>
<filter id="filter0_d_1102_26071" x="91.4738" y="210.257" width="51.6628" height="52.7673" filterUnits="userSpaceOnUse" color-interpolation-filters="sRGB">
<feFlood flood-opacity="0" result="BackgroundImageFix"/>
<feColorMatrix in="SourceAlpha" type="matrix" values="0 0 0 0 0 0 0 0 0 0 0 0 0 0 0 0 0 0 127 0" result="hardAlpha"/>
<feOffset dy="0.776205"/>
<feGaussianBlur stdDeviation="0.388102"/>
<feComposite in2="hardAlpha" operator="out"/>
<feColorMatrix type="matrix" values="0 0 0 0 0 0 0 0 0 0 0 0 0 0 0 0 0 0 0.25 0"/>
<feBlend mode="normal" in2="BackgroundImageFix" result="effect1_dropShadow_1102_26071"/>
<feBlend mode="normal" in="SourceGraphic" in2="effect1_dropShadow_1102_26071" result="shape"/>
</filter>
<filter id="filter1_d_1102_26071" x="212.632" y="60.2539" width="51.6628" height="52.7673" filterUnits="userSpaceOnUse" color-interpolation-filters="sRGB">
<feFlood flood-opacity="0" result="BackgroundImageFix"/>
<feColorMatrix in="SourceAlpha" type="matrix" values="0 0 0 0 0 0 0 0 0 0 0 0 0 0 0 0 0 0 127 0" result="hardAlpha"/>
<feOffset dy="0.776205"/>
<feGaussianBlur stdDeviation="0.388102"/>
<feComposite in2="hardAlpha" operator="out"/>
<feColorMatrix type="matrix" values="0 0 0 0 0 0 0 0 0 0 0 0 0 0 0 0 0 0 0.25 0"/>
<feBlend mode="normal" in2="BackgroundImageFix" result="effect1_dropShadow_1102_26071"/>
<feBlend mode="normal" in="SourceGraphic" in2="effect1_dropShadow_1102_26071" result="shape"/>
</filter>
<filter id="filter2_d_1102_26071" x="74.3048" y="72.0361" width="51.6628" height="52.7673" filterUnits="userSpaceOnUse" color-interpolation-filters="sRGB">
<feFlood flood-opacity="0" result="BackgroundImageFix"/>
<feColorMatrix in="SourceAlpha" type="matrix" values="0 0 0 0 0 0 0 0 0 0 0 0 0 0 0 0 0 0 127 0" result="hardAlpha"/>
<feOffset dy="0.776205"/>
<feGaussianBlur stdDeviation="0.388102"/>
<feComposite in2="hardAlpha" operator="out"/>
<feColorMatrix type="matrix" values="0 0 0 0 0 0 0 0 0 0 0 0 0 0 0 0 0 0 0.25 0"/>
<feBlend mode="normal" in2="BackgroundImageFix" result="effect1_dropShadow_1102_26071"/>
<feBlend mode="normal" in="SourceGraphic" in2="effect1_dropShadow_1102_26071" result="shape"/>
</filter>
<filter id="filter3_d_1102_26071" x="204.869" y="176.594" width="51.6628" height="52.7673" filterUnits="userSpaceOnUse" color-interpolation-filters="sRGB">
<feFlood flood-opacity="0" result="BackgroundImageFix"/>
<feColorMatrix in="SourceAlpha" type="matrix" values="0 0 0 0 0 0 0 0 0 0 0 0 0 0 0 0 0 0 127 0" result="hardAlpha"/>
<feOffset dy="0.776205"/>
<feGaussianBlur stdDeviation="0.388102"/>
<feComposite in2="hardAlpha" operator="out"/>
<feColorMatrix type="matrix" values="0 0 0 0 0 0 0 0 0 0 0 0 0 0 0 0 0 0 0.25 0"/>
<feBlend mode="normal" in2="BackgroundImageFix" result="effect1_dropShadow_1102_26071"/>
<feBlend mode="normal" in="SourceGraphic" in2="effect1_dropShadow_1102_26071" result="shape"/>
</filter>
</defs>
</svg>
