<svg width="55" height="55" viewBox="0 0 55 55" fill="none" xmlns="http://www.w3.org/2000/svg">
<path d="M27.2627 16.8048C27.2627 12.6041 23.8549 9.16663 19.6905 9.16663H4.54395V36.6666H19.7837C27.2627 36.6666 27.2627 44.307 27.2627 44.307M27.2627 44.307V16.8048C27.2627 12.6018 30.6705 9.16663 34.8349 9.16663H49.9815V36.6666H34.8349C27.2627 36.6666 27.2627 44.307 27.2627 44.307ZM31.5225 46.8829C31.9965 45.8926 32.735 45.0552 33.6548 44.465C34.5747 43.8748 35.6395 43.555 36.7296 43.5416H47.7096M23.0029 46.8829C22.5376 45.8859 21.8012 45.0426 20.8794 44.4511C19.9576 43.8596 18.8883 43.5442 17.7958 43.5416H6.81582" stroke="#BBE4D2" stroke-width="5" stroke-miterlimit="10" stroke-linecap="round" stroke-linejoin="round"/>
</svg>
