<svg width="490" height="830" viewBox="0 0 490 830" fill="none" xmlns="http://www.w3.org/2000/svg">
<ellipse cx="119.358" cy="155.636" rx="78.9638" ry="80.9964" fill="#038750"/>
<ellipse cx="394.292" cy="342.765" rx="87.1325" ry="89.3753" fill="#038750"/>
<ellipse cx="62.8603" cy="505.456" rx="56.5" ry="57.9543" fill="#038750"/>
<ellipse cx="329.702" cy="661.865" rx="78.2831" ry="80.2981" fill="#038750"/>
<path d="M29.5431 0.00488281C29.1893 65.4466 28.8204 138.745 28.8204 159.825C28.8204 200.324 64.9019 245.011 104.381 245.011C143.859 245.011 376.666 244.971 412.067 247.106C447.468 249.241 488.988 286.208 488.988 342.067C488.988 397.927 450.191 437.029 412.067 439.822C373.943 442.615 114.588 439.822 70.3445 439.822C26.1007 439.822 0.914301 469.148 0.903329 504.758C0.892356 540.369 11.8024 569.695 70.3445 571.091C128.887 572.488 296.345 571.091 335.827 571.091C375.308 571.091 418.193 612.288 418.193 649.295C418.193 670.665 418.193 759.092 418.193 830.005" stroke="#005331" stroke-width="1.8074"/>
</svg>
