<svg width="22" height="21" viewBox="0 0 22 21" fill="none" xmlns="http://www.w3.org/2000/svg">
<path d="M11 3.9375C11.909 3.9375 12.7646 4.09131 13.5667 4.39893C14.3688 4.70654 15.0677 5.13037 15.6635 5.67041C16.2594 6.21045 16.7292 6.83594 17.0729 7.54688C17.4167 8.25781 17.5924 9.02344 17.6 9.84375C17.6 10.2744 17.5694 10.6777 17.5083 11.0537C17.4472 11.4297 17.3517 11.7886 17.2219 12.1304C17.092 12.4722 16.924 12.8105 16.7177 13.1455C16.5115 13.4805 16.267 13.8223 15.9844 14.1709C15.7628 14.4443 15.5681 14.6904 15.4 14.9092C15.2319 15.1279 15.0944 15.3467 14.9875 15.5654C14.8806 15.7842 14.8003 16.0234 14.7469 16.2832C14.6934 16.543 14.6667 16.8472 14.6667 17.1958V19.0312C14.6667 19.3047 14.6094 19.561 14.4948 19.8003C14.3802 20.0396 14.2236 20.248 14.025 20.4258C13.8264 20.6035 13.5934 20.7437 13.326 20.8462C13.0587 20.9487 12.7722 21 12.4667 21H9.53333C9.22778 21 8.94132 20.9487 8.67396 20.8462C8.4066 20.7437 8.17361 20.6035 7.975 20.4258C7.77639 20.248 7.61979 20.0396 7.50521 19.8003C7.39062 19.561 7.33333 19.3047 7.33333 19.0312V17.1855C7.33333 16.8369 7.3066 16.5361 7.25313 16.2832C7.19965 16.0303 7.11944 15.7944 7.0125 15.5757C6.90556 15.3569 6.76806 15.1348 6.6 14.9092C6.43194 14.6836 6.23715 14.4375 6.01562 14.1709C5.73299 13.8223 5.49236 13.4839 5.29375 13.1558C5.09514 12.8276 4.92708 12.4893 4.78958 12.1406C4.65208 11.792 4.55278 11.4297 4.49167 11.0537C4.43056 10.6777 4.4 10.2744 4.4 9.84375C4.4 9.03027 4.57188 8.26465 4.91563 7.54688C5.25938 6.8291 5.73299 6.20361 6.33646 5.67041C6.93993 5.13721 7.63889 4.7168 8.43333 4.40918C9.22778 4.10156 10.0833 3.94434 11 3.9375ZM13.2 19.0312V18.375H8.8V19.0312C8.8 19.209 8.87257 19.3628 9.01771 19.4927C9.16285 19.6226 9.33472 19.6875 9.53333 19.6875H12.4667C12.6653 19.6875 12.8372 19.6226 12.9823 19.4927C13.1274 19.3628 13.2 19.209 13.2 19.0312ZM16.1333 9.84375C16.1333 9.20801 15.9997 8.61328 15.7323 8.05957C15.4649 7.50586 15.0983 7.01709 14.6323 6.59326C14.1663 6.16943 13.624 5.84131 13.0052 5.60889C12.3865 5.37646 11.7181 5.25684 11 5.25C10.2896 5.25 9.625 5.36963 9.00625 5.60889C8.3875 5.84814 7.84132 6.17627 7.36771 6.59326C6.8941 7.01025 6.52743 7.49561 6.26771 8.04932C6.00799 8.60303 5.87431 9.20117 5.86667 9.84375C5.86667 10.4521 5.93542 10.9751 6.07292 11.4126C6.21042 11.8501 6.38993 12.2397 6.61146 12.5815C6.83299 12.9233 7.06597 13.2446 7.31042 13.5454C7.55486 13.8462 7.78785 14.1606 8.00938 14.4888C8.2309 14.8169 8.41424 15.186 8.55937 15.5962C8.70451 16.0063 8.78472 16.4951 8.8 17.0625H13.2C13.2076 16.4951 13.284 16.0098 13.4292 15.6064C13.5743 15.2031 13.7576 14.834 13.9792 14.499C14.2007 14.1641 14.4337 13.8496 14.6781 13.5557C14.9226 13.2617 15.1556 12.9404 15.3771 12.5918C15.5986 12.2432 15.7781 11.8501 15.9156 11.4126C16.0531 10.9751 16.1257 10.4521 16.1333 9.84375ZM11 2.625C10.8014 2.625 10.6295 2.56006 10.4844 2.43018C10.3392 2.30029 10.2667 2.14648 10.2667 1.96875V0.65625C10.2667 0.478516 10.3392 0.324707 10.4844 0.194824C10.6295 0.0649414 10.8014 0 11 0C11.1986 0 11.3705 0.0649414 11.5156 0.194824C11.6608 0.324707 11.7333 0.478516 11.7333 0.65625V1.96875C11.7333 2.14648 11.6608 2.30029 11.5156 2.43018C11.3705 2.56006 11.1986 2.625 11 2.625ZM2.2 9.51562H0.733333C0.534722 9.51562 0.362847 9.45068 0.217708 9.3208C0.0725694 9.19092 0 9.03711 0 8.85938C0 8.68164 0.0725694 8.52783 0.217708 8.39795C0.362847 8.26807 0.534722 8.20312 0.733333 8.20312H2.2C2.39861 8.20312 2.57049 8.26807 2.71563 8.39795C2.86076 8.52783 2.93333 8.68164 2.93333 8.85938C2.93333 9.03711 2.86076 9.19092 2.71563 9.3208C2.57049 9.45068 2.39861 9.51562 2.2 9.51562ZM2.80729 12.1919C3.0059 12.1919 3.17778 12.2568 3.32292 12.3867C3.46806 12.5166 3.54063 12.6738 3.54063 12.8584C3.54063 12.9951 3.49861 13.1147 3.41458 13.2173C3.33056 13.3198 3.21597 13.4019 3.07083 13.4634C2.98681 13.4976 2.87222 13.542 2.72708 13.5967C2.58194 13.6514 2.42535 13.7095 2.25729 13.771C2.08924 13.8325 1.93646 13.8838 1.79896 13.9248C1.66146 13.9658 1.53924 13.9897 1.43229 13.9966C1.23368 13.9966 1.06181 13.9316 0.916667 13.8018C0.771528 13.6719 0.698958 13.5146 0.698958 13.3301C0.698958 13.1934 0.740972 13.0737 0.825 12.9712C0.909028 12.8687 1.02361 12.7866 1.16875 12.7251C1.25278 12.6978 1.36736 12.6533 1.5125 12.5918C1.65764 12.5303 1.81424 12.4722 1.98229 12.4175C2.15035 12.3628 2.30313 12.3115 2.44062 12.2637C2.57812 12.2158 2.70035 12.1919 2.80729 12.1919ZM4.54896 5.57812C4.54896 5.75586 4.47639 5.90967 4.33125 6.03955C4.18611 6.16943 4.01424 6.23438 3.81563 6.23438C3.67813 6.23438 3.55208 6.20361 3.4375 6.14209L2.18854 5.45508C2.0816 5.39355 1.99757 5.31494 1.93646 5.21924C1.87535 5.12354 1.84097 5.01416 1.83333 4.89111C1.83333 4.71338 1.9059 4.55957 2.05104 4.42969C2.19618 4.2998 2.36806 4.23486 2.56667 4.23486C2.68889 4.23486 2.81493 4.26904 2.94479 4.3374L4.20521 5.01416C4.31215 5.06885 4.39618 5.14746 4.45729 5.25C4.5184 5.35254 4.54896 5.46191 4.54896 5.57812ZM5.5 1.80469C5.5 1.62695 5.57257 1.47314 5.71771 1.34326C5.86285 1.21338 6.03472 1.14844 6.23333 1.14844C6.36319 1.14844 6.48542 1.1792 6.6 1.24072C6.71458 1.30225 6.80625 1.38428 6.875 1.48682L7.58542 2.63525C7.64653 2.73096 7.67708 2.8335 7.67708 2.94287C7.67708 3.12744 7.60451 3.28467 7.45938 3.41455C7.31424 3.54443 7.14236 3.60938 6.94375 3.60938C6.81389 3.60938 6.69167 3.57861 6.57708 3.51709C6.4625 3.45557 6.37083 3.37354 6.30208 3.271L5.59167 2.12256C5.53056 2.02686 5.5 1.9209 5.5 1.80469ZM21.2667 8.20312C21.4653 8.20312 21.6372 8.26807 21.7823 8.39795C21.9274 8.52783 22 8.68164 22 8.85938C22 9.03711 21.9274 9.19092 21.7823 9.3208C21.6372 9.45068 21.4653 9.51562 21.2667 9.51562H19.8C19.6014 9.51562 19.4295 9.45068 19.2844 9.3208C19.1392 9.19092 19.0667 9.03711 19.0667 8.85938C19.0667 8.68164 19.1392 8.52783 19.2844 8.39795C19.4295 8.26807 19.6014 8.20312 19.8 8.20312H21.2667ZM21.2896 13.3403C21.2896 13.5181 21.217 13.6719 21.0719 13.8018C20.9267 13.9316 20.7549 13.9966 20.5562 13.9966C20.4722 13.9966 20.3576 13.9761 20.2125 13.9351C20.0674 13.894 19.9108 13.8394 19.7427 13.771C19.5747 13.7026 19.4219 13.6445 19.2844 13.5967C19.1469 13.5488 19.0285 13.501 18.9292 13.4531C18.7917 13.3984 18.6809 13.3164 18.5969 13.207C18.5128 13.0977 18.467 12.9746 18.4594 12.8379C18.4594 12.6533 18.5319 12.4995 18.6771 12.3765C18.8222 12.2534 18.9979 12.1885 19.2042 12.1816C19.2958 12.1816 19.4142 12.2056 19.5594 12.2534C19.7045 12.3013 19.8573 12.356 20.0177 12.4175C20.1781 12.479 20.3309 12.5405 20.476 12.6021C20.6212 12.6636 20.7396 12.708 20.8313 12.7354C20.9688 12.79 21.0795 12.8687 21.1635 12.9712C21.2476 13.0737 21.2896 13.1968 21.2896 13.3403ZM18.1844 6.23438C17.9858 6.23438 17.8139 6.16943 17.6688 6.03955C17.5236 5.90967 17.451 5.75586 17.451 5.57812C17.451 5.46191 17.4816 5.35254 17.5427 5.25C17.6038 5.14746 17.6878 5.06885 17.7948 5.01416L19.0552 4.3374C19.1851 4.26904 19.3111 4.23486 19.4333 4.23486C19.6319 4.23486 19.8038 4.2998 19.949 4.42969C20.0941 4.55957 20.1667 4.71338 20.1667 4.89111C20.1667 5.00732 20.1361 5.11328 20.075 5.20898C20.0139 5.30469 19.926 5.38672 19.8115 5.45508L18.5625 6.14209C18.4479 6.20361 18.3219 6.23438 18.1844 6.23438ZM14.3229 2.94287C14.3229 2.8335 14.3535 2.73096 14.4146 2.63525L15.125 1.48682C15.1861 1.38428 15.274 1.30225 15.3885 1.24072C15.5031 1.1792 15.6292 1.14844 15.7667 1.14844C15.9653 1.14844 16.1372 1.21338 16.2823 1.34326C16.4274 1.47314 16.5 1.62695 16.5 1.80469C16.5 1.9209 16.4694 2.02686 16.4083 2.12256L15.6979 3.271C15.6368 3.37354 15.549 3.45557 15.4344 3.51709C15.3198 3.57861 15.1938 3.60938 15.0563 3.60938C14.8576 3.60938 14.6858 3.54443 14.5406 3.41455C14.3955 3.28467 14.3229 3.12744 14.3229 2.94287Z" fill="black"/>
</svg>
