<svg width="363" height="109" viewBox="0 0 363 109" fill="none" xmlns="http://www.w3.org/2000/svg">
<g filter="url(#filter0_d_906_720)">
<rect x="109.916" y="8.47119" width="248" height="76" rx="9.56049" fill="#F1F9F7" shape-rendering="crispEdges"/>
<path d="M130.086 21.6024H131.93V28.2544C131.93 28.9835 131.758 29.6249 131.413 30.1784C131.072 30.7319 130.591 31.1644 129.971 31.4759C129.352 31.7842 128.627 31.9383 127.799 31.9383C126.967 31.9383 126.241 31.7842 125.621 31.4759C125.001 31.1644 124.521 30.7319 124.179 30.1784C123.838 29.6249 123.667 28.9835 123.667 28.2544V21.6024H125.512V28.1002C125.512 28.5245 125.605 28.9023 125.79 29.2338C125.979 29.5652 126.244 29.8254 126.586 30.0143C126.927 30.1999 127.331 30.2927 127.799 30.2927C128.266 30.2927 128.67 30.1999 129.012 30.0143C129.357 29.8254 129.622 29.5652 129.807 29.2338C129.993 28.9023 130.086 28.5245 130.086 28.1002V21.6024ZM137.669 24.1478V25.5399H133.279V24.1478H137.669ZM134.362 22.3183H136.162V29.4873C136.162 29.7293 136.199 29.9149 136.272 30.0441C136.348 30.1701 136.447 30.2562 136.57 30.3026C136.693 30.349 136.828 30.3722 136.978 30.3722C137.09 30.3722 137.193 30.364 137.286 30.3474C137.382 30.3308 137.455 30.3159 137.505 30.3026L137.808 31.7096C137.712 31.7427 137.574 31.7792 137.395 31.819C137.219 31.8588 137.004 31.882 136.749 31.8886C136.298 31.9018 135.892 31.8339 135.531 31.6847C135.17 31.5323 134.883 31.297 134.671 30.9788C134.462 30.6606 134.359 30.2629 134.362 29.7856V22.3183ZM139.174 31.7842V24.1478H140.973V31.7842H139.174ZM140.079 23.064C139.794 23.064 139.548 22.9695 139.343 22.7806C139.137 22.5884 139.035 22.358 139.035 22.0896C139.035 21.8178 139.137 21.5874 139.343 21.3985C139.548 21.2063 139.794 21.1102 140.079 21.1102C140.367 21.1102 140.612 21.2063 140.814 21.3985C141.02 21.5874 141.123 21.8178 141.123 22.0896C141.123 22.358 141.02 22.5884 140.814 22.7806C140.612 22.9695 140.367 23.064 140.079 23.064ZM144.624 21.6024V31.7842H142.824V21.6024H144.624ZM146.475 31.7842V24.1478H148.274V31.7842H146.475ZM147.379 23.064C147.094 23.064 146.849 22.9695 146.644 22.7806C146.438 22.5884 146.335 22.358 146.335 22.0896C146.335 21.8178 146.438 21.5874 146.644 21.3985C146.849 21.2063 147.094 21.1102 147.379 21.1102C147.668 21.1102 147.913 21.2063 148.115 21.3985C148.321 21.5874 148.423 21.8178 148.423 22.0896C148.423 22.358 148.321 22.5884 148.115 22.7806C147.913 22.9695 147.668 23.064 147.379 23.064ZM156.16 26.1663L154.52 26.3453C154.473 26.1795 154.392 26.0238 154.276 25.8779C154.164 25.7321 154.011 25.6144 153.819 25.5249C153.627 25.4355 153.391 25.3907 153.113 25.3907C152.738 25.3907 152.423 25.4719 152.168 25.6343C151.916 25.7967 151.792 26.0072 151.795 26.2657C151.792 26.4878 151.873 26.6684 152.039 26.8076C152.208 26.9468 152.486 27.0612 152.874 27.1507L154.177 27.4291C154.899 27.5848 155.436 27.8318 155.788 28.1698C156.142 28.5079 156.321 28.9504 156.324 29.4972C156.321 29.9778 156.18 30.4021 155.902 30.77C155.627 31.1346 155.244 31.4196 154.753 31.6251C154.263 31.8306 153.699 31.9333 153.063 31.9333C152.128 31.9333 151.376 31.7378 150.806 31.3467C150.236 30.9523 149.896 30.4037 149.787 29.7011L151.542 29.532C151.621 29.8767 151.79 30.1369 152.049 30.3126C152.307 30.4883 152.644 30.5761 153.058 30.5761C153.486 30.5761 153.829 30.4883 154.087 30.3126C154.349 30.1369 154.48 29.9198 154.48 29.6613C154.48 29.4426 154.396 29.2619 154.226 29.1194C154.061 28.9769 153.802 28.8675 153.451 28.7913L152.148 28.5178C151.416 28.3654 150.874 28.1085 150.523 27.7472C150.171 27.3827 149.997 26.922 150.001 26.3651C149.997 25.8945 150.125 25.4868 150.383 25.1421C150.645 24.7941 151.008 24.5257 151.472 24.3367C151.94 24.1445 152.478 24.0484 153.088 24.0484C153.983 24.0484 154.687 24.239 155.201 24.6201C155.718 25.0013 156.038 25.5167 156.16 26.1663ZM160.006 31.9383C159.522 31.9383 159.086 31.8521 158.698 31.6798C158.314 31.5041 158.009 31.2456 157.784 30.9042C157.562 30.5628 157.451 30.1419 157.451 29.6414C157.451 29.2106 157.53 28.8543 157.689 28.5725C157.848 28.2908 158.065 28.0654 158.34 27.8964C158.616 27.7274 158.925 27.5998 159.27 27.5136C159.618 27.4241 159.978 27.3595 160.349 27.3197C160.796 27.2733 161.159 27.2319 161.438 27.1954C161.716 27.1556 161.918 27.096 162.044 27.0164C162.174 26.9336 162.238 26.806 162.238 26.6336V26.6038C162.238 26.2293 162.127 25.9392 161.905 25.7338C161.683 25.5283 161.363 25.4255 160.946 25.4255C160.505 25.4255 160.155 25.5216 159.897 25.7139C159.641 25.9061 159.469 26.1331 159.38 26.395L157.699 26.1563C157.832 25.6923 158.05 25.3045 158.355 24.993C158.66 24.6781 159.033 24.4428 159.474 24.287C159.915 24.1279 160.402 24.0484 160.936 24.0484C161.304 24.0484 161.67 24.0915 162.034 24.1776C162.399 24.2638 162.732 24.4063 163.034 24.6052C163.335 24.8008 163.577 25.0676 163.759 25.4056C163.945 25.7437 164.038 26.1663 164.038 26.6734V31.7842H162.308V30.7352H162.248C162.139 30.9473 161.985 31.1462 161.786 31.3318C161.59 31.5141 161.343 31.6615 161.045 31.7742C160.75 31.8836 160.404 31.9383 160.006 31.9383ZM160.473 30.6159C160.835 30.6159 161.148 30.5446 161.413 30.4021C161.678 30.2562 161.882 30.064 162.024 29.8254C162.17 29.5867 162.243 29.3266 162.243 29.0448V28.145C162.187 28.1914 162.091 28.2345 161.955 28.2742C161.822 28.314 161.673 28.3488 161.507 28.3786C161.342 28.4085 161.178 28.435 161.015 28.4582C160.853 28.4814 160.712 28.5013 160.593 28.5178C160.324 28.5543 160.084 28.614 159.872 28.6968C159.66 28.7797 159.492 28.8957 159.37 29.0448C159.247 29.1907 159.186 29.3796 159.186 29.6116C159.186 29.943 159.307 30.1933 159.549 30.3623C159.791 30.5313 160.099 30.6159 160.473 30.6159ZM169.661 24.1478V25.5399H165.271V24.1478H169.661ZM166.355 22.3183H168.154V29.4873C168.154 29.7293 168.191 29.9149 168.264 30.0441C168.34 30.1701 168.439 30.2562 168.562 30.3026C168.685 30.349 168.821 30.3722 168.97 30.3722C169.082 30.3722 169.185 30.364 169.278 30.3474C169.374 30.3308 169.447 30.3159 169.497 30.3026L169.8 31.7096C169.704 31.7427 169.566 31.7792 169.387 31.819C169.212 31.8588 168.996 31.882 168.741 31.8886C168.29 31.9018 167.884 31.8339 167.523 31.6847C167.162 31.5323 166.875 31.297 166.663 30.9788C166.454 30.6606 166.351 30.2629 166.355 29.7856V22.3183ZM171.166 31.7842V24.1478H172.966V31.7842H171.166ZM172.071 23.064C171.786 23.064 171.54 22.9695 171.335 22.7806C171.129 22.5884 171.027 22.358 171.027 22.0896C171.027 21.8178 171.129 21.5874 171.335 21.3985C171.54 21.2063 171.786 21.1102 172.071 21.1102C172.359 21.1102 172.604 21.2063 172.807 21.3985C173.012 21.5874 173.115 21.8178 173.115 22.0896C173.115 22.358 173.012 22.5884 172.807 22.7806C172.604 22.9695 172.359 23.064 172.071 23.064ZM178.147 31.9333C177.402 31.9333 176.755 31.7693 176.208 31.4411C175.661 31.113 175.237 30.654 174.936 30.064C174.637 29.474 174.488 28.7847 174.488 27.9958C174.488 27.207 174.637 26.516 174.936 25.9227C175.237 25.3294 175.661 24.8687 176.208 24.5406C176.755 24.2124 177.402 24.0484 178.147 24.0484C178.893 24.0484 179.539 24.2124 180.086 24.5406C180.633 24.8687 181.056 25.3294 181.354 25.9227C181.656 26.516 181.806 27.207 181.806 27.9958C181.806 28.7847 181.656 29.474 181.354 30.064C181.056 30.654 180.633 31.113 180.086 31.4411C179.539 31.7693 178.893 31.9333 178.147 31.9333ZM178.157 30.4916C178.562 30.4916 178.9 30.3805 179.171 30.1585C179.443 29.9331 179.645 29.6315 179.778 29.2536C179.914 28.8758 179.982 28.4549 179.982 27.9909C179.982 27.5235 179.914 27.1009 179.778 26.7231C179.645 26.3419 179.443 26.0387 179.171 25.8133C178.9 25.5879 178.562 25.4752 178.157 25.4752C177.743 25.4752 177.398 25.5879 177.123 25.8133C176.851 26.0387 176.648 26.3419 176.512 26.7231C176.379 27.1009 176.313 27.5235 176.313 27.9909C176.313 28.4549 176.379 28.8758 176.512 29.2536C176.648 29.6315 176.851 29.9331 177.123 30.1585C177.398 30.3805 177.743 30.4916 178.157 30.4916ZM185.134 27.3097V31.7842H183.334V24.1478H185.054V25.4454H185.144C185.319 25.0178 185.599 24.6781 185.984 24.4262C186.372 24.1743 186.85 24.0484 187.421 24.0484C187.948 24.0484 188.407 24.1611 188.798 24.3865C189.192 24.6118 189.497 24.9383 189.712 25.3659C189.931 25.7934 190.039 26.3121 190.036 26.922V31.7842H188.236V27.2004C188.236 26.69 188.103 26.2906 187.838 26.0022C187.576 25.7139 187.213 25.5697 186.749 25.5697C186.435 25.5697 186.154 25.6393 185.909 25.7785C185.667 25.9144 185.477 26.1116 185.337 26.3701C185.202 26.6286 185.134 26.9418 185.134 27.3097ZM197.262 21.6024V31.7842H195.417V21.6024H197.262ZM200.567 31.7842H198.598L202.182 21.6024H204.459L208.049 31.7842H206.08L203.361 23.6904H203.281L200.567 31.7842ZM200.631 27.792H206.001V29.2735H200.631V27.792ZM213.231 26.6933C213.231 25.4504 213.395 24.3086 213.723 23.2678C214.054 22.2238 214.546 21.2593 215.199 20.3744H216.895C216.643 20.7025 216.407 21.1052 216.189 21.5825C215.97 22.0564 215.779 22.5768 215.617 23.1436C215.458 23.707 215.332 24.292 215.239 24.8985C215.15 25.5051 215.105 26.1033 215.105 26.6933C215.105 27.4788 215.183 28.2742 215.339 29.0796C215.498 29.885 215.711 30.6324 215.98 31.3218C216.252 32.0079 216.557 32.5697 216.895 33.0072H215.199C214.546 32.1222 214.054 31.1594 213.723 30.1187C213.395 29.0747 213.231 27.9329 213.231 26.6933ZM227.088 25.0377H225.228C225.175 24.7328 225.077 24.4627 224.935 24.2274C224.792 23.9887 224.615 23.7865 224.403 23.6208C224.191 23.4551 223.949 23.3308 223.677 23.248C223.409 23.1618 223.119 23.1187 222.807 23.1187C222.254 23.1187 221.763 23.2579 221.335 23.5363C220.908 23.8114 220.573 24.2158 220.331 24.7494C220.089 25.2797 219.968 25.9276 219.968 26.6933C219.968 27.4722 220.089 28.1284 220.331 28.662C220.576 29.1923 220.911 29.5934 221.335 29.8651C221.763 30.1336 222.252 30.2678 222.802 30.2678C223.107 30.2678 223.392 30.2281 223.657 30.1485C223.926 30.0657 224.166 29.9447 224.378 29.7856C224.594 29.6265 224.774 29.431 224.92 29.199C225.069 28.9669 225.172 28.7018 225.228 28.4035L227.088 28.4134C227.018 28.8973 226.867 29.3514 226.635 29.7757C226.407 30.1999 226.107 30.5744 225.735 30.8992C225.364 31.2207 224.93 31.4726 224.433 31.6549C223.936 31.8339 223.384 31.9234 222.777 31.9234C221.882 31.9234 221.084 31.7162 220.381 31.3019C219.678 30.8876 219.125 30.2894 218.72 29.5072C218.316 28.725 218.114 27.787 218.114 26.6933C218.114 25.5962 218.318 24.6582 218.725 23.8794C219.133 23.0972 219.688 22.4989 220.391 22.0846C221.094 21.6703 221.889 21.4632 222.777 21.4632C223.344 21.4632 223.871 21.5427 224.358 21.7018C224.845 21.8609 225.28 22.0945 225.661 22.4028C226.042 22.7077 226.355 23.0822 226.6 23.5264C226.849 23.9672 227.011 24.471 227.088 25.0377ZM230.497 21.6024V31.7842H228.697V21.6024H230.497ZM234.545 31.9383C234.061 31.9383 233.625 31.8521 233.237 31.6798C232.853 31.5041 232.548 31.2456 232.323 30.9042C232.101 30.5628 231.99 30.1419 231.99 29.6414C231.99 29.2106 232.069 28.8543 232.228 28.5725C232.387 28.2908 232.604 28.0654 232.88 27.8964C233.155 27.7274 233.465 27.5998 233.809 27.5136C234.157 27.4241 234.517 27.3595 234.888 27.3197C235.335 27.2733 235.698 27.2319 235.977 27.1954C236.255 27.1556 236.457 27.096 236.583 27.0164C236.713 26.9336 236.777 26.806 236.777 26.6336V26.6038C236.777 26.2293 236.666 25.9392 236.444 25.7338C236.222 25.5283 235.902 25.4255 235.485 25.4255C235.044 25.4255 234.694 25.5216 234.436 25.7139C234.18 25.9061 234.008 26.1331 233.919 26.395L232.238 26.1563C232.371 25.6923 232.59 25.3045 232.894 24.993C233.199 24.6781 233.572 24.4428 234.013 24.287C234.454 24.1279 234.941 24.0484 235.475 24.0484C235.843 24.0484 236.209 24.0915 236.573 24.1776C236.938 24.2638 237.271 24.4063 237.573 24.6052C237.874 24.8008 238.116 25.0676 238.299 25.4056C238.484 25.7437 238.577 26.1663 238.577 26.6734V31.7842H236.847V30.7352H236.787C236.678 30.9473 236.524 31.1462 236.325 31.3318C236.129 31.5141 235.882 31.6615 235.584 31.7742C235.289 31.8836 234.943 31.9383 234.545 31.9383ZM235.012 30.6159C235.374 30.6159 235.687 30.5446 235.952 30.4021C236.217 30.2562 236.421 30.064 236.563 29.8254C236.709 29.5867 236.782 29.3266 236.782 29.0448V28.145C236.726 28.1914 236.63 28.2345 236.494 28.2742C236.361 28.314 236.212 28.3488 236.046 28.3786C235.881 28.4085 235.717 28.435 235.554 28.4582C235.392 28.4814 235.251 28.5013 235.132 28.5178C234.863 28.5543 234.623 28.614 234.411 28.6968C234.199 28.7797 234.031 28.8957 233.909 29.0448C233.786 29.1907 233.725 29.3796 233.725 29.6116C233.725 29.943 233.846 30.1933 234.088 30.3623C234.33 30.5313 234.638 30.6159 235.012 30.6159ZM245.254 28.5725V24.1478H247.054V31.7842H245.309V30.4269H245.229C245.057 30.8545 244.773 31.2042 244.379 31.4759C243.988 31.7477 243.505 31.8836 242.932 31.8836C242.432 31.8836 241.989 31.7726 241.605 31.5505C241.224 31.3251 240.925 30.9987 240.71 30.5711C240.494 30.1402 240.387 29.6199 240.387 29.01V24.1478H242.186V28.7316C242.186 29.2155 242.319 29.6 242.584 29.885C242.849 30.1701 243.197 30.3126 243.628 30.3126C243.893 30.3126 244.15 30.248 244.399 30.1187C244.647 29.9894 244.851 29.7972 245.01 29.542C245.173 29.2835 245.254 28.9603 245.254 28.5725ZM251.738 31.9184C251.138 31.9184 250.601 31.7643 250.127 31.4561C249.653 31.1478 249.279 30.7004 249.004 30.1137C248.729 29.5271 248.591 28.8145 248.591 27.9759C248.591 27.1275 248.73 26.4115 249.009 25.8282C249.29 25.2416 249.67 24.7991 250.147 24.5008C250.624 24.1992 251.156 24.0484 251.743 24.0484C252.19 24.0484 252.558 24.1246 252.847 24.2771C253.135 24.4262 253.364 24.6069 253.533 24.819C253.702 25.0278 253.833 25.225 253.926 25.4106H254V21.6024H255.805V31.7842H254.035V30.5811H253.926C253.833 30.7667 253.698 30.9639 253.523 31.1727C253.347 31.3782 253.115 31.5538 252.827 31.6997C252.538 31.8455 252.176 31.9184 251.738 31.9184ZM252.24 30.4419C252.621 30.4419 252.946 30.3391 253.215 30.1336C253.483 29.9248 253.687 29.6348 253.826 29.2636C253.965 28.8924 254.035 28.4598 254.035 27.966C254.035 27.4722 253.965 27.0429 253.826 26.6784C253.69 26.3138 253.488 26.0304 253.22 25.8282C252.954 25.626 252.628 25.5249 252.24 25.5249C251.839 25.5249 251.504 25.6293 251.236 25.8382C250.967 26.047 250.765 26.3353 250.629 26.7032C250.493 27.0711 250.426 27.492 250.426 27.966C250.426 28.4433 250.493 28.8692 250.629 29.2437C250.769 29.6149 250.972 29.9082 251.241 30.1237C251.513 30.3358 251.846 30.4419 252.24 30.4419ZM261.103 31.9333C260.338 31.9333 259.676 31.7742 259.12 31.4561C258.566 31.1346 258.14 30.6805 257.842 30.0938C257.544 29.5039 257.394 28.8095 257.394 28.0107C257.394 27.2252 257.544 26.5358 257.842 25.9426C258.143 25.346 258.564 24.882 259.105 24.5505C259.645 24.2158 260.28 24.0484 261.009 24.0484C261.479 24.0484 261.924 24.1246 262.341 24.2771C262.762 24.4262 263.133 24.6582 263.455 24.9731C263.78 25.288 264.035 25.689 264.22 26.1762C264.406 26.6601 264.499 27.2368 264.499 27.9063V28.4582H258.24V27.2451H262.774C262.77 26.9004 262.696 26.5938 262.55 26.3254C262.404 26.0536 262.2 25.8398 261.938 25.684C261.68 25.5283 261.378 25.4504 261.034 25.4504C260.666 25.4504 260.343 25.5399 260.064 25.7188C259.786 25.8945 259.569 26.1265 259.413 26.4149C259.26 26.6999 259.183 27.0131 259.179 27.3545V28.4134C259.179 28.8576 259.26 29.2387 259.423 29.5569C259.585 29.8718 259.812 30.1137 260.104 30.2828C260.396 30.4485 260.737 30.5313 261.128 30.5313C261.39 30.5313 261.627 30.4949 261.839 30.422C262.051 30.3457 262.235 30.2347 262.391 30.0889C262.547 29.943 262.664 29.7624 262.744 29.547L264.424 29.7359C264.318 30.18 264.116 30.5678 263.818 30.8992C263.523 31.2274 263.145 31.4826 262.684 31.6649C262.224 31.8438 261.697 31.9333 261.103 31.9333ZM272.875 31.9333C272.109 31.9333 271.448 31.7742 270.891 31.4561C270.338 31.1346 269.912 30.6805 269.613 30.0938C269.315 29.5039 269.166 28.8095 269.166 28.0107C269.166 27.2252 269.315 26.5358 269.613 25.9426C269.915 25.346 270.336 24.882 270.876 24.5505C271.416 24.2158 272.051 24.0484 272.78 24.0484C273.251 24.0484 273.695 24.1246 274.113 24.2771C274.534 24.4262 274.905 24.6582 275.226 24.9731C275.551 25.288 275.806 25.689 275.992 26.1762C276.178 26.6601 276.27 27.2368 276.27 27.9063V28.4582H270.011V27.2451H274.545C274.542 26.9004 274.467 26.5938 274.321 26.3254C274.176 26.0536 273.972 25.8398 273.71 25.684C273.451 25.5283 273.15 25.4504 272.805 25.4504C272.437 25.4504 272.114 25.5399 271.836 25.7188C271.557 25.8945 271.34 26.1265 271.184 26.4149C271.032 26.6999 270.954 27.0131 270.951 27.3545V28.4134C270.951 28.8576 271.032 29.2387 271.194 29.5569C271.357 29.8718 271.584 30.1137 271.875 30.2828C272.167 30.4485 272.508 30.5313 272.9 30.5313C273.161 30.5313 273.398 30.4949 273.611 30.422C273.823 30.3457 274.007 30.2347 274.162 30.0889C274.318 29.943 274.436 29.7624 274.515 29.547L276.196 29.7359C276.09 30.18 275.888 30.5678 275.589 30.8992C275.294 31.2274 274.916 31.4826 274.456 31.6649C273.995 31.8438 273.468 31.9333 272.875 31.9333ZM281.606 24.1478V25.5399H277.216V24.1478H281.606ZM278.3 22.3183H280.1V29.4873C280.1 29.7293 280.136 29.9149 280.209 30.0441C280.285 30.1701 280.385 30.2562 280.507 30.3026C280.63 30.349 280.766 30.3722 280.915 30.3722C281.028 30.3722 281.13 30.364 281.223 30.3474C281.319 30.3308 281.392 30.3159 281.442 30.3026L281.745 31.7096C281.649 31.7427 281.512 31.7792 281.333 31.819C281.157 31.8588 280.942 31.882 280.686 31.8886C280.236 31.9018 279.83 31.8339 279.468 31.6847C279.107 31.5323 278.82 31.297 278.608 30.9788C278.399 30.6606 278.297 30.2629 278.3 29.7856V22.3183ZM286.663 31.7842V21.6024H293.286V23.1485H288.508V25.9127H292.943V27.4589H288.508V30.238H293.325V31.7842H286.663ZM296.888 21.6024V31.7842H295.088V21.6024H296.888ZM298.738 31.7842V24.1478H300.538V31.7842H298.738ZM299.643 23.064C299.358 23.064 299.113 22.9695 298.907 22.7806C298.702 22.5884 298.599 22.358 298.599 22.0896C298.599 21.8178 298.702 21.5874 298.907 21.3985C299.113 21.2063 299.358 21.1102 299.643 21.1102C299.931 21.1102 300.177 21.2063 300.379 21.3985C300.584 21.5874 300.687 21.8178 300.687 22.0896C300.687 22.358 300.584 22.5884 300.379 22.7806C300.177 22.9695 299.931 23.064 299.643 23.064ZM305.72 31.9333C304.957 31.9333 304.303 31.766 303.756 31.4312C303.212 31.0964 302.793 30.6341 302.498 30.0441C302.206 29.4508 302.06 28.7681 302.06 27.9958C302.06 27.2203 302.21 26.5358 302.508 25.9426C302.806 25.346 303.227 24.882 303.771 24.5505C304.318 24.2158 304.964 24.0484 305.71 24.0484C306.329 24.0484 306.878 24.1627 307.355 24.3914C307.836 24.6168 308.219 24.9366 308.504 25.3509C308.789 25.7619 308.951 26.2425 308.991 26.7927H307.271C307.201 26.4248 307.035 26.1182 306.774 25.873C306.515 25.6244 306.169 25.5001 305.734 25.5001C305.367 25.5001 305.043 25.5995 304.765 25.7984C304.487 25.9939 304.27 26.2757 304.114 26.6436C303.961 27.0115 303.885 27.4523 303.885 27.966C303.885 28.4864 303.961 28.9338 304.114 29.3083C304.266 29.6795 304.48 29.9662 304.755 30.1684C305.033 30.3673 305.36 30.4667 305.734 30.4667C306 30.4667 306.237 30.417 306.445 30.3176C306.658 30.2148 306.835 30.0673 306.977 29.8751C307.12 29.6829 307.218 29.4492 307.271 29.1741H308.991C308.948 29.7143 308.789 30.1933 308.514 30.6109C308.238 31.0252 307.864 31.35 307.39 31.5853C306.916 31.8173 306.359 31.9333 305.72 31.9333ZM310.469 31.7842V24.1478H312.268V31.7842H310.469ZM311.373 23.064C311.088 23.064 310.843 22.9695 310.638 22.7806C310.432 22.5884 310.329 22.358 310.329 22.0896C310.329 21.8178 310.432 21.5874 310.638 21.3985C310.843 21.2063 311.088 21.1102 311.373 21.1102C311.662 21.1102 311.907 21.2063 312.109 21.3985C312.315 21.5874 312.418 21.8178 312.418 22.0896C312.418 22.358 312.315 22.5884 312.109 22.7806C311.907 22.9695 311.662 23.064 311.373 23.064ZM317.932 24.1478V25.5399H313.542V24.1478H317.932ZM314.626 22.3183H316.426V29.4873C316.426 29.7293 316.462 29.9149 316.535 30.0441C316.611 30.1701 316.711 30.2562 316.834 30.3026C316.956 30.349 317.092 30.3722 317.241 30.3722C317.354 30.3722 317.457 30.364 317.549 30.3474C317.646 30.3308 317.718 30.3159 317.768 30.3026L318.071 31.7096C317.975 31.7427 317.838 31.7792 317.659 31.819C317.483 31.8588 317.268 31.882 317.013 31.8886C316.562 31.9018 316.156 31.8339 315.794 31.6847C315.433 31.5323 315.147 31.297 314.934 30.9788C314.726 30.6606 314.623 30.2629 314.626 29.7856V22.3183ZM322.649 27.6329C322.649 28.8725 322.483 30.0143 322.152 31.0583C321.824 32.099 321.333 33.0619 320.68 33.9468H318.985C319.24 33.6187 319.476 33.2177 319.691 32.7437C319.91 32.2697 320.099 31.7494 320.258 31.1826C320.42 30.6159 320.546 30.0292 320.636 29.4227C320.728 28.8161 320.775 28.2195 320.775 27.6329C320.775 26.8474 320.695 26.0519 320.536 25.2465C320.38 24.4411 320.167 23.6937 319.895 23.0044C319.626 22.315 319.323 21.7515 318.985 21.314H320.68C321.333 22.199 321.824 23.1634 322.152 24.2075C322.483 25.2482 322.649 26.39 322.649 27.6329Z" fill="black"/>
<path d="M337.904 21.4149C338.303 20.2482 339.915 20.2129 340.388 21.3089L340.428 21.4155L340.966 22.9889C341.089 23.3497 341.288 23.6799 341.55 23.9572C341.812 24.2344 342.13 24.4524 342.483 24.5962L342.628 24.6502L344.201 25.1875C345.368 25.5862 345.403 27.1982 344.308 27.6709L344.201 27.7109L342.628 28.2489C342.267 28.3721 341.936 28.5713 341.659 28.833C341.382 29.0948 341.164 29.413 341.02 29.7662L340.966 29.9102L340.428 31.4842C340.03 32.6509 338.418 32.6862 337.946 31.5909L337.904 31.4842L337.367 29.9109C337.244 29.5499 337.045 29.2196 336.783 28.9422C336.521 28.6648 336.203 28.4468 335.85 28.3029L335.706 28.2489L334.132 27.7115C332.965 27.3129 332.93 25.7009 334.026 25.2289L334.132 25.1875L335.706 24.6502C336.067 24.5269 336.397 24.3277 336.674 24.0659C336.951 23.8042 337.169 23.486 337.313 23.1329L337.367 22.9889L337.904 21.4149ZM339.166 21.8455L338.629 23.4189C338.441 23.9691 338.136 24.4717 337.734 24.8919C337.332 25.312 336.844 25.6395 336.302 25.8515L336.136 25.9122L334.562 26.4495L336.136 26.9869C336.686 27.1746 337.189 27.48 337.609 27.8819C338.029 28.2837 338.356 28.7722 338.568 29.3135L338.629 29.4802L339.166 31.0535L339.704 29.4802C339.891 28.93 340.197 28.4273 340.599 28.0072C341.001 27.5871 341.489 27.2596 342.03 27.0475L342.197 26.9875L343.77 26.4495L342.197 25.9122C341.647 25.7245 341.144 25.4191 340.724 25.0172C340.304 24.6154 339.976 24.1268 339.764 23.5855L339.704 23.4189L339.166 21.8455ZM344.5 19.1162C344.624 19.1162 344.747 19.1512 344.853 19.2172C344.958 19.2832 345.044 19.3775 345.098 19.4895L345.13 19.5675L345.364 20.2515L346.048 20.4849C346.173 20.5273 346.283 20.606 346.363 20.7108C346.443 20.8156 346.491 20.9418 346.499 21.0736C346.508 21.2053 346.477 21.3366 346.411 21.4507C346.344 21.5649 346.246 21.6568 346.127 21.7149L346.048 21.7469L345.364 21.9802L345.131 22.6649C345.089 22.7898 345.01 22.8993 344.905 22.9795C344.8 23.0597 344.674 23.107 344.542 23.1154C344.41 23.1237 344.279 23.0928 344.165 23.0265C344.051 22.9602 343.959 22.8615 343.901 22.7429L343.869 22.6649L343.636 21.9809L342.951 21.7475C342.826 21.7051 342.717 21.6265 342.636 21.5217C342.556 21.4169 342.509 21.2906 342.5 21.1589C342.492 21.0271 342.523 20.8959 342.589 20.7817C342.655 20.6675 342.754 20.5756 342.872 20.5175L342.951 20.4855L343.635 20.2522L343.868 19.5675C343.913 19.4358 343.998 19.3215 344.112 19.2405C344.225 19.1596 344.361 19.1161 344.5 19.1162Z" fill="black"/>
<path d="M123.896 55.1582V44.9764H127.336C128.132 44.9764 128.785 45.1123 129.295 45.3841C129.806 45.6525 130.183 46.0221 130.429 46.4927C130.674 46.9634 130.797 47.4986 130.797 48.0985C130.797 48.6984 130.674 49.2304 130.429 49.6944C130.183 50.1584 129.807 50.523 129.3 50.7882C128.793 51.05 128.145 51.1809 127.356 51.1809H124.572V50.0673H127.316C127.86 50.0673 128.298 49.9877 128.629 49.8287C128.964 49.6696 129.206 49.4442 129.355 49.1525C129.507 48.8575 129.584 48.5062 129.584 48.0985C129.584 47.6909 129.507 47.3346 129.355 47.0297C129.202 46.7247 128.959 46.4894 128.624 46.3237C128.289 46.1547 127.847 46.0701 127.297 46.0701H125.129V55.1582H123.896ZM128.689 50.5843L131.194 55.1582H129.763L127.297 50.5843H128.689ZM135.812 55.3173C135.076 55.3173 134.441 55.1549 133.908 54.8301C133.377 54.502 132.968 54.0446 132.68 53.4579C132.395 52.868 132.252 52.1819 132.252 51.3997C132.252 50.6175 132.395 49.9281 132.68 49.3315C132.968 48.7316 133.369 48.2643 133.883 47.9295C134.4 47.5914 135.003 47.4224 135.692 47.4224C136.09 47.4224 136.483 47.4887 136.871 47.6213C137.258 47.7538 137.611 47.9693 137.93 48.2676C138.248 48.5626 138.501 48.9537 138.69 49.4409C138.879 49.9281 138.974 50.528 138.974 51.2406V51.7377H133.087V50.7235H137.78C137.78 50.2927 137.694 49.9082 137.522 49.5701C137.353 49.2321 137.111 48.9653 136.796 48.7697C136.485 48.5742 136.117 48.4764 135.692 48.4764C135.225 48.4764 134.821 48.5924 134.479 48.8244C134.141 49.0531 133.881 49.3514 133.699 49.7193C133.516 50.0872 133.425 50.4816 133.425 50.9025V51.5787C133.425 52.1554 133.525 52.6442 133.724 53.0453C133.926 53.443 134.206 53.7463 134.564 53.9551C134.922 54.1606 135.338 54.2633 135.812 54.2633C136.12 54.2633 136.398 54.2202 136.647 54.1341C136.899 54.0446 137.116 53.912 137.298 53.7363C137.48 53.5574 137.621 53.3353 137.721 53.0701L138.854 53.3883C138.735 53.7728 138.534 54.1109 138.253 54.4025C137.971 54.6909 137.623 54.9163 137.209 55.0787C136.794 55.2377 136.329 55.3173 135.812 55.3173ZM143.861 55.3173C143.145 55.3173 142.528 55.1483 142.011 54.8102C141.494 54.4721 141.097 54.0065 140.818 53.4132C140.54 52.8199 140.4 52.1421 140.4 51.3798C140.4 50.6042 140.543 49.9198 140.828 49.3265C141.116 48.7299 141.517 48.2643 142.031 47.9295C142.548 47.5914 143.151 47.4224 143.841 47.4224C144.378 47.4224 144.862 47.5218 145.293 47.7207C145.723 47.9196 146.076 48.198 146.351 48.5559C146.627 48.9139 146.797 49.3315 146.864 49.8088H145.69C145.601 49.4608 145.402 49.1525 145.094 48.8841C144.789 48.6123 144.378 48.4764 143.861 48.4764C143.403 48.4764 143.002 48.5957 142.658 48.8343C142.316 49.0697 142.049 49.4028 141.857 49.8336C141.668 50.2612 141.574 50.7633 141.574 51.34C141.574 51.93 141.667 52.4437 141.852 52.8812C142.041 53.3187 142.306 53.6584 142.648 53.9004C142.992 54.1423 143.397 54.2633 143.861 54.2633C144.166 54.2633 144.442 54.2103 144.691 54.1042C144.94 53.9982 145.15 53.8457 145.322 53.6468C145.495 53.448 145.617 53.2093 145.69 52.9309H146.864C146.797 53.3817 146.633 53.7877 146.371 54.149C146.113 54.5069 145.77 54.792 145.342 55.0041C144.918 55.2129 144.424 55.3173 143.861 55.3173ZM149.752 50.5645V55.1582H148.579V44.9764H149.752V48.715H149.851C150.03 48.3206 150.299 48.0074 150.657 47.7754C151.018 47.5401 151.499 47.4224 152.099 47.4224C152.619 47.4224 153.075 47.5268 153.466 47.7356C153.857 47.9411 154.16 48.2576 154.376 48.6852C154.594 49.1094 154.704 49.6497 154.704 50.3059V55.1582H153.53V50.3855C153.53 49.7789 153.373 49.31 153.058 48.9785C152.747 48.6438 152.314 48.4764 151.761 48.4764C151.376 48.4764 151.031 48.5576 150.726 48.72C150.425 48.8824 150.186 49.1194 150.011 49.4309C149.838 49.7425 149.752 50.1203 149.752 50.5645ZM160.052 55.3173C159.316 55.3173 158.681 55.1549 158.148 54.8301C157.618 54.502 157.208 54.0446 156.92 53.4579C156.635 52.868 156.492 52.1819 156.492 51.3997C156.492 50.6175 156.635 49.9281 156.92 49.3315C157.208 48.7316 157.609 48.2643 158.123 47.9295C158.64 47.5914 159.243 47.4224 159.933 47.4224C160.33 47.4224 160.723 47.4887 161.111 47.6213C161.499 47.7538 161.852 47.9693 162.17 48.2676C162.488 48.5626 162.742 48.9537 162.93 49.4409C163.119 49.9281 163.214 50.528 163.214 51.2406V51.7377H157.328V50.7235H162.021C162.021 50.2927 161.935 49.9082 161.762 49.5701C161.593 49.2321 161.351 48.9653 161.036 48.7697C160.725 48.5742 160.357 48.4764 159.933 48.4764C159.465 48.4764 159.061 48.5924 158.72 48.8244C158.381 49.0531 158.121 49.3514 157.939 49.7193C157.757 50.0872 157.666 50.4816 157.666 50.9025V51.5787C157.666 52.1554 157.765 52.6442 157.964 53.0453C158.166 53.443 158.446 53.7463 158.804 53.9551C159.162 54.1606 159.578 54.2633 160.052 54.2633C160.36 54.2633 160.639 54.2202 160.887 54.1341C161.139 54.0446 161.356 53.912 161.538 53.7363C161.721 53.5574 161.862 53.3353 161.961 53.0701L163.095 53.3883C162.975 53.7728 162.775 54.1109 162.493 54.4025C162.211 54.6909 161.863 54.9163 161.449 55.0787C161.035 55.2377 160.569 55.3173 160.052 55.3173ZM164.999 55.1582V47.5218H166.132V48.6752H166.212C166.351 48.2974 166.603 47.9908 166.967 47.7555C167.332 47.5202 167.743 47.4025 168.2 47.4025C168.287 47.4025 168.394 47.4042 168.524 47.4075C168.653 47.4108 168.751 47.4158 168.817 47.4224V48.6156C168.777 48.6056 168.686 48.5907 168.543 48.5708C168.404 48.5476 168.257 48.536 168.101 48.536C167.73 48.536 167.398 48.6139 167.107 48.7697C166.818 48.9222 166.59 49.1343 166.421 49.4061C166.255 49.6745 166.172 49.9811 166.172 50.3258V55.1582H164.999ZM173.078 55.3173C172.362 55.3173 171.745 55.1483 171.228 54.8102C170.711 54.4721 170.313 54.0065 170.035 53.4132C169.756 52.8199 169.617 52.1421 169.617 51.3798C169.617 50.6042 169.76 49.9198 170.045 49.3265C170.333 48.7299 170.734 48.2643 171.248 47.9295C171.765 47.5914 172.368 47.4224 173.058 47.4224C173.595 47.4224 174.078 47.5218 174.509 47.7207C174.94 47.9196 175.293 48.198 175.568 48.5559C175.843 48.9139 176.014 49.3315 176.08 49.8088H174.907C174.818 49.4608 174.619 49.1525 174.31 48.8841C174.006 48.6123 173.595 48.4764 173.078 48.4764C172.62 48.4764 172.219 48.5957 171.874 48.8343C171.533 49.0697 171.266 49.4028 171.074 49.8336C170.885 50.2612 170.791 50.7633 170.791 51.34C170.791 51.93 170.883 52.4437 171.069 52.8812C171.258 53.3187 171.523 53.6584 171.864 53.9004C172.209 54.1423 172.613 54.2633 173.078 54.2633C173.382 54.2633 173.659 54.2103 173.908 54.1042C174.156 53.9982 174.367 53.8457 174.539 53.6468C174.711 53.448 174.834 53.2093 174.907 52.9309H176.08C176.014 53.3817 175.85 53.7877 175.588 54.149C175.33 54.5069 174.987 54.792 174.559 55.0041C174.135 55.2129 173.641 55.3173 173.078 55.3173ZM178.969 50.5645V55.1582H177.796V44.9764H178.969V48.715H179.068C179.247 48.3206 179.516 48.0074 179.874 47.7754C180.235 47.5401 180.716 47.4224 181.315 47.4224C181.836 47.4224 182.292 47.5268 182.683 47.7356C183.074 47.9411 183.377 48.2576 183.592 48.6852C183.811 49.1094 183.921 49.6497 183.921 50.3059V55.1582H182.747V50.3855C182.747 49.7789 182.59 49.31 182.275 48.9785C181.963 48.6438 181.531 48.4764 180.977 48.4764C180.593 48.4764 180.248 48.5576 179.943 48.72C179.642 48.8824 179.403 49.1194 179.227 49.4309C179.055 49.7425 178.969 50.1203 178.969 50.5645ZM189.269 55.3173C188.533 55.3173 187.898 55.1549 187.365 54.8301C186.834 54.502 186.425 54.0446 186.137 53.4579C185.852 52.868 185.709 52.1819 185.709 51.3997C185.709 50.6175 185.852 49.9281 186.137 49.3315C186.425 48.7316 186.826 48.2643 187.34 47.9295C187.857 47.5914 188.46 47.4224 189.149 47.4224C189.547 47.4224 189.94 47.4887 190.328 47.6213C190.715 47.7538 191.068 47.9693 191.387 48.2676C191.705 48.5626 191.958 48.9537 192.147 49.4409C192.336 49.9281 192.431 50.528 192.431 51.2406V51.7377H186.544V50.7235H191.237C191.237 50.2927 191.151 49.9082 190.979 49.5701C190.81 49.2321 190.568 48.9653 190.253 48.7697C189.942 48.5742 189.574 48.4764 189.149 48.4764C188.682 48.4764 188.278 48.5924 187.936 48.8244C187.598 49.0531 187.338 49.3514 187.156 49.7193C186.974 50.0872 186.882 50.4816 186.882 50.9025V51.5787C186.882 52.1554 186.982 52.6442 187.181 53.0453C187.383 53.443 187.663 53.7463 188.021 53.9551C188.379 54.1606 188.795 54.2633 189.269 54.2633C189.577 54.2633 189.855 54.2202 190.104 54.1341C190.356 54.0446 190.573 53.912 190.755 53.7363C190.938 53.5574 191.078 53.3353 191.178 53.0701L192.311 53.3883C192.192 53.7728 191.992 54.1109 191.71 54.4025C191.428 54.6909 191.08 54.9163 190.666 55.0787C190.251 55.2377 189.786 55.3173 189.269 55.3173ZM201.036 55.3173C200.4 55.3173 199.838 55.1565 199.351 54.835C198.864 54.5102 198.483 54.0529 198.208 53.4629C197.933 52.8696 197.795 52.1686 197.795 51.3599C197.795 50.5578 197.933 49.8618 198.208 49.2718C198.483 48.6819 198.866 48.2261 199.356 47.9047C199.847 47.5832 200.413 47.4224 201.056 47.4224C201.554 47.4224 201.946 47.5053 202.235 47.671C202.526 47.8334 202.748 48.019 202.901 48.2278C203.057 48.4333 203.178 48.6023 203.264 48.7349H203.363V44.9764H204.536V55.1582H203.403V53.9849H203.264C203.178 54.1241 203.055 54.2998 202.896 54.5119C202.737 54.7207 202.51 54.908 202.215 55.0737C201.92 55.2361 201.527 55.3173 201.036 55.3173ZM201.196 54.2633C201.666 54.2633 202.064 54.1407 202.389 53.8954C202.714 53.6468 202.96 53.3038 203.13 52.8663C203.299 52.4255 203.383 51.9167 203.383 51.34C203.383 50.7699 203.3 50.2711 203.134 49.8436C202.969 49.4127 202.724 49.0779 202.399 48.8393C202.074 48.5974 201.673 48.4764 201.196 48.4764C200.698 48.4764 200.284 48.604 199.953 48.8592C199.625 49.1111 199.378 49.4541 199.212 49.8883C199.05 50.3192 198.968 50.8031 198.968 51.34C198.968 51.8836 199.051 52.3774 199.217 52.8216C199.386 53.2624 199.634 53.6137 199.963 53.8755C200.294 54.1341 200.705 54.2633 201.196 54.2633ZM210.05 55.3173C209.314 55.3173 208.679 55.1549 208.146 54.8301C207.616 54.502 207.206 54.0446 206.918 53.4579C206.633 52.868 206.49 52.1819 206.49 51.3997C206.49 50.6175 206.633 49.9281 206.918 49.3315C207.206 48.7316 207.607 48.2643 208.121 47.9295C208.638 47.5914 209.241 47.4224 209.931 47.4224C210.328 47.4224 210.721 47.4887 211.109 47.6213C211.497 47.7538 211.85 47.9693 212.168 48.2676C212.486 48.5626 212.74 48.9537 212.929 49.4409C213.117 49.9281 213.212 50.528 213.212 51.2406V51.7377H207.326V50.7235H212.019C212.019 50.2927 211.933 49.9082 211.76 49.5701C211.591 49.2321 211.349 48.9653 211.034 48.7697C210.723 48.5742 210.355 48.4764 209.931 48.4764C209.463 48.4764 209.059 48.5924 208.718 48.8244C208.38 49.0531 208.119 49.3514 207.937 49.7193C207.755 50.0872 207.664 50.4816 207.664 50.9025V51.5787C207.664 52.1554 207.763 52.6442 207.962 53.0453C208.164 53.443 208.444 53.7463 208.802 53.9551C209.16 54.1606 209.576 54.2633 210.05 54.2633C210.358 54.2633 210.637 54.2202 210.885 54.1341C211.137 54.0446 211.354 53.912 211.536 53.7363C211.719 53.5574 211.86 53.3353 211.959 53.0701L213.093 53.3883C212.973 53.7728 212.773 54.1109 212.491 54.4025C212.209 54.6909 211.861 54.9163 211.447 55.0787C211.033 55.2377 210.567 55.3173 210.05 55.3173ZM224.343 49.2321L223.289 49.5304C223.223 49.3547 223.125 49.184 222.996 49.0183C222.87 48.8493 222.698 48.71 222.479 48.6007C222.26 48.4913 221.98 48.4366 221.639 48.4366C221.171 48.4366 220.782 48.5443 220.47 48.7598C220.162 48.9719 220.008 49.242 220.008 49.5701C220.008 49.8618 220.114 50.0922 220.326 50.2612C220.538 50.4302 220.87 50.5711 221.321 50.6838L222.454 50.9622C223.137 51.1279 223.646 51.3815 223.98 51.7228C224.315 52.0609 224.483 52.4967 224.483 53.0304C224.483 53.4679 224.357 53.859 224.105 54.2037C223.856 54.5484 223.508 54.8201 223.061 55.019C222.613 55.2179 222.093 55.3173 221.5 55.3173C220.721 55.3173 220.076 55.1483 219.566 54.8102C219.055 54.4721 218.732 53.9783 218.596 53.3287L219.71 53.0502C219.816 53.4612 220.016 53.7695 220.311 53.975C220.61 54.1805 220.999 54.2832 221.48 54.2832C222.027 54.2832 222.461 54.1672 222.782 53.9352C223.107 53.6999 223.269 53.4181 223.269 53.09C223.269 52.8249 223.177 52.6028 222.991 52.4238C222.805 52.2415 222.52 52.1056 222.136 52.0162L220.863 51.7179C220.164 51.5521 219.65 51.2953 219.322 50.9473C218.997 50.5959 218.835 50.1568 218.835 49.6298C218.835 49.1989 218.956 48.8178 219.198 48.4863C219.443 48.1549 219.776 47.8947 220.197 47.7058C220.621 47.5169 221.102 47.4224 221.639 47.4224C222.394 47.4224 222.988 47.5881 223.419 47.9196C223.853 48.251 224.161 48.6885 224.343 49.2321ZM229.351 55.3173C228.662 55.3173 228.057 55.1532 227.536 54.8251C227.019 54.497 226.615 54.0379 226.323 53.448C226.035 52.858 225.891 52.1686 225.891 51.3798C225.891 50.5843 226.035 49.89 226.323 49.2967C226.615 48.7034 227.019 48.2427 227.536 47.9146C228.057 47.5865 228.662 47.4224 229.351 47.4224C230.04 47.4224 230.644 47.5865 231.161 47.9146C231.681 48.2427 232.085 48.7034 232.374 49.2967C232.665 49.89 232.811 50.5843 232.811 51.3798C232.811 52.1686 232.665 52.858 232.374 53.448C232.085 54.0379 231.681 54.497 231.161 54.8251C230.644 55.1532 230.04 55.3173 229.351 55.3173ZM229.351 54.2633C229.875 54.2633 230.305 54.1291 230.644 53.8606C230.982 53.5922 231.232 53.2392 231.394 52.8017C231.557 52.3642 231.638 51.8902 231.638 51.3798C231.638 50.8694 231.557 50.3938 231.394 49.9529C231.232 49.5121 230.982 49.1558 230.644 48.8841C230.305 48.6123 229.875 48.4764 229.351 48.4764C228.827 48.4764 228.396 48.6123 228.058 48.8841C227.72 49.1558 227.47 49.5121 227.308 49.9529C227.145 50.3938 227.064 50.8694 227.064 51.3798C227.064 51.8902 227.145 52.3642 227.308 52.8017C227.47 53.2392 227.72 53.5922 228.058 53.8606C228.396 54.1291 228.827 54.2633 229.351 54.2633ZM239.415 52.036V47.5218H240.588V55.1582H239.415V53.8656H239.335C239.156 54.2534 238.878 54.5832 238.5 54.8549C238.122 55.1234 237.645 55.2576 237.068 55.2576C236.591 55.2576 236.167 55.1532 235.795 54.9444C235.424 54.7323 235.132 54.4141 234.92 53.9899C234.708 53.5623 234.602 53.0237 234.602 52.3741V47.5218H235.775V52.2946C235.775 52.8514 235.931 53.2955 236.243 53.627C236.558 53.9584 236.959 54.1241 237.446 54.1241C237.738 54.1241 238.034 54.0495 238.336 53.9004C238.641 53.7512 238.896 53.5225 239.101 53.2143C239.31 52.9061 239.415 52.5133 239.415 52.036ZM242.737 55.1582V47.5218H243.87V48.6752H243.95C244.089 48.2974 244.341 47.9908 244.706 47.7555C245.07 47.5202 245.481 47.4025 245.939 47.4025C246.025 47.4025 246.133 47.4042 246.262 47.4075C246.391 47.4108 246.489 47.4158 246.555 47.4224V48.6156C246.515 48.6056 246.424 48.5907 246.282 48.5708C246.142 48.5476 245.995 48.536 245.839 48.536C245.468 48.536 245.137 48.6139 244.845 48.7697C244.557 48.9222 244.328 49.1343 244.159 49.4061C243.993 49.6745 243.91 49.9811 243.91 50.3258V55.1582H242.737ZM250.816 55.3173C250.1 55.3173 249.483 55.1483 248.966 54.8102C248.449 54.4721 248.052 54.0065 247.773 53.4132C247.495 52.8199 247.356 52.1421 247.356 51.3798C247.356 50.6042 247.498 49.9198 247.783 49.3265C248.071 48.7299 248.473 48.2643 248.986 47.9295C249.503 47.5914 250.107 47.4224 250.796 47.4224C251.333 47.4224 251.817 47.5218 252.248 47.7207C252.678 47.9196 253.031 48.198 253.307 48.5559C253.582 48.9139 253.752 49.3315 253.819 49.8088H252.645C252.556 49.4608 252.357 49.1525 252.049 48.8841C251.744 48.6123 251.333 48.4764 250.816 48.4764C250.358 48.4764 249.957 48.5957 249.613 48.8343C249.271 49.0697 249.004 49.4028 248.812 49.8336C248.623 50.2612 248.529 50.7633 248.529 51.34C248.529 51.93 248.622 52.4437 248.807 52.8812C248.996 53.3187 249.261 53.6584 249.603 53.9004C249.947 54.1423 250.352 54.2633 250.816 54.2633C251.121 54.2633 251.397 54.2103 251.646 54.1042C251.895 53.9982 252.105 53.8457 252.277 53.6468C252.45 53.448 252.572 53.2093 252.645 52.9309H253.819C253.752 53.3817 253.588 53.7877 253.326 54.149C253.068 54.5069 252.725 54.792 252.297 55.0041C251.873 55.2129 251.379 55.3173 250.816 55.3173ZM258.736 55.3173C258 55.3173 257.365 55.1549 256.831 54.8301C256.301 54.502 255.892 54.0446 255.603 53.4579C255.318 52.868 255.176 52.1819 255.176 51.3997C255.176 50.6175 255.318 49.9281 255.603 49.3315C255.892 48.7316 256.293 48.2643 256.807 47.9295C257.324 47.5914 257.927 47.4224 258.616 47.4224C259.014 47.4224 259.407 47.4887 259.794 47.6213C260.182 47.7538 260.535 47.9693 260.853 48.2676C261.172 48.5626 261.425 48.9537 261.614 49.4409C261.803 49.9281 261.897 50.528 261.897 51.2406V51.7377H256.011V50.7235H260.704C260.704 50.2927 260.618 49.9082 260.446 49.5701C260.277 49.2321 260.035 48.9653 259.72 48.7697C259.408 48.5742 259.04 48.4764 258.616 48.4764C258.149 48.4764 257.745 48.5924 257.403 48.8244C257.065 49.0531 256.805 49.3514 256.623 49.7193C256.44 50.0872 256.349 50.4816 256.349 50.9025V51.5787C256.349 52.1554 256.449 52.6442 256.647 53.0453C256.85 53.443 257.13 53.7463 257.488 53.9551C257.846 54.1606 258.262 54.2633 258.736 54.2633C259.044 54.2633 259.322 54.2202 259.571 54.1341C259.823 54.0446 260.04 53.912 260.222 53.7363C260.404 53.5574 260.545 53.3353 260.645 53.0701L261.778 53.3883C261.659 53.7728 261.458 54.1109 261.177 54.4025C260.895 54.6909 260.547 54.9163 260.133 55.0787C259.718 55.2377 259.253 55.3173 258.736 55.3173ZM269.091 49.2321L268.037 49.5304C267.971 49.3547 267.873 49.184 267.744 49.0183C267.618 48.8493 267.446 48.71 267.227 48.6007C267.008 48.4913 266.728 48.4366 266.387 48.4366C265.919 48.4366 265.53 48.5443 265.218 48.7598C264.91 48.9719 264.756 49.242 264.756 49.5701C264.756 49.8618 264.862 50.0922 265.074 50.2612C265.286 50.4302 265.618 50.5711 266.069 50.6838L267.202 50.9622C267.885 51.1279 268.394 51.3815 268.728 51.7228C269.063 52.0609 269.231 52.4967 269.231 53.0304C269.231 53.4679 269.105 53.859 268.853 54.2037C268.604 54.5484 268.256 54.8201 267.809 55.019C267.361 55.2179 266.841 55.3173 266.248 55.3173C265.469 55.3173 264.824 55.1483 264.314 54.8102C263.803 54.4721 263.48 53.9783 263.344 53.3287L264.458 53.0502C264.564 53.4612 264.764 53.7695 265.059 53.975C265.358 54.1805 265.747 54.2832 266.228 54.2832C266.775 54.2832 267.209 54.1672 267.53 53.9352C267.855 53.6999 268.017 53.4181 268.017 53.09C268.017 52.8249 267.925 52.6028 267.739 52.4238C267.553 52.2415 267.268 52.1056 266.884 52.0162L265.611 51.7179C264.912 51.5521 264.398 51.2953 264.07 50.9473C263.745 50.5959 263.583 50.1568 263.583 49.6298C263.583 49.1989 263.704 48.8178 263.946 48.4863C264.191 48.1549 264.524 47.8947 264.945 47.7058C265.369 47.5169 265.85 47.4224 266.387 47.4224C267.142 47.4224 267.736 47.5881 268.167 47.9196C268.601 48.251 268.909 48.6885 269.091 49.2321ZM123.737 75.0218V64.5218H124.87V65.7349H125.01C125.096 65.6023 125.215 65.4333 125.368 65.2278C125.523 65.019 125.745 64.8334 126.034 64.671C126.325 64.5053 126.72 64.4224 127.217 64.4224C127.86 64.4224 128.427 64.5832 128.917 64.9047C129.408 65.2261 129.791 65.6819 130.066 66.2718C130.341 66.8618 130.478 67.5578 130.478 68.3599C130.478 69.1686 130.341 69.8696 130.066 70.4629C129.791 71.0529 129.41 71.5102 128.922 71.835C128.435 72.1565 127.873 72.3173 127.237 72.3173C126.746 72.3173 126.354 72.2361 126.059 72.0737C125.764 71.908 125.537 71.7207 125.378 71.5119C125.218 71.2998 125.096 71.1241 125.01 70.9849H124.91V75.0218H123.737ZM124.89 68.34C124.89 68.9167 124.975 69.4255 125.144 69.8663C125.313 70.3038 125.56 70.6468 125.885 70.8954C126.209 71.1407 126.607 71.2633 127.078 71.2633C127.568 71.2633 127.978 71.1341 128.306 70.8755C128.637 70.6137 128.886 70.2624 129.052 69.8216C129.221 69.3774 129.305 68.8836 129.305 68.34C129.305 67.8031 129.222 67.3192 129.057 66.8883C128.894 66.4541 128.647 66.1111 128.316 65.8592C127.988 65.604 127.575 65.4764 127.078 65.4764C126.601 65.4764 126.2 65.5974 125.875 65.8393C125.55 66.0779 125.305 66.4127 125.139 66.8436C124.973 67.2711 124.89 67.7699 124.89 68.34ZM135.47 72.3173C134.734 72.3173 134.099 72.1549 133.566 71.8301C133.035 71.502 132.626 71.0446 132.338 70.4579C132.053 69.868 131.91 69.1819 131.91 68.3997C131.91 67.6175 132.053 66.9281 132.338 66.3315C132.626 65.7316 133.027 65.2643 133.541 64.9295C134.058 64.5914 134.661 64.4224 135.351 64.4224C135.748 64.4224 136.141 64.4887 136.529 64.6213C136.917 64.7538 137.27 64.9693 137.588 65.2676C137.906 65.5626 138.16 65.9537 138.348 66.4409C138.537 66.9281 138.632 67.528 138.632 68.2406V68.7377H132.745V67.7235H137.439C137.439 67.2927 137.352 66.9082 137.18 66.5701C137.011 66.2321 136.769 65.9653 136.454 65.7697C136.143 65.5742 135.775 65.4764 135.351 65.4764C134.883 65.4764 134.479 65.5924 134.138 65.8244C133.799 66.0531 133.539 66.3514 133.357 66.7193C133.175 67.0872 133.084 67.4816 133.084 67.9025V68.5787C133.084 69.1554 133.183 69.6442 133.382 70.0453C133.584 70.443 133.864 70.7463 134.222 70.9551C134.58 71.1606 134.996 71.2633 135.47 71.2633C135.778 71.2633 136.057 71.2202 136.305 71.1341C136.557 71.0446 136.774 70.912 136.956 70.7363C137.139 70.5574 137.28 70.3353 137.379 70.0701L138.513 70.3883C138.393 70.7728 138.193 71.1109 137.911 71.4025C137.629 71.6909 137.281 71.9163 136.867 72.0787C136.453 72.2377 135.987 72.3173 135.47 72.3173ZM140.417 72.1582V64.5218H141.55V65.6752H141.63C141.769 65.2974 142.021 64.9908 142.385 64.7555C142.75 64.5202 143.161 64.4025 143.618 64.4025C143.705 64.4025 143.812 64.4042 143.941 64.4075C144.071 64.4108 144.169 64.4158 144.235 64.4224V65.6156C144.195 65.6056 144.104 65.5907 143.961 65.5708C143.822 65.5476 143.675 65.536 143.519 65.536C143.148 65.536 142.816 65.6139 142.525 65.7697C142.236 65.9222 142.008 66.1343 141.839 66.4061C141.673 66.6745 141.59 66.9811 141.59 67.3258V72.1582H140.417ZM149.425 64.5218V65.5162H145.468V64.5218H149.425ZM146.621 62.6923H147.794V69.9707C147.794 70.3021 147.843 70.5507 147.939 70.7164C148.038 70.8788 148.164 70.9882 148.316 71.0446C148.472 71.0976 148.636 71.1241 148.809 71.1241C148.938 71.1241 149.044 71.1175 149.127 71.1042C149.21 71.0877 149.276 71.0744 149.326 71.0645L149.564 72.1184C149.485 72.1483 149.374 72.1781 149.231 72.2079C149.089 72.2411 148.908 72.2576 148.689 72.2576C148.358 72.2576 148.033 72.1864 147.715 72.0439C147.4 71.9013 147.138 71.6842 146.929 71.3926C146.724 71.1009 146.621 70.733 146.621 70.2889V62.6923ZM151.19 72.1582V64.5218H152.363V72.1582H151.19ZM151.787 63.2491C151.558 63.2491 151.361 63.1712 151.195 63.0154C151.033 62.8597 150.951 62.6724 150.951 62.4537C150.951 62.2349 151.033 62.0476 151.195 61.8919C151.361 61.7361 151.558 61.6582 151.787 61.6582C152.015 61.6582 152.211 61.7361 152.373 61.8919C152.539 62.0476 152.622 62.2349 152.622 62.4537C152.622 62.6724 152.539 62.8597 152.373 63.0154C152.211 63.1712 152.015 63.2491 151.787 63.2491ZM155.686 67.5645V72.1582H154.512V64.5218H155.646V65.715H155.745C155.924 65.3272 156.196 65.0157 156.561 64.7804C156.925 64.5417 157.396 64.4224 157.973 64.4224C158.49 64.4224 158.942 64.5285 159.33 64.7406C159.718 64.9494 160.019 65.2676 160.235 65.6951C160.45 66.1194 160.558 66.6563 160.558 67.3059V72.1582H159.384V67.3855C159.384 66.7856 159.229 66.3182 158.917 65.9835C158.606 65.6454 158.178 65.4764 157.634 65.4764C157.26 65.4764 156.925 65.5576 156.63 65.72C156.339 65.8824 156.108 66.1194 155.939 66.4309C155.77 66.7425 155.686 67.1203 155.686 67.5645ZM165.903 72.3173C165.168 72.3173 164.533 72.1549 163.999 71.8301C163.469 71.502 163.06 71.0446 162.771 70.4579C162.486 69.868 162.344 69.1819 162.344 68.3997C162.344 67.6175 162.486 66.9281 162.771 66.3315C163.06 65.7316 163.461 65.2643 163.975 64.9295C164.492 64.5914 165.095 64.4224 165.784 64.4224C166.182 64.4224 166.575 64.4887 166.962 64.6213C167.35 64.7538 167.703 64.9693 168.021 65.2676C168.34 65.5626 168.593 65.9537 168.782 66.4409C168.971 66.9281 169.065 67.528 169.065 68.2406V68.7377H163.179V67.7235H167.872C167.872 67.2927 167.786 66.9082 167.614 66.5701C167.445 66.2321 167.203 65.9653 166.888 65.7697C166.576 65.5742 166.208 65.4764 165.784 65.4764C165.317 65.4764 164.912 65.5924 164.571 65.8244C164.233 66.0531 163.973 66.3514 163.791 66.7193C163.608 67.0872 163.517 67.4816 163.517 67.9025V68.5787C163.517 69.1554 163.617 69.6442 163.815 70.0453C164.018 70.443 164.298 70.7463 164.656 70.9551C165.014 71.1606 165.43 71.2633 165.903 71.2633C166.212 71.2633 166.49 71.2202 166.739 71.1341C166.991 71.0446 167.208 70.912 167.39 70.7363C167.572 70.5574 167.713 70.3353 167.813 70.0701L168.946 70.3883C168.827 70.7728 168.626 71.1109 168.345 71.4025C168.063 71.6909 167.715 71.9163 167.301 72.0787C166.886 72.2377 166.421 72.3173 165.903 72.3173ZM172.024 67.5645V72.1582H170.85V64.5218H171.984V65.715H172.083C172.262 65.3272 172.534 65.0157 172.899 64.7804C173.263 64.5417 173.734 64.4224 174.31 64.4224C174.828 64.4224 175.28 64.5285 175.668 64.7406C176.055 64.9494 176.357 65.2676 176.573 65.6951C176.788 66.1194 176.896 66.6563 176.896 67.3059V72.1582H175.722V67.3855C175.722 66.7856 175.567 66.3182 175.255 65.9835C174.944 65.6454 174.516 65.4764 173.972 65.4764C173.598 65.4764 173.263 65.5576 172.968 65.72C172.676 65.8824 172.446 66.1194 172.277 66.4309C172.108 66.7425 172.024 67.1203 172.024 67.5645ZM182.361 64.5218V65.5162H178.403V64.5218H182.361ZM179.557 62.6923H180.73V69.9707C180.73 70.3021 180.778 70.5507 180.874 70.7164C180.974 70.8788 181.1 70.9882 181.252 71.0446C181.408 71.0976 181.572 71.1241 181.744 71.1241C181.873 71.1241 181.98 71.1175 182.062 71.1042C182.145 71.0877 182.212 71.0744 182.261 71.0645L182.5 72.1184C182.42 72.1483 182.309 72.1781 182.167 72.2079C182.024 72.2411 181.844 72.2576 181.625 72.2576C181.293 72.2576 180.969 72.1864 180.65 72.0439C180.336 71.9013 180.074 71.6842 179.865 71.3926C179.659 71.1009 179.557 70.733 179.557 70.2889V62.6923ZM187.245 72.3173C186.509 72.3173 185.875 72.1549 185.341 71.8301C184.811 71.502 184.402 71.0446 184.113 70.4579C183.828 69.868 183.686 69.1819 183.686 68.3997C183.686 67.6175 183.828 66.9281 184.113 66.3315C184.402 65.7316 184.803 65.2643 185.316 64.9295C185.833 64.5914 186.437 64.4224 187.126 64.4224C187.524 64.4224 187.916 64.4887 188.304 64.6213C188.692 64.7538 189.045 64.9693 189.363 65.2676C189.681 65.5626 189.935 65.9537 190.124 66.4409C190.313 66.9281 190.407 67.528 190.407 68.2406V68.7377H184.521V67.7235H189.214C189.214 67.2927 189.128 66.9082 188.956 66.5701C188.786 66.2321 188.545 65.9653 188.23 65.7697C187.918 65.5742 187.55 65.4764 187.126 65.4764C186.659 65.4764 186.254 65.5924 185.913 65.8244C185.575 66.0531 185.315 66.3514 185.132 66.7193C184.95 67.0872 184.859 67.4816 184.859 67.9025V68.5787C184.859 69.1554 184.958 69.6442 185.157 70.0453C185.359 70.443 185.639 70.7463 185.997 70.9551C186.355 71.1606 186.771 71.2633 187.245 71.2633C187.554 71.2633 187.832 71.2202 188.081 71.1341C188.332 71.0446 188.55 70.912 188.732 70.7363C188.914 70.5574 189.055 70.3353 189.154 70.0701L190.288 70.3883C190.169 70.7728 189.968 71.1109 189.686 71.4025C189.405 71.6909 189.057 71.9163 188.642 72.0787C188.228 72.2377 187.762 72.3173 187.245 72.3173ZM197.601 66.2321L196.547 66.5304C196.481 66.3547 196.383 66.184 196.254 66.0183C196.128 65.8493 195.956 65.71 195.737 65.6007C195.518 65.4913 195.238 65.4366 194.897 65.4366C194.429 65.4366 194.04 65.5443 193.728 65.7598C193.42 65.9719 193.266 66.242 193.266 66.5701C193.266 66.8618 193.372 67.0922 193.584 67.2612C193.796 67.4302 194.128 67.5711 194.578 67.6838L195.712 67.9622C196.395 68.1279 196.903 68.3815 197.238 68.7228C197.573 69.0609 197.74 69.4967 197.74 70.0304C197.74 70.4679 197.614 70.859 197.362 71.2037C197.114 71.5484 196.766 71.8201 196.318 72.019C195.871 72.2179 195.351 72.3173 194.757 72.3173C193.978 72.3173 193.334 72.1483 192.823 71.8102C192.313 71.4721 191.99 70.9783 191.854 70.3287L192.968 70.0502C193.074 70.4612 193.274 70.7695 193.569 70.975C193.867 71.1805 194.257 71.2832 194.737 71.2832C195.284 71.2832 195.719 71.1672 196.04 70.9352C196.365 70.6999 196.527 70.4181 196.527 70.09C196.527 69.8249 196.434 69.6028 196.249 69.4238C196.063 69.2415 195.778 69.1056 195.394 69.0162L194.121 68.7179C193.422 68.5521 192.908 68.2953 192.58 67.9473C192.255 67.5959 192.093 67.1568 192.093 66.6298C192.093 66.1989 192.214 65.8178 192.456 65.4863C192.701 65.1549 193.034 64.8947 193.455 64.7058C193.879 64.5169 194.36 64.4224 194.897 64.4224C195.652 64.4224 196.246 64.5881 196.676 64.9196C197.111 65.251 197.419 65.6885 197.601 66.2321ZM206.646 72.3173C205.91 72.3173 205.275 72.1549 204.742 71.8301C204.211 71.502 203.802 71.0446 203.514 70.4579C203.229 69.868 203.086 69.1819 203.086 68.3997C203.086 67.6175 203.229 66.9281 203.514 66.3315C203.802 65.7316 204.203 65.2643 204.717 64.9295C205.234 64.5914 205.837 64.4224 206.526 64.4224C206.924 64.4224 207.317 64.4887 207.705 64.6213C208.092 64.7538 208.445 64.9693 208.764 65.2676C209.082 65.5626 209.335 65.9537 209.524 66.4409C209.713 66.9281 209.808 67.528 209.808 68.2406V68.7377H203.921V67.7235H208.614C208.614 67.2927 208.528 66.9082 208.356 66.5701C208.187 66.2321 207.945 65.9653 207.63 65.7697C207.319 65.5742 206.951 65.4764 206.526 65.4764C206.059 65.4764 205.655 65.5924 205.313 65.8244C204.975 66.0531 204.715 66.3514 204.533 66.7193C204.35 67.0872 204.259 67.4816 204.259 67.9025V68.5787C204.259 69.1554 204.359 69.6442 204.558 70.0453C204.76 70.443 205.04 70.7463 205.398 70.9551C205.756 71.1606 206.172 71.2633 206.646 71.2633C206.954 71.2633 207.232 71.2202 207.481 71.1341C207.733 71.0446 207.95 70.912 208.132 70.7363C208.314 70.5574 208.455 70.3353 208.555 70.0701L209.688 70.3883C209.569 70.7728 209.368 71.1109 209.087 71.4025C208.805 71.6909 208.457 71.9163 208.043 72.0787C207.628 72.2377 207.163 72.3173 206.646 72.3173ZM214.913 64.5218V65.5162H210.956V64.5218H214.913ZM212.109 62.6923H213.283V69.9707C213.283 70.3021 213.331 70.5507 213.427 70.7164C213.526 70.8788 213.652 70.9882 213.805 71.0446C213.961 71.0976 214.125 71.1241 214.297 71.1241C214.426 71.1241 214.532 71.1175 214.615 71.1042C214.698 71.0877 214.764 71.0744 214.814 71.0645L215.053 72.1184C214.973 72.1483 214.862 72.1781 214.72 72.2079C214.577 72.2411 214.396 72.2576 214.178 72.2576C213.846 72.2576 213.521 72.1864 213.203 72.0439C212.888 71.9013 212.627 71.6842 212.418 71.3926C212.212 71.1009 212.109 70.733 212.109 70.2889V62.6923ZM223.499 72.3173C222.863 72.3173 222.301 72.1565 221.814 71.835C221.327 71.5102 220.946 71.0529 220.671 70.4629C220.395 69.8696 220.258 69.1686 220.258 68.3599C220.258 67.5578 220.395 66.8618 220.671 66.2718C220.946 65.6819 221.328 65.2261 221.819 64.9047C222.31 64.5832 222.876 64.4224 223.519 64.4224C224.016 64.4224 224.409 64.5053 224.698 64.671C224.989 64.8334 225.211 65.019 225.364 65.2278C225.52 65.4333 225.64 65.6023 225.727 65.7349H225.826V61.9764H226.999V72.1582H225.866V70.9849H225.727C225.64 71.1241 225.518 71.2998 225.359 71.5119C225.2 71.7207 224.973 71.908 224.678 72.0737C224.383 72.2361 223.99 72.3173 223.499 72.3173ZM223.658 71.2633C224.129 71.2633 224.527 71.1407 224.852 70.8954C225.176 70.6468 225.423 70.3038 225.592 69.8663C225.761 69.4255 225.846 68.9167 225.846 68.34C225.846 67.7699 225.763 67.2711 225.597 66.8436C225.432 66.4127 225.186 66.0779 224.862 65.8393C224.537 65.5974 224.136 65.4764 223.658 65.4764C223.161 65.4764 222.747 65.604 222.416 65.8592C222.087 66.1111 221.841 66.4541 221.675 66.8883C221.512 67.3192 221.431 67.8031 221.431 68.34C221.431 68.8836 221.514 69.3774 221.68 69.8216C221.849 70.2624 222.097 70.6137 222.426 70.8755C222.757 71.1341 223.168 71.2633 223.658 71.2633ZM232.513 72.3173C231.777 72.3173 231.142 72.1549 230.609 71.8301C230.078 71.502 229.669 71.0446 229.381 70.4579C229.096 69.868 228.953 69.1819 228.953 68.3997C228.953 67.6175 229.096 66.9281 229.381 66.3315C229.669 65.7316 230.07 65.2643 230.584 64.9295C231.101 64.5914 231.704 64.4224 232.394 64.4224C232.791 64.4224 233.184 64.4887 233.572 64.6213C233.96 64.7538 234.313 64.9693 234.631 65.2676C234.949 65.5626 235.203 65.9537 235.391 66.4409C235.58 66.9281 235.675 67.528 235.675 68.2406V68.7377H229.788V67.7235H234.482C234.482 67.2927 234.395 66.9082 234.223 66.5701C234.054 66.2321 233.812 65.9653 233.497 65.7697C233.186 65.5742 232.818 65.4764 232.394 65.4764C231.926 65.4764 231.522 65.5924 231.18 65.8244C230.842 66.0531 230.582 66.3514 230.4 66.7193C230.218 67.0872 230.127 67.4816 230.127 67.9025V68.5787C230.127 69.1554 230.226 69.6442 230.425 70.0453C230.627 70.443 230.907 70.7463 231.265 70.9551C231.623 71.1606 232.039 71.2633 232.513 71.2633C232.821 71.2633 233.1 71.2202 233.348 71.1341C233.6 71.0446 233.817 70.912 233.999 70.7363C234.182 70.5574 234.323 70.3353 234.422 70.0701L235.555 70.3883C235.436 70.7728 235.236 71.1109 234.954 71.4025C234.672 71.6909 234.324 71.9163 233.91 72.0787C233.496 72.2377 233.03 72.3173 232.513 72.3173ZM246.607 75.0218V70.9849H246.508C246.422 71.1241 246.299 71.2998 246.14 71.5119C245.981 71.7207 245.754 71.908 245.459 72.0737C245.164 72.2361 244.771 72.3173 244.281 72.3173C243.644 72.3173 243.082 72.1565 242.595 71.835C242.108 71.5102 241.727 71.0529 241.452 70.4629C241.177 69.8696 241.039 69.1686 241.039 68.3599C241.039 67.5578 241.177 66.8618 241.452 66.2718C241.727 65.6819 242.11 65.2261 242.6 64.9047C243.091 64.5832 243.658 64.4224 244.301 64.4224C244.798 64.4224 245.19 64.5053 245.479 64.671C245.77 64.8334 245.993 65.019 246.145 65.2278C246.301 65.4333 246.422 65.6023 246.508 65.7349H246.647V64.5218H247.781V75.0218H246.607ZM244.44 71.2633C244.91 71.2633 245.308 71.1407 245.633 70.8954C245.958 70.6468 246.205 70.3038 246.374 69.8663C246.543 69.4255 246.627 68.9167 246.627 68.34C246.627 67.7699 246.544 67.2711 246.379 66.8436C246.213 66.4127 245.968 66.0779 245.643 65.8393C245.318 65.5974 244.917 65.4764 244.44 65.4764C243.943 65.4764 243.528 65.604 243.197 65.8592C242.869 66.1111 242.622 66.4541 242.456 66.8883C242.294 67.3192 242.212 67.8031 242.212 68.34C242.212 68.8836 242.295 69.3774 242.461 69.8216C242.63 70.2624 242.879 70.6137 243.207 70.8755C243.538 71.1341 243.949 71.2633 244.44 71.2633ZM254.741 69.036V64.5218H255.914V72.1582H254.741V70.8656H254.661C254.482 71.2534 254.204 71.5832 253.826 71.8549C253.448 72.1234 252.971 72.2576 252.394 72.2576C251.917 72.2576 251.493 72.1532 251.122 71.9444C250.75 71.7323 250.459 71.4141 250.247 70.9899C250.034 70.5623 249.928 70.0237 249.928 69.3741V64.5218H251.102V69.2946C251.102 69.8514 251.257 70.2955 251.569 70.627C251.884 70.9584 252.285 71.1241 252.772 71.1241C253.064 71.1241 253.36 71.0495 253.662 70.9004C253.967 70.7512 254.222 70.5225 254.428 70.2143C254.636 69.9061 254.741 69.5133 254.741 69.036ZM260.31 72.3372C259.826 72.3372 259.387 72.246 258.993 72.0637C258.598 71.8781 258.285 71.6113 258.053 71.2633C257.821 70.912 257.705 70.4877 257.705 69.9906C257.705 69.5531 257.791 69.1984 257.964 68.9267C258.136 68.6516 258.366 68.4361 258.655 68.2804C258.943 68.1246 259.261 68.0086 259.609 67.9324C259.961 67.8528 260.314 67.7898 260.668 67.7434C261.132 67.6838 261.508 67.639 261.797 67.6092C262.088 67.5761 262.301 67.5214 262.433 67.4451C262.569 67.3689 262.637 67.2363 262.637 67.0474V67.0076C262.637 66.5171 262.503 66.1359 262.234 65.8642C261.969 65.5924 261.566 65.4565 261.026 65.4565C260.466 65.4565 260.027 65.5791 259.709 65.8244C259.391 66.0697 259.167 66.3315 259.038 66.6099L257.924 66.2122C258.123 65.7482 258.388 65.3869 258.719 65.1284C259.054 64.8665 259.419 64.6842 259.813 64.5815C260.211 64.4754 260.602 64.4224 260.986 64.4224C261.232 64.4224 261.513 64.4522 261.832 64.5119C262.153 64.5682 262.463 64.6859 262.761 64.8649C263.063 65.0439 263.313 65.314 263.512 65.6752C263.711 66.0365 263.81 66.5204 263.81 67.127V72.1582H262.637V71.1241H262.577C262.498 71.2898 262.365 71.4672 262.18 71.6561C261.994 71.845 261.747 72.0057 261.439 72.1383C261.131 72.2709 260.754 72.3372 260.31 72.3372ZM260.489 71.2832C260.953 71.2832 261.344 71.1921 261.663 71.0098C261.984 70.8275 262.226 70.5922 262.388 70.3038C262.554 70.0154 262.637 69.7122 262.637 69.394V68.3201C262.587 68.3798 262.478 68.4345 262.309 68.4842C262.143 68.5306 261.951 68.572 261.732 68.6085C261.517 68.6416 261.306 68.6715 261.101 68.698C260.899 68.7212 260.735 68.7411 260.609 68.7576C260.304 68.7974 260.019 68.862 259.753 68.9515C259.492 69.0377 259.28 69.1686 259.117 69.3443C258.958 69.5166 258.878 69.752 258.878 70.0502C258.878 70.4579 259.029 70.7662 259.331 70.975C259.636 71.1805 260.022 71.2832 260.489 71.2832ZM267.125 61.9764V72.1582H265.952V61.9764H267.125ZM269.274 72.1582V64.5218H270.447V72.1582H269.274ZM269.871 63.2491C269.642 63.2491 269.445 63.1712 269.279 63.0154C269.117 62.8597 269.035 62.6724 269.035 62.4537C269.035 62.2349 269.117 62.0476 269.279 61.8919C269.445 61.7361 269.642 61.6582 269.871 61.6582C270.099 61.6582 270.295 61.7361 270.457 61.8919C270.623 62.0476 270.706 62.2349 270.706 62.4537C270.706 62.6724 270.623 62.8597 270.457 63.0154C270.295 63.1712 270.099 63.2491 269.871 63.2491ZM275.917 64.5218V65.5162H271.96V64.5218H275.917ZM273.113 62.6923H274.287V69.9707C274.287 70.3021 274.335 70.5507 274.431 70.7164C274.53 70.8788 274.656 70.9882 274.809 71.0446C274.964 71.0976 275.129 71.1241 275.301 71.1241C275.43 71.1241 275.536 71.1175 275.619 71.1042C275.702 71.0877 275.768 71.0744 275.818 71.0645L276.057 72.1184C275.977 72.1483 275.866 72.1781 275.723 72.2079C275.581 72.2411 275.4 72.2576 275.182 72.2576C274.85 72.2576 274.525 72.1864 274.207 72.0439C273.892 71.9013 273.63 71.6842 273.422 71.3926C273.216 71.1009 273.113 70.733 273.113 70.2889V62.6923ZM280.802 72.3173C280.066 72.3173 279.431 72.1549 278.898 71.8301C278.368 71.502 277.958 71.0446 277.67 70.4579C277.385 69.868 277.242 69.1819 277.242 68.3997C277.242 67.6175 277.385 66.9281 277.67 66.3315C277.958 65.7316 278.359 65.2643 278.873 64.9295C279.39 64.5914 279.993 64.4224 280.683 64.4224C281.08 64.4224 281.473 64.4887 281.861 64.6213C282.249 64.7538 282.602 64.9693 282.92 65.2676C283.238 65.5626 283.492 65.9537 283.68 66.4409C283.869 66.9281 283.964 67.528 283.964 68.2406V68.7377H278.078V67.7235H282.771C282.771 67.2927 282.685 66.9082 282.512 66.5701C282.343 66.2321 282.101 65.9653 281.786 65.7697C281.475 65.5742 281.107 65.4764 280.683 65.4764C280.215 65.4764 279.811 65.5924 279.47 65.8244C279.131 66.0531 278.871 66.3514 278.689 66.7193C278.507 67.0872 278.416 67.4816 278.416 67.9025V68.5787C278.416 69.1554 278.515 69.6442 278.714 70.0453C278.916 70.443 279.196 70.7463 279.554 70.9551C279.912 71.1606 280.328 71.2633 280.802 71.2633C281.11 71.2633 281.389 71.2202 281.637 71.1341C281.889 71.0446 282.106 70.912 282.288 70.7363C282.471 70.5574 282.612 70.3353 282.711 70.0701L283.845 70.3883C283.725 70.7728 283.525 71.1109 283.243 71.4025C282.961 71.6909 282.613 71.9163 282.199 72.0787C281.785 72.2377 281.319 72.3173 280.802 72.3173ZM280.086 63.4877L281.299 61.1809H282.671L281.12 63.4877H280.086Z" fill="black"/>
</g>
<path d="M12.185 27.6358L10.8236 27.7168C13.6909 39.3355 19.9289 52.0058 32.9627 59.2675C45.8774 66.4628 65.0691 68.1078 93.5544 58.8571L92.8912 57.3307L92.2281 55.8044C63.9502 64.9877 45.5813 63.1005 33.7299 56.4976C21.9977 49.961 16.2641 38.5668 13.5465 27.5549L12.185 27.6358Z" fill="black"/>
<path d="M66.8895 50.303C66.3532 50.1712 65.9341 50.5118 65.9535 51.0638C65.9728 51.6157 66.4233 52.17 66.9596 52.3018L66.9246 51.3024L66.8895 50.303ZM95.3537 55.5961L94.7656 54.6418L95.3537 55.5961ZM89.4573 66.7187L88.5185 66.1978L89.4573 66.7187ZM90.9418 79.7973L91.7978 79.5702L91.7911 79.5562L90.9418 79.7973ZM90.0857 80.0268C90.3397 80.5802 90.9289 80.9273 91.4016 80.802C91.8744 80.6766 92.0516 80.1264 91.7976 79.5729L90.9416 79.7999L90.0857 80.0268ZM66.9246 51.3024L66.9596 52.3018C70.9881 53.2916 77.4041 54.7219 83.1788 55.7295C86.0644 56.233 88.808 56.6342 91.0201 56.8202C92.1253 56.9131 93.1152 56.9538 93.9318 56.9232C94.7239 56.8935 95.4449 56.795 95.9418 56.5505L95.3537 55.5961L94.7656 54.6418C94.548 54.7489 94.0955 54.8415 93.3496 54.8694C92.6282 54.8964 91.7157 54.8612 90.6486 54.7715C88.516 54.5922 85.8354 54.2017 82.9739 53.7024C77.2545 52.7045 70.8849 51.2847 66.8895 50.303L66.9246 51.3024ZM95.3537 55.5961L95.9418 56.5505C96.0825 56.4812 96.1265 56.4745 96.1046 56.4784C96.1011 56.479 95.9941 56.5011 95.8274 56.4573C95.6165 56.4017 95.2744 56.2208 95.055 55.8215C94.8867 55.5152 94.9055 55.2753 94.9091 55.2315C94.9148 55.1614 94.9289 55.1276 94.9239 55.1422C94.9151 55.1677 94.8845 55.2381 94.812 55.3655C94.5176 55.8829 93.8843 56.749 93.0723 57.8986C91.5026 60.1208 89.3397 63.2998 88.5185 66.1978L89.4573 66.7187L90.3961 67.2396C91.1342 64.6347 93.1399 61.6517 94.7388 59.3881C95.5111 58.2948 96.212 57.3369 96.5508 56.7413C96.6365 56.5905 96.7204 56.4271 96.7752 56.2677C96.802 56.1899 96.8351 56.0759 96.8463 55.9385C96.8553 55.8273 96.866 55.5328 96.6751 55.1854C96.4332 54.745 96.054 54.5363 95.7906 54.4669C95.5715 54.4093 95.3967 54.4316 95.309 54.4469C95.1191 54.4801 94.93 54.5609 94.7656 54.6418L95.3537 55.5961ZM89.4573 66.7187L88.5185 66.1978C86.7987 72.2672 89.1886 78.126 90.0924 80.0384L90.9418 79.7973L91.7911 79.5562C90.9951 77.8719 88.8646 72.6443 90.3961 67.2396L89.4573 66.7187ZM90.9418 79.7973L90.0858 80.0243C90.1358 80.1332 90.1663 80.1996 90.1823 80.2345C90.1863 80.2433 90.1893 80.2498 90.1914 80.2544C90.1924 80.2567 90.1932 80.2583 90.1937 80.2594C90.1943 80.2608 90.1942 80.2605 90.1937 80.2594C90.1936 80.2591 90.1925 80.2567 90.191 80.2535C90.1906 80.2526 90.1898 80.2506 90.1893 80.2495C90.1886 80.248 90.187 80.2444 90.1861 80.2424C90.1848 80.2393 90.1813 80.2312 90.1792 80.2262C90.1752 80.2166 90.1616 80.182 90.1524 80.1569C90.0959 79.9387 90.7535 79.0144 91.8153 79.6415C91.8442 79.6887 91.8783 79.7504 91.8853 79.7641C91.8886 79.7706 91.8937 79.7808 91.8955 79.7845C91.8967 79.787 91.8987 79.7911 91.8995 79.7928C91.9012 79.7963 91.9024 79.7989 91.9029 79.8C91.9036 79.8013 91.9041 79.8024 91.9043 79.803C91.9052 79.8048 91.9056 79.8058 91.9051 79.8046C91.9048 79.8039 91.9042 79.8027 91.9034 79.8009C91.8963 79.7857 91.8797 79.7496 91.8577 79.702C91.836 79.6548 91.8097 79.5976 91.7835 79.5408C91.7574 79.4842 91.7315 79.4279 91.7108 79.3829C91.7004 79.3604 91.6913 79.3406 91.684 79.3248C91.6804 79.3169 91.6771 79.31 91.6744 79.3041C91.6718 79.2984 91.6694 79.2931 91.6674 79.2889C91.6666 79.2871 91.6651 79.284 91.6636 79.2807C91.6631 79.2797 91.6625 79.2784 91.6618 79.2769C91.6611 79.2755 91.66 79.2731 91.6585 79.2701C91.6579 79.2687 91.6563 79.2654 91.6554 79.2636C91.6541 79.261 91.6511 79.2547 91.6492 79.2509C91.6461 79.2448 91.6369 79.2268 91.6307 79.2151C91.6131 79.1831 91.3314 78.8271 90.9969 78.5974C90.0849 78.6549 89.9025 79.609 89.9202 79.6586C89.9261 79.6737 89.9351 79.696 89.9381 79.7034C89.94 79.7077 89.943 79.7148 89.9442 79.7177C89.9451 79.7197 89.9467 79.7232 89.9473 79.7248C89.9488 79.728 89.9499 79.7306 89.9506 79.732C89.9513 79.7336 89.9519 79.735 89.9523 79.7359C89.9539 79.7394 89.9553 79.7426 89.9563 79.7446C89.9583 79.7491 89.961 79.7551 89.9642 79.7621C89.9675 79.7693 89.9716 79.7782 89.9766 79.7891C89.9964 79.8324 90.0312 79.9082 90.0857 80.0268L90.9416 79.7999L91.7976 79.5729C91.7431 79.4543 91.7087 79.3794 91.6894 79.3371C91.6845 79.3265 91.6807 79.3181 91.6778 79.3117C91.6747 79.3051 91.673 79.3012 91.6721 79.2993C91.6715 79.298 91.6719 79.2989 91.6727 79.3008C91.673 79.3013 91.6735 79.3024 91.674 79.3037C91.6746 79.3048 91.6756 79.3071 91.6769 79.3102C91.6776 79.3116 91.6791 79.3151 91.6799 79.317C91.6811 79.3198 91.6842 79.3269 91.686 79.3312C91.689 79.3384 91.698 79.3608 91.7038 79.3758C91.7215 79.4254 91.5391 80.3795 90.6271 80.437C90.2926 80.2073 90.0109 79.8513 89.9934 79.8194C89.9872 79.8076 89.978 79.7897 89.975 79.7836C89.9731 79.7799 89.97 79.7736 89.9688 79.7712C89.968 79.7694 89.9664 79.7662 89.9658 79.7649C89.9645 79.7621 89.9634 79.7598 89.9629 79.7588C89.9623 79.7575 89.9619 79.7566 89.9616 79.756C89.9607 79.7542 89.9603 79.7533 89.9608 79.7544C89.9616 79.756 89.9631 79.7593 89.9656 79.7646C89.9679 79.7697 89.9709 79.7761 89.9744 79.7837C89.9814 79.7988 89.9903 79.8182 90.0006 79.8405C90.0212 79.8852 90.0469 79.9411 90.073 79.9978C90.0991 80.0545 90.1256 80.1119 90.1474 80.1593C90.169 80.2061 90.1867 80.2446 90.1949 80.2623C90.196 80.2647 90.1971 80.267 90.1981 80.2691C90.1988 80.2707 90.2002 80.2738 90.2018 80.277C90.2022 80.2779 90.2028 80.2793 90.2036 80.2809C90.2042 80.2822 90.2056 80.2851 90.2073 80.2887C90.2081 80.2904 90.2102 80.2947 90.2114 80.2972C90.2133 80.301 90.2184 80.3113 90.2216 80.3177C90.2287 80.3314 90.2628 80.3932 90.2917 80.4404C91.3535 81.0675 92.0111 80.1432 91.9546 79.925C91.9454 79.8999 91.9317 79.8652 91.9277 79.8556C91.9256 79.8506 91.9221 79.8424 91.9208 79.8393C91.9198 79.8372 91.9182 79.8335 91.9175 79.8319C91.917 79.8307 91.9161 79.8286 91.9156 79.8277C91.914 79.8239 91.9126 79.8209 91.9121 79.8198C91.9108 79.817 91.9096 79.8142 91.9086 79.8122C91.9076 79.8099 91.9064 79.8073 91.9051 79.8045C91.9025 79.7988 91.8992 79.7915 91.8951 79.7825C91.8785 79.7464 91.8476 79.6791 91.7977 79.5703L90.9418 79.7973Z" fill="black"/>
<defs>
<filter id="filter0_d_906_720" x="105.284" y="4.76593" width="257.263" height="85.2632" filterUnits="userSpaceOnUse" color-interpolation-filters="sRGB">
<feFlood flood-opacity="0" result="BackgroundImageFix"/>
<feColorMatrix in="SourceAlpha" type="matrix" values="0 0 0 0 0 0 0 0 0 0 0 0 0 0 0 0 0 0 127 0" result="hardAlpha"/>
<feOffset dy="0.926316"/>
<feGaussianBlur stdDeviation="2.31579"/>
<feComposite in2="hardAlpha" operator="out"/>
<feColorMatrix type="matrix" values="0 0 0 0 0 0 0 0 0 0 0 0 0 0 0 0 0 0 0.25 0"/>
<feBlend mode="normal" in2="BackgroundImageFix" result="effect1_dropShadow_906_720"/>
<feBlend mode="normal" in="SourceGraphic" in2="effect1_dropShadow_906_720" result="shape"/>
</filter>
</defs>
</svg>
