<svg width="369" height="144" viewBox="0 0 369 144" fill="none" xmlns="http://www.w3.org/2000/svg">
<g filter="url(#filter0_d_906_720)">
<rect x="4.63184" y="61.8481" width="248" height="76" rx="9.56049" fill="#F1F9F7" shape-rendering="crispEdges"/>
<path d="M24.8015 74.9793H26.646V81.6313C26.646 82.3605 26.4736 83.0018 26.1289 83.5553C25.7875 84.1088 25.3069 84.5413 24.6871 84.8529C24.0674 85.1611 23.3432 85.3153 22.5146 85.3153C21.6826 85.3153 20.9568 85.1611 20.337 84.8529C19.7172 84.5413 19.2366 84.1088 18.8952 83.5553C18.5539 83.0018 18.3832 82.3605 18.3832 81.6313V74.9793H20.2276V81.4772C20.2276 81.9014 20.3204 82.2793 20.506 82.6107C20.695 82.9421 20.9601 83.2023 21.3015 83.3912C21.6429 83.5769 22.0472 83.6697 22.5146 83.6697C22.9819 83.6697 23.3862 83.5769 23.7276 83.3912C24.0723 83.2023 24.3375 82.9421 24.5231 82.6107C24.7087 82.2793 24.8015 81.9014 24.8015 81.4772V74.9793ZM32.3844 77.5248V78.9168H27.9945V77.5248H32.3844ZM29.0783 75.6952H30.878V82.8643C30.878 83.1062 30.9145 83.2918 30.9874 83.4211C31.0636 83.547 31.1631 83.6332 31.2857 83.6796C31.4083 83.726 31.5442 83.7492 31.6934 83.7492C31.806 83.7492 31.9088 83.7409 32.0016 83.7243C32.0977 83.7078 32.1706 83.6929 32.2203 83.6796L32.5236 85.0866C32.4275 85.1197 32.29 85.1562 32.111 85.1959C31.9353 85.2357 31.7199 85.2589 31.4647 85.2655C31.0139 85.2788 30.6079 85.2108 30.2466 85.0617C29.8854 84.9092 29.5987 84.6739 29.3865 84.3557C29.1777 84.0376 29.075 83.6398 29.0783 83.1626V75.6952ZM33.8896 85.1611V77.5248H35.6893V85.1611H33.8896ZM34.7944 76.441C34.5094 76.441 34.2641 76.3465 34.0586 76.1576C33.8531 75.9653 33.7504 75.735 33.7504 75.4665C33.7504 75.1947 33.8531 74.9644 34.0586 74.7755C34.2641 74.5832 34.5094 74.4871 34.7944 74.4871C35.0827 74.4871 35.328 74.5832 35.5302 74.7755C35.7357 74.9644 35.8384 75.1947 35.8384 75.4665C35.8384 75.735 35.7357 75.9653 35.5302 76.1576C35.328 76.3465 35.0827 76.441 34.7944 76.441ZM39.3397 74.9793V85.1611H37.54V74.9793H39.3397ZM41.1903 85.1611V77.5248H42.9901V85.1611H41.1903ZM42.0952 76.441C41.8101 76.441 41.5649 76.3465 41.3594 76.1576C41.1539 75.9653 41.0511 75.735 41.0511 75.4665C41.0511 75.1947 41.1539 74.9644 41.3594 74.7755C41.5649 74.5832 41.8101 74.4871 42.0952 74.4871C42.3835 74.4871 42.6288 74.5832 42.831 74.7755C43.0365 74.9644 43.1392 75.1947 43.1392 75.4665C43.1392 75.735 43.0365 75.9653 42.831 76.1576C42.6288 76.3465 42.3835 76.441 42.0952 76.441ZM50.8762 79.5432L49.2356 79.7222C49.1892 79.5565 49.108 79.4007 48.992 79.2549C48.8793 79.109 48.7269 78.9914 48.5346 78.9019C48.3424 78.8124 48.1071 78.7677 47.8287 78.7677C47.4541 78.7677 47.1393 78.8489 46.8841 79.0113C46.6322 79.1737 46.5079 79.3841 46.5112 79.6427C46.5079 79.8647 46.5891 80.0454 46.7548 80.1846C46.9238 80.3238 47.2022 80.4381 47.59 80.5276L48.8926 80.806C49.6151 80.9618 50.152 81.2087 50.5034 81.5468C50.858 81.8849 51.037 82.3273 51.0403 82.8742C51.037 83.3548 50.8961 83.779 50.6177 84.1469C50.3426 84.5115 49.9598 84.7965 49.4693 85.002C48.9788 85.2075 48.4153 85.3103 47.7789 85.3103C46.8443 85.3103 46.0919 85.1147 45.5218 84.7236C44.9518 84.3292 44.612 83.7807 44.5027 83.078L46.2576 82.909C46.3372 83.2537 46.5062 83.5139 46.7647 83.6895C47.0233 83.8652 47.3597 83.953 47.774 83.953C48.2015 83.953 48.5446 83.8652 48.8031 83.6895C49.0649 83.5139 49.1958 83.2968 49.1958 83.0383C49.1958 82.8195 49.1113 82.6389 48.9423 82.4964C48.7766 82.3538 48.5181 82.2445 48.1667 82.1682L46.8642 81.8948C46.1317 81.7423 45.5898 81.4855 45.2385 81.1242C44.8871 80.7596 44.7131 80.2989 44.7164 79.7421C44.7131 79.2715 44.8407 78.8638 45.0993 78.5191C45.3611 78.1711 45.724 77.9026 46.188 77.7137C46.6554 77.5215 47.194 77.4253 47.8038 77.4253C48.6987 77.4253 49.403 77.6159 49.9167 77.9971C50.4338 78.3782 50.7536 78.8936 50.8762 79.5432ZM54.7218 85.3153C54.2379 85.3153 53.802 85.2291 53.4142 85.0567C53.0298 84.8811 52.7248 84.6225 52.4995 84.2812C52.2774 83.9398 52.1664 83.5189 52.1664 83.0184C52.1664 82.5875 52.2459 82.2312 52.405 81.9495C52.5641 81.6678 52.7812 81.4424 53.0563 81.2733C53.3314 81.1043 53.6413 80.9767 53.986 80.8905C54.334 80.801 54.6936 80.7364 55.0648 80.6966C55.5123 80.6502 55.8752 80.6088 56.1536 80.5724C56.432 80.5326 56.6342 80.4729 56.7601 80.3934C56.8894 80.3105 56.954 80.1829 56.954 80.0106V79.9807C56.954 79.6062 56.843 79.3162 56.6209 79.1107C56.3989 78.9052 56.079 78.8025 55.6614 78.8025C55.2206 78.8025 54.8709 78.8986 54.6124 79.0908C54.3572 79.2831 54.1848 79.5101 54.0953 79.7719L52.415 79.5333C52.5475 79.0693 52.7663 78.6815 53.0712 78.3699C53.3761 78.0551 53.749 77.8197 54.1898 77.664C54.6306 77.5049 55.1178 77.4253 55.6515 77.4253C56.0194 77.4253 56.3856 77.4684 56.7502 77.5546C57.1148 77.6408 57.4479 77.7833 57.7495 77.9822C58.0511 78.1777 58.293 78.4445 58.4753 78.7826C58.6609 79.1206 58.7537 79.5432 58.7537 80.0503V85.1611H57.0236V84.1121H56.964C56.8546 84.3242 56.7005 84.5231 56.5016 84.7087C56.306 84.891 56.0591 85.0385 55.7608 85.1512C55.4658 85.2606 55.1195 85.3153 54.7218 85.3153ZM55.1891 83.9928C55.5504 83.9928 55.8636 83.9215 56.1287 83.779C56.3939 83.6332 56.5977 83.441 56.7402 83.2023C56.8861 82.9637 56.959 82.7035 56.959 82.4218V81.5219C56.9026 81.5683 56.8065 81.6114 56.6706 81.6512C56.5381 81.691 56.3889 81.7258 56.2232 81.7556C56.0575 81.7854 55.8934 81.8119 55.731 81.8351C55.5686 81.8583 55.4277 81.8782 55.3084 81.8948C55.04 81.9313 54.7997 81.9909 54.5875 82.0738C54.3754 82.1566 54.208 82.2726 54.0854 82.4218C53.9628 82.5676 53.9015 82.7565 53.9015 82.9885C53.9015 83.32 54.0224 83.5702 54.2644 83.7393C54.5063 83.9083 54.8146 83.9928 55.1891 83.9928ZM64.3766 77.5248V78.9168H59.9867V77.5248H64.3766ZM61.0705 75.6952H62.8702V82.8643C62.8702 83.1062 62.9067 83.2918 62.9796 83.4211C63.0558 83.547 63.1552 83.6332 63.2779 83.6796C63.4005 83.726 63.5364 83.7492 63.6855 83.7492C63.7982 83.7492 63.901 83.7409 63.9938 83.7243C64.0899 83.7078 64.1628 83.6929 64.2125 83.6796L64.5158 85.0866C64.4197 85.1197 64.2821 85.1562 64.1032 85.1959C63.9275 85.2357 63.7121 85.2589 63.4569 85.2655C63.0061 85.2788 62.6001 85.2108 62.2388 85.0617C61.8775 84.9092 61.5908 84.6739 61.3787 84.3557C61.1699 84.0376 61.0672 83.6398 61.0705 83.1626V75.6952ZM65.8817 85.1611V77.5248H67.6815V85.1611H65.8817ZM66.7866 76.441C66.5015 76.441 66.2563 76.3465 66.0508 76.1576C65.8453 75.9653 65.7425 75.735 65.7425 75.4665C65.7425 75.1947 65.8453 74.9644 66.0508 74.7755C66.2563 74.5832 66.5015 74.4871 66.7866 74.4871C67.0749 74.4871 67.3202 74.5832 67.5224 74.7755C67.7279 74.9644 67.8306 75.1947 67.8306 75.4665C67.8306 75.735 67.7279 75.9653 67.5224 76.1576C67.3202 76.3465 67.0749 76.441 66.7866 76.441ZM72.8631 85.3103C72.1174 85.3103 71.4711 85.1462 70.9242 84.8181C70.3773 84.49 69.9531 84.0309 69.6515 83.441C69.3532 82.851 69.204 82.1616 69.204 81.3728C69.204 80.584 69.3532 79.8929 69.6515 79.2996C69.9531 78.7064 70.3773 78.2456 70.9242 77.9175C71.4711 77.5894 72.1174 77.4253 72.8631 77.4253C73.6088 77.4253 74.2551 77.5894 74.802 77.9175C75.3489 78.2456 75.7715 78.7064 76.0698 79.2996C76.3714 79.8929 76.5222 80.584 76.5222 81.3728C76.5222 82.1616 76.3714 82.851 76.0698 83.441C75.7715 84.0309 75.3489 84.49 74.802 84.8181C74.2551 85.1462 73.6088 85.3103 72.8631 85.3103ZM72.873 83.8685C73.2774 83.8685 73.6155 83.7575 73.8873 83.5354C74.159 83.31 74.3612 83.0084 74.4938 82.6306C74.6297 82.2528 74.6976 81.8318 74.6976 81.3678C74.6976 80.9005 74.6297 80.4779 74.4938 80.1001C74.3612 79.7189 74.159 79.4156 73.8873 79.1903C73.6155 78.9649 73.2774 78.8522 72.873 78.8522C72.4587 78.8522 72.1141 78.9649 71.839 79.1903C71.5672 79.4156 71.3633 79.7189 71.2275 80.1001C71.0949 80.4779 71.0286 80.9005 71.0286 81.3678C71.0286 81.8318 71.0949 82.2528 71.2275 82.6306C71.3633 83.0084 71.5672 83.31 71.839 83.5354C72.1141 83.7575 72.4587 83.8685 72.873 83.8685ZM79.8494 80.6867V85.1611H78.0497V77.5248H79.7699V78.8224H79.8594C80.035 78.3948 80.3151 78.0551 80.6996 77.8032C81.0874 77.5513 81.5663 77.4253 82.1364 77.4253C82.6634 77.4253 83.1224 77.538 83.5135 77.7634C83.9079 77.9888 84.2128 78.3153 84.4283 78.7428C84.647 79.1704 84.7547 79.6891 84.7514 80.2989V85.1611H82.9517V80.5773C82.9517 80.0669 82.8191 79.6675 82.554 79.3792C82.2921 79.0908 81.9292 78.9466 81.4652 78.9466C81.1503 78.9466 80.8703 79.0162 80.625 79.1555C80.383 79.2913 80.1925 79.4885 80.0533 79.7471C79.9174 80.0056 79.8494 80.3188 79.8494 80.6867ZM91.9776 74.9793V85.1611H90.1332V74.9793H91.9776ZM95.2825 85.1611H93.3137L96.8983 74.9793H99.1752L102.765 85.1611H100.796L98.0765 77.0674H97.997L95.2825 85.1611ZM95.3471 81.1689H100.716V82.6505H95.3471V81.1689ZM107.946 80.0702C107.946 78.8273 108.11 77.6855 108.439 76.6448C108.77 75.6008 109.262 74.6363 109.915 73.7513H111.61C111.359 74.0795 111.123 74.4822 110.904 74.9594C110.686 75.4334 110.495 75.9537 110.333 76.5205C110.174 77.084 110.048 77.6689 109.955 78.2755C109.865 78.882 109.821 79.4803 109.821 80.0702C109.821 80.8557 109.899 81.6512 110.054 82.4566C110.213 83.262 110.427 84.0094 110.696 84.6988C110.967 85.3849 111.272 85.9466 111.61 86.3841H109.915C109.262 85.4992 108.77 84.5364 108.439 83.4956C108.11 82.4516 107.946 81.3098 107.946 80.0702ZM121.803 78.4147H119.944C119.891 78.1098 119.793 77.8396 119.651 77.6043C119.508 77.3657 119.331 77.1635 119.119 76.9978C118.907 76.8321 118.665 76.7078 118.393 76.6249C118.124 76.5387 117.834 76.4956 117.523 76.4956C116.969 76.4956 116.479 76.6349 116.051 76.9133C115.624 77.1884 115.289 77.5927 115.047 78.1263C114.805 78.6566 114.684 79.3046 114.684 80.0702C114.684 80.8491 114.805 81.5054 115.047 82.039C115.292 82.5693 115.627 82.9703 116.051 83.2421C116.479 83.5106 116.968 83.6448 117.518 83.6448C117.823 83.6448 118.108 83.605 118.373 83.5255C118.642 83.4426 118.882 83.3216 119.094 83.1626C119.309 83.0035 119.49 82.8079 119.636 82.5759C119.785 82.3439 119.888 82.0787 119.944 81.7805L121.803 81.7904C121.734 82.2743 121.583 82.7284 121.351 83.1526C121.122 83.5769 120.822 83.9514 120.451 84.2762C120.08 84.5977 119.646 84.8496 119.149 85.0319C118.651 85.2108 118.1 85.3003 117.493 85.3003C116.598 85.3003 115.799 85.0932 115.097 84.6789C114.394 84.2646 113.841 83.6663 113.436 82.8841C113.032 82.1019 112.83 81.164 112.83 80.0702C112.83 78.9732 113.034 78.0352 113.441 77.2563C113.849 76.4741 114.404 75.8759 115.107 75.4616C115.809 75.0473 116.605 74.8401 117.493 74.8401C118.06 74.8401 118.587 74.9197 119.074 75.0787C119.561 75.2378 119.995 75.4715 120.377 75.7797C120.758 76.0847 121.071 76.4592 121.316 76.9033C121.565 77.3441 121.727 77.8479 121.803 78.4147ZM125.213 74.9793V85.1611H123.413V74.9793H125.213ZM129.261 85.3153C128.777 85.3153 128.341 85.2291 127.953 85.0567C127.569 84.8811 127.264 84.6225 127.039 84.2812C126.816 83.9398 126.705 83.5189 126.705 83.0184C126.705 82.5875 126.785 82.2312 126.944 81.9495C127.103 81.6678 127.32 81.4424 127.595 81.2733C127.87 81.1043 128.18 80.9767 128.525 80.8905C128.873 80.801 129.233 80.7364 129.604 80.6966C130.051 80.6502 130.414 80.6088 130.693 80.5724C130.971 80.5326 131.173 80.4729 131.299 80.3934C131.428 80.3105 131.493 80.1829 131.493 80.0106V79.9807C131.493 79.6062 131.382 79.3162 131.16 79.1107C130.938 78.9052 130.618 78.8025 130.2 78.8025C129.76 78.8025 129.41 78.8986 129.151 79.0908C128.896 79.2831 128.724 79.5101 128.634 79.7719L126.954 79.5333C127.087 79.0693 127.305 78.6815 127.61 78.3699C127.915 78.0551 128.288 77.8197 128.729 77.664C129.17 77.5049 129.657 77.4253 130.191 77.4253C130.558 77.4253 130.925 77.4684 131.289 77.5546C131.654 77.6408 131.987 77.7833 132.289 77.9822C132.59 78.1777 132.832 78.4445 133.014 78.7826C133.2 79.1206 133.293 79.5432 133.293 80.0503V85.1611H131.563V84.1121H131.503C131.394 84.3242 131.24 84.5231 131.041 84.7087C130.845 84.891 130.598 85.0385 130.3 85.1512C130.005 85.2606 129.659 85.3153 129.261 85.3153ZM129.728 83.9928C130.089 83.9928 130.403 83.9215 130.668 83.779C130.933 83.6332 131.137 83.441 131.279 83.2023C131.425 82.9637 131.498 82.7035 131.498 82.4218V81.5219C131.442 81.5683 131.346 81.6114 131.21 81.6512C131.077 81.691 130.928 81.7258 130.762 81.7556C130.597 81.7854 130.432 81.8119 130.27 81.8351C130.108 81.8583 129.967 81.8782 129.847 81.8948C129.579 81.9313 129.339 81.9909 129.127 82.0738C128.914 82.1566 128.747 82.2726 128.624 82.4218C128.502 82.5676 128.441 82.7565 128.441 82.9885C128.441 83.32 128.561 83.5702 128.803 83.7393C129.045 83.9083 129.354 83.9928 129.728 83.9928ZM139.97 81.9495V77.5248H141.769V85.1611H140.024V83.8039H139.945C139.772 84.2314 139.489 84.5811 139.095 84.8529C138.704 85.1247 138.221 85.2606 137.648 85.2606C137.147 85.2606 136.705 85.1495 136.32 84.9275C135.939 84.7021 135.641 84.3756 135.426 83.9481C135.21 83.5172 135.102 82.9968 135.102 82.387V77.5248H136.902V82.1086C136.902 82.5925 137.035 82.9769 137.3 83.262C137.565 83.547 137.913 83.6895 138.344 83.6895C138.609 83.6895 138.866 83.6249 139.115 83.4956C139.363 83.3664 139.567 83.1742 139.726 82.9189C139.888 82.6604 139.97 82.3373 139.97 81.9495ZM146.454 85.2954C145.854 85.2954 145.317 85.1412 144.843 84.833C144.369 84.5248 143.995 84.0773 143.719 83.4907C143.444 82.904 143.307 82.1914 143.307 81.3529C143.307 80.5044 143.446 79.7885 143.724 79.2052C144.006 78.6185 144.386 78.176 144.863 77.8778C145.34 77.5761 145.872 77.4253 146.459 77.4253C146.906 77.4253 147.274 77.5016 147.562 77.654C147.851 77.8032 148.08 77.9838 148.249 78.1959C148.418 78.4047 148.549 78.6019 148.641 78.7876H148.716V74.9793H150.521V85.1611H148.751V83.958H148.641C148.549 84.1436 148.414 84.3408 148.239 84.5496C148.063 84.7551 147.831 84.9308 147.543 85.0766C147.254 85.2224 146.891 85.2954 146.454 85.2954ZM146.956 83.8188C147.337 83.8188 147.662 83.7161 147.93 83.5106C148.199 83.3018 148.403 83.0117 148.542 82.6405C148.681 82.2693 148.751 81.8368 148.751 81.343C148.751 80.8491 148.681 80.4199 148.542 80.0553C148.406 79.6907 148.204 79.4073 147.935 79.2052C147.67 79.003 147.344 78.9019 146.956 78.9019C146.555 78.9019 146.22 79.0063 145.952 79.2151C145.683 79.4239 145.481 79.7123 145.345 80.0802C145.209 80.4481 145.141 80.869 145.141 81.343C145.141 81.8202 145.209 82.2461 145.345 82.6206C145.484 82.9919 145.688 83.2852 145.957 83.5006C146.228 83.7127 146.562 83.8188 146.956 83.8188ZM155.819 85.3103C155.053 85.3103 154.392 85.1512 153.835 84.833C153.282 84.5115 152.856 84.0574 152.558 83.4708C152.259 82.8808 152.11 82.1865 152.11 81.3877C152.11 80.6022 152.259 79.9128 152.558 79.3195C152.859 78.7229 153.28 78.2589 153.82 77.9275C154.361 77.5927 154.995 77.4253 155.725 77.4253C156.195 77.4253 156.639 77.5016 157.057 77.654C157.478 77.8032 157.849 78.0352 158.171 78.3501C158.495 78.6649 158.751 79.066 158.936 79.5532C159.122 80.0371 159.215 80.6138 159.215 81.2833V81.8351H152.955V80.6221H157.49C157.486 80.2774 157.412 79.9708 157.266 79.7023C157.12 79.4305 156.916 79.2168 156.654 79.061C156.396 78.9052 156.094 78.8273 155.749 78.8273C155.382 78.8273 155.058 78.9168 154.78 79.0958C154.502 79.2715 154.285 79.5035 154.129 79.7918C153.976 80.0769 153.898 80.3901 153.895 80.7314V81.7904C153.895 82.2345 153.976 82.6157 154.139 82.9339C154.301 83.2487 154.528 83.4907 154.82 83.6597C155.111 83.8254 155.453 83.9083 155.844 83.9083C156.106 83.9083 156.343 83.8718 156.555 83.7989C156.767 83.7227 156.951 83.6117 157.107 83.4658C157.262 83.32 157.38 83.1394 157.46 82.9239L159.14 83.1128C159.034 83.557 158.832 83.9448 158.534 84.2762C158.239 84.6043 157.861 84.8595 157.4 85.0418C156.939 85.2208 156.412 85.3103 155.819 85.3103ZM167.591 85.3103C166.825 85.3103 166.164 85.1512 165.607 84.833C165.053 84.5115 164.627 84.0574 164.329 83.4708C164.031 82.8808 163.882 82.1865 163.882 81.3877C163.882 80.6022 164.031 79.9128 164.329 79.3195C164.631 78.7229 165.052 78.2589 165.592 77.9275C166.132 77.5927 166.767 77.4253 167.496 77.4253C167.967 77.4253 168.411 77.5016 168.828 77.654C169.249 77.8032 169.621 78.0352 169.942 78.3501C170.267 78.6649 170.522 79.066 170.708 79.5532C170.893 80.0371 170.986 80.6138 170.986 81.2833V81.8351H164.727V80.6221H169.261C169.258 80.2774 169.183 79.9708 169.037 79.7023C168.891 79.4305 168.688 79.2168 168.426 79.061C168.167 78.9052 167.866 78.8273 167.521 78.8273C167.153 78.8273 166.83 78.9168 166.551 79.0958C166.273 79.2715 166.056 79.5035 165.9 79.7918C165.748 80.0769 165.67 80.3901 165.667 80.7314V81.7904C165.667 82.2345 165.748 82.6157 165.91 82.9339C166.073 83.2487 166.3 83.4907 166.591 83.6597C166.883 83.8254 167.224 83.9083 167.615 83.9083C167.877 83.9083 168.114 83.8718 168.326 83.7989C168.538 83.7227 168.722 83.6117 168.878 83.4658C169.034 83.32 169.152 83.1394 169.231 82.9239L170.912 83.1128C170.806 83.557 170.603 83.9448 170.305 84.2762C170.01 84.6043 169.632 84.8595 169.172 85.0418C168.711 85.2208 168.184 85.3103 167.591 85.3103ZM176.322 77.5248V78.9168H171.932V77.5248H176.322ZM173.016 75.6952H174.816V82.8643C174.816 83.1062 174.852 83.2918 174.925 83.4211C175.001 83.547 175.101 83.6332 175.223 83.6796C175.346 83.726 175.482 83.7492 175.631 83.7492C175.744 83.7492 175.846 83.7409 175.939 83.7243C176.035 83.7078 176.108 83.6929 176.158 83.6796L176.461 85.0866C176.365 85.1197 176.227 85.1562 176.048 85.1959C175.873 85.2357 175.657 85.2589 175.402 85.2655C174.951 85.2788 174.545 85.2108 174.184 85.0617C173.823 84.9092 173.536 84.6739 173.324 84.3557C173.115 84.0376 173.012 83.6398 173.016 83.1626V75.6952ZM181.379 85.1611V74.9793H188.001V76.5255H183.224V79.2897H187.658V80.8358H183.224V83.615H188.041V85.1611H181.379ZM191.603 74.9793V85.1611H189.804V74.9793H191.603ZM193.454 85.1611V77.5248H195.254V85.1611H193.454ZM194.359 76.441C194.074 76.441 193.829 76.3465 193.623 76.1576C193.418 75.9653 193.315 75.735 193.315 75.4665C193.315 75.1947 193.418 74.9644 193.623 74.7755C193.829 74.5832 194.074 74.4871 194.359 74.4871C194.647 74.4871 194.892 74.5832 195.095 74.7755C195.3 74.9644 195.403 75.1947 195.403 75.4665C195.403 75.735 195.3 75.9653 195.095 76.1576C194.892 76.3465 194.647 76.441 194.359 76.441ZM200.435 85.3103C199.673 85.3103 199.018 85.1429 198.472 84.8081C197.928 84.4734 197.509 84.011 197.214 83.4211C196.922 82.8278 196.776 82.145 196.776 81.3728C196.776 80.5972 196.925 79.9128 197.224 79.3195C197.522 78.7229 197.943 78.2589 198.487 77.9275C199.033 77.5927 199.68 77.4253 200.425 77.4253C201.045 77.4253 201.594 77.5397 202.071 77.7684C202.552 77.9938 202.934 78.3136 203.219 78.7279C203.504 79.1389 203.667 79.6195 203.707 80.1697H201.987C201.917 79.8018 201.751 79.4952 201.489 79.2499C201.231 79.0013 200.884 78.877 200.45 78.877C200.082 78.877 199.759 78.9765 199.481 79.1753C199.202 79.3709 198.985 79.6526 198.83 80.0205C198.677 80.3884 198.601 80.8292 198.601 81.343C198.601 81.8633 198.677 82.3108 198.83 82.6853C198.982 83.0565 199.196 83.3432 199.471 83.5454C199.749 83.7442 200.076 83.8437 200.45 83.8437C200.715 83.8437 200.952 83.7939 201.161 83.6945C201.373 83.5918 201.551 83.4443 201.693 83.252C201.836 83.0598 201.933 82.8261 201.987 82.551H203.707C203.664 83.0913 203.504 83.5702 203.229 83.9878C202.954 84.4021 202.58 84.7269 202.106 84.9623C201.632 85.1943 201.075 85.3103 200.435 85.3103ZM205.184 85.1611V77.5248H206.984V85.1611H205.184ZM206.089 76.441C205.804 76.441 205.559 76.3465 205.354 76.1576C205.148 75.9653 205.045 75.735 205.045 75.4665C205.045 75.1947 205.148 74.9644 205.354 74.7755C205.559 74.5832 205.804 74.4871 206.089 74.4871C206.378 74.4871 206.623 74.5832 206.825 74.7755C207.031 74.9644 207.133 75.1947 207.133 75.4665C207.133 75.735 207.031 75.9653 206.825 76.1576C206.623 76.3465 206.378 76.441 206.089 76.441ZM212.648 77.5248V78.9168H208.258V77.5248H212.648ZM209.342 75.6952H211.142V82.8643C211.142 83.1062 211.178 83.2918 211.251 83.4211C211.327 83.547 211.427 83.6332 211.549 83.6796C211.672 83.726 211.808 83.7492 211.957 83.7492C212.07 83.7492 212.172 83.7409 212.265 83.7243C212.361 83.7078 212.434 83.6929 212.484 83.6796L212.787 85.0866C212.691 85.1197 212.554 85.1562 212.375 85.1959C212.199 85.2357 211.984 85.2589 211.728 85.2655C211.278 85.2788 210.872 85.2108 210.51 85.0617C210.149 84.9092 209.862 84.6739 209.65 84.3557C209.441 84.0376 209.339 83.6398 209.342 83.1626V75.6952ZM217.365 81.0099C217.365 82.2494 217.199 83.3912 216.868 84.4353C216.54 85.476 216.049 86.4388 215.396 87.3238H213.701C213.956 86.9956 214.191 86.5946 214.407 86.1206C214.626 85.6467 214.814 85.1263 214.974 84.5596C215.136 83.9928 215.262 83.4062 215.351 82.7996C215.444 82.1931 215.491 81.5965 215.491 81.0099C215.491 80.2243 215.411 79.4289 215.252 78.6235C215.096 77.8181 214.882 77.0707 214.611 76.3813C214.342 75.6919 214.039 75.1285 213.701 74.691H215.396C216.049 75.5759 216.54 76.5404 216.868 77.5844C217.199 78.6251 217.365 79.767 217.365 81.0099Z" fill="black"/>
<path d="M232.62 74.7918C233.019 73.6252 234.631 73.5898 235.104 74.6858L235.144 74.7925L235.682 76.3658C235.805 76.7267 236.004 77.0568 236.266 77.3341C236.528 77.6114 236.846 77.8293 237.199 77.9732L237.344 78.0272L238.917 78.5645C240.084 78.9632 240.119 80.5752 239.024 81.0478L238.917 81.0878L237.344 81.6258C236.983 81.749 236.652 81.9482 236.375 82.21C236.098 82.4718 235.879 82.79 235.736 83.1432L235.682 83.2872L235.144 84.8612C234.746 86.0278 233.134 86.0632 232.662 84.9678L232.62 84.8612L232.083 83.2878C231.96 82.9269 231.76 82.5966 231.499 82.3192C231.237 82.0418 230.919 81.8238 230.566 81.6798L230.422 81.6258L228.848 81.0885C227.681 80.6898 227.646 79.0778 228.742 78.6058L228.848 78.5645L230.422 78.0272C230.782 77.9039 231.113 77.7046 231.39 77.4429C231.667 77.1811 231.885 76.863 232.029 76.5098L232.083 76.3658L232.62 74.7918ZM233.882 75.2225L233.345 76.7958C233.157 77.346 232.852 77.8487 232.45 78.2688C232.048 78.689 231.56 79.0164 231.018 79.2285L230.852 79.2892L229.278 79.8265L230.852 80.3638C231.402 80.5516 231.904 80.857 232.325 81.2588C232.745 81.6606 233.072 82.1492 233.284 82.6905L233.345 82.8572L233.882 84.4305L234.42 82.8572C234.607 82.307 234.913 81.8043 235.315 81.3842C235.716 80.964 236.205 80.6365 236.746 80.4245L236.913 80.3645L238.486 79.8265L236.913 79.2892C236.363 79.1014 235.86 78.796 235.44 78.3942C235.02 77.9924 234.692 77.5038 234.48 76.9625L234.42 76.7958L233.882 75.2225ZM239.216 72.4932C239.34 72.4932 239.463 72.5281 239.568 72.5941C239.674 72.6601 239.759 72.7545 239.814 72.8665L239.846 72.9445L240.08 73.6285L240.764 73.8618C240.889 73.9043 240.999 73.9829 241.079 74.0877C241.159 74.1925 241.207 74.3188 241.215 74.4505C241.224 74.5822 241.193 74.7135 241.126 74.8277C241.06 74.9419 240.961 75.0338 240.843 75.0918L240.764 75.1238L240.08 75.3572L239.847 76.0418C239.804 76.1668 239.726 76.2763 239.621 76.3565C239.516 76.4367 239.39 76.484 239.258 76.4923C239.126 76.5007 238.995 76.4697 238.881 76.4034C238.767 76.3371 238.675 76.2384 238.617 76.1198L238.585 76.0418L238.352 75.3578L237.667 75.1245C237.542 75.082 237.432 75.0034 237.352 74.8986C237.272 74.7938 237.224 74.6676 237.216 74.5358C237.208 74.4041 237.238 74.2728 237.305 74.1586C237.371 74.0445 237.47 73.9525 237.588 73.8945L237.667 73.8625L238.351 73.6292L238.584 72.9445C238.629 72.8128 238.714 72.6984 238.827 72.6175C238.941 72.5366 239.076 72.4931 239.216 72.4932Z" fill="black"/>
<path d="M18.6119 108.535V98.3533H22.0522C22.8477 98.3533 23.5006 98.4892 24.011 98.761C24.5214 99.0295 24.8993 99.399 25.1445 99.8697C25.3898 100.34 25.5124 100.876 25.5124 101.475C25.5124 102.075 25.3898 102.607 25.1445 103.071C24.8993 103.535 24.5231 103.9 24.016 104.165C23.5089 104.427 22.8609 104.558 22.0721 104.558H19.288V103.444H22.0323C22.5759 103.444 23.0134 103.365 23.3448 103.206C23.6796 103.047 23.9215 102.821 24.0707 102.529C24.2231 102.234 24.2994 101.883 24.2994 101.475C24.2994 101.068 24.2231 100.712 24.0707 100.407C23.9182 100.102 23.6746 99.8664 23.3398 99.7006C23.0051 99.5316 22.5626 99.4471 22.0124 99.4471H19.8448V108.535H18.6119ZM23.4045 103.961L25.9102 108.535H24.4783L22.0124 103.961H23.4045ZM30.5275 108.694C29.7917 108.694 29.157 108.532 28.6234 108.207C28.0931 107.879 27.6838 107.422 27.3954 106.835C27.1104 106.245 26.9679 105.559 26.9679 104.777C26.9679 103.994 27.1104 103.305 27.3954 102.708C27.6838 102.109 28.0848 101.641 28.5985 101.306C29.1156 100.968 29.7188 100.799 30.4082 100.799C30.8059 100.799 31.1987 100.866 31.5865 100.998C31.9743 101.131 32.3272 101.346 32.6454 101.645C32.9636 101.94 33.2172 102.331 33.4061 102.818C33.595 103.305 33.6895 103.905 33.6895 104.618V105.115H27.8031V104.1H32.4963C32.4963 103.67 32.4101 103.285 32.2377 102.947C32.0687 102.609 31.8268 102.342 31.5119 102.147C31.2003 101.951 30.8324 101.853 30.4082 101.853C29.9409 101.853 29.5365 101.969 29.1951 102.201C28.8571 102.43 28.5969 102.728 28.4146 103.096C28.2323 103.464 28.1412 103.859 28.1412 104.279V104.956C28.1412 105.532 28.2406 106.021 28.4395 106.422C28.6416 106.82 28.9217 107.123 29.2797 107.332C29.6376 107.538 30.0536 107.64 30.5275 107.64C30.8358 107.64 31.1142 107.597 31.3627 107.511C31.6146 107.422 31.8317 107.289 32.014 107.113C32.1963 106.934 32.3372 106.712 32.4366 106.447L33.5701 106.765C33.4508 107.15 33.2503 107.488 32.9686 107.779C32.6868 108.068 32.3388 108.293 31.9245 108.456C31.5102 108.615 31.0446 108.694 30.5275 108.694ZM38.5765 108.694C37.8606 108.694 37.2441 108.525 36.7271 108.187C36.21 107.849 35.8123 107.383 35.5339 106.79C35.2555 106.197 35.1163 105.519 35.1163 104.757C35.1163 103.981 35.2588 103.297 35.5439 102.703C35.8322 102.107 36.2333 101.641 36.747 101.306C37.264 100.968 37.8672 100.799 38.5566 100.799C39.0936 100.799 39.5775 100.899 40.0083 101.098C40.4392 101.297 40.7922 101.575 41.0673 101.933C41.3424 102.291 41.5131 102.708 41.5794 103.186H40.4061C40.3166 102.838 40.1177 102.529 39.8095 102.261C39.5046 101.989 39.0936 101.853 38.5765 101.853C38.1191 101.853 37.7181 101.973 37.3734 102.211C37.032 102.447 36.7652 102.78 36.573 103.211C36.3841 103.638 36.2896 104.14 36.2896 104.717C36.2896 105.307 36.3824 105.821 36.568 106.258C36.7569 106.696 37.0221 107.035 37.3635 107.277C37.7082 107.519 38.1125 107.64 38.5765 107.64C38.8815 107.64 39.1582 107.587 39.4068 107.481C39.6554 107.375 39.8658 107.223 40.0382 107.024C40.2105 106.825 40.3332 106.586 40.4061 106.308H41.5794C41.5131 106.759 41.349 107.165 41.0872 107.526C40.8287 107.884 40.4856 108.169 40.0581 108.381C39.6338 108.59 39.14 108.694 38.5765 108.694ZM44.4679 103.941V108.535H43.2946V98.3533H44.4679V102.092H44.5673C44.7463 101.698 45.0147 101.384 45.3727 101.152C45.734 100.917 46.2145 100.799 46.8145 100.799C47.3348 100.799 47.7905 100.904 48.1816 101.113C48.5727 101.318 48.876 101.635 49.0914 102.062C49.3102 102.486 49.4196 103.027 49.4196 103.683V108.535H48.2463V103.762C48.2463 103.156 48.0888 102.687 47.774 102.355C47.4624 102.021 47.0299 101.853 46.4764 101.853C46.0919 101.853 45.7472 101.935 45.4423 102.097C45.1407 102.259 44.902 102.496 44.7264 102.808C44.554 103.119 44.4679 103.497 44.4679 103.941ZM54.7678 108.694C54.032 108.694 53.3973 108.532 52.8636 108.207C52.3333 107.879 51.924 107.422 51.6357 106.835C51.3506 106.245 51.2081 105.559 51.2081 104.777C51.2081 103.994 51.3506 103.305 51.6357 102.708C51.924 102.109 52.325 101.641 52.8388 101.306C53.3558 100.968 53.959 100.799 54.6484 100.799C55.0462 100.799 55.4389 100.866 55.8267 100.998C56.2145 101.131 56.5675 101.346 56.8857 101.645C57.2038 101.94 57.4574 102.331 57.6463 102.818C57.8352 103.305 57.9297 103.905 57.9297 104.618V105.115H52.0433V104.1H56.7365C56.7365 103.67 56.6503 103.285 56.478 102.947C56.3089 102.609 56.067 102.342 55.7521 102.147C55.4406 101.951 55.0727 101.853 54.6484 101.853C54.1811 101.853 53.7768 101.969 53.4354 102.201C53.0973 102.43 52.8371 102.728 52.6548 103.096C52.4725 103.464 52.3814 103.859 52.3814 104.279V104.956C52.3814 105.532 52.4808 106.021 52.6797 106.422C52.8819 106.82 53.1619 107.123 53.5199 107.332C53.8778 107.538 54.2938 107.64 54.7678 107.64C55.076 107.64 55.3544 107.597 55.603 107.511C55.8549 107.422 56.072 107.289 56.2543 107.113C56.4366 106.934 56.5774 106.712 56.6768 106.447L57.8104 106.765C57.6911 107.15 57.4905 107.488 57.2088 107.779C56.9271 108.068 56.5791 108.293 56.1648 108.456C55.7505 108.615 55.2848 108.694 54.7678 108.694ZM59.7145 108.535V100.899H60.848V102.052H60.9276C61.0668 101.674 61.3187 101.368 61.6832 101.132C62.0478 100.897 62.4588 100.779 62.9162 100.779C63.0024 100.779 63.1101 100.781 63.2393 100.784C63.3686 100.788 63.4664 100.793 63.5327 100.799V101.993C63.4929 101.983 63.4018 101.968 63.2592 101.948C63.12 101.925 62.9725 101.913 62.8168 101.913C62.4455 101.913 62.1141 101.991 61.8224 102.147C61.5341 102.299 61.3054 102.511 61.1364 102.783C60.9706 103.051 60.8878 103.358 60.8878 103.703V108.535H59.7145ZM67.7933 108.694C67.0774 108.694 66.4609 108.525 65.9439 108.187C65.4268 107.849 65.0291 107.383 64.7507 106.79C64.4723 106.197 64.3331 105.519 64.3331 104.757C64.3331 103.981 64.4756 103.297 64.7607 102.703C65.049 102.107 65.45 101.641 65.9638 101.306C66.4808 100.968 67.084 100.799 67.7734 100.799C68.3104 100.799 68.7943 100.899 69.2251 101.098C69.656 101.297 70.009 101.575 70.2841 101.933C70.5592 102.291 70.7299 102.708 70.7962 103.186H69.6229C69.5334 102.838 69.3345 102.529 69.0263 102.261C68.7214 101.989 68.3104 101.853 67.7933 101.853C67.3359 101.853 66.9349 101.973 66.5902 102.211C66.2488 102.447 65.982 102.78 65.7898 103.211C65.6009 103.638 65.5064 104.14 65.5064 104.717C65.5064 105.307 65.5992 105.821 65.7848 106.258C65.9737 106.696 66.2389 107.035 66.5803 107.277C66.925 107.519 67.3293 107.64 67.7933 107.64C68.0982 107.64 68.375 107.587 68.6236 107.481C68.8722 107.375 69.0826 107.223 69.255 107.024C69.4273 106.825 69.55 106.586 69.6229 106.308H70.7962C70.7299 106.759 70.5658 107.165 70.304 107.526C70.0455 107.884 69.7024 108.169 69.2749 108.381C68.8506 108.59 68.3568 108.694 67.7933 108.694ZM73.6847 103.941V108.535H72.5114V98.3533H73.6847V102.092H73.7841C73.9631 101.698 74.2315 101.384 74.5895 101.152C74.9508 100.917 75.4313 100.799 76.0312 100.799C76.5516 100.799 77.0073 100.904 77.3984 101.113C77.7895 101.318 78.0928 101.635 78.3082 102.062C78.527 102.486 78.6364 103.027 78.6364 103.683V108.535H77.4631V103.762C77.4631 103.156 77.3056 102.687 76.9908 102.355C76.6792 102.021 76.2467 101.853 75.6932 101.853C75.3087 101.853 74.964 101.935 74.6591 102.097C74.3575 102.259 74.1188 102.496 73.9432 102.808C73.7708 103.119 73.6847 103.497 73.6847 103.941ZM83.9846 108.694C83.2488 108.694 82.6141 108.532 82.0804 108.207C81.5501 107.879 81.1408 107.422 80.8525 106.835C80.5674 106.245 80.4249 105.559 80.4249 104.777C80.4249 103.994 80.5674 103.305 80.8525 102.708C81.1408 102.109 81.5418 101.641 82.0556 101.306C82.5726 100.968 83.1758 100.799 83.8652 100.799C84.263 100.799 84.6557 100.866 85.0435 100.998C85.4313 101.131 85.7843 101.346 86.1025 101.645C86.4206 101.94 86.6742 102.331 86.8631 102.818C87.052 103.305 87.1465 103.905 87.1465 104.618V105.115H81.2601V104.1H85.9533C85.9533 103.67 85.8671 103.285 85.6948 102.947C85.5257 102.609 85.2838 102.342 84.9689 102.147C84.6574 101.951 84.2895 101.853 83.8652 101.853C83.3979 101.853 82.9935 101.969 82.6522 102.201C82.3141 102.43 82.0539 102.728 81.8716 103.096C81.6893 103.464 81.5982 103.859 81.5982 104.279V104.956C81.5982 105.532 81.6976 106.021 81.8965 106.422C82.0987 106.82 82.3787 107.123 82.7367 107.332C83.0946 107.538 83.5106 107.64 83.9846 107.64C84.2928 107.64 84.5712 107.597 84.8198 107.511C85.0717 107.422 85.2888 107.289 85.4711 107.113C85.6534 106.934 85.7942 106.712 85.8936 106.447L87.0272 106.765C86.9078 107.15 86.7073 107.488 86.4256 107.779C86.1439 108.068 85.7959 108.293 85.3816 108.456C84.9673 108.615 84.5016 108.694 83.9846 108.694ZM95.7523 108.694C95.1159 108.694 94.5542 108.533 94.0669 108.212C93.5797 107.887 93.1986 107.43 92.9235 106.84C92.6484 106.247 92.5108 105.546 92.5108 104.737C92.5108 103.935 92.6484 103.239 92.9235 102.649C93.1986 102.059 93.5814 101.603 94.0719 101.282C94.5624 100.96 95.1292 100.799 95.7722 100.799C96.2694 100.799 96.6621 100.882 96.9505 101.048C97.2421 101.21 97.4642 101.396 97.6167 101.605C97.7724 101.81 97.8934 101.979 97.9796 102.112H98.079V98.3533H99.2523V108.535H98.1188V107.362H97.9796C97.8934 107.501 97.7708 107.677 97.6117 107.889C97.4526 108.098 97.2256 108.285 96.9306 108.451C96.6356 108.613 96.2428 108.694 95.7523 108.694ZM95.9114 107.64C96.382 107.64 96.7798 107.518 97.1046 107.272C97.4294 107.024 97.6763 106.681 97.8453 106.243C98.0144 105.802 98.0989 105.294 98.0989 104.717C98.0989 104.147 98.016 103.648 97.8503 103.221C97.6846 102.79 97.4393 102.455 97.1145 102.216C96.7897 101.974 96.3887 101.853 95.9114 101.853C95.4142 101.853 94.9999 101.981 94.6685 102.236C94.3404 102.488 94.0935 102.831 93.9277 103.265C93.7653 103.696 93.6841 104.18 93.6841 104.717C93.6841 105.261 93.767 105.754 93.9327 106.199C94.1017 106.639 94.3503 106.991 94.6784 107.252C95.0099 107.511 95.4209 107.64 95.9114 107.64ZM104.766 108.694C104.03 108.694 103.395 108.532 102.862 108.207C102.331 107.879 101.922 107.422 101.634 106.835C101.349 106.245 101.206 105.559 101.206 104.777C101.206 103.994 101.349 103.305 101.634 102.708C101.922 102.109 102.323 101.641 102.837 101.306C103.354 100.968 103.957 100.799 104.646 100.799C105.044 100.799 105.437 100.866 105.825 100.998C106.213 101.131 106.566 101.346 106.884 101.645C107.202 101.94 107.455 102.331 107.644 102.818C107.833 103.305 107.928 103.905 107.928 104.618V105.115H102.041V104.1H106.735C106.735 103.67 106.648 103.285 106.476 102.947C106.307 102.609 106.065 102.342 105.75 102.147C105.439 101.951 105.071 101.853 104.646 101.853C104.179 101.853 103.775 101.969 103.433 102.201C103.095 102.43 102.835 102.728 102.653 103.096C102.471 103.464 102.379 103.859 102.379 104.279V104.956C102.379 105.532 102.479 106.021 102.678 106.422C102.88 106.82 103.16 107.123 103.518 107.332C103.876 107.538 104.292 107.64 104.766 107.64C105.074 107.64 105.352 107.597 105.601 107.511C105.853 107.422 106.07 107.289 106.252 107.113C106.435 106.934 106.575 106.712 106.675 106.447L107.808 106.765C107.689 107.15 107.489 107.488 107.207 107.779C106.925 108.068 106.577 108.293 106.163 108.456C105.749 108.615 105.283 108.694 104.766 108.694ZM119.059 102.609L118.005 102.907C117.939 102.732 117.841 102.561 117.712 102.395C117.586 102.226 117.414 102.087 117.195 101.978C116.976 101.868 116.696 101.814 116.355 101.814C115.887 101.814 115.498 101.921 115.186 102.137C114.878 102.349 114.724 102.619 114.724 102.947C114.724 103.239 114.83 103.469 115.042 103.638C115.254 103.807 115.586 103.948 116.036 104.061L117.17 104.339C117.853 104.505 118.361 104.758 118.696 105.1C119.031 105.438 119.198 105.874 119.198 106.407C119.198 106.845 119.072 107.236 118.82 107.581C118.572 107.925 118.224 108.197 117.776 108.396C117.329 108.595 116.809 108.694 116.215 108.694C115.436 108.694 114.792 108.525 114.281 108.187C113.771 107.849 113.448 107.355 113.312 106.706L114.426 106.427C114.532 106.838 114.732 107.146 115.027 107.352C115.325 107.557 115.715 107.66 116.195 107.66C116.742 107.66 117.177 107.544 117.498 107.312C117.823 107.077 117.985 106.795 117.985 106.467C117.985 106.202 117.892 105.98 117.707 105.801C117.521 105.618 117.236 105.483 116.852 105.393L115.579 105.095C114.88 104.929 114.366 104.672 114.038 104.324C113.713 103.973 113.551 103.534 113.551 103.007C113.551 102.576 113.672 102.195 113.914 101.863C114.159 101.532 114.492 101.272 114.913 101.083C115.337 100.894 115.818 100.799 116.355 100.799C117.11 100.799 117.704 100.965 118.134 101.297C118.569 101.628 118.877 102.065 119.059 102.609ZM124.067 108.694C123.377 108.694 122.772 108.53 122.252 108.202C121.735 107.874 121.331 107.415 121.039 106.825C120.751 106.235 120.607 105.546 120.607 104.757C120.607 103.961 120.751 103.267 121.039 102.674C121.331 102.08 121.735 101.62 122.252 101.292C122.772 100.963 123.377 100.799 124.067 100.799C124.756 100.799 125.359 100.963 125.876 101.292C126.397 101.62 126.801 102.08 127.089 102.674C127.381 103.267 127.527 103.961 127.527 104.757C127.527 105.546 127.381 106.235 127.089 106.825C126.801 107.415 126.397 107.874 125.876 108.202C125.359 108.53 124.756 108.694 124.067 108.694ZM124.067 107.64C124.59 107.64 125.021 107.506 125.359 107.238C125.697 106.969 125.948 106.616 126.11 106.179C126.272 105.741 126.354 105.267 126.354 104.757C126.354 104.246 126.272 103.771 126.11 103.33C125.948 102.889 125.697 102.533 125.359 102.261C125.021 101.989 124.59 101.853 124.067 101.853C123.543 101.853 123.112 101.989 122.774 102.261C122.436 102.533 122.186 102.889 122.023 103.33C121.861 103.771 121.78 104.246 121.78 104.757C121.78 105.267 121.861 105.741 122.023 106.179C122.186 106.616 122.436 106.969 122.774 107.238C123.112 107.506 123.543 107.64 124.067 107.64ZM134.131 105.413V100.899H135.304V108.535H134.131V107.243H134.051C133.872 107.63 133.594 107.96 133.216 108.232C132.838 108.5 132.361 108.635 131.784 108.635C131.307 108.635 130.882 108.53 130.511 108.321C130.14 108.109 129.848 107.791 129.636 107.367C129.424 106.939 129.318 106.401 129.318 105.751V100.899H130.491V105.672C130.491 106.228 130.647 106.672 130.959 107.004C131.273 107.335 131.675 107.501 132.162 107.501C132.453 107.501 132.75 107.426 133.052 107.277C133.357 107.128 133.612 106.9 133.817 106.591C134.026 106.283 134.131 105.89 134.131 105.413ZM137.453 108.535V100.899H138.586V102.052H138.666C138.805 101.674 139.057 101.368 139.422 101.132C139.786 100.897 140.197 100.779 140.654 100.779C140.741 100.779 140.848 100.781 140.978 100.784C141.107 100.788 141.205 100.793 141.271 100.799V101.993C141.231 101.983 141.14 101.968 140.998 101.948C140.858 101.925 140.711 101.913 140.555 101.913C140.184 101.913 139.852 101.991 139.561 102.147C139.272 102.299 139.044 102.511 138.875 102.783C138.709 103.051 138.626 103.358 138.626 103.703V108.535H137.453ZM145.532 108.694C144.816 108.694 144.199 108.525 143.682 108.187C143.165 107.849 142.767 107.383 142.489 106.79C142.211 106.197 142.071 105.519 142.071 104.757C142.071 103.981 142.214 103.297 142.499 102.703C142.787 102.107 143.188 101.641 143.702 101.306C144.219 100.968 144.822 100.799 145.512 100.799C146.049 100.799 146.533 100.899 146.963 101.098C147.394 101.297 147.747 101.575 148.022 101.933C148.297 102.291 148.468 102.708 148.534 103.186H147.361C147.272 102.838 147.073 102.529 146.765 102.261C146.46 101.989 146.049 101.853 145.532 101.853C145.074 101.853 144.673 101.973 144.328 102.211C143.987 102.447 143.72 102.78 143.528 103.211C143.339 103.638 143.245 104.14 143.245 104.717C143.245 105.307 143.337 105.821 143.523 106.258C143.712 106.696 143.977 107.035 144.319 107.277C144.663 107.519 145.068 107.64 145.532 107.64C145.837 107.64 146.113 107.587 146.362 107.481C146.61 107.375 146.821 107.223 146.993 107.024C147.166 106.825 147.288 106.586 147.361 106.308H148.534C148.468 106.759 148.304 107.165 148.042 107.526C147.784 107.884 147.441 108.169 147.013 108.381C146.589 108.59 146.095 108.694 145.532 108.694ZM153.451 108.694C152.716 108.694 152.081 108.532 151.547 108.207C151.017 107.879 150.608 107.422 150.319 106.835C150.034 106.245 149.892 105.559 149.892 104.777C149.892 103.994 150.034 103.305 150.319 102.708C150.608 102.109 151.009 101.641 151.522 101.306C152.039 100.968 152.643 100.799 153.332 100.799C153.73 100.799 154.123 100.866 154.51 100.998C154.898 101.131 155.251 101.346 155.569 101.645C155.887 101.94 156.141 102.331 156.33 102.818C156.519 103.305 156.613 103.905 156.613 104.618V105.115H150.727V104.1H155.42C155.42 103.67 155.334 103.285 155.162 102.947C154.993 102.609 154.751 102.342 154.436 102.147C154.124 101.951 153.756 101.853 153.332 101.853C152.865 101.853 152.46 101.969 152.119 102.201C151.781 102.43 151.521 102.728 151.338 103.096C151.156 103.464 151.065 103.859 151.065 104.279V104.956C151.065 105.532 151.164 106.021 151.363 106.422C151.565 106.82 151.846 107.123 152.203 107.332C152.561 107.538 152.977 107.64 153.451 107.64C153.76 107.64 154.038 107.597 154.287 107.511C154.538 107.422 154.756 107.289 154.938 107.113C155.12 106.934 155.261 106.712 155.36 106.447L156.494 106.765C156.375 107.15 156.174 107.488 155.892 107.779C155.611 108.068 155.263 108.293 154.848 108.456C154.434 108.615 153.968 108.694 153.451 108.694ZM163.807 102.609L162.753 102.907C162.687 102.732 162.589 102.561 162.46 102.395C162.334 102.226 162.162 102.087 161.943 101.978C161.724 101.868 161.444 101.814 161.103 101.814C160.635 101.814 160.246 101.921 159.934 102.137C159.626 102.349 159.472 102.619 159.472 102.947C159.472 103.239 159.578 103.469 159.79 103.638C160.002 103.807 160.334 103.948 160.784 104.061L161.918 104.339C162.601 104.505 163.109 104.758 163.444 105.1C163.779 105.438 163.946 105.874 163.946 106.407C163.946 106.845 163.82 107.236 163.569 107.581C163.32 107.925 162.972 108.197 162.525 108.396C162.077 108.595 161.557 108.694 160.963 108.694C160.185 108.694 159.54 108.525 159.029 108.187C158.519 107.849 158.196 107.355 158.06 106.706L159.174 106.427C159.28 106.838 159.48 107.146 159.775 107.352C160.074 107.557 160.463 107.66 160.944 107.66C161.49 107.66 161.925 107.544 162.246 107.312C162.571 107.077 162.733 106.795 162.733 106.467C162.733 106.202 162.641 105.98 162.455 105.801C162.269 105.618 161.984 105.483 161.6 105.393L160.327 105.095C159.628 104.929 159.114 104.672 158.786 104.324C158.461 103.973 158.299 103.534 158.299 103.007C158.299 102.576 158.42 102.195 158.662 101.863C158.907 101.532 159.24 101.272 159.661 101.083C160.085 100.894 160.566 100.799 161.103 100.799C161.858 100.799 162.452 100.965 162.882 101.297C163.317 101.628 163.625 102.065 163.807 102.609ZM18.4528 128.399V117.899H19.5863V119.112H19.7255C19.8117 118.979 19.931 118.81 20.0835 118.605C20.2392 118.396 20.4613 118.21 20.7496 118.048C21.0413 117.882 21.4357 117.799 21.9329 117.799C22.5759 117.799 23.1426 117.96 23.6332 118.282C24.1237 118.603 24.5065 119.059 24.7816 119.649C25.0567 120.239 25.1942 120.935 25.1942 121.737C25.1942 122.546 25.0567 123.247 24.7816 123.84C24.5065 124.43 24.1254 124.887 23.6381 125.212C23.1509 125.533 22.5891 125.694 21.9528 125.694C21.4622 125.694 21.0695 125.613 20.7745 125.451C20.4795 125.285 20.2525 125.098 20.0934 124.889C19.9343 124.677 19.8117 124.501 19.7255 124.362H19.6261V128.399H18.4528ZM19.6062 121.717C19.6062 122.294 19.6907 122.802 19.8597 123.243C20.0288 123.681 20.2757 124.024 20.6005 124.272C20.9253 124.518 21.323 124.64 21.7937 124.64C22.2842 124.64 22.6935 124.511 23.0217 124.252C23.3531 123.991 23.6017 123.639 23.7674 123.199C23.9364 122.754 24.021 122.261 24.021 121.717C24.021 121.18 23.9381 120.696 23.7724 120.265C23.61 119.831 23.363 119.488 23.0316 119.236C22.7035 118.981 22.2908 118.853 21.7937 118.853C21.3164 118.853 20.9154 118.974 20.5906 119.216C20.2657 119.455 20.0205 119.79 19.8548 120.221C19.689 120.648 19.6062 121.147 19.6062 121.717ZM30.1857 125.694C29.4499 125.694 28.8152 125.532 28.2816 125.207C27.7513 124.879 27.342 124.422 27.0536 123.835C26.7686 123.245 26.6261 122.559 26.6261 121.777C26.6261 120.994 26.7686 120.305 27.0536 119.708C27.342 119.109 27.743 118.641 28.2567 118.306C28.7738 117.968 29.377 117.799 30.0664 117.799C30.4641 117.799 30.8569 117.866 31.2447 117.998C31.6325 118.131 31.9854 118.346 32.3036 118.645C32.6218 118.94 32.8754 119.331 33.0643 119.818C33.2532 120.305 33.3477 120.905 33.3477 121.618V122.115H27.4613V121.1H32.1545C32.1545 120.67 32.0683 120.285 31.896 119.947C31.7269 119.609 31.485 119.342 31.1701 119.147C30.8585 118.951 30.4906 118.853 30.0664 118.853C29.5991 118.853 29.1947 118.969 28.8533 119.201C28.5153 119.43 28.2551 119.728 28.0728 120.096C27.8905 120.464 27.7994 120.859 27.7994 121.279V121.956C27.7994 122.532 27.8988 123.021 28.0977 123.422C28.2998 123.82 28.5799 124.123 28.9379 124.332C29.2958 124.538 29.7118 124.64 30.1857 124.64C30.494 124.64 30.7724 124.597 31.021 124.511C31.2728 124.422 31.4899 124.289 31.6722 124.113C31.8545 123.934 31.9954 123.712 32.0948 123.447L33.2283 123.765C33.109 124.15 32.9085 124.488 32.6268 124.779C32.3451 125.068 31.997 125.293 31.5827 125.456C31.1684 125.615 30.7028 125.694 30.1857 125.694ZM35.1325 125.535V117.899H36.266V119.052H36.3455C36.4847 118.674 36.7366 118.368 37.1012 118.132C37.4658 117.897 37.8768 117.779 38.3342 117.779C38.4203 117.779 38.5281 117.781 38.6573 117.784C38.7866 117.788 38.8844 117.793 38.9506 117.799V118.993C38.9109 118.983 38.8197 118.968 38.6772 118.948C38.538 118.925 38.3905 118.913 38.2347 118.913C37.8635 118.913 37.5321 118.991 37.2404 119.147C36.9521 119.299 36.7234 119.511 36.5543 119.783C36.3886 120.051 36.3058 120.358 36.3058 120.703V125.535H35.1325ZM44.141 117.899V118.893H40.1836V117.899H44.141ZM41.337 116.069H42.5103V123.348C42.5103 123.679 42.5584 123.928 42.6545 124.093C42.7539 124.256 42.8799 124.365 43.0323 124.422C43.1881 124.475 43.3522 124.501 43.5245 124.501C43.6538 124.501 43.7598 124.494 43.8427 124.481C43.9255 124.465 43.9918 124.451 44.0415 124.441L44.2802 125.495C44.2006 125.525 44.0896 125.555 43.9471 125.585C43.8046 125.618 43.6239 125.635 43.4052 125.635C43.0737 125.635 42.7489 125.563 42.4308 125.421C42.1159 125.278 41.854 125.061 41.6452 124.77C41.4397 124.478 41.337 124.11 41.337 123.666V116.069ZM45.9059 125.535V117.899H47.0792V125.535H45.9059ZM46.5025 116.626C46.2738 116.626 46.0766 116.548 45.9109 116.392C45.7485 116.237 45.6673 116.049 45.6673 115.831C45.6673 115.612 45.7485 115.425 45.9109 115.269C46.0766 115.113 46.2738 115.035 46.5025 115.035C46.7312 115.035 46.9267 115.113 47.0891 115.269C47.2549 115.425 47.3377 115.612 47.3377 115.831C47.3377 116.049 47.2549 116.237 47.0891 116.392C46.9267 116.548 46.7312 116.626 46.5025 116.626ZM50.4015 120.941V125.535H49.2282V117.899H50.3617V119.092H50.4611C50.6401 118.704 50.9119 118.393 51.2765 118.157C51.641 117.919 52.1117 117.799 52.6884 117.799C53.2054 117.799 53.6578 117.905 54.0456 118.118C54.4334 118.326 54.735 118.645 54.9505 119.072C55.1659 119.496 55.2736 120.033 55.2736 120.683V125.535H54.1003V120.762C54.1003 120.163 53.9445 119.695 53.633 119.36C53.3214 119.022 52.8939 118.853 52.3503 118.853C51.9758 118.853 51.641 118.935 51.3461 119.097C51.0544 119.259 50.824 119.496 50.655 119.808C50.486 120.119 50.4015 120.497 50.4015 120.941ZM60.6193 125.694C59.8835 125.694 59.2488 125.532 58.7152 125.207C58.1849 124.879 57.7756 124.422 57.4872 123.835C57.2022 123.245 57.0597 122.559 57.0597 121.777C57.0597 120.994 57.2022 120.305 57.4872 119.708C57.7756 119.109 58.1766 118.641 58.6903 118.306C59.2074 117.968 59.8106 117.799 60.5 117.799C60.8977 117.799 61.2905 117.866 61.6783 117.998C62.0661 118.131 62.419 118.346 62.7372 118.645C63.0554 118.94 63.3089 119.331 63.4979 119.818C63.6868 120.305 63.7812 120.905 63.7812 121.618V122.115H57.8949V121.1H62.5881C62.5881 120.67 62.5019 120.285 62.3295 119.947C62.1605 119.609 61.9186 119.342 61.6037 119.147C61.2921 118.951 60.9242 118.853 60.5 118.853C60.0327 118.853 59.6283 118.969 59.2869 119.201C58.9489 119.43 58.6887 119.728 58.5064 120.096C58.3241 120.464 58.233 120.859 58.233 121.279V121.956C58.233 122.532 58.3324 123.021 58.5312 123.422C58.7334 123.82 59.0135 124.123 59.3714 124.332C59.7294 124.538 60.1454 124.64 60.6193 124.64C60.9276 124.64 61.206 124.597 61.4545 124.511C61.7064 124.422 61.9235 124.289 62.1058 124.113C62.2881 123.934 62.429 123.712 62.5284 123.447L63.6619 123.765C63.5426 124.15 63.3421 124.488 63.0604 124.779C62.7786 125.068 62.4306 125.293 62.0163 125.456C61.602 125.615 61.1364 125.694 60.6193 125.694ZM66.7393 120.941V125.535H65.5661V117.899H66.6996V119.092H66.799C66.978 118.704 67.2498 118.393 67.6143 118.157C67.9789 117.919 68.4496 117.799 69.0263 117.799C69.5433 117.799 69.9957 117.905 70.3835 118.118C70.7713 118.326 71.0729 118.645 71.2884 119.072C71.5038 119.496 71.6115 120.033 71.6115 120.683V125.535H70.4382V120.762C70.4382 120.163 70.2824 119.695 69.9709 119.36C69.6593 119.022 69.2318 118.853 68.6882 118.853C68.3137 118.853 67.9789 118.935 67.6839 119.097C67.3923 119.259 67.1619 119.496 66.9929 119.808C66.8239 120.119 66.7393 120.497 66.7393 120.941ZM77.0765 117.899V118.893H73.1191V117.899H77.0765ZM74.2725 116.069H75.4458V123.348C75.4458 123.679 75.4939 123.928 75.59 124.093C75.6895 124.256 75.8154 124.365 75.9679 124.422C76.1236 124.475 76.2877 124.501 76.46 124.501C76.5893 124.501 76.6954 124.494 76.7782 124.481C76.8611 124.465 76.9274 124.451 76.9771 124.441L77.2157 125.495C77.1362 125.525 77.0252 125.555 76.8826 125.585C76.7401 125.618 76.5595 125.635 76.3407 125.635C76.0093 125.635 75.6845 125.563 75.3663 125.421C75.0514 125.278 74.7896 125.061 74.5808 124.77C74.3753 124.478 74.2725 124.11 74.2725 123.666V116.069ZM81.9611 125.694C81.2253 125.694 80.5906 125.532 80.057 125.207C79.5267 124.879 79.1174 124.422 78.829 123.835C78.544 123.245 78.4015 122.559 78.4015 121.777C78.4015 120.994 78.544 120.305 78.829 119.708C79.1174 119.109 79.5184 118.641 80.0321 118.306C80.5492 117.968 81.1524 117.799 81.8418 117.799C82.2395 117.799 82.6323 117.866 83.0201 117.998C83.4078 118.131 83.7608 118.346 84.079 118.645C84.3972 118.94 84.6507 119.331 84.8397 119.818C85.0286 120.305 85.123 120.905 85.123 121.618V122.115H79.2367V121.1H83.9299C83.9299 120.67 83.8437 120.285 83.6713 119.947C83.5023 119.609 83.2604 119.342 82.9455 119.147C82.6339 118.951 82.266 118.853 81.8418 118.853C81.3745 118.853 80.9701 118.969 80.6287 119.201C80.2907 119.43 80.0305 119.728 79.8482 120.096C79.6659 120.464 79.5748 120.859 79.5748 121.279V121.956C79.5748 122.532 79.6742 123.021 79.873 123.422C80.0752 123.82 80.3553 124.123 80.7132 124.332C81.0712 124.538 81.4872 124.64 81.9611 124.64C82.2694 124.64 82.5478 124.597 82.7963 124.511C83.0482 124.422 83.2653 124.289 83.4476 124.113C83.6299 123.934 83.7708 123.712 83.8702 123.447L85.0037 123.765C84.8844 124.15 84.6839 124.488 84.4022 124.779C84.1204 125.068 83.7724 125.293 83.3581 125.456C82.9438 125.615 82.4782 125.694 81.9611 125.694ZM92.3169 119.609L91.263 119.907C91.1967 119.732 91.0989 119.561 90.9696 119.395C90.8437 119.226 90.6713 119.087 90.4526 118.978C90.2338 118.868 89.9538 118.814 89.6124 118.814C89.1451 118.814 88.7556 118.921 88.4441 119.137C88.1358 119.349 87.9817 119.619 87.9817 119.947C87.9817 120.239 88.0878 120.469 88.2999 120.638C88.512 120.807 88.8435 120.948 89.2942 121.061L90.4277 121.339C91.1105 121.505 91.6193 121.758 91.954 122.1C92.2888 122.438 92.4561 122.874 92.4561 123.407C92.4561 123.845 92.3302 124.236 92.0783 124.581C91.8297 124.925 91.4817 125.197 91.0343 125.396C90.5868 125.595 90.0665 125.694 89.4732 125.694C88.6943 125.694 88.0497 125.525 87.5392 125.187C87.0288 124.849 86.7057 124.355 86.5698 123.706L87.6834 123.427C87.7895 123.838 87.99 124.146 88.285 124.352C88.5833 124.557 88.9727 124.66 89.4533 124.66C90.0002 124.66 90.4344 124.544 90.7559 124.312C91.0807 124.077 91.2431 123.795 91.2431 123.467C91.2431 123.202 91.1503 122.98 90.9647 122.801C90.7791 122.618 90.494 122.483 90.1096 122.393L88.8368 122.095C88.1375 121.929 87.6238 121.672 87.2956 121.324C86.9708 120.973 86.8084 120.534 86.8084 120.007C86.8084 119.576 86.9294 119.195 87.1713 118.863C87.4166 118.532 87.7497 118.272 88.1706 118.083C88.5949 117.894 89.0755 117.799 89.6124 117.799C90.3681 117.799 90.9614 117.965 91.3922 118.297C91.8264 118.628 92.1346 119.065 92.3169 119.609ZM101.362 125.694C100.626 125.694 99.991 125.532 99.4574 125.207C98.9271 124.879 98.5178 124.422 98.2294 123.835C97.9444 123.245 97.8018 122.559 97.8018 121.777C97.8018 120.994 97.9444 120.305 98.2294 119.708C98.5178 119.109 98.9188 118.641 99.4325 118.306C99.9496 117.968 100.553 117.799 101.242 117.799C101.64 117.799 102.033 117.866 102.42 117.998C102.808 118.131 103.161 118.346 103.479 118.645C103.798 118.94 104.051 119.331 104.24 119.818C104.429 120.305 104.523 120.905 104.523 121.618V122.115H98.6371V121.1H103.33C103.33 120.67 103.244 120.285 103.072 119.947C102.903 119.609 102.661 119.342 102.346 119.147C102.034 118.951 101.666 118.853 101.242 118.853C100.775 118.853 100.371 118.969 100.029 119.201C99.6911 119.43 99.4309 119.728 99.2486 120.096C99.0663 120.464 98.9751 120.859 98.9751 121.279V121.956C98.9751 122.532 99.0746 123.021 99.2734 123.422C99.4756 123.82 99.7557 124.123 100.114 124.332C100.472 124.538 100.888 124.64 101.362 124.64C101.67 124.64 101.948 124.597 102.197 124.511C102.449 124.422 102.666 124.289 102.848 124.113C103.03 123.934 103.171 123.712 103.271 123.447L104.404 123.765C104.285 124.15 104.084 124.488 103.803 124.779C103.521 125.068 103.173 125.293 102.759 125.456C102.344 125.615 101.879 125.694 101.362 125.694ZM109.629 117.899V118.893H105.672V117.899H109.629ZM106.825 116.069H107.999V123.348C107.999 123.679 108.047 123.928 108.143 124.093C108.242 124.256 108.368 124.365 108.521 124.422C108.676 124.475 108.84 124.501 109.013 124.501C109.142 124.501 109.248 124.494 109.331 124.481C109.414 124.465 109.48 124.451 109.53 124.441L109.768 125.495C109.689 125.525 109.578 125.555 109.435 125.585C109.293 125.618 109.112 125.635 108.893 125.635C108.562 125.635 108.237 125.563 107.919 125.421C107.604 125.278 107.342 125.061 107.134 124.77C106.928 124.478 106.825 124.11 106.825 123.666V116.069ZM118.215 125.694C117.579 125.694 117.017 125.533 116.53 125.212C116.043 124.887 115.661 124.43 115.386 123.84C115.111 123.247 114.974 122.546 114.974 121.737C114.974 120.935 115.111 120.239 115.386 119.649C115.661 119.059 116.044 118.603 116.535 118.282C117.025 117.96 117.592 117.799 118.235 117.799C118.732 117.799 119.125 117.882 119.413 118.048C119.705 118.21 119.927 118.396 120.08 118.605C120.235 118.81 120.356 118.979 120.442 119.112H120.542V115.353H121.715V125.535H120.582V124.362H120.442C120.356 124.501 120.234 124.677 120.075 124.889C119.915 125.098 119.688 125.285 119.393 125.451C119.098 125.613 118.706 125.694 118.215 125.694ZM118.374 124.64C118.845 124.64 119.243 124.518 119.567 124.272C119.892 124.024 120.139 123.681 120.308 123.243C120.477 122.802 120.562 122.294 120.562 121.717C120.562 121.147 120.479 120.648 120.313 120.221C120.147 119.79 119.902 119.455 119.577 119.216C119.253 118.974 118.852 118.853 118.374 118.853C117.877 118.853 117.463 118.981 117.131 119.236C116.803 119.488 116.556 119.831 116.391 120.265C116.228 120.696 116.147 121.18 116.147 121.717C116.147 122.261 116.23 122.754 116.396 123.199C116.565 123.639 116.813 123.991 117.141 124.252C117.473 124.511 117.884 124.64 118.374 124.64ZM127.229 125.694C126.493 125.694 125.858 125.532 125.325 125.207C124.794 124.879 124.385 124.422 124.097 123.835C123.812 123.245 123.669 122.559 123.669 121.777C123.669 120.994 123.812 120.305 124.097 119.708C124.385 119.109 124.786 118.641 125.3 118.306C125.817 117.968 126.42 117.799 127.109 117.799C127.507 117.799 127.9 117.866 128.288 117.998C128.675 118.131 129.028 118.346 129.347 118.645C129.665 118.94 129.918 119.331 130.107 119.818C130.296 120.305 130.391 120.905 130.391 121.618V122.115H124.504V121.1H129.197C129.197 120.67 129.111 120.285 128.939 119.947C128.77 119.609 128.528 119.342 128.213 119.147C127.902 118.951 127.534 118.853 127.109 118.853C126.642 118.853 126.238 118.969 125.896 119.201C125.558 119.43 125.298 119.728 125.116 120.096C124.933 120.464 124.842 120.859 124.842 121.279V121.956C124.842 122.532 124.942 123.021 125.141 123.422C125.343 123.82 125.623 124.123 125.981 124.332C126.339 124.538 126.755 124.64 127.229 124.64C127.537 124.64 127.815 124.597 128.064 124.511C128.316 124.422 128.533 124.289 128.715 124.113C128.897 123.934 129.038 123.712 129.138 123.447L130.271 123.765C130.152 124.15 129.951 124.488 129.67 124.779C129.388 125.068 129.04 125.293 128.626 125.456C128.211 125.615 127.746 125.694 127.229 125.694ZM141.323 128.399V124.362H141.224C141.138 124.501 141.015 124.677 140.856 124.889C140.697 125.098 140.47 125.285 140.175 125.451C139.88 125.613 139.487 125.694 138.996 125.694C138.36 125.694 137.798 125.533 137.311 125.212C136.824 124.887 136.443 124.43 136.168 123.84C135.893 123.247 135.755 122.546 135.755 121.737C135.755 120.935 135.893 120.239 136.168 119.649C136.443 119.059 136.826 118.603 137.316 118.282C137.807 117.96 138.373 117.799 139.016 117.799C139.513 117.799 139.906 117.882 140.195 118.048C140.486 118.21 140.708 118.396 140.861 118.605C141.017 118.81 141.138 118.979 141.224 119.112H141.363V117.899H142.496V128.399H141.323ZM139.156 124.64C139.626 124.64 140.024 124.518 140.349 124.272C140.674 124.024 140.92 123.681 141.089 123.243C141.259 122.802 141.343 122.294 141.343 121.717C141.343 121.147 141.26 120.648 141.094 120.221C140.929 119.79 140.683 119.455 140.359 119.216C140.034 118.974 139.633 118.853 139.156 118.853C138.658 118.853 138.244 118.981 137.913 119.236C137.585 119.488 137.338 119.831 137.172 120.265C137.009 120.696 136.928 121.18 136.928 121.717C136.928 122.261 137.011 122.754 137.177 123.199C137.346 123.639 137.594 123.991 137.923 124.252C138.254 124.511 138.665 124.64 139.156 124.64ZM149.457 122.413V117.899H150.63V125.535H149.457V124.243H149.377C149.198 124.63 148.92 124.96 148.542 125.232C148.164 125.5 147.687 125.635 147.11 125.635C146.633 125.635 146.209 125.53 145.837 125.321C145.466 125.109 145.174 124.791 144.962 124.367C144.75 123.939 144.644 123.401 144.644 122.751V117.899H145.817V122.672C145.817 123.228 145.973 123.672 146.285 124.004C146.6 124.335 147.001 124.501 147.488 124.501C147.78 124.501 148.076 124.426 148.378 124.277C148.683 124.128 148.938 123.9 149.143 123.591C149.352 123.283 149.457 122.89 149.457 122.413ZM155.026 125.714C154.542 125.714 154.103 125.623 153.709 125.441C153.314 125.255 153.001 124.988 152.769 124.64C152.537 124.289 152.421 123.865 152.421 123.368C152.421 122.93 152.507 122.575 152.68 122.304C152.852 122.029 153.082 121.813 153.371 121.657C153.659 121.502 153.977 121.386 154.325 121.309C154.676 121.23 155.029 121.167 155.384 121.12C155.848 121.061 156.224 121.016 156.513 120.986C156.804 120.953 157.016 120.898 157.149 120.822C157.285 120.746 157.353 120.613 157.353 120.424V120.385C157.353 119.894 157.219 119.513 156.95 119.241C156.685 118.969 156.282 118.833 155.742 118.833C155.182 118.833 154.743 118.956 154.425 119.201C154.106 119.447 153.883 119.708 153.753 119.987L152.64 119.589C152.839 119.125 153.104 118.764 153.435 118.505C153.77 118.243 154.135 118.061 154.529 117.958C154.927 117.852 155.318 117.799 155.702 117.799C155.948 117.799 156.229 117.829 156.547 117.889C156.869 117.945 157.179 118.063 157.477 118.242C157.779 118.421 158.029 118.691 158.228 119.052C158.427 119.413 158.526 119.897 158.526 120.504V125.535H157.353V124.501H157.293C157.214 124.667 157.081 124.844 156.895 125.033C156.71 125.222 156.463 125.383 156.155 125.515C155.846 125.648 155.47 125.714 155.026 125.714ZM155.205 124.66C155.669 124.66 156.06 124.569 156.378 124.387C156.7 124.204 156.942 123.969 157.104 123.681C157.27 123.392 157.353 123.089 157.353 122.771V121.697C157.303 121.757 157.194 121.811 157.025 121.861C156.859 121.908 156.667 121.949 156.448 121.985C156.233 122.019 156.022 122.048 155.817 122.075C155.614 122.098 155.45 122.118 155.324 122.135C155.019 122.174 154.734 122.239 154.469 122.328C154.207 122.415 153.995 122.546 153.833 122.721C153.674 122.894 153.594 123.129 153.594 123.427C153.594 123.835 153.745 124.143 154.047 124.352C154.352 124.557 154.738 124.66 155.205 124.66ZM161.841 115.353V125.535H160.668V115.353H161.841ZM163.99 125.535V117.899H165.163V125.535H163.99ZM164.586 116.626C164.358 116.626 164.161 116.548 163.995 116.392C163.832 116.237 163.751 116.049 163.751 115.831C163.751 115.612 163.832 115.425 163.995 115.269C164.161 115.113 164.358 115.035 164.586 115.035C164.815 115.035 165.011 115.113 165.173 115.269C165.339 115.425 165.422 115.612 165.422 115.831C165.422 116.049 165.339 116.237 165.173 116.392C165.011 116.548 164.815 116.626 164.586 116.626ZM170.633 117.899V118.893H166.676V117.899H170.633ZM167.829 116.069H169.002V123.348C169.002 123.679 169.051 123.928 169.147 124.093C169.246 124.256 169.372 124.365 169.525 124.422C169.68 124.475 169.844 124.501 170.017 124.501C170.146 124.501 170.252 124.494 170.335 124.481C170.418 124.465 170.484 124.451 170.534 124.441L170.772 125.495C170.693 125.525 170.582 125.555 170.439 125.585C170.297 125.618 170.116 125.635 169.897 125.635C169.566 125.635 169.241 125.563 168.923 125.421C168.608 125.278 168.346 125.061 168.137 124.77C167.932 124.478 167.829 124.11 167.829 123.666V116.069ZM175.518 125.694C174.782 125.694 174.147 125.532 173.614 125.207C173.083 124.879 172.674 124.422 172.386 123.835C172.101 123.245 171.958 122.559 171.958 121.777C171.958 120.994 172.101 120.305 172.386 119.708C172.674 119.109 173.075 118.641 173.589 118.306C174.106 117.968 174.709 117.799 175.398 117.799C175.796 117.799 176.189 117.866 176.577 117.998C176.964 118.131 177.317 118.346 177.636 118.645C177.954 118.94 178.207 119.331 178.396 119.818C178.585 120.305 178.68 120.905 178.68 121.618V122.115H172.793V121.1H177.487C177.487 120.67 177.4 120.285 177.228 119.947C177.059 119.609 176.817 119.342 176.502 119.147C176.191 118.951 175.823 118.853 175.398 118.853C174.931 118.853 174.527 118.969 174.185 119.201C173.847 119.43 173.587 119.728 173.405 120.096C173.223 120.464 173.131 120.859 173.131 121.279V121.956C173.131 122.532 173.231 123.021 173.43 123.422C173.632 123.82 173.912 124.123 174.27 124.332C174.628 124.538 175.044 124.64 175.518 124.64C175.826 124.64 176.104 124.597 176.353 124.511C176.605 124.422 176.822 124.289 177.004 124.113C177.187 123.934 177.327 123.712 177.427 123.447L178.56 123.765C178.441 124.15 178.241 124.488 177.959 124.779C177.677 125.068 177.329 125.293 176.915 125.456C176.5 125.615 176.035 125.694 175.518 125.694ZM174.802 116.865L176.015 114.558H177.387L175.836 116.865H174.802Z" fill="black"/>
</g>
<path d="M330.521 21.3626L331.442 20.078C335.387 23.1301 338.746 30.0148 340.552 37.9861C342.371 46.0188 342.698 55.5104 340.256 64.03C337.797 72.6116 332.509 80.234 323.194 84.2071C313.971 88.141 301.032 88.3954 283.361 82.9123L283.884 81.421L284.407 79.9296C301.799 85.326 314.012 84.8983 322.347 81.3432C330.591 77.8271 335.266 71.1534 337.491 63.3861C339.735 55.5568 339.467 46.6468 337.731 38.9795C335.98 31.2509 332.82 25.1373 329.601 22.6472L330.521 21.3626Z" fill="black"/>
<path d="M306.05 75.1915C306.586 75.0579 307.073 75.3942 307.137 75.9427C307.201 76.4912 306.819 77.0443 306.283 77.1779L306.167 76.1847L306.05 75.1915ZM281.46 79.8831L281.938 78.9382V78.9382L281.46 79.8831ZM288.201 89.7112L289.099 89.1973L288.201 89.7112ZM288.642 101.241L287.716 101.034L287.72 101.02L288.642 101.241ZM289.569 101.451C289.397 102.004 288.843 102.359 288.331 102.245C287.82 102.13 287.544 101.589 287.716 101.036L288.642 101.244L289.569 101.451ZM306.167 76.1847L306.283 77.1779C302.831 78.0391 297.313 79.2816 292.307 80.1531C289.806 80.5886 287.415 80.9349 285.465 81.0925C284.491 81.1713 283.609 81.2046 282.87 81.1747C282.157 81.1459 281.48 81.0559 280.982 80.8281L281.46 79.8831L281.938 78.9382C282.122 79.0227 282.515 79.105 283.177 79.1317C283.814 79.1574 284.614 79.1296 285.547 79.0541C287.413 78.9033 289.739 78.5682 292.214 78.1371C297.162 77.2756 302.632 76.0442 306.05 75.1915L306.167 76.1847ZM281.46 79.8831L280.982 80.8281C280.849 80.7672 280.821 80.7672 280.859 80.7737C280.87 80.7755 280.994 80.7996 281.17 80.7523C281.399 80.691 281.726 80.4966 281.887 80.0968C282.008 79.7964 281.953 79.5628 281.943 79.5193C281.927 79.4492 281.907 79.4131 281.912 79.423C281.92 79.4394 281.953 79.4972 282.034 79.6085C282.363 80.0618 283.038 80.8227 283.918 81.8421C285.612 83.8054 287.972 86.6255 289.099 89.1973L288.201 89.7112L287.304 90.2251C286.303 87.9387 284.126 85.3112 282.398 83.3083C281.567 82.3446 280.81 81.4927 280.426 80.9624C280.328 80.8278 280.228 80.6789 280.155 80.5321C280.119 80.4604 280.072 80.3536 280.041 80.224C280.017 80.1212 279.962 79.8395 280.098 79.5029C280.273 79.0668 280.63 78.848 280.903 78.7748C281.124 78.7154 281.309 78.7399 281.396 78.7549C281.588 78.7879 281.779 78.8657 281.938 78.9382L281.46 79.8831ZM288.201 89.7112L289.099 89.1973C291.457 94.5821 290.114 99.7668 289.564 101.463L288.642 101.241L287.72 101.02C288.197 99.5493 289.382 94.9703 287.304 90.2251L288.201 89.7112ZM288.642 101.241L289.568 101.449C289.539 101.545 289.52 101.603 289.511 101.634C289.509 101.642 289.507 101.647 289.506 101.651C289.505 101.653 289.505 101.655 289.504 101.656C289.504 101.657 289.504 101.657 289.504 101.655C289.504 101.655 289.505 101.653 289.506 101.65C289.506 101.649 289.507 101.647 289.507 101.646C289.508 101.644 289.509 101.641 289.509 101.639C289.51 101.636 289.512 101.628 289.514 101.623C289.516 101.614 289.524 101.58 289.53 101.556C289.553 101.345 288.723 100.434 287.717 101.079C287.695 101.125 287.67 101.186 287.665 101.2C287.663 101.206 287.66 101.216 287.658 101.22C287.658 101.222 287.656 101.226 287.656 101.228C287.655 101.231 287.654 101.234 287.653 101.235C287.653 101.236 287.653 101.237 287.652 101.238C287.652 101.24 287.652 101.241 287.652 101.24C287.652 101.239 287.652 101.238 287.653 101.237C287.657 101.223 287.667 101.192 287.68 101.15C287.693 101.108 287.709 101.058 287.724 101.008C287.74 100.958 287.755 100.908 287.768 100.869C287.774 100.849 287.779 100.831 287.784 100.817C287.786 100.811 287.788 100.804 287.79 100.799C287.791 100.794 287.793 100.789 287.794 100.786C287.794 100.784 287.795 100.781 287.796 100.778C287.797 100.777 287.797 100.776 287.797 100.774C287.798 100.773 287.799 100.77 287.8 100.768C287.8 100.766 287.801 100.763 287.802 100.761C287.803 100.759 287.805 100.752 287.806 100.749C287.808 100.743 287.815 100.725 287.819 100.714C287.832 100.682 288.067 100.321 288.38 100.085C289.335 100.13 289.679 101.071 289.669 101.119C289.665 101.134 289.66 101.155 289.658 101.163C289.657 101.167 289.655 101.174 289.654 101.177C289.653 101.178 289.652 101.182 289.652 101.183C289.651 101.187 289.65 101.189 289.65 101.19C289.649 101.192 289.649 101.193 289.649 101.194C289.648 101.198 289.647 101.201 289.646 101.202C289.645 101.207 289.643 101.212 289.641 101.218C289.639 101.224 289.637 101.232 289.634 101.242C289.622 101.28 289.601 101.347 289.569 101.451L288.642 101.244L287.716 101.036C287.749 100.932 287.769 100.866 287.781 100.829C287.783 100.819 287.786 100.812 287.787 100.806C287.789 100.801 287.79 100.797 287.791 100.796C287.791 100.795 287.791 100.796 287.79 100.797C287.79 100.798 287.79 100.799 287.789 100.8C287.789 100.801 287.788 100.804 287.787 100.807C287.787 100.808 287.786 100.812 287.786 100.813C287.785 100.816 287.783 100.823 287.782 100.827C287.78 100.834 287.774 100.856 287.771 100.871C287.761 100.919 288.104 101.86 289.059 101.904C289.372 101.669 289.608 101.308 289.62 101.276C289.625 101.265 289.631 101.247 289.633 101.241C289.635 101.237 289.637 101.231 289.638 101.229C289.638 101.227 289.639 101.224 289.64 101.223C289.641 101.22 289.641 101.218 289.642 101.217C289.642 101.215 289.642 101.214 289.642 101.214C289.643 101.212 289.643 101.211 289.643 101.212C289.643 101.213 289.642 101.216 289.64 101.221C289.639 101.225 289.637 101.231 289.635 101.237C289.631 101.251 289.626 101.268 289.619 101.287C289.607 101.327 289.592 101.376 289.576 101.426C289.561 101.476 289.545 101.526 289.532 101.568C289.519 101.609 289.508 101.643 289.503 101.659C289.503 101.661 289.502 101.663 289.501 101.665C289.501 101.667 289.5 101.67 289.499 101.673C289.499 101.673 289.498 101.675 289.498 101.676C289.497 101.678 289.496 101.68 289.495 101.684C289.495 101.686 289.493 101.69 289.493 101.692C289.491 101.696 289.488 101.706 289.485 101.712C289.481 101.726 289.456 101.787 289.434 101.833C288.428 102.478 287.598 101.567 287.621 101.356C287.626 101.332 287.635 101.298 287.637 101.289C287.639 101.284 287.641 101.276 287.642 101.273C287.642 101.271 287.643 101.267 287.644 101.266C287.644 101.265 287.645 101.263 287.645 101.262C287.646 101.258 287.647 101.255 287.647 101.254C287.648 101.252 287.649 101.249 287.649 101.247C287.65 101.245 287.651 101.243 287.652 101.24C287.653 101.235 287.655 101.229 287.658 101.221C287.667 101.189 287.686 101.13 287.716 101.034L288.642 101.241Z" fill="black"/>
<defs>
<filter id="filter0_d_906_720" x="0.000257015" y="58.1429" width="257.263" height="85.2632" filterUnits="userSpaceOnUse" color-interpolation-filters="sRGB">
<feFlood flood-opacity="0" result="BackgroundImageFix"/>
<feColorMatrix in="SourceAlpha" type="matrix" values="0 0 0 0 0 0 0 0 0 0 0 0 0 0 0 0 0 0 127 0" result="hardAlpha"/>
<feOffset dy="0.926316"/>
<feGaussianBlur stdDeviation="2.31579"/>
<feComposite in2="hardAlpha" operator="out"/>
<feColorMatrix type="matrix" values="0 0 0 0 0 0 0 0 0 0 0 0 0 0 0 0 0 0 0.25 0"/>
<feBlend mode="normal" in2="BackgroundImageFix" result="effect1_dropShadow_906_720"/>
<feBlend mode="normal" in="SourceGraphic" in2="effect1_dropShadow_906_720" result="shape"/>
</filter>
</defs>
</svg>
