<svg width="14" height="15" viewBox="0 0 14 15" fill="none" xmlns="http://www.w3.org/2000/svg">
<path d="M4.67492 2.29867C5.07359 1.132 6.68559 1.09667 7.15825 2.19267L7.19825 2.29933L7.73625 3.87267C7.85955 4.23349 8.05879 4.56367 8.32054 4.84095C8.58229 5.11822 8.90046 5.33614 9.25359 5.48L9.39825 5.534L10.9716 6.07133C12.1383 6.47 12.1736 8.082 11.0783 8.55467L10.9716 8.59467L9.39825 9.13267C9.03731 9.25588 8.70699 9.45509 8.4296 9.71684C8.1522 9.97859 7.93418 10.2968 7.79025 10.65L7.73625 10.794L7.19892 12.368C6.80025 13.5347 5.18825 13.57 4.71625 12.4747L4.67492 12.368L4.13759 10.7947C4.01437 10.4337 3.81517 10.1034 3.55341 9.82601C3.29166 9.54862 2.97345 9.3306 2.62025 9.18667L2.47625 9.13267L0.902919 8.59533C-0.264415 8.19667 -0.299748 6.58467 0.796252 6.11267L0.902919 6.07133L2.47625 5.534C2.83707 5.4107 3.16726 5.21146 3.44453 4.94971C3.72181 4.68796 3.93973 4.36979 4.08359 4.01667L4.13759 3.87267L4.67492 2.29867ZM5.93692 2.72933L5.39959 4.30267C5.21185 4.85287 4.90643 5.35554 4.50461 5.77566C4.10279 6.19579 3.61422 6.52328 3.07292 6.73533L2.90625 6.796L1.33292 7.33333L2.90625 7.87067C3.45645 8.05841 3.95912 8.36382 4.37925 8.76564C4.79938 9.16746 5.12687 9.65604 5.33892 10.1973L5.39959 10.364L5.93692 11.9373L6.47425 10.364C6.66199 9.8138 6.96741 9.31113 7.36923 8.891C7.77105 8.47087 8.25962 8.14338 8.80092 7.93133L8.96759 7.87133L10.5409 7.33333L8.96759 6.796C8.41738 6.60826 7.91472 6.30285 7.49459 5.90102C7.07446 5.4992 6.74697 5.01063 6.53492 4.46933L6.47492 4.30267L5.93692 2.72933ZM11.2703 1.20458e-07C11.395 -1.57315e-07 11.5172 0.0349855 11.623 0.100981C11.7288 0.166977 11.814 0.261335 11.8689 0.373333L11.9009 0.451333L12.1343 1.13533L12.8189 1.36867C12.9439 1.41113 13.0535 1.48974 13.1337 1.59454C13.214 1.69934 13.2613 1.82561 13.2698 1.95735C13.2782 2.08908 13.2473 2.22035 13.1811 2.33453C13.1148 2.4487 13.0161 2.54063 12.8976 2.59867L12.8189 2.63067L12.1349 2.864L11.9016 3.54867C11.859 3.67362 11.7804 3.78313 11.6755 3.86333C11.5707 3.94352 11.4444 3.99079 11.3127 3.99915C11.1809 4.0075 11.0497 3.97656 10.9356 3.91025C10.8214 3.84394 10.7296 3.74524 10.6716 3.62667L10.6396 3.54867L10.4063 2.86467L9.72159 2.63133C9.5966 2.58887 9.48703 2.51026 9.40677 2.40546C9.3265 2.30066 9.27916 2.17439 9.27073 2.04265C9.26231 1.91092 9.29318 1.77965 9.35944 1.66548C9.4257 1.5513 9.52436 1.45937 9.64292 1.40133L9.72159 1.36933L10.4056 1.136L10.6389 0.451333C10.6839 0.319617 10.7689 0.205272 10.8821 0.124333C10.9954 0.0433927 11.1311 -8.35209e-05 11.2703 1.20458e-07Z" fill="black"/>
</svg>
