<svg width="27" height="27" viewBox="0 0 27 27" fill="none" xmlns="http://www.w3.org/2000/svg">
<rect width="26.171" height="27" rx="13.0855" fill="#01CC77"/>
<path d="M20.5925 8.18329C20.6998 8.25905 20.7911 8.3552 20.8613 8.46626C20.9314 8.57733 20.979 8.70112 21.0013 8.83057C21.0236 8.96002 21.0201 9.0926 20.9912 9.22072C20.9622 9.34885 20.9083 9.47001 20.8325 9.57729L15.1665 17.5973C14.8065 18.1053 14.5015 18.5373 14.2265 18.8663C13.9395 19.2063 13.6165 19.5243 13.1885 19.7263C12.5542 20.0273 11.8307 20.0819 11.1585 19.8793C10.7025 19.7423 10.3385 19.4733 10.0095 19.1773C9.69448 18.8923 9.33748 18.5093 8.91948 18.0613L7.28448 16.3083C7.19141 16.213 7.11832 16.1 7.06951 15.976C7.02071 15.8521 6.99717 15.7196 7.00027 15.5864C7.00338 15.4532 7.03307 15.322 7.0876 15.2004C7.14213 15.0788 7.22041 14.9694 7.31782 14.8785C7.41524 14.7876 7.52984 14.7171 7.65489 14.6711C7.77993 14.6252 7.9129 14.6046 8.046 14.6108C8.17909 14.6169 8.30961 14.6495 8.4299 14.7068C8.55019 14.7641 8.65783 14.8448 8.74648 14.9443L10.3525 16.6663C10.8075 17.1533 11.1065 17.4723 11.3505 17.6933C11.5905 17.9093 11.6945 17.9523 11.7355 17.9643C11.9315 18.0243 12.1405 18.0093 12.3335 17.9183C12.3795 17.8963 12.4825 17.8333 12.6935 17.5803C12.9095 17.3233 13.1665 16.9603 13.5565 16.4093L19.1985 8.42329C19.2742 8.31598 19.3704 8.22464 19.4815 8.1545C19.5925 8.08436 19.7163 8.03679 19.8458 8.0145C19.9752 7.99221 20.1078 7.99565 20.2359 8.02461C20.364 8.05357 20.4852 8.10749 20.5925 8.18329Z" fill="#FFFCFE"/>
</svg>
