<svg width="46" height="46" viewBox="0 0 46 46" fill="none" xmlns="http://www.w3.org/2000/svg">
<circle cx="23" cy="23" r="23" fill="#C7E7F2"/>
<path d="M33.2493 16.8075C33.478 16.7399 33.717 16.7223 33.9522 16.7556C34.1874 16.789 34.4141 16.8726 34.6188 17.0016C34.8236 17.1305 35.0023 17.3023 35.1446 17.5067C35.2868 17.7112 35.3896 17.9441 35.4471 18.192C35.5045 18.4398 35.5153 18.6975 35.4789 18.9499C35.4425 19.2023 35.3597 19.4444 35.2352 19.6618C35.1107 19.8792 34.9471 20.0677 34.754 20.2161C34.5609 20.3644 34.3422 20.4698 34.1108 20.5258L23.4414 23.397C23.5613 23.4704 23.6637 23.5727 23.7405 23.696L29.1962 32.5107C29.2854 32.6551 29.3365 32.8227 29.3442 32.9959C29.3519 33.169 29.3159 33.3412 29.2399 33.494C29.1639 33.6468 29.0508 33.7746 28.9127 33.8637C28.7746 33.9528 28.6167 33.9999 28.4557 34H17.5443C17.3833 33.9999 17.2254 33.9528 17.0873 33.8637C16.9492 33.7746 16.8361 33.6468 16.7601 33.494C16.6841 33.3412 16.6481 33.169 16.6558 32.9959C16.6635 32.8227 16.7146 32.6551 16.8038 32.5107L22.2435 23.719L12.7507 26.2758C12.522 26.3434 12.283 26.361 12.0478 26.3277C11.8126 26.2944 11.5859 26.2108 11.3812 26.0818C11.1764 25.9528 10.9977 25.781 10.8554 25.5766C10.7132 25.3722 10.6104 25.1392 10.5529 24.8914C10.4955 24.6435 10.4847 24.3858 10.5211 24.1334C10.5575 23.881 10.6403 23.639 10.7648 23.4215C10.8893 23.2041 11.0529 23.0157 11.246 22.8673C11.4391 22.7189 11.6578 22.6136 11.8892 22.5575L33.2493 16.8075ZM14.99 11C16.1702 11 17.3021 11.5048 18.1366 12.4034C18.9712 13.3021 19.44 14.5208 19.44 15.7917C19.44 17.0625 18.9712 18.2813 18.1366 19.1799C17.3021 20.0785 16.1702 20.5833 14.99 20.5833C13.8098 20.5833 12.6779 20.0785 11.8434 19.1799C11.0088 18.2813 10.54 17.0625 10.54 15.7917C10.54 14.5208 11.0088 13.3021 11.8434 12.4034C12.6779 11.5048 13.8098 11 14.99 11Z" fill="#61AEC8"/>
</svg>
