<svg width="35" height="35" viewBox="0 0 35 35" fill="none" xmlns="http://www.w3.org/2000/svg">
<rect width="34.165" height="34.165" rx="17.0825" fill="#0483C4"/>
<path d="M20.6179 19.7805H19.9156L19.6666 19.5404C20.2222 18.895 20.6283 18.1347 20.8557 17.314C21.0832 16.4933 21.1264 15.6324 20.9824 14.7931C20.5645 12.3216 18.502 10.348 16.0128 10.0457C15.1377 9.93502 14.2488 10.026 13.4142 10.3116C12.5796 10.5973 11.8215 11.0701 11.1977 11.6938C10.574 12.3176 10.1012 13.0757 9.81553 13.9103C9.52988 14.7449 9.43892 15.6337 9.54964 16.5089C9.8519 18.9981 11.8255 21.0606 14.297 21.4785C15.1364 21.6225 15.9972 21.5793 16.8179 21.3518C17.6386 21.1244 18.3989 20.7183 19.0443 20.1627L19.2844 20.4117V21.114L23.0627 24.8923C23.4272 25.2568 24.0228 25.2568 24.3873 24.8923C24.7518 24.5278 24.7518 23.9322 24.3873 23.5677L20.6179 19.7805ZM15.2838 19.7805C13.0701 19.7805 11.2832 17.9935 11.2832 15.7799C11.2832 13.5662 13.0701 11.7793 15.2838 11.7793C17.4974 11.7793 19.2844 13.5662 19.2844 15.7799C19.2844 17.9935 17.4974 19.7805 15.2838 19.7805Z" fill="white"/>
</svg>
