<svg width="35" height="35" viewBox="0 0 35 35" fill="none" xmlns="http://www.w3.org/2000/svg">
<rect width="34.165" height="34.165" rx="17.0825" fill="#0483C4"/>
<path d="M15.2733 12.6813C15.5125 12.0752 16.371 12.0752 16.6102 12.6813L17.2861 14.397C17.5027 14.9463 17.8299 15.4452 18.2475 15.8628C18.665 16.2803 19.1639 16.6075 19.7133 16.8242L21.4289 17.5C22.035 17.7392 22.035 18.5978 21.4289 18.8369L19.7133 19.5128C19.1639 19.7294 18.665 20.0567 18.2475 20.4742C17.8299 20.8917 17.5027 21.3907 17.2861 21.94L16.6102 23.6557C16.371 24.2617 15.5125 24.2617 15.2733 23.6557L14.5974 21.94C14.3808 21.3907 14.0536 20.8917 13.636 20.4742C13.2185 20.0567 12.7196 19.7294 12.1702 19.5128L10.4545 18.8369C9.84849 18.5978 9.84849 17.7392 10.4545 17.5L12.1702 16.8242C12.7196 16.6075 13.2185 16.2803 13.636 15.8628C14.0536 15.4452 14.3808 14.9463 14.5974 14.397L15.2733 12.6813ZM21.6332 10.1694C21.6532 10.1194 21.6878 10.0765 21.7324 10.0463C21.777 10.0161 21.8296 10 21.8835 10C21.9374 10 21.99 10.0161 22.0346 10.0463C22.0792 10.0765 22.1138 10.1194 22.1338 10.1694L22.3878 10.8126C22.5519 11.2285 22.8817 11.5583 23.2976 11.7224L23.9408 11.9764C23.9908 11.9965 24.0337 12.031 24.0639 12.0756C24.0941 12.1202 24.1102 12.1729 24.1102 12.2267C24.1102 12.2806 24.0941 12.3332 24.0639 12.3779C24.0337 12.4225 23.9908 12.457 23.9408 12.477L23.2976 12.731C23.0918 12.8125 22.9049 12.9352 22.7485 13.0917C22.592 13.2482 22.4692 13.4351 22.3878 13.6409L22.1338 14.2841C22.1138 14.3341 22.0792 14.3769 22.0346 14.4071C21.99 14.4373 21.9374 14.4535 21.8835 14.4535C21.8296 14.4535 21.777 14.4373 21.7324 14.4071C21.6878 14.3769 21.6532 14.3341 21.6332 14.2841L21.3792 13.6409C21.2978 13.4351 21.175 13.2482 21.0185 13.0917C20.862 12.9352 20.6751 12.8125 20.4694 12.731L19.8254 12.477C19.7754 12.457 19.7325 12.4225 19.7023 12.3779C19.6721 12.3332 19.656 12.2806 19.656 12.2267C19.656 12.1729 19.6721 12.1202 19.7023 12.0756C19.7325 12.031 19.7754 11.9965 19.8254 11.9764L20.4694 11.7224C20.6751 11.641 20.862 11.5183 21.0185 11.3618C21.175 11.2053 21.2978 11.0184 21.3792 10.8126L21.6332 10.1694Z" stroke="white" stroke-width="1.48544"/>
</svg>
