<svg width="35" height="35" viewBox="0 0 35 35" fill="none" xmlns="http://www.w3.org/2000/svg">
<rect width="34.165" height="34.165" rx="17.0825" fill="#0483C4"/>
<path d="M9.08203 17.082C9.08203 13.3105 9.08203 11.4251 10.2536 10.2536C11.4251 9.08203 13.3114 9.08203 17.082 9.08203C20.8527 9.08203 22.7389 9.08203 23.9105 10.2536C25.082 11.4251 25.082 13.3114 25.082 17.082C25.082 20.8527 25.082 22.7389 23.9105 23.9105C22.7389 25.082 20.8527 25.082 17.082 25.082C13.3114 25.082 11.4251 25.082 10.2536 23.9105C9.08203 22.7389 9.08203 20.8527 9.08203 17.082Z" stroke="white" stroke-width="1.5" stroke-linecap="round" stroke-linejoin="round"/>
<path d="M12.971 13.5269H12.8599M12.971 17.0825H12.8599M12.971 20.638H12.8599M16.1933 13.5269H21.5266M16.1933 17.0825H21.5266M16.1933 20.638H21.5266M13.0821 13.5269C13.0821 13.5858 13.0587 13.6424 13.0171 13.684C12.9754 13.7257 12.9189 13.7491 12.8599 13.7491C12.801 13.7491 12.7445 13.7257 12.7028 13.684C12.6611 13.6424 12.6377 13.5858 12.6377 13.5269C12.6377 13.468 12.6611 13.4114 12.7028 13.3698C12.7445 13.3281 12.801 13.3047 12.8599 13.3047C12.9189 13.3047 12.9754 13.3281 13.0171 13.3698C13.0587 13.4114 13.0821 13.468 13.0821 13.5269ZM13.0821 17.0825C13.0821 17.1414 13.0587 17.1979 13.0171 17.2396C12.9754 17.2813 12.9189 17.3047 12.8599 17.3047C12.801 17.3047 12.7445 17.2813 12.7028 17.2396C12.6611 17.1979 12.6377 17.1414 12.6377 17.0825C12.6377 17.0235 12.6611 16.967 12.7028 16.9253C12.7445 16.8837 12.801 16.8602 12.8599 16.8602C12.9189 16.8602 12.9754 16.8837 13.0171 16.9253C13.0587 16.967 13.0821 17.0235 13.0821 17.0825ZM13.0821 20.638C13.0821 20.697 13.0587 20.7535 13.0171 20.7952C12.9754 20.8368 12.9189 20.8602 12.8599 20.8602C12.801 20.8602 12.7445 20.8368 12.7028 20.7952C12.6611 20.7535 12.6377 20.697 12.6377 20.638C12.6377 20.5791 12.6611 20.5226 12.7028 20.4809C12.7445 20.4392 12.801 20.4158 12.8599 20.4158C12.9189 20.4158 12.9754 20.4392 13.0171 20.4809C13.0587 20.5226 13.0821 20.5791 13.0821 20.638Z" stroke="white" stroke-width="1.5" stroke-linecap="round" stroke-linejoin="round"/>
</svg>
