<svg width="35" height="35" viewBox="0 0 35 35" fill="none" xmlns="http://www.w3.org/2000/svg">
<rect width="34.165" height="34.165" rx="17.0825" fill="#0483C4"/>
<path d="M20.8889 10V11.5H23.2277C23.6539 11.5 24 11.8338 24 12.2448V24.2552C23.9998 24.4527 23.9184 24.642 23.7736 24.7816C23.6288 24.9213 23.4324 24.9998 23.2277 25H10.7723C10.5675 25 10.3711 24.9215 10.2262 24.7819C10.0814 24.6422 10 24.4528 10 24.2552V12.2448C10 11.8338 10.3461 11.5 10.7723 11.5H13.1111V10H20.8889ZM13.1111 13H11.5556V23.5H22.4444V13H20.8889V14.5H13.1111V13ZM14.6667 20.5V22H13.1111V20.5H14.6667ZM14.6667 18.25V19.75H13.1111V18.25H14.6667ZM14.6667 16V17.5H13.1111V16H14.6667ZM19.3333 11.5H14.6667V13H19.3333V11.5Z" fill="white"/>
</svg>
