<svg width="35" height="35" viewBox="0 0 35 35" fill="none" xmlns="http://www.w3.org/2000/svg">
<rect width="34.165" height="34.165" rx="17.0825" fill="#0483C4"/>
<path d="M14.0344 11.5125C14.0344 11.8973 14.1124 12.2784 14.264 12.6339C14.4155 12.9895 14.6377 13.3125 14.9177 13.5846C15.1977 13.8568 15.5301 14.0726 15.896 14.2199C16.2618 14.3671 16.6539 14.4429 17.05 14.4429C17.446 14.4429 17.8381 14.3671 18.2039 14.2199C18.5698 14.0726 18.9022 13.8568 19.1822 13.5846C19.4622 13.3125 19.6844 12.9895 19.8359 12.6339C19.9875 12.2784 20.0655 11.8973 20.0655 11.5125C20.0655 10.7353 19.7477 9.98991 19.1822 9.44034C18.6167 8.89077 17.8497 8.58203 17.05 8.58203C16.2502 8.58203 15.4832 8.89077 14.9177 9.44034C14.3522 9.98991 14.0344 10.7353 14.0344 11.5125ZM23.0748 18.3522C22.5712 17.5405 22.1536 16.7288 21.65 16.1559C21.3183 15.8336 20.9744 15.5829 20.4831 15.4277C20.1871 15.3246 19.8761 15.2682 19.5618 15.2606H14.8697C14.2801 15.2606 13.7765 15.4277 13.4449 15.6665C12.3517 16.323 11.8481 17.5405 11.2707 18.7581C10.7671 19.7369 10.1775 20.8828 10.0916 22.1003C10.0056 23.3179 10.5092 24.3802 11.2707 25.0248C12.106 25.7649 14.1941 26.6601 15.8769 26.5766C16.8718 26.493 17.7931 26.1707 18.137 25.4307C18.5546 24.4638 17.7194 23.8908 16.9578 23.8073C16.2086 23.7237 15.2873 23.8073 14.5258 23.6402C14.1941 23.5685 13.8625 23.485 13.5308 23.4014C13.1869 23.3179 12.8553 23.1508 12.7693 22.912C13.1132 22.7449 13.6045 22.8285 14.1081 22.7449C14.4521 22.6733 15.1154 22.5897 15.1154 22.2555C15.1154 22.1003 14.8697 21.6945 14.7837 21.4438C14.5258 20.7992 14.3661 19.4981 15.447 19.7369C16.0366 19.8204 16.2086 20.465 16.4542 20.8828C17.1298 21.9332 17.8791 22.8285 19.7215 22.6733C19.3899 23.0791 18.8003 23.3179 18.7143 23.9744C18.6406 24.7861 19.3039 25.1919 19.9795 25.1919C21.4043 25.1919 22.3255 24.2967 23.0748 23.5685C23.5784 22.9956 24.082 22.2555 24.082 21.2051C24.082 19.9875 23.5784 19.0923 23.0748 18.3522ZM19.2179 21.6109C18.2107 21.6109 17.4614 20.7992 17.4614 19.904C17.4614 19.0087 18.2967 18.197 19.2179 18.197C20.1392 18.197 20.9744 19.0087 20.9744 19.904C20.9744 20.7992 20.2251 21.6109 19.2179 21.6109Z" fill="white"/>
</svg>
