<svg width="35" height="35" viewBox="0 0 35 35" fill="none" xmlns="http://www.w3.org/2000/svg">
<rect width="34.165" height="34.165" rx="17.0825" fill="#0483C4"/>
<path d="M14.7066 19.0667C12.8538 19.0667 9.16406 20.0592 9.16406 22.0359V23.5205H20.2492V22.0359C20.2492 20.0592 16.5594 19.0667 14.7066 19.0667ZM11.0169 21.8238C11.682 21.3318 13.2893 20.7634 14.7066 20.7634C16.124 20.7634 17.7313 21.3318 18.3964 21.8238H11.0169ZM14.7066 17.582C16.2348 17.582 17.4779 16.2501 17.4779 14.6128C17.4779 12.9755 16.2348 11.6436 14.7066 11.6436C13.1785 11.6436 11.9354 12.9755 11.9354 14.6128C11.9354 16.2501 13.1785 17.582 14.7066 17.582ZM14.7066 13.3403C15.3638 13.3403 15.8943 13.9087 15.8943 14.6128C15.8943 15.3169 15.3638 15.8853 14.7066 15.8853C14.0494 15.8853 13.5189 15.3169 13.5189 14.6128C13.5189 13.9087 14.0494 13.3403 14.7066 13.3403ZM20.2809 19.1176C21.1994 19.8302 21.8328 20.7803 21.8328 22.0359V23.5205H25V22.0359C25 20.3222 22.2287 19.3466 20.2809 19.1176ZM19.4574 17.582C20.9856 17.582 22.2287 16.2501 22.2287 14.6128C22.2287 12.9755 20.9856 11.6436 19.4574 11.6436C19.0299 11.6436 18.634 11.7538 18.2697 11.9405C18.7686 12.6955 19.0615 13.6202 19.0615 14.6128C19.0615 15.6054 18.7686 16.5301 18.2697 17.2851C18.634 17.4717 19.0299 17.582 19.4574 17.582Z" fill="white"/>
</svg>
