<svg width="35" height="35" viewBox="0 0 35 35" fill="none" xmlns="http://www.w3.org/2000/svg">
<rect width="34.165" height="34.165" rx="17.0825" fill="#0483C4"/>
<path d="M13.5807 13.5121L15.8157 10.6186C15.9753 10.4058 16.165 10.2496 16.3848 10.1501C16.6046 10.0506 16.8339 10.0005 17.0729 10C17.3118 9.99947 17.5414 10.0495 17.7617 10.1501C17.982 10.2506 18.1715 10.4068 18.33 10.6186L20.565 13.5121L23.9574 14.6495C24.3033 14.756 24.576 14.9523 24.7755 15.2386C24.9751 15.5249 25.0749 15.8407 25.0749 16.1861C25.0749 16.3457 25.0515 16.5054 25.0046 16.665C24.9578 16.8247 24.8814 16.9776 24.7755 17.124L22.5805 20.237L22.6603 23.5096C22.6736 23.9752 22.5206 24.3677 22.2013 24.687C21.882 25.0062 21.5096 25.1659 21.0838 25.1659C21.0572 25.1659 20.9109 25.1459 20.6448 25.106L17.0729 24.1083L13.5009 25.106C13.4344 25.1326 13.3612 25.1494 13.2814 25.1563C13.2016 25.1632 13.1284 25.1664 13.0619 25.1659C12.6362 25.1659 12.2637 25.0062 11.9444 24.687C11.6251 24.3677 11.4721 23.9752 11.4854 23.5096L11.5653 20.217L9.39016 17.124C9.28373 16.9776 9.2071 16.8247 9.16027 16.665C9.11344 16.5054 9.0903 16.3457 9.09083 16.1861C9.09083 15.8535 9.18741 15.5443 9.38058 15.2586C9.57374 14.9728 9.843 14.7698 10.1884 14.6495L13.5807 13.5121ZM14.5585 14.889L10.6872 16.1661L13.1617 19.7381L13.0819 23.5495L17.0729 22.452L21.0639 23.5695L20.9841 19.7381L23.4585 16.206L19.5872 14.889L17.0729 11.5964L14.5585 14.889Z" fill="white"/>
</svg>
