<svg width="35" height="35" viewBox="0 0 35 35" fill="none" xmlns="http://www.w3.org/2000/svg">
<rect width="34.165" height="34.165" rx="17.0825" fill="#0483C4"/>
<path d="M15.383 15.883C15.383 15.7149 15.3332 15.5506 15.2398 15.4108C15.1464 15.271 15.0136 15.162 14.8583 15.0977C14.703 15.0334 14.5321 15.0165 14.3672 15.0493C14.2023 15.0821 14.0508 15.1631 13.932 15.282C13.8131 15.4008 13.7321 15.5523 13.6993 15.7172C13.6665 15.8821 13.6834 16.053 13.7477 16.2083C13.812 16.3636 13.921 16.4964 14.0608 16.5898C14.2006 16.6832 14.3649 16.733 14.533 16.733C14.7584 16.733 14.9746 16.6434 15.134 16.484C15.2935 16.3246 15.383 16.1084 15.383 15.883ZM19.208 19.334C19.1115 19.2774 19.0048 19.2405 18.894 19.2253C18.7831 19.21 18.6704 19.2168 18.5622 19.2453C18.4541 19.2737 18.3525 19.3232 18.2635 19.3909C18.1745 19.4587 18.0997 19.5433 18.0435 19.64C17.947 19.8097 17.8073 19.9507 17.6386 20.0489C17.4699 20.147 17.2782 20.1987 17.083 20.1987C16.8878 20.1987 16.6961 20.147 16.5274 20.0489C16.3587 19.9507 16.219 19.8097 16.1225 19.64C16.0663 19.5433 15.9915 19.4587 15.9025 19.3909C15.8135 19.3232 15.712 19.2737 15.6038 19.2453C15.4956 19.2168 15.3829 19.21 15.272 19.2253C15.1612 19.2405 15.0545 19.2774 14.958 19.334C14.7636 19.4461 14.6214 19.6306 14.5625 19.8472C14.5036 20.0637 14.5327 20.2948 14.6435 20.49C14.89 20.9191 15.2454 21.2756 15.6737 21.5234C16.102 21.7713 16.5881 21.9018 17.083 21.9018C17.5779 21.9018 18.064 21.7713 18.4923 21.5234C18.9206 21.2756 19.276 20.9191 19.5225 20.49C19.6333 20.2948 19.6624 20.0637 19.6035 19.8472C19.5446 19.6306 19.4024 19.4461 19.208 19.334ZM19.633 15.033C19.4649 15.033 19.3006 15.0829 19.1608 15.1763C19.021 15.2697 18.912 15.4024 18.8477 15.5577C18.7834 15.713 18.7665 15.8839 18.7993 16.0488C18.8321 16.2137 18.9131 16.3652 19.032 16.484C19.1508 16.6029 19.3023 16.6839 19.4672 16.7167C19.6321 16.7495 19.803 16.7326 19.9583 16.6683C20.1136 16.604 20.2464 16.495 20.3398 16.3552C20.4332 16.2155 20.483 16.0511 20.483 15.883C20.483 15.6576 20.3935 15.4414 20.234 15.282C20.0746 15.1226 19.8584 15.033 19.633 15.033ZM17.083 9.08301C15.4019 9.08301 13.7585 9.58152 12.3607 10.5155C10.9628 11.4495 9.87338 12.777 9.23004 14.3302C8.58669 15.8834 8.41836 17.5924 8.74634 19.2413C9.07431 20.8901 9.88386 22.4047 11.0726 23.5934C12.2613 24.7822 13.7759 25.5917 15.4247 25.9197C17.0736 26.2476 18.7826 26.0793 20.3358 25.436C21.889 24.7926 23.2165 23.7032 24.1505 22.3053C25.0845 20.9075 25.583 19.2641 25.583 17.583C25.583 16.4668 25.3631 15.3615 24.936 14.3302C24.5088 13.2989 23.8827 12.3619 23.0934 11.5726C22.3041 10.7833 21.3671 10.1572 20.3358 9.73003C19.3045 9.30287 18.1992 9.08301 17.083 9.08301ZM17.083 24.383C15.4997 24.3898 13.9637 23.844 12.7398 22.8395C11.5159 21.8351 10.6808 20.4351 10.3786 18.8809C10.0765 17.3267 10.3261 15.7157 11.0845 14.3259C11.8429 12.936 13.0625 11.8544 14.533 11.2675C14.5243 11.3892 14.5243 11.5113 14.533 11.633C14.533 12.3093 14.8017 12.9579 15.2799 13.4361C15.7581 13.9143 16.4067 14.183 17.083 14.183C17.3084 14.183 17.5246 14.0935 17.684 13.934C17.8435 13.7746 17.933 13.5584 17.933 13.333C17.933 13.1076 17.8435 12.8914 17.684 12.732C17.5246 12.5726 17.3084 12.483 17.083 12.483C16.8576 12.483 16.6414 12.3935 16.482 12.234C16.3226 12.0746 16.233 11.8584 16.233 11.633C16.233 11.4076 16.3226 11.1914 16.482 11.032C16.6414 10.8726 16.8576 10.783 17.083 10.783C18.8865 10.783 20.6161 11.4994 21.8913 12.7747C23.1666 14.0499 23.883 15.7795 23.883 17.583C23.883 19.3865 23.1666 21.1161 21.8913 22.3913C20.6161 23.6666 18.8865 24.383 17.083 24.383Z" fill="white"/>
</svg>
