<svg width="54" height="55" viewBox="0 0 54 55" fill="none" xmlns="http://www.w3.org/2000/svg">
<path d="M35.8923 41.715C35.6676 41.1638 35.2337 40.724 34.6854 40.4921C34.1372 40.2601 33.5194 40.2549 32.9673 40.4775C29.1762 41.9959 24.9459 41.9959 21.1548 40.4775C20.8815 40.3652 20.5888 40.3079 20.2933 40.3087C19.9978 40.3096 19.7054 40.3686 19.4327 40.4825C19.1601 40.5964 18.9125 40.7628 18.7042 40.9724C18.4959 41.1819 18.3309 41.4304 18.2186 41.7038C18.1063 41.9771 18.049 42.2698 18.0498 42.5653C18.0507 42.8608 18.1097 43.1532 18.2236 43.4258C18.3375 43.6985 18.5039 43.9461 18.7135 44.1544C18.923 44.3627 19.1715 44.5277 19.4448 44.64C24.3222 46.6164 29.7774 46.6164 34.6548 44.64C35.2061 44.4153 35.6458 43.9813 35.8778 43.4331C36.1097 42.8849 36.1149 42.2671 35.8923 41.715ZM35.9148 12.8475C38.0376 14.2931 39.7747 16.2358 40.9748 18.5064C42.1748 20.7771 42.8013 23.3067 42.7998 25.875C42.7947 26.5364 42.7571 27.1972 42.6873 27.855C42.6519 28.1505 42.675 28.45 42.7553 28.7366C42.8356 29.0231 42.9716 29.2911 43.1554 29.5251C43.3393 29.7591 43.5674 29.9546 43.8268 30.1004C44.0863 30.2462 44.3719 30.3395 44.6673 30.375C44.9628 30.4105 45.2624 30.3874 45.5489 30.3071C45.8355 30.2267 46.1034 30.0908 46.3374 29.9069C46.5714 29.723 46.7669 29.4949 46.9127 29.2355C47.0586 28.9761 47.1519 28.6905 47.1873 28.395C47.2837 27.5587 47.3213 26.7166 47.2998 25.875C47.3013 22.5755 46.4964 19.3255 44.9553 16.408C43.4142 13.4905 41.1835 10.9937 38.4573 9.135C38.2137 8.96374 37.9385 8.84254 37.6477 8.77843C37.3569 8.71433 37.0563 8.70859 36.7632 8.76155C36.4702 8.8145 36.1905 8.92511 35.9406 9.08695C35.6906 9.24878 35.4752 9.45864 35.307 9.70433C35.1387 9.95003 35.0209 10.2267 34.9603 10.5183C34.8998 10.8098 34.8977 11.1105 34.9543 11.4029C35.0108 11.6953 35.1248 11.9735 35.2897 12.2215C35.4546 12.4695 35.6671 12.6823 35.9148 12.8475ZM9.45483 30.3525C10.0449 30.2793 10.582 29.9756 10.9488 29.5076C11.3156 29.0396 11.4823 28.4455 11.4123 27.855C11.38 27.1954 11.38 26.5346 11.4123 25.875C11.3983 23.3168 12.0076 20.7936 13.1876 18.5238C14.3676 16.2539 16.0828 14.3057 18.1848 12.8475C18.4326 12.6823 18.645 12.4695 18.8099 12.2215C18.9748 11.9735 19.0888 11.6953 19.1454 11.4029C19.2019 11.1105 19.1999 10.8098 19.1393 10.5183C19.0788 10.2267 18.961 9.95003 18.7927 9.70433C18.6244 9.45864 18.4091 9.24878 18.1591 9.08695C17.9091 8.92511 17.6295 8.8145 17.3365 8.76155C17.0434 8.70859 16.7428 8.71433 16.452 8.77843C16.1611 8.84254 15.8859 8.96374 15.6423 9.135C12.9161 10.9937 10.6855 13.4905 9.14435 16.408C7.60323 19.3255 6.79839 22.5755 6.79983 25.875C6.79327 26.7177 6.8459 27.5597 6.95733 28.395C7.0305 28.9851 7.33426 29.5222 7.80224 29.889C8.27022 30.2558 8.86436 30.4224 9.45483 30.3525ZM35.3073 21.375C35.3928 21.3777 35.4777 21.3608 35.5557 21.3257C35.6337 21.2906 35.7026 21.2382 35.7573 21.1725C35.8076 21.1057 35.8435 21.0293 35.8629 20.948C35.8822 20.8667 35.8846 20.7823 35.8698 20.7C35.4152 18.6779 34.2865 16.8705 32.669 15.5746C31.0515 14.2787 29.0414 13.5713 26.9688 13.5687C24.8962 13.5661 22.8844 14.2683 21.2636 15.5602C19.6428 16.852 18.5095 18.6565 18.0498 20.6775C18.0121 20.7545 17.9925 20.8392 17.9925 20.925C17.9925 21.0108 18.0121 21.0955 18.0498 21.1725C18.1606 21.293 18.3139 21.3656 18.4773 21.375H35.3073ZM21.4248 5.625C21.4248 7.11684 22.0175 8.54758 23.0724 9.60248C24.1272 10.6574 25.558 11.25 27.0498 11.25C28.5417 11.25 29.9724 10.6574 31.0273 9.60248C32.0822 8.54758 32.6748 7.11684 32.6748 5.625C32.6748 4.13316 32.0822 2.70242 31.0273 1.64752C29.9724 0.592632 28.5417 0 27.0498 0C25.558 0 24.1272 0.592632 23.0724 1.64752C22.0175 2.70242 21.4248 4.13316 21.4248 5.625ZM45.0498 46.125C42.9508 46.1084 40.9101 46.8152 39.271 48.1265C37.6319 49.4378 36.4944 51.2735 36.0498 53.325C36.0333 53.4058 36.0348 53.4893 36.0541 53.5695C36.0734 53.6496 36.1102 53.7246 36.1617 53.789C36.2132 53.8534 36.2783 53.9057 36.3523 53.9422C36.4263 53.9786 36.5074 53.9984 36.5898 54H53.3748C53.545 53.9917 53.7058 53.9194 53.8248 53.7975C53.8582 53.7193 53.8755 53.6351 53.8755 53.55C53.8755 53.4649 53.8582 53.3807 53.8248 53.3025C53.3842 51.2927 52.278 49.4906 50.6854 48.1879C49.0928 46.8852 47.1071 46.1583 45.0498 46.125ZM39.4923 38.25C39.4923 39.7418 40.085 41.1726 41.1399 42.2275C42.1947 43.2824 43.6255 43.875 45.1173 43.875C46.6092 43.875 48.0399 43.2824 49.0948 42.2275C50.1497 41.1726 50.7423 39.7418 50.7423 38.25C50.7423 36.7582 50.1497 35.3274 49.0948 34.2725C48.0399 33.2176 46.6092 32.625 45.1173 32.625C43.6255 32.625 42.1947 33.2176 41.1399 34.2725C40.085 35.3274 39.4923 36.7582 39.4923 38.25ZM9.04983 46.125C6.95081 46.1084 4.91012 46.8152 3.27101 48.1265C1.6319 49.4378 0.494394 51.2735 0.0498263 53.325C0.0169701 53.3994 0 53.4799 0 53.5612C0 53.6426 0.0169701 53.7231 0.0498263 53.7975C0.12244 53.9031 0.228935 53.9807 0.351684 54.0176C0.474433 54.0544 0.606077 54.0482 0.724826 54H17.4873C17.5741 54.0025 17.6602 53.985 17.739 53.9487C17.8179 53.9124 17.8872 53.8584 17.9417 53.7909C17.9962 53.7233 18.0343 53.6441 18.053 53.5594C18.0718 53.4746 18.0707 53.3867 18.0498 53.3025C17.5969 51.2572 16.4564 49.4289 14.8186 48.1228C13.1808 46.8166 11.1447 46.1115 9.04983 46.125ZM3.58233 38.25C3.58233 39.7418 4.17496 41.1726 5.22985 42.2275C6.28474 43.2824 7.71548 43.875 9.20733 43.875C10.6992 43.875 12.1299 43.2824 13.1848 42.2275C14.2397 41.1726 14.8323 39.7418 14.8323 38.25C14.8323 36.7582 14.2397 35.3274 13.1848 34.2725C12.1299 33.2176 10.6992 32.625 9.20733 32.625C7.71548 32.625 6.28474 33.2176 5.22985 34.2725C4.17496 35.3274 3.58233 36.7582 3.58233 38.25Z" fill="#BBE4D2"/>
</svg>
