<svg width="46" height="46" viewBox="0 0 46 46" fill="none" xmlns="http://www.w3.org/2000/svg">
<circle cx="23" cy="23" r="23" fill="#FBF5B4"/>
<path fill-rule="evenodd" clip-rule="evenodd" d="M11.3008 20.5394L15.955 15.8835L14.1971 14.1257C14.0733 14.0019 13.9832 13.8486 13.9353 13.6803C13.8874 13.5119 13.8833 13.3341 13.9235 13.1637C13.9637 12.9934 14.0467 12.8361 14.1648 12.7068C14.2828 12.5776 14.4319 12.4807 14.598 12.4253C16.2967 11.8585 18.5079 11.8585 20.2099 12.4237C20.368 12.4745 20.5113 12.5631 20.6272 12.682C20.7432 12.8008 20.8284 12.9462 20.8753 13.1054C21.4339 14.8025 21.4289 17.0023 20.8654 18.6912C20.8102 18.8574 20.7135 19.0067 20.5843 19.1249C20.4552 19.2431 20.2979 19.3264 20.1275 19.3667C19.9571 19.4071 19.7793 19.4031 19.6108 19.3554C19.4424 19.3076 19.2889 19.2175 19.1651 19.0937L17.4072 17.3358L12.7531 21.9901C12.5605 22.1827 12.2993 22.2909 12.0269 22.2909C11.7546 22.2909 11.4934 22.1827 11.3008 21.9901C11.1082 21.7975 11 21.5363 11 21.2639C11 20.9916 11.1082 20.732 11.3008 20.5394ZM31.8364 15.7932C30.6819 15.635 29.5113 15.635 28.3568 15.7932C27.0327 15.9739 26.1932 17.1387 26.1932 18.3479V21.0471C26.1932 21.2105 26.1283 21.3672 26.0127 21.4827C25.8972 21.5983 25.7405 21.6632 25.5771 21.6632H23.3346C21.861 21.6632 20.665 22.8575 20.665 24.3328V26.5754C20.665 26.7387 20.6001 26.8954 20.4846 27.011C20.369 27.1265 20.2123 27.1914 20.0489 27.1914H17.3514C16.1406 27.1914 14.9758 28.0293 14.7951 29.3551C14.6371 30.509 14.6371 31.6791 14.7951 32.8331C14.9758 34.1621 16.1422 35 17.3514 35H31.3304C32.804 35 34 33.804 34 32.3303V18.3495C34 17.1403 33.1621 15.9755 31.8347 15.7948M28.6328 17.8287C29.603 17.6946 30.5869 17.6946 31.5571 17.8287C31.7394 17.8533 31.9448 18.0373 31.9448 18.3495V32.3303C31.9448 32.4937 31.8799 32.6504 31.7644 32.766C31.6488 32.8815 31.4921 32.9464 31.3287 32.9464H17.3481C17.036 32.9464 16.8536 32.7411 16.8273 32.5587C16.6932 31.5885 16.6932 30.6045 16.8273 29.6344C16.8536 29.4504 17.036 29.2467 17.3497 29.2467H20.0473C21.5226 29.2467 22.7169 28.0507 22.7169 26.577V24.3345C22.7169 23.9944 22.9929 23.7184 23.333 23.7184H25.5755C27.0491 23.7184 28.2451 22.5224 28.2451 21.0487V18.3495C28.2451 18.0373 28.4488 17.8533 28.6328 17.8287Z" fill="#DACB23"/>
</svg>
