<svg width="24" height="24" viewBox="0 0 24 24" fill="none" xmlns="http://www.w3.org/2000/svg">
<g clip-path="url(#clip0_862_650)">
<path fill-rule="evenodd" clip-rule="evenodd" d="M13.0714 5.78572V10.5C13.0714 10.7842 12.9585 11.0567 12.7576 11.2576C12.5567 11.4585 12.2842 11.5714 12 11.5714C11.7158 11.5714 11.4433 11.4585 11.2424 11.2576C11.0415 11.0567 10.9286 10.7842 10.9286 10.5V5.78572C10.9286 4.81957 10.5448 3.893 9.8616 3.20983C9.17843 2.52666 8.25186 2.14286 7.28571 2.14286H2.14286V16.7143H8.78571C9.06987 16.7143 9.3424 16.8272 9.54333 17.0281C9.74426 17.229 9.85714 17.5016 9.85714 17.7857C9.85714 18.0699 9.74426 18.3424 9.54333 18.5433C9.3424 18.7443 9.06987 18.8571 8.78571 18.8571H1.07143C0.787268 18.8571 0.514746 18.7443 0.313814 18.5433C0.112882 18.3424 0 18.0699 0 17.7857L0 1.07143C0 0.480002 0.48 2.12809e-06 1.07143 2.12809e-06H7.28571C8.20853 -0.000789876 9.11812 0.219498 9.93832 0.642424C10.7585 1.06535 11.4655 1.67861 12 2.43086C12.5345 1.67861 13.2415 1.06535 14.0617 0.642424C14.8819 0.219498 15.7915 -0.000789876 16.7143 2.12809e-06H22.9286C23.52 2.12809e-06 24 0.480002 24 1.07143V11.1429C24 11.427 23.8871 11.6995 23.6862 11.9005C23.4853 12.1014 23.2127 12.2143 22.9286 12.2143C22.6444 12.2143 22.3719 12.1014 22.171 11.9005C21.97 11.6995 21.8571 11.427 21.8571 11.1429V2.14286H16.7143C15.7481 2.14286 14.8216 2.52666 14.1384 3.20983C13.4552 3.893 13.0714 4.81957 13.0714 5.78572ZM16.9286 13.7143C16.0761 13.7143 15.2585 14.0529 14.6557 14.6557C14.0529 15.2585 13.7143 16.0761 13.7143 16.9286C13.7143 17.7811 14.0529 18.5986 14.6557 19.2014C15.2585 19.8042 16.0761 20.1429 16.9286 20.1429C17.7811 20.1429 18.5986 19.8042 19.2014 19.2014C19.8042 18.5986 20.1429 17.7811 20.1429 16.9286C20.1429 16.0761 19.8042 15.2585 19.2014 14.6557C18.5986 14.0529 17.7811 13.7143 16.9286 13.7143ZM11.5714 16.9286C11.5717 16.0932 11.7672 15.2695 12.1425 14.5233C12.5178 13.777 13.0624 13.1288 13.7328 12.6305C14.4033 12.1322 15.1809 11.7976 16.0037 11.6534C16.8265 11.5091 17.6716 11.5593 18.4715 11.7999C19.2715 12.0405 20.0041 12.4649 20.6108 13.039C21.2175 13.6132 21.6816 14.3213 21.9659 15.1067C22.2502 15.8922 22.3469 16.7332 22.2482 17.5627C22.1496 18.3922 21.8583 19.1871 21.3977 19.884L23.6863 22.1709C23.7858 22.2704 23.8647 22.3885 23.9186 22.5185C23.9724 22.6485 24.0001 22.7879 24.0001 22.9286C24.0001 23.0693 23.9724 23.2086 23.9186 23.3386C23.8647 23.4687 23.7858 23.5868 23.6863 23.6863C23.5868 23.7858 23.4687 23.8647 23.3386 23.9186C23.2086 23.9724 23.0693 24.0001 22.9286 24.0001C22.7878 24.0001 22.6485 23.9724 22.5185 23.9186C22.3885 23.8647 22.2704 23.7858 22.1709 23.6863L19.8823 21.3994C19.0749 21.933 18.138 22.238 17.1712 22.2818C16.2044 22.3256 15.2437 22.1067 14.3914 21.6484C13.539 21.19 12.8267 20.5093 12.3302 19.6785C11.8337 18.8478 11.5715 17.8981 11.5714 16.9303" fill="black"/>
</g>
<defs>
<clipPath id="clip0_862_650">
<rect width="24" height="24" fill="white"/>
</clipPath>
</defs>
</svg>
