<svg width="46" height="46" viewBox="0 0 46 46" fill="none" xmlns="http://www.w3.org/2000/svg">
<circle cx="23" cy="23" r="23" fill="#FCD8FF"/>
<path fill-rule="evenodd" clip-rule="evenodd" d="M33.111 16.0621C32.906 17.0636 31.7015 17.3351 31.0375 16.6706L30.0975 15.7311C29.9795 15.8378 29.8498 15.9538 29.7085 16.0791C28.7905 16.8961 27.4095 18.1251 25.837 19.9726C24.987 20.9716 23.361 20.9661 22.561 19.8586C22.055 19.1557 21.5295 18.4671 20.985 17.7936L20.903 17.8486C19.578 18.7341 16.523 20.7756 14.446 23.7581C14.3709 23.8659 14.2753 23.9578 14.1647 24.0286C14.0541 24.0994 13.9307 24.1477 13.8014 24.1708C13.5403 24.2175 13.2714 24.1585 13.0538 24.0069C12.8361 23.8552 12.6877 23.6234 12.641 23.3623C12.5944 23.1012 12.6534 22.8322 12.805 22.6146C15.1045 19.3121 18.435 17.0896 19.7685 16.2006L19.9375 16.0876C20.7775 15.5246 21.874 15.7201 22.491 16.4751C23.0759 17.1959 23.6398 17.9336 24.182 18.6871C24.1855 18.6911 24.1895 18.6944 24.194 18.6971C24.2066 18.7027 24.2202 18.7056 24.234 18.7056C24.276 18.7066 24.302 18.6901 24.314 18.6756C25.9925 16.7036 27.526 15.3406 28.431 14.5366L28.432 14.5361L28.681 14.3141L27.7675 13.4001C27.1025 12.7361 27.3745 11.5321 28.376 11.3266C29.6582 11.0684 30.9665 10.9627 32.2735 11.0116C32.5754 11.0233 32.8618 11.1485 33.0754 11.3622C33.2891 11.5758 33.4143 11.8622 33.426 12.1641C33.456 12.8721 33.4595 14.3636 33.111 16.0616M31 19.2496C31.523 19.2496 31.945 19.2636 32.2825 19.2846C33.4575 19.3561 34.286 20.2451 34.3675 21.3686C34.434 22.2826 34.5 23.9036 34.5 26.7496C34.5 29.5956 34.434 31.2166 34.3675 32.1306C34.286 33.2541 33.4575 34.1431 32.2825 34.2151C31.8554 34.2397 31.4278 34.2512 31 34.2496C30.5722 34.251 30.1445 34.2393 29.7175 34.2146C28.5425 34.1431 27.714 33.2541 27.6325 32.1306C27.566 31.2166 27.5 29.5956 27.5 26.7496C27.5 23.9036 27.566 22.2826 27.6325 21.3686C27.714 20.2451 28.5425 19.3561 29.7175 19.2841C30.1446 19.2596 30.5722 19.248 31 19.2496ZM32.16 21.2806C31.7737 21.2585 31.3869 21.2481 31 21.2496C30.5125 21.2496 30.132 21.2626 29.84 21.2806C29.7475 21.2861 29.709 21.3161 29.6915 21.3341C29.6715 21.3541 29.635 21.4046 29.627 21.5141C29.5655 22.3601 29.5 23.9276 29.5 26.7496C29.5 29.5716 29.5655 31.1386 29.627 31.9856C29.635 32.0946 29.672 32.1451 29.6915 32.1651C29.709 32.1831 29.7475 32.2131 29.8395 32.2186C30.1315 32.2366 30.5125 32.2496 31 32.2496C31.4875 32.2496 31.868 32.2366 32.16 32.2186C32.2525 32.2131 32.291 32.1831 32.3085 32.1651C32.3285 32.1451 32.365 32.0946 32.373 31.9851C32.4345 31.1386 32.5 29.5711 32.5 26.7496C32.5 23.9281 32.4345 22.3606 32.373 21.5136C32.365 21.4046 32.328 21.3541 32.3085 21.3341C32.291 21.3161 32.252 21.2861 32.16 21.2806ZM15 26.2496C15.596 26.2496 16.0535 26.2581 16.4 26.2696C17.378 26.3026 18.299 26.9496 18.4145 28.0896C18.4635 28.5721 18.5 29.2611 18.5 30.2496C18.5 31.2381 18.4635 31.9271 18.4145 32.4096C18.299 33.5496 17.3785 34.1966 16.4005 34.2296C15.9338 34.2441 15.4669 34.2507 15 34.2496C14.404 34.2496 13.9465 34.2411 13.6 34.2296C12.6215 34.1966 11.701 33.5496 11.5855 32.4096C11.5365 31.9276 11.5 31.2386 11.5 30.2496C11.5 29.2606 11.5365 28.5721 11.5855 28.0896C11.701 26.9496 12.6215 26.3026 13.5995 26.2696C14.0662 26.2553 14.5331 26.2486 15 26.2496ZM16.333 28.2686C16.012 28.2581 15.577 28.2496 15 28.2496C14.423 28.2496 13.988 28.2581 13.667 28.2686C13.6362 28.2689 13.6057 28.274 13.5765 28.2836L13.5755 28.2911C13.535 28.6876 13.5 29.3061 13.5 30.2496C13.5 31.1931 13.535 31.8116 13.575 32.2081L13.576 32.2131V32.2156C13.6054 32.2253 13.6361 32.2303 13.667 32.2306C13.988 32.2411 14.423 32.2496 15 32.2496C15.577 32.2496 16.012 32.2411 16.333 32.2306C16.3638 32.2303 16.3943 32.2252 16.4235 32.2156L16.4245 32.2081C16.4645 31.8116 16.5 31.1931 16.5 30.2496C16.5 29.3066 16.465 28.6876 16.425 28.2911L16.4235 28.2836C16.3944 28.2741 16.3636 28.269 16.333 28.2686ZM24.294 23.2746C23.9585 23.2596 23.534 23.2496 23 23.2496C22.466 23.2496 22.0415 23.2596 21.706 23.2746C20.596 23.3231 19.7045 24.1146 19.607 25.2696C19.55 25.9566 19.5 27.0396 19.5 28.7496C19.5 30.4596 19.5495 31.5431 19.607 32.2296C19.7045 33.3846 20.596 34.1761 21.706 34.2246C22.0415 34.2396 22.466 34.2496 23 34.2496C23.534 34.2496 23.9585 34.2396 24.294 34.2246C25.404 34.1761 26.2955 33.3846 26.393 32.2296C26.4505 31.5431 26.5 30.4596 26.5 28.7496C26.5 27.0396 26.4505 25.9561 26.393 25.2696C26.2955 24.1146 25.404 23.3231 24.294 23.2746ZM23 25.2496C23.5085 25.2496 23.904 25.2596 24.2065 25.2726C24.3075 25.2771 24.347 25.3086 24.3575 25.3181C24.3655 25.3261 24.3925 25.3531 24.4 25.4381C24.4515 26.0491 24.5 27.0731 24.5 28.7496C24.5 30.4261 24.4515 31.4496 24.4 32.0616C24.393 32.1466 24.3655 32.1731 24.3575 32.1811C24.3475 32.1906 24.3075 32.2221 24.2065 32.2266C23.904 32.2401 23.5085 32.2496 23 32.2496C22.4915 32.2496 22.096 32.2396 21.7935 32.2266C21.6925 32.2221 21.653 32.1906 21.6425 32.1811C21.6345 32.1731 21.6075 32.1461 21.6 32.0611C21.5485 31.4501 21.5 30.4261 21.5 28.7496C21.5 27.0731 21.5485 26.0496 21.6 25.4376C21.607 25.3526 21.6345 25.3261 21.6425 25.3181C21.6525 25.3086 21.6925 25.2771 21.7935 25.2726C22.1955 25.2563 22.5977 25.2486 23 25.2496Z" fill="#9E62A3"/>
</svg>
