<svg width="46" height="46" viewBox="0 0 46 46" fill="none" xmlns="http://www.w3.org/2000/svg">
<circle cx="23" cy="23" r="23" fill="#FFE4C3"/>
<path d="M23.0071 27.6102V20.4451M35 16.6242V25.9984C35.0003 26.7371 34.8676 27.4687 34.6093 28.1513C34.351 28.8339 33.9723 29.4542 33.4947 29.9766C33.0172 30.4991 32.4502 30.9135 31.8261 31.1961C31.2021 31.4788 30.5332 31.6242 29.8578 31.624H26.4292L23.6013 34.717C23.5241 34.8064 23.4311 34.8776 23.328 34.9262C23.2248 34.9749 23.1136 35 23.0013 35C22.8889 35 22.7778 34.9749 22.6746 34.9262C22.5714 34.8776 22.4784 34.8064 22.4013 34.717L19.5734 31.624H16.1422C15.4668 31.624 14.798 31.4785 14.1741 31.1958C13.5501 30.913 12.9832 30.4986 12.5057 29.9762C12.0281 29.4538 11.6494 28.8336 11.3911 28.1511C11.1327 27.4686 10.9998 26.7371 11 25.9984V16.6242C11 15.1326 11.5418 13.702 12.5061 12.6473C13.4705 11.5925 14.7784 11 16.1422 11H29.8565C31.2203 11 32.5282 11.5925 33.4926 12.6473C34.4569 13.702 35 15.1326 35 16.6242Z" stroke="#E59D76" stroke-width="2" stroke-linecap="round" stroke-linejoin="round"/>
<path d="M22.8691 15.8978H22.8769" stroke="#E59D76" stroke-width="2" stroke-linecap="round" stroke-linejoin="round"/>
</svg>
