<svg width="35" height="35" viewBox="0 0 35 35" fill="none" xmlns="http://www.w3.org/2000/svg">
<rect width="34.165" height="34.165" rx="17.0825" fill="#0483C4"/>
<path d="M21.6321 25.165C22.0343 25.165 22.4201 25.0053 22.7045 24.7209C22.9889 24.4365 23.1486 24.0507 23.1486 23.6485V11.5165C23.1486 11.1143 22.9889 10.7286 22.7045 10.4442C22.4201 10.1598 22.0343 10 21.6321 10H17.0826V15.3078L15.187 14.1704L13.2914 15.3078V10H12.5331C12.1309 10 11.7452 10.1598 11.4608 10.4442C11.1764 10.7286 11.0166 11.1143 11.0166 11.5165V23.6485C11.0166 24.0507 11.1764 24.4365 11.4608 24.7209C11.7452 25.0053 12.1309 25.165 12.5331 25.165H21.6321Z" fill="white"/>
</svg>
