<svg width="46" height="46" viewBox="0 0 46 46" fill="none" xmlns="http://www.w3.org/2000/svg">
<circle cx="23" cy="23" r="23" fill="#BBE4D1"/>
<path d="M11.8483 14.875C11.8483 14.1125 12.142 13.3812 12.6648 12.8421C13.1877 12.3029 13.8968 12 14.6362 12C15.3756 12 16.0847 12.3029 16.6076 12.8421C17.1304 13.3812 17.4241 14.1125 17.4241 14.875C17.4241 15.6375 17.1304 16.3688 16.6076 16.9079C16.0847 17.4471 15.3756 17.75 14.6362 17.75C13.8968 17.75 13.1877 17.4471 12.6648 16.9079C12.142 16.3688 11.8483 15.6375 11.8483 14.875ZM10.1886 22.4848C10.3367 20.6205 11.8483 19.1875 13.6604 19.1875H15.612C16.7881 19.1875 17.8336 19.7895 18.4653 20.7193C18.3476 20.8047 18.2387 20.899 18.1385 21.0023L15.3506 23.8773C14.3966 24.8611 14.3966 26.4514 15.3506 27.4352L17.4241 29.5734V32.8438C17.4241 34.0342 16.4876 35 15.3332 35H13.9392C12.7848 35 11.8483 34.0342 11.8483 32.8438V27.6463C10.6939 27.2195 9.90108 26.0381 10.01 24.6994L10.1886 22.4848ZM28.5759 14.875C28.5759 14.1125 28.8696 13.3812 29.3924 12.8421C29.9153 12.3029 30.6244 12 31.3638 12C32.1032 12 32.8123 12.3029 33.3352 12.8421C33.858 13.3812 34.1517 14.1125 34.1517 14.875C34.1517 15.6375 33.858 16.3688 33.3352 16.9079C32.8123 17.4471 32.1032 17.75 31.3638 17.75C30.6244 17.75 29.9153 17.4471 29.3924 16.9079C28.8696 16.3688 28.5759 15.6375 28.5759 14.875ZM27.8615 21.0023C27.7613 20.899 27.648 20.8047 27.5347 20.7193C28.1664 19.7895 29.2162 19.1875 30.388 19.1875H32.3396C34.1517 19.1875 35.6633 20.6205 35.8114 22.4848L35.99 24.6994C36.0989 26.0381 35.3061 27.2195 34.1517 27.6463V32.8438C34.1517 34.0342 33.2152 35 32.0608 35H30.6668C29.5124 35 28.5759 34.0342 28.5759 32.8438V29.5734L30.6494 27.4352C31.6034 26.4514 31.6034 24.8611 30.6494 23.8773L27.8615 21.0023ZM20.9091 22.7812V24.2188H25.0909V22.7812C25.0909 22.3455 25.3436 21.9502 25.7357 21.784C26.1277 21.6178 26.5764 21.7076 26.877 22.0176L29.6649 24.8926C30.0744 25.3148 30.0744 25.9977 29.6649 26.4154L26.877 29.2904C26.5764 29.6004 26.1277 29.6902 25.7357 29.524C25.3436 29.3578 25.0909 28.9625 25.0909 28.5268V27.0893H20.9091V28.5268C20.9091 28.9625 20.6564 29.3578 20.2643 29.524C19.8723 29.6902 19.4236 29.6004 19.123 29.2904L16.3351 26.4154C15.9256 25.9932 15.9256 25.3104 16.3351 24.8926L19.123 22.0176C19.4236 21.7076 19.8723 21.6178 20.2643 21.784C20.6564 21.9502 20.9091 22.3455 20.9091 22.7812Z" fill="#66C498"/>
</svg>
