<svg width="767" height="73" viewBox="0 0 767 73" fill="none" xmlns="http://www.w3.org/2000/svg">
<line x1="1" y1="1" x2="1" y2="55" stroke="#0483C4" stroke-width="2" stroke-linecap="round"/>
<line x1="1.8623" y1="55.5" x2="276.16" y2="55.5" stroke="#0483C4" stroke-width="2" stroke-linecap="round"/>
<line x1="765.135" y1="1" x2="765.135" y2="55" stroke="#0483C4" stroke-width="2" stroke-linecap="round"/>
<line x1="489.701" y1="56" x2="763.999" y2="56" stroke="#0483C4" stroke-width="2" stroke-linecap="round"/>
<rect x="277" y="41" width="212" height="32" rx="16" fill="#0483C4"/>
<path d="M294.992 64V62.75L302.99 51.6172V51.4902H295.266V49.9082H305.246V51.1582L297.287 62.291V62.418H305.412V64H294.992ZM312.219 64.1855C311.236 64.1855 310.383 63.9674 309.66 63.5312C308.938 63.0951 308.378 62.4733 307.98 61.666C307.59 60.8587 307.395 59.8984 307.395 58.7852V58.7656C307.395 57.6523 307.59 56.6921 307.98 55.8848C308.378 55.0775 308.938 54.459 309.66 54.0293C310.383 53.5931 311.232 53.375 312.209 53.375C313.199 53.375 314.051 53.5931 314.768 54.0293C315.49 54.459 316.047 55.0775 316.438 55.8848C316.835 56.6921 317.033 57.6523 317.033 58.7656V58.7852C317.033 59.8984 316.835 60.8587 316.438 61.666C316.047 62.4733 315.49 63.0951 314.768 63.5312C314.051 63.9674 313.202 64.1855 312.219 64.1855ZM312.219 62.6816C312.863 62.6816 313.413 62.5286 313.869 62.2227C314.331 61.9102 314.683 61.4642 314.924 60.8848C315.171 60.3053 315.295 59.6055 315.295 58.7852V58.7656C315.295 57.9453 315.171 57.2454 314.924 56.666C314.683 56.0866 314.331 55.6439 313.869 55.3379C313.413 55.0319 312.86 54.8789 312.209 54.8789C311.564 54.8789 311.011 55.0319 310.549 55.3379C310.093 55.6439 309.742 56.0866 309.494 56.666C309.253 57.2454 309.133 57.9453 309.133 58.7656V58.7852C309.133 59.6055 309.253 60.3053 309.494 60.8848C309.742 61.4642 310.093 61.9102 310.549 62.2227C311.011 62.5286 311.568 62.6816 312.219 62.6816ZM319.455 64V53.5605H321.154V55.1133H321.291C321.558 54.5729 321.942 54.1497 322.443 53.8438C322.951 53.5312 323.592 53.375 324.367 53.375C325.533 53.375 326.431 53.7135 327.062 54.3906C327.694 55.0612 328.01 56.0085 328.01 57.2324V64H326.311V57.623C326.311 56.6986 326.112 56.0117 325.715 55.5625C325.318 55.1068 324.706 54.8789 323.879 54.8789C323.326 54.8789 322.844 54.9993 322.434 55.2402C322.03 55.4811 321.714 55.8229 321.486 56.2656C321.265 56.7018 321.154 57.2227 321.154 57.8281V64H319.455ZM335.139 64.1855C334.143 64.1855 333.286 63.9674 332.57 63.5312C331.854 63.0885 331.304 62.4668 330.92 61.666C330.536 60.8587 330.344 59.9082 330.344 58.8145V58.8047C330.344 57.7305 330.536 56.7865 330.92 55.9727C331.304 55.1589 331.848 54.5241 332.551 54.0684C333.26 53.6061 334.087 53.375 335.031 53.375C335.975 53.375 336.789 53.5964 337.473 54.0391C338.156 54.4753 338.68 55.0872 339.045 55.875C339.41 56.6562 339.592 57.5677 339.592 58.6094V59.2637H331.213V57.9062H338.732L337.893 59.1465V58.4824C337.893 57.6621 337.769 56.9883 337.521 56.4609C337.274 55.9336 336.936 55.5397 336.506 55.2793C336.076 55.0189 335.581 54.8887 335.021 54.8887C334.462 54.8887 333.96 55.0254 333.518 55.2988C333.075 55.5723 332.723 55.9759 332.463 56.5098C332.209 57.0436 332.082 57.7012 332.082 58.4824V59.1465C332.082 59.8887 332.206 60.5234 332.453 61.0508C332.707 61.5716 333.065 61.972 333.527 62.252C333.996 62.5319 334.546 62.6719 335.178 62.6719C335.64 62.6719 336.044 62.6068 336.389 62.4766C336.74 62.3464 337.03 62.1803 337.258 61.9785C337.486 61.7702 337.645 61.5521 337.736 61.3242L337.775 61.2363H339.465L339.445 61.3145C339.361 61.6855 339.201 62.0436 338.967 62.3887C338.732 62.7272 338.433 63.0332 338.068 63.3066C337.704 63.5801 337.274 63.7949 336.779 63.9512C336.285 64.1074 335.738 64.1855 335.139 64.1855ZM351.164 64.1855C350.279 64.1855 349.507 63.9642 348.85 63.5215C348.192 63.0723 347.681 62.444 347.316 61.6367C346.952 60.8229 346.77 59.8724 346.77 58.7852V58.7656C346.77 57.6784 346.952 56.7311 347.316 55.9238C347.681 55.1165 348.192 54.4915 348.85 54.0488C349.507 53.5996 350.275 53.375 351.154 53.375C351.636 53.375 352.089 53.4531 352.512 53.6094C352.935 53.7591 353.312 53.9707 353.645 54.2441C353.977 54.5176 354.237 54.8464 354.426 55.2305H354.562V49.4395H356.262V64H354.562V62.3105H354.426C354.217 62.7012 353.951 63.0365 353.625 63.3164C353.299 63.5964 352.928 63.8112 352.512 63.9609C352.102 64.1107 351.652 64.1855 351.164 64.1855ZM351.535 62.6816C352.16 62.6816 352.701 62.5254 353.156 62.2129C353.618 61.8939 353.973 61.4414 354.221 60.8555C354.468 60.2695 354.592 59.5794 354.592 58.7852V58.7656C354.592 57.9714 354.465 57.2845 354.211 56.7051C353.964 56.1191 353.612 55.6699 353.156 55.3574C352.701 55.0384 352.16 54.8789 351.535 54.8789C350.91 54.8789 350.37 55.0352 349.914 55.3477C349.458 55.6602 349.11 56.1061 348.869 56.6855C348.628 57.265 348.508 57.9583 348.508 58.7656V58.7852C348.508 59.5924 348.628 60.2891 348.869 60.875C349.11 61.4544 349.458 61.9004 349.914 62.2129C350.37 62.5254 350.91 62.6816 351.535 62.6816ZM359.23 55.2793L360.08 49.9082H361.984L360.48 55.2793H359.23ZM364.904 64V53.5605H366.604V64H364.904ZM365.764 51.6074C365.451 51.6074 365.181 51.4935 364.953 51.2656C364.725 51.0378 364.611 50.7676 364.611 50.4551C364.611 50.1361 364.725 49.8659 364.953 49.6445C365.181 49.4232 365.451 49.3125 365.764 49.3125C366.083 49.3125 366.353 49.4232 366.574 49.6445C366.796 49.8659 366.906 50.1361 366.906 50.4551C366.906 50.7676 366.796 51.0378 366.574 51.2656C366.353 51.4935 366.083 51.6074 365.764 51.6074ZM369.592 64V53.5605H371.291V55.1133H371.428C371.695 54.5729 372.079 54.1497 372.58 53.8438C373.088 53.5312 373.729 53.375 374.504 53.375C375.669 53.375 376.568 53.7135 377.199 54.3906C377.831 55.0612 378.146 56.0085 378.146 57.2324V64H376.447V57.623C376.447 56.6986 376.249 56.0117 375.852 55.5625C375.454 55.1068 374.842 54.8789 374.016 54.8789C373.462 54.8789 372.98 54.9993 372.57 55.2402C372.167 55.4811 371.851 55.8229 371.623 56.2656C371.402 56.7018 371.291 57.2227 371.291 57.8281V64H369.592ZM384.641 64.1074C383.592 64.1074 382.827 63.8893 382.346 63.4531C381.87 63.0104 381.633 62.2943 381.633 61.3047V54.9668H380.012V53.5605H381.633V50.8359H383.391V53.5605H385.607V54.9668H383.391V60.9727C383.391 61.5716 383.508 61.998 383.742 62.252C383.977 62.4993 384.357 62.623 384.885 62.623C385.021 62.623 385.142 62.6198 385.246 62.6133C385.35 62.6068 385.471 62.597 385.607 62.584V64.0195C385.458 64.0391 385.301 64.0586 385.139 64.0781C384.976 64.0977 384.81 64.1074 384.641 64.1074ZM392.072 64.1855C391.076 64.1855 390.22 63.9674 389.504 63.5312C388.788 63.0885 388.238 62.4668 387.854 61.666C387.469 60.8587 387.277 59.9082 387.277 58.8145V58.8047C387.277 57.7305 387.469 56.7865 387.854 55.9727C388.238 55.1589 388.781 54.5241 389.484 54.0684C390.194 53.6061 391.021 53.375 391.965 53.375C392.909 53.375 393.723 53.5964 394.406 54.0391C395.09 54.4753 395.614 55.0872 395.979 55.875C396.343 56.6562 396.525 57.5677 396.525 58.6094V59.2637H388.146V57.9062H395.666L394.826 59.1465V58.4824C394.826 57.6621 394.702 56.9883 394.455 56.4609C394.208 55.9336 393.869 55.5397 393.439 55.2793C393.01 55.0189 392.515 54.8887 391.955 54.8887C391.395 54.8887 390.894 55.0254 390.451 55.2988C390.008 55.5723 389.657 55.9759 389.396 56.5098C389.143 57.0436 389.016 57.7012 389.016 58.4824V59.1465C389.016 59.8887 389.139 60.5234 389.387 61.0508C389.641 61.5716 389.999 61.972 390.461 62.252C390.93 62.5319 391.48 62.6719 392.111 62.6719C392.574 62.6719 392.977 62.6068 393.322 62.4766C393.674 62.3464 393.964 62.1803 394.191 61.9785C394.419 61.7702 394.579 61.5521 394.67 61.3242L394.709 61.2363H396.398L396.379 61.3145C396.294 61.6855 396.135 62.0436 395.9 62.3887C395.666 62.7272 395.367 63.0332 395.002 63.3066C394.637 63.5801 394.208 63.7949 393.713 63.9512C393.218 64.1074 392.671 64.1855 392.072 64.1855ZM398.947 64V53.5605H400.646V55.1621H400.783C400.972 54.6022 401.301 54.166 401.77 53.8535C402.238 53.5345 402.811 53.375 403.488 53.375C403.645 53.375 403.798 53.3848 403.947 53.4043C404.097 53.4173 404.214 53.4303 404.299 53.4434V55.0938C404.149 55.0612 403.99 55.0384 403.82 55.0254C403.658 55.0059 403.479 54.9961 403.283 54.9961C402.769 54.9961 402.313 55.1003 401.916 55.3086C401.519 55.5169 401.206 55.8132 400.979 56.1973C400.757 56.5749 400.646 57.0208 400.646 57.5352V64H398.947ZM409.328 64L405.461 53.5605H407.258L410.119 62.1543H410.246L413.117 53.5605H414.904L411.047 64H409.328ZM420.822 64.1855C419.826 64.1855 418.97 63.9674 418.254 63.5312C417.538 63.0885 416.988 62.4668 416.604 61.666C416.219 60.8587 416.027 59.9082 416.027 58.8145V58.8047C416.027 57.7305 416.219 56.7865 416.604 55.9727C416.988 55.1589 417.531 54.5241 418.234 54.0684C418.944 53.6061 419.771 53.375 420.715 53.375C421.659 53.375 422.473 53.5964 423.156 54.0391C423.84 54.4753 424.364 55.0872 424.729 55.875C425.093 56.6562 425.275 57.5677 425.275 58.6094V59.2637H416.896V57.9062H424.416L423.576 59.1465V58.4824C423.576 57.6621 423.452 56.9883 423.205 56.4609C422.958 55.9336 422.619 55.5397 422.189 55.2793C421.76 55.0189 421.265 54.8887 420.705 54.8887C420.145 54.8887 419.644 55.0254 419.201 55.2988C418.758 55.5723 418.407 55.9759 418.146 56.5098C417.893 57.0436 417.766 57.7012 417.766 58.4824V59.1465C417.766 59.8887 417.889 60.5234 418.137 61.0508C418.391 61.5716 418.749 61.972 419.211 62.252C419.68 62.5319 420.23 62.6719 420.861 62.6719C421.324 62.6719 421.727 62.6068 422.072 62.4766C422.424 62.3464 422.714 62.1803 422.941 61.9785C423.169 61.7702 423.329 61.5521 423.42 61.3242L423.459 61.2363H425.148L425.129 61.3145C425.044 61.6855 424.885 62.0436 424.65 62.3887C424.416 62.7272 424.117 63.0332 423.752 63.3066C423.387 63.5801 422.958 63.7949 422.463 63.9512C421.968 64.1074 421.421 64.1855 420.822 64.1855ZM427.697 64V53.5605H429.396V55.1133H429.533C429.8 54.5729 430.184 54.1497 430.686 53.8438C431.193 53.5312 431.835 53.375 432.609 53.375C433.775 53.375 434.673 53.7135 435.305 54.3906C435.936 55.0612 436.252 56.0085 436.252 57.2324V64H434.553V57.623C434.553 56.6986 434.354 56.0117 433.957 55.5625C433.56 55.1068 432.948 54.8789 432.121 54.8789C431.568 54.8789 431.086 54.9993 430.676 55.2402C430.272 55.4811 429.956 55.8229 429.729 56.2656C429.507 56.7018 429.396 57.2227 429.396 57.8281V64H427.697ZM442.746 64.1074C441.698 64.1074 440.933 63.8893 440.451 63.4531C439.976 63.0104 439.738 62.2943 439.738 61.3047V54.9668H438.117V53.5605H439.738V50.8359H441.496V53.5605H443.713V54.9668H441.496V60.9727C441.496 61.5716 441.613 61.998 441.848 62.252C442.082 62.4993 442.463 62.623 442.99 62.623C443.127 62.623 443.247 62.6198 443.352 62.6133C443.456 62.6068 443.576 62.597 443.713 62.584V64.0195C443.563 64.0391 443.407 64.0586 443.244 64.0781C443.081 64.0977 442.915 64.1074 442.746 64.1074ZM446.135 64V53.5605H447.834V64H446.135ZM446.994 51.6074C446.682 51.6074 446.411 51.4935 446.184 51.2656C445.956 51.0378 445.842 50.7676 445.842 50.4551C445.842 50.1361 445.956 49.8659 446.184 49.6445C446.411 49.4232 446.682 49.3125 446.994 49.3125C447.313 49.3125 447.583 49.4232 447.805 49.6445C448.026 49.8659 448.137 50.1361 448.137 50.4551C448.137 50.7676 448.026 51.0378 447.805 51.2656C447.583 51.4935 447.313 51.6074 446.994 51.6074ZM455.129 64.1855C454.146 64.1855 453.293 63.9674 452.57 63.5312C451.848 63.0951 451.288 62.4733 450.891 61.666C450.5 60.8587 450.305 59.8984 450.305 58.7852V58.7656C450.305 57.6523 450.5 56.6921 450.891 55.8848C451.288 55.0775 451.848 54.459 452.57 54.0293C453.293 53.5931 454.143 53.375 455.119 53.375C456.109 53.375 456.962 53.5931 457.678 54.0293C458.4 54.459 458.957 55.0775 459.348 55.8848C459.745 56.6921 459.943 57.6523 459.943 58.7656V58.7852C459.943 59.8984 459.745 60.8587 459.348 61.666C458.957 62.4733 458.4 63.0951 457.678 63.5312C456.962 63.9674 456.112 64.1855 455.129 64.1855ZM455.129 62.6816C455.773 62.6816 456.324 62.5286 456.779 62.2227C457.242 61.9102 457.593 61.4642 457.834 60.8848C458.081 60.3053 458.205 59.6055 458.205 58.7852V58.7656C458.205 57.9453 458.081 57.2454 457.834 56.666C457.593 56.0866 457.242 55.6439 456.779 55.3379C456.324 55.0319 455.77 54.8789 455.119 54.8789C454.475 54.8789 453.921 55.0319 453.459 55.3379C453.003 55.6439 452.652 56.0866 452.404 56.666C452.163 57.2454 452.043 57.9453 452.043 58.7656V58.7852C452.043 59.6055 452.163 60.3053 452.404 60.8848C452.652 61.4642 453.003 61.9102 453.459 62.2227C453.921 62.5286 454.478 62.6816 455.129 62.6816ZM462.365 64V53.5605H464.064V55.1133H464.201C464.468 54.5729 464.852 54.1497 465.354 53.8438C465.861 53.5312 466.503 53.375 467.277 53.375C468.443 53.375 469.341 53.7135 469.973 54.3906C470.604 55.0612 470.92 56.0085 470.92 57.2324V64H469.221V57.623C469.221 56.6986 469.022 56.0117 468.625 55.5625C468.228 55.1068 467.616 54.8789 466.789 54.8789C466.236 54.8789 465.754 54.9993 465.344 55.2402C464.94 55.4811 464.624 55.8229 464.396 56.2656C464.175 56.7018 464.064 57.2227 464.064 57.8281V64H462.365Z" fill="white"/>
</svg>
