<svg width="25" height="21" viewBox="0 0 25 21" fill="none" xmlns="http://www.w3.org/2000/svg">
<path fill-rule="evenodd" clip-rule="evenodd" d="M5.30327 7.57576C6.10695 7.57576 6.87772 7.25649 7.44601 6.6882C8.01431 6.11991 8.33357 5.34914 8.33357 4.54545C8.33357 3.74177 8.01431 2.971 7.44601 2.40271C6.87772 1.83441 6.10695 1.51515 5.30327 1.51515C4.49958 1.51515 3.72881 1.83441 3.16052 2.40271C2.59223 2.971 2.27296 3.74177 2.27296 4.54545C2.27296 5.34914 2.59223 6.11991 3.16052 6.6882C3.72881 7.25649 4.49958 7.57576 5.30327 7.57576ZM5.30327 9.09091C5.90018 9.09091 6.49126 8.97334 7.04274 8.74491C7.59422 8.51648 8.0953 8.18166 8.51739 7.75958C8.93947 7.33749 9.27429 6.8364 9.50272 6.28492C9.73115 5.73344 9.84872 5.14237 9.84872 4.54545C9.84872 3.94854 9.73115 3.35746 9.50272 2.80598C9.27429 2.2545 8.93947 1.75342 8.51739 1.33133C8.0953 0.909248 7.59422 0.574433 7.04274 0.346002C6.49126 0.117572 5.90018 -8.89476e-09 5.30327 0C4.09774 1.79638e-08 2.94158 0.478895 2.08915 1.33133C1.23671 2.18377 0.757813 3.33993 0.757812 4.54545C0.757812 5.75098 1.23671 6.90714 2.08915 7.75958C2.94158 8.61201 4.09774 9.09091 5.30327 9.09091Z" fill="#038750"/>
<path fill-rule="evenodd" clip-rule="evenodd" d="M3.56667 7.41832C3.63722 7.48869 3.69319 7.57229 3.73138 7.66433C3.76957 7.75637 3.78923 7.85504 3.78923 7.95469C3.78923 8.05433 3.76957 8.153 3.73138 8.24504C3.69319 8.33708 3.63722 8.42068 3.56667 8.49105L3.05455 9.00166C2.06899 9.98748 1.51528 11.3243 1.51515 12.7183V15.5304C1.51515 15.7314 1.43534 15.9241 1.29326 16.0661C1.15119 16.2082 0.958497 16.288 0.757576 16.288C0.556654 16.288 0.363962 16.2082 0.221889 16.0661C0.0798158 15.9241 0 15.7314 0 15.5304V12.7183C0.000214787 10.9225 0.713615 9.20035 1.98333 7.93044L2.49394 7.41832C2.56431 7.34777 2.64791 7.2918 2.73995 7.25361C2.83199 7.21542 2.93066 7.19576 3.0303 7.19576C3.12995 7.19576 3.22862 7.21542 3.32066 7.25361C3.4127 7.2918 3.49629 7.34777 3.56667 7.41832ZM21.4333 6.96378C21.3628 7.03415 21.3068 7.11775 21.2686 7.20979C21.2304 7.30183 21.2108 7.40049 21.2108 7.50014C21.2108 7.59979 21.2304 7.69846 21.2686 7.7905C21.3068 7.88253 21.3628 7.96613 21.4333 8.0365L21.9455 8.54711C22.931 9.53294 23.4847 10.8698 23.4848 12.2638V15.5304C23.4848 15.7314 23.5647 15.9241 23.7067 16.0661C23.8488 16.2082 24.0415 16.288 24.2424 16.288C24.4433 16.288 24.636 16.2082 24.7781 16.0661C24.9202 15.9241 25 15.7314 25 15.5304V12.2638C24.9998 10.468 24.2864 8.7458 23.0167 7.4759L22.5061 6.96378C22.4357 6.89323 22.3521 6.83725 22.26 6.79906C22.168 6.76087 22.0693 6.74121 21.9697 6.74121C21.87 6.74121 21.7714 6.76087 21.6793 6.79906C21.5873 6.83725 21.5037 6.89323 21.4333 6.96378Z" fill="#038750"/>
<path fill-rule="evenodd" clip-rule="evenodd" d="M18.9396 7.57576C18.1359 7.57576 17.3651 7.25649 16.7968 6.6882C16.2285 6.11991 15.9093 5.34914 15.9093 4.54545C15.9093 3.74177 16.2285 2.971 16.7968 2.40271C17.3651 1.83441 18.1359 1.51515 18.9396 1.51515C19.7433 1.51515 20.514 1.83441 21.0823 2.40271C21.6506 2.971 21.9699 3.74177 21.9699 4.54545C21.9699 5.34914 21.6506 6.11991 21.0823 6.6882C20.514 7.25649 19.7433 7.57576 18.9396 7.57576ZM18.9396 9.09091C18.3427 9.09091 17.7516 8.97334 17.2001 8.74491C16.6486 8.51648 16.1475 8.18166 15.7254 7.75958C15.3034 7.33749 14.9685 6.8364 14.7401 6.28492C14.5117 5.73344 14.3941 5.14237 14.3941 4.54545C14.3941 3.94854 14.5117 3.35746 14.7401 2.80598C14.9685 2.2545 15.3034 1.75342 15.7254 1.33133C16.1475 0.909248 16.6486 0.574433 17.2001 0.346002C17.7516 0.117572 18.3427 -8.89476e-09 18.9396 0C20.1451 1.79638e-08 21.3013 0.478895 22.1537 1.33133C23.0061 2.18377 23.485 3.33993 23.485 4.54545C23.485 5.75098 23.0061 6.90714 22.1537 7.75958C21.3013 8.61201 20.1451 9.09091 18.9396 9.09091ZM12.1214 14.0152C11.1168 14.0152 10.1533 14.4142 9.44295 15.1246C8.73259 15.835 8.33351 16.7984 8.33351 17.803V19.7727C8.33351 19.9736 8.25369 20.1663 8.11162 20.3084C7.96955 20.4505 7.77686 20.5303 7.57594 20.5303C7.37501 20.5303 7.18232 20.4505 7.04025 20.3084C6.89818 20.1663 6.81836 19.9736 6.81836 19.7727V17.803C6.81836 16.3966 7.37707 15.0477 8.37158 14.0532C9.36609 13.0587 10.7149 12.5 12.1214 12.5C13.5278 12.5 14.8767 13.0587 15.8712 14.0532C16.8657 15.0477 17.4244 16.3966 17.4244 17.803V19.7727C17.4244 19.9736 17.3446 20.1663 17.2025 20.3084C17.0605 20.4505 16.8678 20.5303 16.6668 20.5303C16.4659 20.5303 16.2732 20.4505 16.1312 20.3084C15.9891 20.1663 15.9093 19.9736 15.9093 19.7727V17.803C15.9093 17.3056 15.8113 16.813 15.6209 16.3535C15.4306 15.8939 15.1516 15.4763 14.7998 15.1246C14.4481 14.7729 14.0305 14.4938 13.5709 14.3035C13.1114 14.1131 12.6188 14.0152 12.1214 14.0152Z" fill="#038750"/>
<path fill-rule="evenodd" clip-rule="evenodd" d="M12.1216 11.7427C12.9253 11.7427 13.6961 11.4235 14.2644 10.8552C14.8327 10.2869 15.1519 9.51613 15.1519 8.71245C15.1519 7.90876 14.8327 7.13799 14.2644 6.5697C13.6961 6.00141 12.9253 5.68214 12.1216 5.68214C11.3179 5.68214 10.5472 6.00141 9.97888 6.5697C9.41059 7.13799 9.09132 7.90876 9.09132 8.71245C9.09132 9.51613 9.41059 10.2869 9.97888 10.8552C10.5472 11.4235 11.3179 11.7427 12.1216 11.7427ZM12.1216 13.2579C13.3272 13.2579 14.4833 12.779 15.3357 11.9266C16.1882 11.0741 16.6671 9.91798 16.6671 8.71245C16.6671 7.50692 16.1882 6.35076 15.3357 5.49833C14.4833 4.64589 13.3272 4.16699 12.1216 4.16699C10.9161 4.16699 9.75994 4.64589 8.9075 5.49833C8.05507 6.35076 7.57617 7.50692 7.57617 8.71245C7.57617 9.91798 8.05507 11.0741 8.9075 11.9266C9.75994 12.779 10.9161 13.2579 12.1216 13.2579Z" fill="#038750"/>
</svg>
