<svg width="52" height="54" viewBox="0 0 52 54" fill="none" xmlns="http://www.w3.org/2000/svg">
<path d="M34.6429 41.6831C34.426 41.1323 34.0071 40.6929 33.478 40.4611C32.9489 40.2294 32.3526 40.2241 31.8197 40.4466C28.1606 41.9639 24.0775 41.9639 20.4184 40.4466C20.1546 40.3344 19.872 40.2771 19.5868 40.2779C19.3017 40.2788 19.0194 40.3378 18.7563 40.4516C18.4931 40.5654 18.2542 40.7317 18.0531 40.9411C17.852 41.1505 17.6927 41.3988 17.5844 41.6719C17.476 41.945 17.4206 42.2375 17.4215 42.5328C17.4223 42.828 17.4793 43.1202 17.5892 43.3927C17.6991 43.6651 17.8598 43.9125 18.062 44.1206C18.2643 44.3288 18.5041 44.4937 18.7679 44.6059C23.4755 46.5808 28.7408 46.5808 33.4484 44.6059C33.9805 44.3814 34.4049 43.9477 34.6288 43.3999C34.8527 42.8521 34.8577 42.2348 34.6429 41.6831ZM34.6646 12.8377C36.7135 14.2821 38.3901 16.2234 39.5484 18.4923C40.7066 20.7612 41.3114 23.2889 41.3099 25.8552C41.3049 26.5162 41.2687 27.1765 41.2013 27.8337C41.1671 28.129 41.1894 28.4283 41.2669 28.7146C41.3444 29.001 41.4757 29.2687 41.6531 29.5025C41.8306 29.7363 42.0508 29.9317 42.3012 30.0774C42.5516 30.2231 42.8272 30.3164 43.1124 30.3518C43.3976 30.3872 43.6867 30.3642 43.9633 30.2839C44.2399 30.2036 44.4985 30.0678 44.7243 29.8841C44.9502 29.7003 45.1389 29.4724 45.2796 29.2132C45.4204 28.9539 45.5104 28.6686 45.5447 28.3733C45.6377 27.5376 45.674 26.6962 45.6533 25.8552C45.6546 22.5582 44.8778 19.3108 43.3903 16.3955C41.9029 13.4802 39.7499 10.9853 37.1186 9.12802C36.8834 8.95689 36.6178 8.83578 36.3371 8.77173C36.0565 8.70767 35.7663 8.70193 35.4834 8.75485C35.2006 8.80777 34.9307 8.91829 34.6894 9.08001C34.4481 9.24172 34.2403 9.45141 34.0779 9.69692C33.9155 9.94243 33.8017 10.2189 33.7433 10.5102C33.6849 10.8016 33.6829 11.102 33.7375 11.3942C33.792 11.6863 33.9021 11.9644 34.0612 12.2122C34.2204 12.46 34.4255 12.6726 34.6646 12.8377ZM9.12569 30.3293C9.69522 30.2562 10.2136 29.9527 10.5677 29.485C10.9217 29.0174 11.0825 28.4237 11.015 27.8337C10.9839 27.1746 10.9839 26.5143 11.015 25.8552C11.0015 23.299 11.5896 20.7778 12.7286 18.5096C13.8675 16.2415 15.523 14.2947 17.5518 12.8377C17.7909 12.6726 17.996 12.46 18.1551 12.2122C18.3143 11.9644 18.4243 11.6863 18.4789 11.3942C18.5335 11.102 18.5315 10.8016 18.4731 10.5102C18.4146 10.2189 18.3009 9.94243 18.1385 9.69692C17.9761 9.45141 17.7682 9.24172 17.527 9.08001C17.2857 8.91829 17.0158 8.80777 16.7329 8.75485C16.4501 8.70193 16.1599 8.70767 15.8792 8.77173C15.5985 8.83578 15.3329 8.95689 15.0978 9.12802C12.4665 10.9853 10.3135 13.4802 8.82602 16.3955C7.33855 19.3108 6.56172 22.5582 6.56312 25.8552C6.55679 26.6972 6.60759 27.5387 6.71513 28.3733C6.78576 28.9629 7.07895 29.4996 7.53063 29.8662C7.98232 30.2327 8.55578 30.3992 9.12569 30.3293ZM34.0782 21.3587C34.1607 21.3613 34.2427 21.3445 34.318 21.3094C34.3932 21.2744 34.4598 21.222 34.5126 21.1563C34.5611 21.0896 34.5957 21.0132 34.6144 20.932C34.6331 20.8507 34.6354 20.7664 34.6212 20.6842C34.1824 18.6636 33.0929 16.8576 31.5317 15.5627C29.9706 14.2677 28.0304 13.5609 26.03 13.5583C24.0296 13.5557 22.0877 14.2574 20.5234 15.5483C18.959 16.8391 17.8652 18.6423 17.4215 20.6617C17.3851 20.7387 17.3661 20.8233 17.3661 20.909C17.3661 20.9947 17.3851 21.0793 17.4215 21.1563C17.5284 21.2767 17.6764 21.3493 17.8341 21.3587H34.0782ZM20.679 5.6207C20.679 7.11141 21.251 8.54105 22.2692 9.59514C23.2873 10.6492 24.6683 11.2414 26.1082 11.2414C27.5481 11.2414 28.929 10.6492 29.9472 9.59514C30.9654 8.54105 31.5374 7.11141 31.5374 5.6207C31.5374 4.13 30.9654 2.70035 29.9472 1.64627C28.929 0.592179 27.5481 0 26.1082 0C24.6683 0 23.2873 0.592179 22.2692 1.64627C21.251 2.70035 20.679 4.13 20.679 5.6207ZM43.4816 46.0898C41.4556 46.0732 39.486 46.7794 37.9039 48.0897C36.3219 49.4 35.224 51.2344 34.7949 53.2843C34.7789 53.365 34.7804 53.4484 34.799 53.5285C34.8177 53.6087 34.8531 53.6836 34.9029 53.7479C34.9526 53.8123 35.0154 53.8645 35.0868 53.901C35.1582 53.9374 35.2365 53.9571 35.3161 53.9587H51.5168C51.681 53.9505 51.8362 53.8782 51.9511 53.7564C51.9834 53.6782 52 53.5941 52 53.5091C52 53.4241 51.9834 53.34 51.9511 53.2618C51.5258 51.2535 50.4581 49.4528 48.921 48.1511C47.3838 46.8494 45.4672 46.1231 43.4816 46.0898ZM38.1175 38.2208C38.1175 39.7115 38.6895 41.1411 39.7077 42.1952C40.7259 43.2493 42.1068 43.8415 43.5467 43.8415C44.9866 43.8415 46.3676 43.2493 47.3857 42.1952C48.4039 41.1411 48.9759 39.7115 48.9759 38.2208C48.9759 36.7301 48.4039 35.3004 47.3857 34.2463C46.3676 33.1923 44.9866 32.6001 43.5467 32.6001C42.1068 32.6001 40.7259 33.1923 39.7077 34.2463C38.6895 35.3004 38.1175 36.7301 38.1175 38.2208ZM8.73479 46.0898C6.70884 46.0732 4.73919 46.7794 3.15714 48.0897C1.57509 49.4 0.477183 51.2344 0.0480917 53.2843C0.0163794 53.3586 0 53.439 0 53.5203C0 53.6016 0.0163794 53.682 0.0480917 53.7564C0.118178 53.8619 0.220965 53.9395 0.339441 53.9763C0.457918 54.0131 0.584979 54.0069 0.699594 53.9587H16.8786C16.9623 53.9613 17.0454 53.9438 17.1215 53.9075C17.1976 53.8712 17.2645 53.8173 17.3171 53.7498C17.3697 53.6823 17.4065 53.6031 17.4246 53.5184C17.4427 53.4338 17.4416 53.3459 17.4215 53.2618C16.9844 51.218 15.8836 49.3912 14.3028 48.086C12.722 46.7809 10.7567 46.0763 8.73479 46.0898ZM3.45762 38.2208C3.45762 39.7115 4.02962 41.1411 5.04779 42.1952C6.06596 43.2493 7.4469 43.8415 8.88681 43.8415C10.3267 43.8415 11.7077 43.2493 12.7258 42.1952C13.744 41.1411 14.316 39.7115 14.316 38.2208C14.316 36.7301 13.744 35.3004 12.7258 34.2463C11.7077 33.1923 10.3267 32.6001 8.88681 32.6001C7.4469 32.6001 6.06596 33.1923 5.04779 34.2463C4.02962 35.3004 3.45762 36.7301 3.45762 38.2208Z" fill="#AED3FF"/>
</svg>
