<svg width="52" height="52" viewBox="0 0 52 52" fill="none" xmlns="http://www.w3.org/2000/svg">
<rect width="52" height="52" fill="white" fill-opacity="0.2"/>
<path d="M39.0002 22.1C39.0002 25.8293 37.7896 29.2743 35.7502 32.0693L46.0364 42.3637C47.0521 43.3793 47.0521 45.0287 46.0364 46.0443C45.0208 47.06 43.3714 47.06 42.3558 46.0443L32.0696 35.75C29.2746 37.7893 25.8296 38.9999 22.1002 38.9999C12.7646 38.9999 5.2002 31.4356 5.2002 22.1C5.2002 12.7643 12.7646 5.19995 22.1002 5.19995C31.4358 5.19995 39.0002 12.7643 39.0002 22.1ZM22.1002 33.8C28.5596 33.8 33.8002 28.5593 33.8002 22.1C33.8002 15.6406 28.5596 10.4 22.1002 10.4C15.6408 10.4 10.4002 15.6406 10.4002 22.1C10.4002 28.5593 15.6408 33.8 22.1002 33.8Z" fill="#AED3FF"/>
</svg>
