<svg width="52" height="41" viewBox="0 0 52 41" fill="none" xmlns="http://www.w3.org/2000/svg">
<g clip-path="url(#clip0_808_1683)">
<path d="M5.19982 5.125C5.19982 3.76577 5.74767 2.4622 6.72286 1.50108C7.69805 0.539954 9.02069 0 10.3998 0C11.7789 0 13.1016 0.539954 14.0768 1.50108C15.052 2.4622 15.5998 3.76577 15.5998 5.125C15.5998 6.48423 15.052 7.7878 14.0768 8.74892C13.1016 9.71005 11.7789 10.25 10.3998 10.25C9.02069 10.25 7.69805 9.71005 6.72286 8.74892C5.74767 7.7878 5.19982 6.48423 5.19982 5.125ZM2.10419 18.6902C2.38044 15.367 5.19982 12.8125 8.57982 12.8125H12.2198C14.4136 12.8125 16.3636 13.8855 17.5417 15.5432C17.3223 15.6953 17.1192 15.8635 16.9323 16.0477L11.7323 21.1727C9.95294 22.9264 9.95294 25.7611 11.7323 27.5148L15.5998 31.3266V37.1562C15.5998 39.2783 13.8529 41 11.6998 41H9.09982C6.94669 41 5.19982 39.2783 5.19982 37.1562V27.8912C3.04669 27.1305 1.56794 25.0244 1.77107 22.6381L2.10419 18.6902ZM36.3998 5.125C36.3998 3.76577 36.9477 2.4622 37.9229 1.50108C38.8981 0.539954 40.2207 0 41.5998 0C42.9789 0 44.3016 0.539954 45.2768 1.50108C46.252 2.4622 46.7998 3.76577 46.7998 5.125C46.7998 6.48423 46.252 7.7878 45.2768 8.74892C44.3016 9.71005 42.9789 10.25 41.5998 10.25C40.2207 10.25 38.8981 9.71005 37.9229 8.74892C36.9477 7.7878 36.3998 6.48423 36.3998 5.125ZM35.0673 16.0477C34.8804 15.8635 34.6692 15.6953 34.4579 15.5432C35.6361 13.8855 37.5942 12.8125 39.7798 12.8125H43.4198C46.7998 12.8125 49.6192 15.367 49.8954 18.6902L50.2286 22.6381C50.4317 25.0244 48.9529 27.1305 46.7998 27.8912V37.1562C46.7998 39.2783 45.0529 41 42.8998 41H40.2998C38.1467 41 36.3998 39.2783 36.3998 37.1562V31.3266L40.2673 27.5148C42.0467 25.7611 42.0467 22.9264 40.2673 21.1727L35.0673 16.0477ZM22.0998 19.2188V21.7812H29.8998V19.2188C29.8998 18.442 30.3711 17.7373 31.1023 17.441C31.8336 17.1447 32.6704 17.3049 33.2311 17.8574L38.4311 22.9824C39.1948 23.7352 39.1948 24.9523 38.4311 25.6971L33.2311 30.8221C32.6704 31.3746 31.8336 31.5348 31.1023 31.2385C30.3711 30.9422 29.8998 30.2375 29.8998 29.4607V26.8982H22.0998V29.4607C22.0998 30.2375 21.6286 30.9422 20.8973 31.2385C20.1661 31.5348 19.3292 31.3746 18.7686 30.8221L13.5686 25.6971C12.8048 24.9443 12.8048 23.7271 13.5686 22.9824L18.7686 17.8574C19.3292 17.3049 20.1661 17.1447 20.8973 17.441C21.6286 17.7373 22.0998 18.442 22.0998 19.2188Z" fill="#AED3FF"/>
</g>
<defs>
<clipPath id="clip0_808_1683">
<rect width="52" height="41" fill="white"/>
</clipPath>
</defs>
</svg>
