<svg width="43" height="43" viewBox="0 0 43 43" fill="none" xmlns="http://www.w3.org/2000/svg">
<path d="M31.5133 40.2455C33.4005 40.1906 35.2227 39.5436 36.722 38.3961C38.2213 37.2485 39.3217 35.6607 39.8675 33.8532C40.115 33.0297 40.25 32.1545 40.25 31.25V11C40.25 8.61305 39.3018 6.32387 37.614 4.63604C35.9261 2.94821 33.6369 2 31.25 2H11C8.61305 2 6.32387 2.94821 4.63604 4.63604C2.94821 6.32387 2 8.61305 2 11V31.4075C2.0413 33.767 3.00771 36.016 4.69108 37.6699C6.37445 39.3238 8.64009 40.2504 11 40.25H31.25L31.5133 40.2455ZM39.8675 33.8532L39.6695 33.6192L34.121 26.9232C33.7 26.4153 33.1725 26.0062 32.5758 25.7248C31.9791 25.4434 31.3278 25.2966 30.6681 25.2949C30.0084 25.2932 29.3563 25.4366 28.7582 25.7148C28.16 25.9931 27.6304 26.3995 27.2068 26.9053L24.2547 30.4288L23.7733 31.016M2.00225 31.4097L2.4005 30.9575L9.614 22.3468C10.0364 21.8427 10.5641 21.4373 11.16 21.1591C11.756 20.881 12.4056 20.7369 13.0632 20.7369C13.7209 20.7369 14.3705 20.881 14.9665 21.1591C15.5624 21.4373 16.0901 21.8427 16.5125 22.3468L23.7733 31.016L31.304 40.007L31.5133 40.2455" stroke="#AED3FF" stroke-width="4" stroke-linecap="round" stroke-linejoin="round"/>
<path d="M28.0791 17.5452C29.9431 17.5452 31.4541 16.0341 31.4541 14.1702C31.4541 12.3062 29.9431 10.7952 28.0791 10.7952C26.2151 10.7952 24.7041 12.3062 24.7041 14.1702C24.7041 16.0341 26.2151 17.5452 28.0791 17.5452Z" fill="#AED3FF"/>
</svg>
